<svg width="24" height="24" viewBox="0 0 24 24" fill="none" xmlns="http://www.w3.org/2000/svg">
<path d="M21.4327 4.86126L15.4327 20.3613C15.3734 20.5148 15.277 20.6513 15.1523 20.7586C15.0275 20.866 14.8782 20.9409 14.7175 20.9767C14.5569 21.0125 14.3899 21.0081 14.2314 20.9639C14.0728 20.9197 13.9276 20.837 13.8087 20.7233L10.4267 17.4883L8.3527 19.5613C8.28272 19.631 8.19364 19.6785 8.0967 19.6977C7.99976 19.7168 7.89932 19.7068 7.80805 19.669C7.71678 19.6311 7.63879 19.567 7.58391 19.4848C7.52903 19.4027 7.49973 19.3061 7.4997 19.2073V14.6883L2.3087 9.72326C2.17991 9.60003 2.08639 9.44463 2.03783 9.27312C1.98927 9.10162 1.98743 8.92025 2.0325 8.7478C2.07758 8.57534 2.16793 8.41807 2.29421 8.29227C2.42048 8.16646 2.57809 8.07669 2.7507 8.03226L20.2507 3.53226C20.4286 3.48668 20.6157 3.49098 20.7913 3.54469C20.9669 3.59839 21.1244 3.69943 21.2464 3.83672C21.3684 3.974 21.4502 4.14224 21.4829 4.32296C21.5156 4.50369 21.4979 4.68993 21.4317 4.86126H21.4327ZM18.9997 6.00126L8.0317 13.1523L9.76671 14.8123L18.9997 6.00126Z" fill="black"/>
</svg>
