<svg width="24" height="24" viewBox="0 0 24 24" fill="none" xmlns="http://www.w3.org/2000/svg">
<path d="M10.89 2.53761C11.1941 2.33464 11.5481 2.21892 11.9134 2.20306C12.2787 2.18719 12.6414 2.27177 12.962 2.44761L13.109 2.53761L21.109 7.87061C21.3596 8.03763 21.5693 8.2591 21.7224 8.51848C21.8754 8.77787 21.968 9.06847 21.993 9.36861L22 9.53461V18.9996C22.0002 19.5042 21.8096 19.9902 21.4665 20.3602C21.1234 20.7301 20.6532 20.9568 20.15 20.9946L20 20.9996H4C3.49542 20.9998 3.00943 20.8092 2.63945 20.4661C2.26947 20.123 2.04284 19.6528 2.005 19.1496L2 18.9996V9.53461C2.00001 9.23352 2.06799 8.9363 2.1989 8.66515C2.3298 8.394 2.52024 8.1559 2.756 7.96861L2.891 7.87061L10.89 2.53761ZM20 10.8676L12.832 15.6476C12.5856 15.8119 12.2961 15.8995 12 15.8995C11.7039 15.8995 11.4144 15.8119 11.168 15.6476L4 10.8666V18.9996H20V10.8676ZM12 4.20161L4.803 8.99961L12 13.7976L19.197 8.99961L12 4.20161Z" fill="black"/>
</svg>
