<svg width="170" height="54" viewBox="0 0 170 54" fill="none" stroke-width="2" xmlns="http://www.w3.org/2000/svg">
    <path d="M5.21191 52.7402L5.33789 52.4258L22.2998 10.0479L38.9834 52.4238L39.1074 52.7402H43.9932L43.7148 52.0527L24.4912 4.57324L24.7402 3.95312L24.333 4.18066L22.9697 0.8125L22.8438 0.5H21.8926L21.7656 0.8125L1.02051 52.0527L0.742188 52.7402H5.21191Z" fill="white" stroke="white"/>
    <path d="M54.1787 52.7412L54.3262 52.5049L67.7969 30.792L81.9014 52.5137L82.0498 52.7412H87.5312L87.0283 51.9688L70.9131 27.2041L86.1309 3.41406L86.623 2.64453H81.4219L81.2744 2.87988L68.4561 23.4277L55.0801 2.87109L54.9326 2.64453H49.5225L50.0234 3.41602L65.3232 26.9824L49.3311 51.9717L48.8379 52.7412H54.1787Z" fill="white" stroke="white"/>
    <path d="M111.726 52.7412V6.89453H126.179V2.64453H93.0234V6.89453H107.338V52.7412H111.726Z" fill="white" stroke="white"/>
    <path d="M169.119 52.7412V48.4912H141.252V29.6445H165.454V25.3945H141.252V6.89453H168.151V2.64453H136.863V52.7412H169.119Z" fill="white" stroke="white"/>
</svg>
