<svg width="140" height="40" viewBox="0 0 140 40" fill="none" xmlns="http://www.w3.org/2000/svg">
<path d="M40 20L22.7283 22.7261L19.9975 40L17.2717 22.7261L0 20L17.2717 17.2689L19.9975 0L22.7283 17.2689L40 20Z" fill="#323643"/>
<path d="M82.8151 2.5H78.1192L74.4501 9.14022L70.2019 2.5H65.2676L71.438 12.1801L65 22.5H69.7981L73.618 15.6019L78.0122 22.5H83L76.562 12.443L82.8151 2.5Z" fill="#323643"/>
<path d="M53.8925 2.5L45 22.5H48.8327L53.7996 10.854L58.5024 22.5H63L54.1075 2.5H53.8925Z" fill="#323643"/>
<path d="M85 6.30362H89.8521V22.5H93.947V6.30362H99V2.5H85V6.30362Z" fill="#323643"/>
<path fill-rule="evenodd" clip-rule="evenodd" d="M128.152 15.23L133 22.5H128.224L123.829 16.1375H121.101V22.5H117V2.5H123.303C124.603 2.5 125.762 2.65704 126.78 2.97111C127.797 3.28849 128.65 3.74143 129.338 4.3299C130.026 4.92169 130.548 5.62918 130.906 6.45239C131.263 7.2756 131.442 8.2046 131.442 9.2394C131.442 10.0527 131.315 10.8676 131.061 11.6842C130.806 12.4975 130.392 13.2397 129.818 13.9109C129.374 14.4299 128.819 14.8696 128.152 15.23ZM127.208 9.37329C127.204 9.15509 127.17 8.87904 127.104 8.54513C127.039 8.20791 126.903 7.86738 126.697 7.52356C126.491 7.17973 126.174 6.89044 125.748 6.65571C125.325 6.42098 124.756 6.30362 124.041 6.30362H121.101V12.3339H124.01C124.632 12.3339 125.151 12.2347 125.567 12.0363C125.98 11.838 126.305 11.585 126.542 11.2776C126.776 10.9668 126.945 10.6445 127.048 10.3106C127.151 9.97665 127.204 9.66423 127.208 9.37329Z" fill="#323643"/>
<path d="M135 2.5V22.5H139V2.5H135Z" fill="#323643"/>
<path d="M104.932 14.3721V10.5684V6.30362H114.624V2.5H101V22.5H115V18.6964H104.932V14.3721Z" fill="#323643"/>
<path d="M113.512 14.372V10.5684H107V14.372H113.512Z" fill="#323643"/>
<path d="M45.944 34.5V29.188H44.128V28.612H48.4V29.188H46.584V34.5H45.944ZM51.2362 34.548C50.8575 34.548 50.5242 34.5133 50.2362 34.444C49.9535 34.3693 49.7162 34.2307 49.5242 34.028C49.3375 33.8253 49.1962 33.5267 49.1002 33.132C49.0095 32.7373 48.9642 32.22 48.9642 31.58C48.9642 30.94 49.0122 30.4227 49.1082 30.028C49.2042 29.628 49.3482 29.324 49.5402 29.116C49.7322 28.9027 49.9695 28.7587 50.2522 28.684C50.5349 28.604 50.8629 28.564 51.2362 28.564C51.6202 28.564 51.9535 28.604 52.2362 28.684C52.5242 28.7587 52.7615 28.9027 52.9482 29.116C53.1402 29.324 53.2815 29.628 53.3722 30.028C53.4629 30.4227 53.5082 30.94 53.5082 31.58C53.5082 32.22 53.4602 32.7373 53.3642 33.132C53.2735 33.5267 53.1322 33.8253 52.9402 34.028C52.7535 34.2307 52.5189 34.3693 52.2362 34.444C51.9535 34.5133 51.6202 34.548 51.2362 34.548ZM51.2362 33.98C51.5349 33.98 51.7882 33.9507 51.9962 33.892C52.2042 33.8333 52.3722 33.7213 52.5002 33.556C52.6335 33.3853 52.7295 33.1427 52.7882 32.828C52.8469 32.5133 52.8762 32.0973 52.8762 31.58C52.8762 31.0413 52.8442 30.6093 52.7802 30.284C52.7215 29.9587 52.6255 29.7133 52.4922 29.548C52.3642 29.3827 52.1962 29.2733 51.9882 29.22C51.7855 29.1667 51.5349 29.14 51.2362 29.14C50.9589 29.14 50.7162 29.1667 50.5082 29.22C50.3055 29.2733 50.1349 29.3827 49.9962 29.548C49.8629 29.7133 49.7615 29.9587 49.6922 30.284C49.6282 30.6093 49.5962 31.0413 49.5962 31.58C49.5962 32.0973 49.6229 32.5133 49.6762 32.828C49.7349 33.1427 49.8282 33.3853 49.9562 33.556C50.0842 33.7213 50.2522 33.8333 50.4602 33.892C50.6735 33.9507 50.9322 33.98 51.2362 33.98ZM54.5926 34.5V28.612H56.9206C57.2779 28.612 57.5792 28.6787 57.8246 28.812C58.0699 28.94 58.2672 29.1293 58.4166 29.38C58.5712 29.6307 58.6832 29.94 58.7526 30.308C58.8219 30.6707 58.8566 31.0867 58.8566 31.556C58.8566 32.1747 58.7846 32.7027 58.6406 33.14C58.4966 33.5773 58.2806 33.9133 57.9926 34.148C57.7046 34.3827 57.3472 34.5 56.9206 34.5H54.5926ZM55.2326 33.932H56.8726C57.1872 33.932 57.4432 33.836 57.6406 33.644C57.8379 33.4467 57.9846 33.172 58.0806 32.82C58.1766 32.4627 58.2246 32.0413 58.2246 31.556C58.2246 31.1187 58.1979 30.7507 58.1446 30.452C58.0912 30.148 58.0086 29.9027 57.8966 29.716C57.7899 29.5293 57.6512 29.396 57.4806 29.316C57.3099 29.2307 57.1072 29.188 56.8726 29.188H55.2326V33.932ZM62.0721 34.548C61.6935 34.548 61.3601 34.5133 61.0721 34.444C60.7895 34.3693 60.5521 34.2307 60.3601 34.028C60.1735 33.8253 60.0321 33.5267 59.9361 33.132C59.8455 32.7373 59.8001 32.22 59.8001 31.58C59.8001 30.94 59.8481 30.4227 59.9441 30.028C60.0401 29.628 60.1841 29.324 60.3761 29.116C60.5681 28.9027 60.8055 28.7587 61.0881 28.684C61.3708 28.604 61.6988 28.564 62.0721 28.564C62.4561 28.564 62.7895 28.604 63.0721 28.684C63.3601 28.7587 63.5975 28.9027 63.7841 29.116C63.9761 29.324 64.1175 29.628 64.2081 30.028C64.2988 30.4227 64.3441 30.94 64.3441 31.58C64.3441 32.22 64.2961 32.7373 64.2001 33.132C64.1095 33.5267 63.9681 33.8253 63.7761 34.028C63.5895 34.2307 63.3548 34.3693 63.0721 34.444C62.7895 34.5133 62.4561 34.548 62.0721 34.548ZM62.0721 33.98C62.3708 33.98 62.6241 33.9507 62.8321 33.892C63.0401 33.8333 63.2081 33.7213 63.3361 33.556C63.4695 33.3853 63.5655 33.1427 63.6241 32.828C63.6828 32.5133 63.7121 32.0973 63.7121 31.58C63.7121 31.0413 63.6801 30.6093 63.6161 30.284C63.5575 29.9587 63.4615 29.7133 63.3281 29.548C63.2001 29.3827 63.0321 29.2733 62.8241 29.22C62.6215 29.1667 62.3708 29.14 62.0721 29.14C61.7948 29.14 61.5521 29.1667 61.3441 29.22C61.1415 29.2733 60.9708 29.3827 60.8321 29.548C60.6988 29.7133 60.5975 29.9587 60.5281 30.284C60.4641 30.6093 60.4321 31.0413 60.4321 31.58C60.4321 32.0973 60.4588 32.5133 60.5121 32.828C60.5708 33.1427 60.6641 33.3853 60.7921 33.556C60.9201 33.7213 61.0881 33.8333 61.2961 33.892C61.5095 33.9507 61.7681 33.98 62.0721 33.98ZM68.8328 34.532C68.7048 34.532 68.5688 34.5213 68.4248 34.5C68.2808 34.4733 68.1448 34.4227 68.0168 34.348C67.8888 34.2733 67.7848 34.1613 67.7048 34.012C67.6248 33.8573 67.5848 33.6493 67.5848 33.388V29.796C67.5848 29.5667 67.6168 29.3773 67.6808 29.228C67.7501 29.0733 67.8408 28.9533 67.9528 28.868C68.0648 28.7773 68.1901 28.7133 68.3288 28.676C68.4674 28.6333 68.6061 28.612 68.7448 28.612C69.0754 28.6173 69.3821 28.6253 69.6648 28.636C69.9474 28.6413 70.2141 28.6493 70.4648 28.66C70.7208 28.6653 70.9688 28.6733 71.2088 28.684V29.196H68.9048C68.6968 29.196 68.5314 29.252 68.4088 29.364C68.2861 29.476 68.2248 29.6547 68.2248 29.9V31.292L70.8568 31.332V31.82L68.2248 31.86V33.244C68.2248 33.4413 68.2568 33.5907 68.3208 33.692C68.3901 33.7933 68.4808 33.86 68.5928 33.892C68.7048 33.924 68.8194 33.94 68.9368 33.94H71.2088V34.452C70.9634 34.468 70.7048 34.4813 70.4328 34.492C70.1661 34.5027 69.8968 34.5107 69.6248 34.516C69.3581 34.5213 69.0941 34.5267 68.8328 34.532ZM72.3921 34.5V28.612H72.9121L75.9841 33.404V28.612H76.6161V34.5H76.0961L73.0241 29.708V34.5H72.3921ZM81.9853 34.548C81.6546 34.548 81.3559 34.5187 81.0893 34.46C80.8226 34.4013 80.5933 34.3027 80.4013 34.164C80.2146 34.02 80.0706 33.828 79.9693 33.588C79.8679 33.3427 79.8173 33.0387 79.8173 32.676V28.612H80.4572V32.676C80.4572 33.012 80.5159 33.2733 80.6333 33.46C80.7559 33.6467 80.9319 33.78 81.1613 33.86C81.3906 33.9347 81.6653 33.972 81.9853 33.972C82.3053 33.972 82.5799 33.9347 82.8093 33.86C83.0386 33.78 83.2119 33.6467 83.3293 33.46C83.4519 33.2733 83.5133 33.012 83.5133 32.676V28.612H84.1533V32.676C84.1533 33.0387 84.1026 33.3427 84.0013 33.588C83.8999 33.828 83.7533 34.02 83.5613 34.164C83.3746 34.3027 83.1479 34.4013 82.8813 34.46C82.6146 34.5187 82.3159 34.548 81.9853 34.548ZM85.4155 34.5V28.612H85.9355L89.0075 33.404V28.612H89.6395V34.5H89.1195L86.0475 29.708V34.5H85.4155ZM94.5927 34.548C94.4754 34.548 94.334 34.5427 94.1687 34.532C94.0087 34.5267 93.8434 34.516 93.6727 34.5C93.502 34.4893 93.3394 34.476 93.1847 34.46C93.0354 34.444 92.91 34.4253 92.8087 34.404V33.916C92.942 33.9267 93.1047 33.9373 93.2967 33.948C93.4887 33.9587 93.694 33.9667 93.9127 33.972C94.1367 33.9773 94.3554 33.98 94.5687 33.98C94.8087 33.98 95.0247 33.956 95.2167 33.908C95.4087 33.86 95.5607 33.772 95.6727 33.644C95.79 33.516 95.8487 33.332 95.8487 33.092V32.692C95.8487 32.42 95.7794 32.2147 95.6407 32.076C95.502 31.932 95.278 31.86 94.9687 31.86H94.3367C93.8514 31.86 93.47 31.7533 93.1927 31.54C92.9207 31.3267 92.7847 30.9587 92.7847 30.436V30.1C92.7847 29.5453 92.934 29.1507 93.2327 28.916C93.5314 28.6813 93.9527 28.564 94.4967 28.564C94.6674 28.564 94.8594 28.5747 95.0727 28.596C95.286 28.612 95.4914 28.6333 95.6887 28.66C95.8914 28.6813 96.0594 28.7053 96.1927 28.732V29.22C95.958 29.1987 95.6914 29.18 95.3927 29.164C95.0994 29.148 94.822 29.14 94.5607 29.14C94.3207 29.14 94.1127 29.1693 93.9367 29.228C93.7607 29.2813 93.6247 29.38 93.5287 29.524C93.438 29.6627 93.3927 29.8627 93.3927 30.124V30.396C93.3927 30.7213 93.478 30.9453 93.6487 31.068C93.8194 31.1907 94.0567 31.252 94.3607 31.252H95.0407C95.366 31.252 95.6327 31.3107 95.8407 31.428C96.0487 31.5453 96.2034 31.708 96.3047 31.916C96.406 32.1187 96.4567 32.3533 96.4567 32.62V33.076C96.4567 33.4707 96.3714 33.7747 96.2007 33.988C96.0354 34.2013 95.8114 34.348 95.5287 34.428C95.2514 34.508 94.9394 34.548 94.5927 34.548ZM99.6737 34.548C99.295 34.548 98.9617 34.5133 98.6737 34.444C98.391 34.3693 98.1537 34.2307 97.9617 34.028C97.775 33.8253 97.6337 33.5267 97.5377 33.132C97.447 32.7373 97.4017 32.22 97.4017 31.58C97.4017 30.94 97.4497 30.4227 97.5457 30.028C97.6417 29.628 97.7857 29.324 97.9777 29.116C98.1697 28.9027 98.407 28.7587 98.6897 28.684C98.9724 28.604 99.3004 28.564 99.6737 28.564C100.058 28.564 100.391 28.604 100.674 28.684C100.962 28.7587 101.199 28.9027 101.386 29.116C101.578 29.324 101.719 29.628 101.81 30.028C101.9 30.4227 101.946 30.94 101.946 31.58C101.946 32.22 101.898 32.7373 101.802 33.132C101.711 33.5267 101.57 33.8253 101.378 34.028C101.191 34.2307 100.956 34.3693 100.674 34.444C100.391 34.5133 100.058 34.548 99.6737 34.548ZM99.6737 33.98C99.9724 33.98 100.226 33.9507 100.434 33.892C100.642 33.8333 100.81 33.7213 100.938 33.556C101.071 33.3853 101.167 33.1427 101.226 32.828C101.284 32.5133 101.314 32.0973 101.314 31.58C101.314 31.0413 101.282 30.6093 101.218 30.284C101.159 29.9587 101.063 29.7133 100.93 29.548C100.802 29.3827 100.634 29.2733 100.426 29.22C100.223 29.1667 99.9724 29.14 99.6737 29.14C99.3964 29.14 99.1537 29.1667 98.9457 29.22C98.743 29.2733 98.5724 29.3827 98.4337 29.548C98.3004 29.7133 98.199 29.9587 98.1297 30.284C98.0657 30.6093 98.0337 31.0413 98.0337 31.58C98.0337 32.0973 98.0604 32.5133 98.1137 32.828C98.1724 33.1427 98.2657 33.3853 98.3937 33.556C98.5217 33.7213 98.6897 33.8333 98.8977 33.892C99.111 33.9507 99.3697 33.98 99.6737 33.98ZM104.214 34.5C103.985 34.5 103.779 34.4653 103.598 34.396C103.422 34.3213 103.283 34.1987 103.182 34.028C103.081 33.852 103.03 33.6147 103.03 33.316V28.612H103.67V33.228C103.67 33.42 103.702 33.5667 103.766 33.668C103.83 33.764 103.915 33.8307 104.022 33.868C104.129 33.9 104.238 33.916 104.35 33.916H106.462V34.5H104.214ZM109.377 34.548C108.998 34.548 108.665 34.5133 108.377 34.444C108.094 34.3693 107.857 34.2307 107.665 34.028C107.478 33.8253 107.337 33.5267 107.241 33.132C107.15 32.7373 107.105 32.22 107.105 31.58C107.105 30.94 107.153 30.4227 107.249 30.028C107.345 29.628 107.489 29.324 107.681 29.116C107.873 28.9027 108.11 28.7587 108.393 28.684C108.675 28.604 109.003 28.564 109.377 28.564C109.761 28.564 110.094 28.604 110.377 28.684C110.665 28.7587 110.902 28.9027 111.089 29.116C111.281 29.324 111.422 29.628 111.513 30.028C111.603 30.4227 111.649 30.94 111.649 31.58C111.649 32.22 111.601 32.7373 111.505 33.132C111.414 33.5267 111.273 33.8253 111.081 34.028C110.894 34.2307 110.659 34.3693 110.377 34.444C110.094 34.5133 109.761 34.548 109.377 34.548ZM109.377 33.98C109.675 33.98 109.929 33.9507 110.137 33.892C110.345 33.8333 110.513 33.7213 110.641 33.556C110.774 33.3853 110.87 33.1427 110.929 32.828C110.987 32.5133 111.017 32.0973 111.017 31.58C111.017 31.0413 110.985 30.6093 110.921 30.284C110.862 29.9587 110.766 29.7133 110.633 29.548C110.505 29.3827 110.337 29.2733 110.129 29.22C109.926 29.1667 109.675 29.14 109.377 29.14C109.099 29.14 108.857 29.1667 108.649 29.22C108.446 29.2733 108.275 29.3827 108.137 29.548C108.003 29.7133 107.902 29.9587 107.833 30.284C107.769 30.6093 107.737 31.0413 107.737 31.58C107.737 32.0973 107.763 32.5133 107.817 32.828C107.875 33.1427 107.969 33.3853 108.097 33.556C108.225 33.7213 108.393 33.8333 108.601 33.892C108.814 33.9507 109.073 33.98 109.377 33.98ZM116.073 34.5C115.844 34.5 115.639 34.4653 115.457 34.396C115.281 34.3213 115.143 34.1987 115.041 34.028C114.94 33.852 114.889 33.6147 114.889 33.316V28.612H115.529V33.228C115.529 33.42 115.561 33.5667 115.625 33.668C115.689 33.764 115.775 33.8307 115.881 33.868C115.988 33.9 116.097 33.916 116.209 33.916H118.321V34.5H116.073ZM121.118 34.548C120.787 34.548 120.489 34.5187 120.222 34.46C119.955 34.4013 119.726 34.3027 119.534 34.164C119.347 34.02 119.203 33.828 119.102 33.588C119.001 33.3427 118.95 33.0387 118.95 32.676V28.612H119.59V32.676C119.59 33.012 119.649 33.2733 119.766 33.46C119.889 33.6467 120.065 33.78 120.294 33.86C120.523 33.9347 120.798 33.972 121.118 33.972C121.438 33.972 121.713 33.9347 121.942 33.86C122.171 33.78 122.345 33.6467 122.462 33.46C122.585 33.2733 122.646 33.012 122.646 32.676V28.612H123.286V32.676C123.286 33.0387 123.235 33.3427 123.134 33.588C123.033 33.828 122.886 34.02 122.694 34.164C122.507 34.3027 122.281 34.4013 122.014 34.46C121.747 34.5187 121.449 34.548 121.118 34.548ZM126.18 34.54C125.807 34.5453 125.498 34.4893 125.252 34.372C125.007 34.2493 124.815 34.0653 124.676 33.82C124.538 33.5747 124.439 33.2627 124.38 32.884C124.322 32.5053 124.292 32.0573 124.292 31.54C124.292 31.044 124.322 30.6093 124.38 30.236C124.444 29.8627 124.551 29.5533 124.7 29.308C124.85 29.0573 125.052 28.8707 125.308 28.748C125.57 28.6253 125.895 28.564 126.284 28.564C126.492 28.564 126.708 28.572 126.932 28.588C127.156 28.604 127.375 28.628 127.588 28.66C127.802 28.692 127.999 28.7293 128.18 28.772V29.252C128.074 29.236 127.924 29.22 127.732 29.204C127.54 29.1827 127.324 29.1667 127.084 29.156C126.85 29.1453 126.615 29.14 126.38 29.14C125.996 29.14 125.698 29.22 125.484 29.38C125.276 29.5347 125.13 29.7907 125.044 30.148C124.964 30.5 124.924 30.9667 124.924 31.548C124.924 32.0173 124.946 32.4067 124.988 32.716C125.036 33.0253 125.114 33.2707 125.22 33.452C125.327 33.6333 125.471 33.764 125.652 33.844C125.839 33.9187 126.074 33.956 126.356 33.956C126.607 33.956 126.866 33.924 127.132 33.86C127.399 33.796 127.626 33.7267 127.812 33.652V31.916H126.388V31.444C126.49 31.428 126.612 31.4147 126.756 31.404C126.9 31.3933 127.052 31.3853 127.212 31.38C127.378 31.3693 127.543 31.364 127.708 31.364C127.847 31.364 127.978 31.3667 128.1 31.372C128.223 31.372 128.33 31.38 128.42 31.396V34.5H127.956L127.86 34.084C127.668 34.18 127.423 34.2787 127.124 34.38C126.831 34.4813 126.516 34.5347 126.18 34.54ZM129.319 34.5L131.335 28.612H132.151L134.167 34.5H133.511L132.919 32.82H130.551L129.975 34.5H129.319ZM130.711 32.244H132.759L131.743 29.172L130.711 32.244ZM135.054 34.5V28.612H137.374C137.566 28.612 137.752 28.636 137.934 28.684C138.115 28.7267 138.278 28.8093 138.422 28.932C138.571 29.0547 138.688 29.2307 138.774 29.46C138.859 29.684 138.902 29.98 138.902 30.348C138.902 30.668 138.867 30.932 138.798 31.14C138.728 31.3427 138.638 31.5053 138.526 31.628C138.414 31.7453 138.291 31.8333 138.158 31.892C138.03 31.9453 137.904 31.9827 137.782 32.004L138.99 34.5H138.342L137.198 32.092C137.112 32.092 137.006 32.0893 136.878 32.084C136.75 32.0787 136.614 32.076 136.47 32.076C136.326 32.076 136.184 32.0733 136.046 32.068C135.912 32.0627 135.795 32.06 135.694 32.06V34.5H135.054ZM135.694 31.572H137.278C137.416 31.572 137.544 31.556 137.662 31.524C137.779 31.492 137.883 31.4333 137.974 31.348C138.064 31.2573 138.136 31.132 138.19 30.972C138.243 30.812 138.27 30.604 138.27 30.348C138.27 30.1027 138.243 29.9053 138.19 29.756C138.136 29.6013 138.062 29.484 137.966 29.404C137.875 29.3187 137.771 29.2627 137.654 29.236C137.536 29.204 137.411 29.188 137.278 29.188H135.694V31.572Z" fill="#323643"/>
</svg>
