<svg width="188" height="40" viewBox="0 0 188 40" fill="none" xmlns="http://www.w3.org/2000/svg">
<path d="M75.6302 0H66.2384L58.9003 13.2804L50.4039 0H40.5353L52.8759 19.3603L40 40H49.5961L57.236 26.2038L66.0243 40H76L63.1241 19.8859L75.6302 0Z" fill="#323643"/>
<path d="M17.7849 0L0 40H7.6654L17.5991 16.708L27.0049 40H36L18.2151 0H17.7849Z" fill="#323643"/>
<path d="M80 7.60724H89.7042V40H97.894V7.60724H108V0H80V7.60724Z" fill="#323643"/>
<path fill-rule="evenodd" clip-rule="evenodd" d="M166.303 25.46L176 40H166.447L157.658 27.275H152.201V40H144V0H156.606C159.206 0 161.523 0.314074 163.559 0.942225C165.595 1.57699 167.3 2.48285 168.676 3.65981C170.051 4.84338 171.097 6.25837 171.812 7.90478C172.527 9.5512 172.885 11.4092 172.885 13.4788C172.885 15.1054 172.63 16.7353 172.121 18.3685C171.612 19.995 170.784 21.4795 169.635 22.8217C168.748 23.8598 167.637 24.7392 166.303 25.46ZM164.415 13.7466C164.408 13.3102 164.34 12.7581 164.209 12.0903C164.078 11.4158 163.807 10.7348 163.394 10.0471C162.981 9.35945 162.349 8.78089 161.496 8.31143C160.65 7.84197 159.512 7.60724 158.081 7.60724H152.201V19.6677H158.019C159.264 19.6677 160.303 19.4694 161.135 19.0727C161.96 18.6759 162.61 18.1701 163.084 17.5552C163.552 16.9336 163.889 16.2889 164.095 15.6211C164.302 14.9533 164.408 14.3285 164.415 13.7466Z" fill="#323643"/>
<path d="M180 0V40H188V0H180Z" fill="#323643"/>
<path d="M119.864 23.7441V16.1369V7.60724H139.247V0H112V40H140V32.3928H119.864V23.7441Z" fill="#323643"/>
<path d="M137.019 23.7449V16.1377H123.994V23.7449H137.019Z" fill="#323643"/>
</svg>
