<?xml version="1.0" encoding="UTF-8"?>
<svg xmlns="http://www.w3.org/2000/svg" viewBox="0 0 361.84 329.33">
  <defs>
    <style>
      .cls-1 {
        fill: #3046ce;
      }

      .cls-2 {
        fill: #6b7cce;
      }

      .cls-3 {
        fill: #37474f;
      }

      .cls-4, .cls-5 {
        opacity: .3;
      }

      .cls-4, .cls-5, .cls-6, .cls-7, .cls-8, .cls-9, .cls-10, .cls-11, .cls-12, .cls-13, .cls-14 {
        isolation: isolate;
      }

      .cls-15 {
        fill: #5861db;
      }

      .cls-16 {
        fill: #263238;
      }

      .cls-5, .cls-17, .cls-6, .cls-7, .cls-9, .cls-12, .cls-13, .cls-14 {
        fill: #fff;
      }

      .cls-6 {
        opacity: .56;
      }

      .cls-7 {
        opacity: .4;
      }

      .cls-18, .cls-19 {
        mix-blend-mode: multiply;
        opacity: .28;
      }

      .cls-20 {
        fill: #c8856a;
      }

      .cls-21 {
        fill: #e0e0e0;
      }

      .cls-8 {
        opacity: .25;
      }

      .cls-9 {
        opacity: .75;
      }

      .cls-22 {
        fill: #626ce8;
      }

      .cls-19, .cls-23 {
        fill: #7379ff;
      }

      .cls-11 {
        opacity: .2;
      }

      .cls-12, .cls-24 {
        opacity: .5;
      }

      .cls-25 {
        fill: #c0c3ff;
      }

      .cls-13 {
        opacity: .7;
      }

      .cls-26 {
        fill: #af6152;
      }

      .cls-27 {
        fill: #d5d7ff;
      }

      .cls-14 {
        opacity: .35;
      }

      .cls-28 {
        fill: #455a64;
      }

      .cls-29 {
        fill: #a9afff;
      }

      .cls-30 {
        fill: #9599f2;
      }

      .cls-31 {
        fill: #fafafa;
      }

      .cls-32 {
        fill: #7b88ff;
      }
    </style>
  </defs>
  <g class="cls-10">
    <g id="Capa_2" data-name="Capa 2">
      <g id="Capa_17" data-name="Capa 17">
        <g>
          <g id="freepik--Floor--inject-118" class="cls-18">
            <path class="cls-23" d="M309.24,298.96c-70.12,40.49-183.83,40.48-253.97,0-70.12-40.5-70.12-106.12,0-146.62,70.12-40.51,183.83-40.49,253.97,0,29.32,16.92,46.38,38.23,51.19,60.27.19.86.36,1.73.51,2.59,5.21,29.89-12.03,60.85-51.7,83.76Z"/>
          </g>
          <g id="freepik--Shadows--inject-118">
            <ellipse id="freepik--Shadow--inject-118" class="cls-19" cx="233.61" cy="287.39" rx="49.43" ry="28.54"/>
            <path id="freepik--shadow--inject-118" class="cls-19" d="M25.12,269.32c-9.9,5.72-9.9,14.98,0,20.7,9.9,5.72,25.95,5.72,35.86,0,9.9-5.72,9.9-14.98,0-20.7-9.9-5.72-25.95-5.72-35.86,0Z"/>
            <path class="cls-19" d="M190.6,242.63l-7.17-4.12,2.5-1.44c1.28-.75,1.28-1.95,0-2.69l-17.21-9.92c-1.47-.74-3.2-.74-4.67,0l-110.03,63.49c-1.29.75-1.29,1.95,0,2.69l17.21,9.92c1.47.74,3.2.74,4.67,0l7.95-4.59,7.16,4.12c1.16.59,2.52.59,3.68,0l95.91-55.33c1.01-.59,1.01-1.54,0-2.13Z"/>
          </g>
          <g id="freepik--Plant--inject-118">
            <g id="freepik--plant--inject-118">
              <g id="freepik--Pot--inject-118">
                <path class="cls-23" d="M29.36,281.37c-7.32-7.56-11.62-26.55-4.51-32.54h36.37c7.14,6.01,2.85,24.98-4.51,32.54l-.2.21-.26.25c-.21.21-.43.41-.66.59l-.17.14c-.18.14-.35.29-.55.43-.32.22-.63.43-.95.61-6.01,3.52-15.78,3.52-21.79,0h0c-.33-.19-.65-.39-.95-.62-.19-.13-.35-.26-.52-.39l-.22-.17c-.23-.19-.44-.38-.64-.58l-.29-.29-.16-.17Z"/>
                <path class="cls-12" d="M29.36,281.37c-7.32-7.56-11.62-26.55-4.51-32.54h36.37c7.14,6.01,2.85,24.98-4.51,32.54l-.2.21-.26.25c-.21.21-.43.41-.66.59l-.17.14c-.18.14-.35.29-.55.43-.32.22-.63.43-.95.61-6.01,3.52-15.78,3.52-21.79,0h0c-.33-.19-.65-.39-.95-.62-.19-.13-.35-.26-.52-.39l-.22-.17c-.23-.19-.44-.38-.64-.58l-.29-.29-.16-.17Z"/>
                <path class="cls-23" d="M58.07,246.41c8.27,4.84,8.27,12.68,0,17.53s-21.73,4.84-30.06,0c-8.33-4.84-8.27-12.69,0-17.53,8.27-4.84,21.77-4.85,30.06,0Z"/>
                <path class="cls-13" d="M58.07,246.41c8.27,4.84,8.27,12.68,0,17.53s-21.73,4.84-30.06,0c-8.33-4.84-8.27-12.69,0-17.53,8.27-4.84,21.77-4.85,30.06,0Z"/>
                <path class="cls-23" d="M54.08,248.74c6.09,3.55,6.09,9.32,0,12.87-6.09,3.55-15.96,3.55-22.05,0-6.09-3.55-6.09-9.32,0-12.87s15.96-3.56,22.05,0Z"/>
                <path class="cls-14" d="M54.08,248.74c6.09,3.55,6.09,9.32,0,12.87-6.09,3.55-15.96,3.55-22.05,0-6.09-3.55-6.09-9.32,0-12.87s15.96-3.56,22.05,0Z"/>
                <path class="cls-31" d="M32.03,254.85c6.09-3.55,15.96-3.55,22.05,0,1.48.8,2.74,1.97,3.65,3.38-.92,1.41-2.17,2.57-3.65,3.38-6.09,3.55-15.96,3.55-22.05,0-1.48-.81-2.73-1.97-3.65-3.38.92-1.41,2.17-2.57,3.65-3.38Z"/>
              </g>
              <g id="freepik--Leaves--inject-118">
                <path class="cls-23" d="M34.81,200.02c1.74,3.14-.68,8.5-5.75,9.45,1.59-2.22,3.01-5.68,1.71-6.17s.2,2.76-2.62,5.75c0,0-1.5.75-3.61-.99,3.14-2.19,4.56-6.76,3.45-6.11-.45.26-1.23,2.52-3.12,3.93-1.89,1.41-3.76,1.5-6.54-.88,1.68-.27,4.11-.92,5.52-2.62,1.01-1.22,1.31-2.01-.99-.6-2.31,1.41-3.05,2.01-5.26,1.91-2.21-.1-4.07-2.39-4.07-2.39,0,0,3.57.37,4.4-.75.83-1.12-2.96.53-5.43-.5-1.51-.63-2.9-1.52-4.11-2.61,0,0,1.19-2.84,2.04-3.52,1.86,1.41,4.16,3.38,4.51,3.01s-.38-1.91-3.13-3.28c.3-1,1.21-1.69,2.25-1.71,0,0,1.42.22,3.49,3.94.44.75,1.41,1.5-.29-1.5-.65-1.28-1.56-2.41-2.69-3.31,1.48-.96,3.43-.75,4.68.49,4.03,3.46,4.18,5.16,4.77,4.91.22-.09-.09-.98-1.61-3.13-.78-1.17-1.74-2.2-2.84-3.07,0,0,1.76-2.01,4.59-.1,2.83,1.91,4.51,5.85,4.69,5.91.51.19-.24-2.95-1.36-4.65-1.04-1.59-1.62-2.31-1.62-2.31,1.77-.55,3.69.11,4.73,1.65,2.04,2.67,1.7,6.56,2.36,6.37.66-.19-.5-6.37-.5-6.37,0,0,5.94,5.43,2.34,9.26Z"/>
                <path class="cls-11" d="M34.81,200.02c1.74,3.14-.68,8.5-5.75,9.45,1.59-2.22,3.01-5.68,1.71-6.17s.2,2.76-2.62,5.75c0,0-1.5.75-3.61-.99,3.14-2.19,4.56-6.76,3.45-6.11-.45.26-1.23,2.52-3.12,3.93-1.89,1.41-3.76,1.5-6.54-.88,1.68-.27,4.11-.92,5.52-2.62,1.01-1.22,1.31-2.01-.99-.6-2.31,1.41-3.05,2.01-5.26,1.91-2.21-.1-4.07-2.39-4.07-2.39,0,0,3.57.37,4.4-.75.83-1.12-2.96.53-5.43-.5-1.51-.63-2.9-1.52-4.11-2.61,0,0,1.19-2.84,2.04-3.52,1.86,1.41,4.16,3.38,4.51,3.01s-.38-1.91-3.13-3.28c.3-1,1.21-1.69,2.25-1.71,0,0,1.42.22,3.49,3.94.44.75,1.41,1.5-.29-1.5-.65-1.28-1.56-2.41-2.69-3.31,1.48-.96,3.43-.75,4.68.49,4.03,3.46,4.18,5.16,4.77,4.91.22-.09-.09-.98-1.61-3.13-.78-1.17-1.74-2.2-2.84-3.07,0,0,1.76-2.01,4.59-.1,2.83,1.91,4.51,5.85,4.69,5.91.51.19-.24-2.95-1.36-4.65-1.04-1.59-1.62-2.31-1.62-2.31,1.77-.55,3.69.11,4.73,1.65,2.04,2.67,1.7,6.56,2.36,6.37.66-.19-.5-6.37-.5-6.37,0,0,5.94,5.43,2.34,9.26Z"/>
                <path class="cls-28" d="M25.97,209.86c1.5-1.98,3.56-4.2,6.2-4.47s5.09,1.13,6.76,3.01c1.67,1.97,2.99,4.22,3.88,6.64,1.01,2.54,1.82,5.15,2.4,7.81,2.56,11.04,3.01,22.43,2.58,33.72,0,.88-.08,1.76-.11,2.64h1.19c0-.46.05-.91.07-1.36.28-5.91.26-11.84-.05-17.75-.31-5.89-1.12-11.74-2.43-17.49-.63-2.82-1.48-5.58-2.56-8.27-.93-2.48-2.31-4.78-4.07-6.76-1.95-2.06-4.71-3.49-7.61-3.06s-4.78,2.8-6.39,5.13c-.08.07.02.31.14.2Z"/>
                <path class="cls-28" d="M42.23,256.26c.2,1.82.36,3.63.5,5.45h1.32l-.16-2.12c-.5-6.15-1.34-12.26-2.25-18.36-.92-6.1-1.87-12.16-2.6-18.26-.35-2.96-.68-5.93-.85-8.9-.21-2.82-.11-5.65.31-8.45.46-2.78,1.41-5.8,3.4-7.89,1.86-1.98,5.47-2.87,7.33-.37,0,0,.05,0,0-.04-1.16-2.13-4.16-2.64-6.22-1.65-2.42,1.16-3.88,3.63-4.81,6.01-2.14,5.57-1.59,11.73-1.01,17.54,1.27,12.42,3.7,24.66,5.05,37.04Z"/>
                <path class="cls-28" d="M35.09,237.4c.35,3.13.67,6.27.89,9.41.29,4.13.46,8.27.57,12.37h1.44c0-.62,0-1.24-.06-1.86-.14-6.27-.69-12.53-1.64-18.72-.29-1.76-.67-3.49-1.04-5.26-.35-1.87-.8-3.73-1.37-5.55-.06-.17-.23-.08-.2.08.2,1.58.54,3.13.8,4.7.26,1.57.43,3.22.61,4.83Z"/>
                <path class="cls-23" d="M43.86,227.34c.62-2.67,5.26-6.54,13.48-6.68,2.95-.01,5.87.58,8.58,1.73-5.33.23-12.4,1.07-12.77,3.08-.38,2.01,2.37.75,4.91-.26,5.52-2.14,9.02-2.25,9.02-2.25,2.66.88,5.05,2.43,6.94,4.51-5.82-2.07-12.47-1.07-15.16.38-2.69,1.44-2.61,2.67-.33,1.88,2.28-.79,6.69-2.49,18.17,0,0,0,2.37,1.56,3.29,6.3-2.16-1.85-5.17-2.6-7.88-3.12-2.73-.61-5.52-.9-8.31-.86-.5,0-1.5.08-1.74.61s.29,1.04.75,1.22c.97.31,1.99.46,3.01.43,1.34,0,2.69.15,4.02.29,2.22.13,4.42.45,6.59.96,1.17.32,3.58,3.35,3.46,6.76-2.86-.51-8.87-3.94-13.06-3.51s.75,1.22,4.27,2.47c3.01,1.07,8.42,3.44,8.42,3.44-.32,2.88-.82,5.73-1.5,8.54-2.89.53-5.86.56-8.76.1,0,0-2.82-8.13-4.89-8.88-2.07-.75-.45,2.48,1.44,5.34,1.89,2.86,2.39,3.91,2.39,3.91,0,0-8.46,1.59-11.93-1.22-.12-1.73.09-6.24.14-9.24.05-3.16.75-5.8-.21-6.35s-1.89,1.98-2.45,5.08c-.45,3.11-.48,6.26-.1,9.38,0,0-5.94-1.08-7.99-2.77-2.35-5.03.38-10.81.98-11.68.6-.87-.71-3.64-3.67.17-1.89,2.31-2.48,5.42-1.56,8.27,0,0-4.33-.4-6.14-4.1-2.95-5.98-.51-12.15,8.62-13.9Z"/>
                <path class="cls-8" d="M43.86,227.34c.62-2.67,5.26-6.54,13.48-6.68,2.95-.01,5.87.58,8.58,1.73-5.33.23-12.4,1.07-12.77,3.08-.38,2.01,2.37.75,4.91-.26,5.52-2.14,9.02-2.25,9.02-2.25,2.66.88,5.05,2.43,6.94,4.51-5.82-2.07-12.47-1.07-15.16.38-2.69,1.44-2.61,2.67-.33,1.88,2.28-.79,6.69-2.49,18.17,0,0,0,2.37,1.56,3.29,6.3-2.16-1.85-5.17-2.6-7.88-3.12-2.73-.61-5.52-.9-8.31-.86-.5,0-1.5.08-1.74.61s.29,1.04.75,1.22c.97.31,1.99.46,3.01.43,1.34,0,2.69.15,4.02.29,2.22.13,4.42.45,6.59.96,1.17.32,3.58,3.35,3.46,6.76-2.86-.51-8.87-3.94-13.06-3.51s.75,1.22,4.27,2.47c3.01,1.07,8.42,3.44,8.42,3.44-.32,2.88-.82,5.73-1.5,8.54-2.89.53-5.86.56-8.76.1,0,0-2.82-8.13-4.89-8.88-2.07-.75-.45,2.48,1.44,5.34,1.89,2.86,2.39,3.91,2.39,3.91,0,0-8.46,1.59-11.93-1.22-.12-1.73.09-6.24.14-9.24.05-3.16.75-5.8-.21-6.35s-1.89,1.98-2.45,5.08c-.45,3.11-.48,6.26-.1,9.38,0,0-5.94-1.08-7.99-2.77-2.35-5.03.38-10.81.98-11.68.6-.87-.71-3.64-3.67.17-1.89,2.31-2.48,5.42-1.56,8.27,0,0-4.33-.4-6.14-4.1-2.95-5.98-.51-12.15,8.62-13.9Z"/>
                <path class="cls-23" d="M27.47,207.87c4.08-.62,9.86.41,12.83,3.76,2.97,3.34,3.12,7.36,2.25,9.43s-1.88-3.17-5-5.69-4.61-2.34-1.97.31c2.64,2.64,6.08,7.51,6.57,10.56.49,3.05-2.47,6.42-3.41,6.2s.2-3.37-1.23-7.84c-1.43-4.46-4.38-7.42-6.7-8.15-2.32-.72-1.74.06,1.31,3.57,3.05,3.51,6.54,10.6,5.08,13.95-1.47,3.34-4.85,4.43-5.74,4.12s1.36-4.51-.32-9.96c-1.68-5.45-5.3-9.35-7.29-8.18-1.98,1.17-.53,2.68,1.32,6.76,1.85,4.08,4.25,12.25,3.34,14.84-.92,2.59-5.81,4.3-6.51,3.48-.71-.82,1.56-5.26.44-10.96-1.12-5.7-3.47-7.98-3.76-5.64s2.82,13.48,1.88,15.34-9.81,4.7-9.81,4.7c0,0-4.51-5.76-4.79-7.47-.29-1.71,3.9-8.6,6.16-10.56,2.26-1.96-.56-2.16-2.37-.83-1.81,1.32-5.86,6.32-6.21,8.92-2.25-2.67-4.3-6.01-2.25-8.21,2.04-2.19,8.17-5.72,11.74-6.95,3.58-1.23,6.24-4.73,1.5-3.83-4.74.89-12.92,5.2-14.38,8.51-.56-3.01.28-11.32,5.47-12.65s10.62-.92,12.24-1.46c1.62-.54-.44-1.98-4.37-2.25-3.92-.27-9.14,0-11.18,2.52.16-3.27.59-6.54,6.6-6.56,6.01-.02,8.57,2.47,9.54,1.82.96-.65-3.76-3.19-7.23-3.42,2.07-2.57,5.47-3.65,8.63-2.74,2.97.64,5.64,2.25,7.61,4.56Z"/>
                <path class="cls-23" d="M47.76,194.03c1.17-2.91,5.55-3.88,7.62-2.95-2.25.53-4.13,2.32-2.88,1.78,2.64-1.14,4.28-1.65,7.33-1.01,1.78.37,3.24,1.65,3.83,3.37-2-.64-4.09-.93-6.19-.86-1.01.05-3.68.47-.4.49,5.16,0,7.08,1.9,7.08,1.9.99,1.03,1.63,2.34,1.85,3.76-2.67-2.91-7.07-3.41-8.69-3.58s-3.12.66-.44.88,7.57,2.11,9.02,4.82c1.44,2.71.35,6.88.35,6.88,0,0-6.01-8.39-8.27-7.42-.05,1.26,6.32,5.55,7.39,7.91s-1.36,7.24-1.36,7.24c0,0-5.93-.46-7.45-1.5s-.89-7.51-1.7-8.48c-.8-.96-3.07,3.94-2.08,8.21,0,0-3.01.41-3.51-1.94-.5-2.34.62-7.16,1.97-9.32,1.35-2.16-.75-1.72-1.89-.08-1.14,1.65-2.64,5.26-2.33,7.72,0,0-3.42-1.62-4.29-3.45-.87-1.83,2.39-6.66,4.02-7.87,1.63-1.2.2-2.21-1.44-1.01s-4.32,4.89-4.61,6.76c-1.74-3.34-1.87-7.56,1.12-10.6,3.21-3.19,5.97-1.64,5.97-1.64Z"/>
              </g>
            </g>
          </g>
          <g id="freepik--Bags--inject-118">
            <g>
              <path class="cls-19" d="M360.94,215.2l-62.42,36.52-59.77-34.51,64.4-37.66,57.28,33.06c.19.86.36,1.73.51,2.59Z"/>
              <polygon class="cls-3" points="304.91 131.68 283.87 143.9 283.87 143.9 281.58 145.23 251.35 162.8 251.21 211.73 305.13 242.86 358.69 211.73 358.83 162.8 304.91 131.68"/>
              <polygon class="cls-28" points="358.83 162.8 304.91 131.68 251.35 162.8 305.27 193.93 358.83 162.8"/>
              <polygon class="cls-22" points="305.27 193.93 305.13 242.86 358.69 211.73 358.83 162.8 305.27 193.93"/>
              <polygon class="cls-28" points="251.35 162.8 251.21 211.73 305.13 242.86 305.27 193.93 251.35 162.8"/>
              <polygon class="cls-23" points="358.76 162.8 304.84 131.68 251.28 162.8 305.2 193.93 358.76 162.8"/>
              <polygon class="cls-15" points="251.35 162.8 251.21 211.73 305.13 242.86 305.27 193.93 251.35 162.8"/>
              <polygon class="cls-5" points="283.87 143.9 273.44 149.97 327.36 181.1 337.79 175.03 283.87 143.9"/>
              <polygon class="cls-5" points="337.79 193.93 327.36 200 327.36 181.1 337.79 175.03 337.79 193.93"/>
              <polygon class="cls-5" points="337.79 223.84 327.36 229.9 327.36 217.42 337.79 211.36 337.79 223.84"/>
              <g>
                <polygon class="cls-23" points="334.78 127.52 318.58 118.1 313.61 115.21 313.61 115.21 299.91 107.25 264.81 127.52 264.9 159.36 299.78 179.63 334.87 159.37 334.78 127.52"/>
                <polygon class="cls-23" points="264.81 127.52 299.91 107.25 334.78 127.52 299.69 147.78 264.81 127.52"/>
                <polygon class="cls-23" points="299.69 147.78 299.78 179.63 264.9 159.36 264.81 127.52 299.69 147.78"/>
                <polygon class="cls-23" points="334.78 127.52 334.87 159.37 299.78 179.63 299.69 147.78 334.78 127.52"/>
                <polygon class="cls-27" points="264.81 127.52 299.91 107.25 334.78 127.52 299.69 147.78 264.81 127.52"/>
                <polygon class="cls-30" points="299.69 147.78 299.78 179.63 264.9 159.36 264.81 127.52 299.69 147.78"/>
                <polygon class="cls-25" points="334.78 127.52 334.87 159.37 299.78 179.63 299.69 147.78 334.78 127.52"/>
                <polygon class="cls-6" points="313.61 115.21 320.4 119.16 285.31 139.42 278.52 135.48 313.61 115.21"/>
                <polygon class="cls-5" points="278.52 147.78 285.31 151.73 285.31 139.42 278.52 135.48 278.52 147.78"/>
                <polygon class="cls-5" points="278.52 167.25 285.31 171.2 285.31 163.07 278.52 159.13 278.52 167.25"/>
                <polygon class="cls-7" points="329.51 127.28 322.19 123.05 314.9 127.28 322.24 131.52 329.51 127.28"/>
              </g>
            </g>
          </g>
          <g id="freepik--Device--inject-118">
            <g id="freepik--Mobile--inject-118">
              <path class="cls-3" d="M176.67,231.09V10.18c0-5.68-2.83-7.25-5.33-8.7-2.5-1.45-6.63-2.32-10.2-.26l-91.23,52.62c-3.56,2.05-6.45,7.06-6.45,11.17v220.91c0,4.11,2.58,6.54,5.09,7.99,2.5,1.45,6.88,3.01,10.44.98l91.25-52.62c4.11-2.18,6.61-6.52,6.43-11.17Z"/>
              <path class="cls-16" d="M170.87,233.18l-93.8,54.16V65.46l-11.74-6.76c-1.16,1.92-1.82,4.11-1.89,6.36v220.91c0,4.11,2.58,6.54,5.09,7.99s6.88,3.01,10.44.98l91.27-52.67c2.53-1.36,4.51-3.56,5.58-6.23l-.36-.21-4.59-2.64Z"/>
              <path class="cls-28" d="M170.05,8.25l-91.48,52.82c-2.66,1.75-4.33,4.66-4.51,7.84v219.14c0,4.42,3.13,6.23,6.97,4.01l89.06-51.41c3.03-1.98,4.93-5.28,5.13-8.89V11.21c-.03-3.26-2.34-4.59-5.16-2.96Z"/>
              <path d="M170.72,21.69v204.85c-.19,3.43-2,6.57-4.88,8.45l-82.48,47.62c-2.69,1.56-4.87.31-4.87-2.81V73.44c.15-2.8,1.38-5.43,3.42-7.34l.46-.42c.32-.25.65-.47.99-.68l23.2-13.42,1.5-.87c.83-.48,1.5-.1,1.5.87s.75,1.34,1.62.81l27.05-15.61c.93-.58,1.53-1.58,1.62-2.67.06-1,.55-1.93,1.35-2.53l.16-.1,22.69-13.1.49-.29c3.43-1.93,6.17-.33,6.17,3.58Z"/>
              <path class="cls-16" d="M158.76,229.51c2.88-1.88,4.69-5.01,4.88-8.45V18.66l-22.27,12.85-.16.1c-.8.6-1.3,1.53-1.35,2.53-.08,1.1-.68,2.09-1.62,2.67l-27.05,15.61c-.89.53-1.62.15-1.62-.81s-.68-1.35-1.5-.87l-1.5.87-23.2,13.4c-.35.2-.68.43-.99.68l-.46.42c-2.04,1.92-3.27,4.55-3.42,7.34v202.41l80.27-46.35Z"/>
              <path class="cls-16" d="M115.31,44.17l12.39-7.15c.75-.43,1.34-.13,1.34.68-.06.92-.56,1.76-1.34,2.25l-12.39,7.12c-.75.43-1.34.12-1.34-.68.07-.91.56-1.74,1.34-2.22Z"/>
              <path class="cls-16" d="M134.06,32.8c.83-.48,1.5-.09,1.5.87-.05,1.06-.61,2.03-1.5,2.61-.83.48-1.5.09-1.5-.87.06-1.06.61-2.03,1.5-2.61Z"/>
              <path class="cls-28" d="M71.92,91.54c-.07-1.74-.95-3.34-2.39-4.31-.48-.34-1.11-.39-1.63-.13-.3.18-1.5.83-1.79,1.02-.53.39-.82,1.03-.75,1.69v18.03c.06,1.74.95,3.34,2.38,4.31.46.32,1.06.39,1.58.17.33-.17,1.5-.87,1.84-1.05.53-.39.82-1.04.75-1.7v-18.03Z"/>
              <path class="cls-3" d="M70.14,92.57v18c0,1.62-1.07,2.32-2.38,1.56-1.44-.98-2.32-2.58-2.38-4.31v-18.03c0-1.62,1.07-2.32,2.38-1.56,1.44.98,2.33,2.6,2.38,4.34Z"/>
              <path class="cls-28" d="M71.92,123.05c-.07-1.73-.95-3.33-2.39-4.31-.48-.35-1.1-.4-1.63-.14-.3.18-1.5.83-1.79,1.02-.53.39-.82,1.03-.75,1.69v18.03c.06,1.74.95,3.34,2.38,4.31.46.33,1.06.39,1.58.17.33-.17,1.5-.86,1.84-1.05.53-.39.82-1.04.75-1.7v-18.03Z"/>
              <path class="cls-3" d="M70.14,124.08v18.03c0,1.62-1.07,2.32-2.38,1.56-1.44-.98-2.32-2.58-2.38-4.31v-18.03c0-1.62,1.07-2.31,2.38-1.56,1.43.97,2.32,2.57,2.38,4.31Z"/>
            </g>
            <g id="freepik--window--inject-118">
              <path class="cls-23" d="M178.18,23.5c-1.13-.65-2.69-.56-4.41.44l-.49.29-23.04,13.29-.16.1c-.82.62-1.32,1.56-1.38,2.58-.09,1.11-.69,2.12-1.64,2.71l-27.45,15.85h-.06c.02-.37-.15-.72-.44-.93l-1.59-.92c-.35-.16-.77-.12-1.08.11-.85.48-1.5.89-1.5.89l-23.6,13.62c-.35.2-.69.43-1.01.68l-.47.42c-2.07,1.95-3.32,4.62-3.47,7.46v209.47c0,1.58.55,2.68,1.44,3.2l1.59.92c.89.52,2.13.44,3.49-.35l83.73-48.34c2.92-1.9,4.76-5.08,4.96-8.56V28.46c0-1.98-.7-3.38-1.83-4.03l-1.61-.92Z"/>
              <path class="cls-4" d="M93.4,292.65v.41l-.47.27c-1.36.8-2.6.87-3.49.35l-1.59-.89c-.89-.53-1.44-1.62-1.44-3.2V80.09c.08-1.88.67-3.69,1.71-5.26l1.89,1.08c-1,1.52-1.57,3.29-1.65,5.12v209.44c-.05.85.19,1.69.68,2.38.41.52,1.04.82,1.7.8.72-.04,1.43-.25,2.04-.64l.64-.38Z"/>
              <path class="cls-4" d="M151.22,39.5c-.35.46-.55,1.02-.58,1.6-.03.66-.24,1.3-.61,1.84l-1.9-1.13c.35-.49.55-1.06.58-1.66.03-.64.24-1.26.62-1.78l1.89,1.13Z"/>
              <path class="cls-31" d="M90.72,293.65c-.66.02-1.29-.27-1.7-.79-.48-.7-.72-1.54-.68-2.39V81.01c.16-2.74,1.36-5.32,3.36-7.21l.15-.14.31-.28c.3-.24.62-.45.95-.65l23.56-13.6,1.5-.89c.15-.1.33-.15.51-.17.45,0,.5.53.5.75-.09.69.4,1.32,1.09,1.41.04,0,.09,0,.13,0,.34-.01.66-.11.95-.29l27.44-15.85c1.05-.65,1.73-1.77,1.82-3.01.07-.89.52-1.71,1.23-2.25l.13-.08,23.04-13.3.5-.29c.79-.49,1.68-.77,2.61-.8,1.92,0,3.13,1.58,3.13,4.11v207.91c-.18,3.36-1.95,6.43-4.77,8.27l-83.7,48.33c-.62.38-1.32.6-2.04.63Z"/>
              <path class="cls-23" d="M88.33,265.45v25.03c-.05.85.19,1.69.68,2.39.41.52,1.04.81,1.7.79.72-.03,1.43-.25,2.04-.63l83.74-48.33c2.82-1.83,4.59-4.91,4.77-8.27v-24.63l-92.93,53.65Z"/>
              <g class="cls-24">
                <path class="cls-17" d="M88.33,265.45v25.03c-.05.85.19,1.69.68,2.39.41.52,1.04.81,1.7.79.72-.03,1.43-.25,2.04-.63l83.74-48.33c2.82-1.83,4.59-4.91,4.77-8.27v-24.63l-92.93,53.65Z"/>
              </g>
              <path class="cls-31" d="M138.59,250.87c0,2.8-1.7,6.01-3.76,7.25-2.06,1.24-3.79-.08-3.79-2.87s1.7-6.01,3.79-7.24c2.1-1.23,3.76.07,3.76,2.86Z"/>
              <path class="cls-31" d="M105.97,273.88l-5.26-.25c-.58,0-.58-1.12,0-1.81l5.26-6.3c.5-.59,1.07-.44,1.07.29v6.54c0,.74-.57,1.55-1.07,1.53Z"/>
              <path class="cls-31" d="M168.42,234.25c.03-.21.04-.42.05-.63,0-.19-.02-.39-.05-.58l.83-1.12c.09-.1.11-.25.07-.38l-.75-1.29c-.05-.08-.17-.06-.26.06l-.84,1.12c-.23-.12-.49-.17-.75-.16v-1.28c0-.14-.08-.2-.19-.14l-1.5.86c-.12.08-.19.22-.19.36v1.28c-.29.32-.54.67-.75,1.05l-.83-.15c-.09,0-.21.09-.26.23l-.75,2.16c-.05.14,0,.28.08.29l.83.17c-.02.21-.04.42-.04.63,0,.19.01.39.04.58l-.83,1.13c-.09.11-.12.26-.08.39l.75,1.28c.05.1.17.08.26-.05l.83-1.13c.23.12.49.18.75.16v1.28c0,.14.08.2.19.14l1.5-.86c.12-.08.19-.22.19-.36v-1.28c.28-.33.54-.68.75-1.05l.84.16c.08,0,.2-.09.26-.24l.75-2.14c.05-.16,0-.29-.07-.32l-.83-.17ZM165.76,237.09c-.79.45-1.43,0-1.43-1.08.02-1.09.55-2.1,1.43-2.74.75-.45,1.43,0,1.43,1.08-.02,1.09-.55,2.1-1.43,2.74Z"/>
              <path class="cls-28" d="M178.14,24.35c-.92.04-1.82.32-2.61.8l-.5.29-23.04,13.3-.13.08c-.72.54-1.16,1.36-1.23,2.25-.09,1.24-.76,2.36-1.82,3.01l-27.43,15.89c-.29.18-.61.27-.95.29-.7-.02-1.25-.59-1.23-1.29,0-.04,0-.09,0-.13,0-.22-.05-.75-.5-.75-.18.01-.36.07-.51.17l-1.5.89-23.56,13.6c-.33.19-.65.41-.95.65l-.31.28-.15.14c-2,1.88-3.2,4.46-3.36,7.21v24.61l92.87-53.65v-23.5c0-2.53-1.2-4.11-3.13-4.11Z"/>
              <path class="cls-31" d="M95.04,81.08s.01.09,0,.14c-.02.04-.05.07-.09.1l-.19.11h-.09s-.04-.06-.04-.09v-3.38l-.75,1.18s-.05.07-.09.1c-.03.01-.06.01-.08,0l-.11-.13s-.02-.08,0-.11c0-.05.02-.09.05-.14l.98-1.57.08-.09.08-.05.19-.11s.06-.01.09,0c.01.03.01.07,0,.1l-.02,3.94Z"/>
              <path class="cls-31" d="M96.98,79.96s0,.1,0,.14c-.02.04-.05.07-.09.1l-.19.11s-.06.02-.08,0v-3.47l-.75,1.19s-.05.07-.09.09c-.03.02-.06.02-.09,0l-.11-.13s-.01-.07,0-.11c0-.05.03-.1.05-.14l.98-1.57s.04-.06.08-.08l.07-.05.19-.11h.09s.01.06,0,.09l-.06,3.94Z"/>
              <path class="cls-31" d="M98.1,76.61s.06-.02.09,0c.03.03.04.06.04.1v.42s-.01.09-.04.14c-.02.04-.05.08-.09.1l-.31.18s-.06.02-.08,0c-.03-.03-.04-.06-.04-.1v-.41s.02-.1.04-.14c.02-.04.05-.07.08-.1l.31-.19ZM98.1,78.75s.06-.01.09,0c.03.03.04.06.04.1v.41s-.02.1-.04.14c-.02.04-.05.07-.09.1l-.31.17s-.06.02-.08,0c-.03-.03-.04-.06-.04-.1v-.41s.01-.09.04-.14c.02-.04.05-.07.08-.1l.31-.17Z"/>
              <path class="cls-31" d="M99.13,77.76c.02.15.12.27.26.31.16.03.33,0,.47-.1.1-.06.2-.14.29-.23.09-.09.17-.19.23-.3.07-.11.12-.24.16-.37.04-.14.06-.28.06-.42,0-.12-.02-.24-.06-.35-.03-.08-.08-.15-.16-.19-.07-.04-.15-.05-.23-.04-.1.02-.2.06-.29.11-.1.05-.2.13-.28.21-.06.06-.12.13-.17.21l-.12.18s-.07.09-.12.12l-.23.14s-.05.02-.08,0c-.01-.02-.01-.05,0-.08l.14-2.13s-.01-.09,0-.14c.02-.04.05-.08.09-.11l1.62-.93s.06-.02.09,0c.01.03.01.06,0,.09v.22s.01.1,0,.14c-.02.04-.05.07-.09.1l-1.34.75-.08,1.1c.07-.08.14-.15.22-.22.1-.1.21-.18.34-.24.14-.09.29-.15.45-.17.13-.02.26,0,.37.07.12.07.21.18.26.31.07.18.1.36.09.55,0,.22-.03.45-.09.66-.06.21-.14.41-.26.6-.1.18-.22.35-.37.5-.13.14-.28.26-.45.36-.14.08-.29.14-.44.17-.12.03-.25.03-.37,0-.11-.04-.2-.12-.26-.23-.07-.13-.1-.27-.1-.41-.01-.04-.01-.08,0-.11.01-.03.04-.06.07-.08l.21-.12h.08s.07.02.08.05Z"/>
              <path class="cls-31" d="M101.86,76.27c.01.05.03.11.06.16.03.05.07.09.13.11.07.02.15.02.22,0,.12-.04.24-.09.35-.16.2-.12.37-.28.5-.47.06-.11.11-.22.15-.33.04-.12.06-.25.06-.38,0-.1-.02-.21-.06-.3-.03-.06-.08-.11-.14-.14-.07-.02-.15-.02-.23,0-.1.03-.19.07-.28.13l-.38.22s-.06.02-.09,0c-.01-.03-.01-.07,0-.1v-.23s0-.08,0-.11c.02-.04.04-.07.05-.11l.83-1.66-1.32.75s-.06.02-.09,0c-.03-.02-.04-.06-.04-.09v-.18s.01-.09.04-.14c0-.05.05-.08.09-.1l1.81-1.04s.06-.02.09,0c.01.03.01.07,0,.1v.22s0,.09,0,.13l-.05.14-.82,1.64c.13-.08.27-.13.42-.15.11-.02.23,0,.33.07.1.06.17.16.21.27.06.15.08.31.08.47,0,.21-.03.41-.09.61-.06.2-.14.39-.25.56-.1.17-.22.33-.36.47-.13.14-.28.25-.44.35-.17.1-.35.17-.53.21-.12.02-.25.01-.37-.04-.1-.05-.17-.13-.22-.23-.05-.11-.08-.23-.08-.35-.01-.04-.01-.08,0-.11.02-.03.04-.06.07-.08l.22-.12h.08s.05.01.08.03Z"/>
              <path class="cls-31" d="M109.03,69.05l-1.41,4.83v-2.1l-1.58.91,3.01-3.64M109.04,68.69h0c-.06,0-.12.02-.17.06-.03.02-.05.04-.08.06h0l-3.01,3.64c-.11.13-.11.33,0,.46.07.08.17.13.28.13.06,0,.12-.02.18-.05l1.04-.6v1.5c0,.18.13.33.31.36h.05c.16,0,.3-.1.35-.26l1.41-4.8s0-.09,0-.14c0-.2-.16-.36-.36-.36h0Z"/>
              <polygon class="cls-31" points="158.19 44.74 157.42 45.18 157.42 43.68 158.19 43.24 158.19 44.74"/>
              <polygon class="cls-31" points="159.41 44.03 158.63 44.48 158.63 42.33 159.41 41.88 159.41 44.03"/>
              <polygon class="cls-31" points="160.62 43.33 159.86 43.78 159.86 40.81 160.62 40.36 160.62 43.33"/>
              <polygon class="cls-23" points="161.85 42.63 161.07 43.07 161.07 39.31 161.85 38.87 161.85 42.63"/>
              <path class="cls-31" d="M167.23,35.67c-.87.55-1.58,1.33-2.04,2.25l.51.41c.33-.7.85-1.29,1.5-1.71.44-.32,1.03-.34,1.5-.06l.51-.99c-.63-.35-1.4-.31-1.98.11ZM165.9,38.52l.47.37c.19-.4.49-.73.86-.97.26-.18.6-.18.86,0l.47-.91c-.41-.26-.94-.25-1.33.05-.57.36-1.04.86-1.34,1.47h.02ZM166.58,39.07l.65.51.65-1.27c-.2-.13-.45-.13-.65,0-.29.18-.52.45-.66.76h.02Z"/>
              <path class="cls-23" d="M176.5,30.41c.27-.16.5,0,.5.38v2.43c0,.38-.19.73-.5.95l-4.33,2.5c-.28.16-.5,0-.5-.38v-2.42c0-.38.19-.74.5-.95l4.33-2.5M176.5,30.2l-4.33,2.5c-.4.29-.65.76-.65,1.25v2.42c0,.48.29.71.65.5l4.33-2.49c.4-.29.65-.76.65-1.25v-2.43c0-.48-.29-.7-.65-.5Z"/>
              <path class="cls-31" d="M174.74,34.57l-2.44,1.41c-.11.06-.2,0-.2-.16v-2.01c0-.15.08-.3.2-.39l2.44-1.38c.11-.07.2,0,.2.15v2.01c-.01.14-.09.28-.2.36Z"/>
              <path class="cls-23" d="M177.62,32.3l-.17.11v-1.31l.17-.1c.09-.06.17.2.17.56.03.26-.03.53-.17.75Z"/>
              <path class="cls-23" d="M177.45,46.26c-.04,1.5-.47,2.96-1.25,4.25-.52.94-1.28,1.73-2.19,2.31-.64.44-1.46.52-2.17.22-.75-.4-1.25-1.39-1.25-2.81,0-2.52,1.54-5.46,3.43-6.55,1.89-1.1,3.43.07,3.43,2.59Z"/>
              <path class="cls-9" d="M177.45,46.26c-.04,1.5-.47,2.96-1.25,4.25-.52.94-1.28,1.73-2.19,2.31-.64.44-1.46.52-2.17.22-.75-.4-1.25-1.39-1.25-2.81,0-2.52,1.54-5.46,3.43-6.55,1.89-1.1,3.43.07,3.43,2.59Z"/>
              <path class="cls-23" d="M175.11,46.68c-.01.83-.42,1.59-1.09,2.07-.6.35-1.09,0-1.09-.82.01-.83.42-1.6,1.09-2.08.6-.35,1.09.02,1.09.83Z"/>
              <path class="cls-23" d="M176.2,49.55v.95c-.52.94-1.28,1.73-2.19,2.31-.64.44-1.46.52-2.17.22v-.95c.01-.8.4-1.55,1.05-2.01l2.25-1.3c.58-.33,1.05.02,1.05.8Z"/>
              <path class="cls-23" d="M178.14,24.71h0c1.74,0,2.77,1.41,2.77,3.76v207.96c-.2,3.23-1.9,6.18-4.6,7.97l-83.73,48.31c-.56.36-1.2.56-1.86.59-1.27,0-2.03-1.06-2.03-2.83V81.01c.16-2.64,1.32-5.12,3.25-6.94l.16-.15.27-.25c.29-.23.6-.44.92-.63l23.55-13.6,1.54-.88c.1-.07.21-.11.33-.12.14,0,.14.35.14.4-.09.88.56,1.67,1.44,1.76.05,0,.09,0,.14,0,.4,0,.78-.13,1.12-.34l27.45-15.84c1.16-.72,1.9-1.96,1.99-3.33.06-.79.45-1.52,1.08-2l.11-.06,23.04-13.3.49-.29c.73-.45,1.57-.71,2.43-.75M178.14,24c-.99.04-1.95.33-2.79.85l-.49.29-23.04,13.3-.16.1c-.82.61-1.32,1.55-1.38,2.57-.08,1.11-.69,2.12-1.64,2.72l-27.45,15.84c-.22.15-.48.23-.75.24-.52,0-.87-.39-.87-1.06s-.35-1.1-.85-1.1c-.24,0-.48.08-.68.21-.85.48-1.54.89-1.54.89l-23.55,13.59c-.35.21-.69.44-1.01.69l-.47.42c-2.07,1.95-3.32,4.62-3.47,7.46v209.47c0,2.25,1.11,3.53,2.73,3.53.79-.03,1.55-.26,2.22-.68l83.73-48.34c2.91-1.91,4.74-5.08,4.93-8.56V28.46c0-2.83-1.41-4.46-3.47-4.46h0Z"/>
              <g>
                <path class="cls-31" d="M93.59,97.98l1.39-12.46c.02-.07.66-.41.77-.47.68-.4,1.43-.78,2.09-1.2.03-.02.02-.1.08.04l1.47,10.72-2.04,1.18-.3-2.52s-.21.08-.25.1c-.12.06-.92.52-.96.57-.02.03-.04.14-.04.18-.1.77-.11,1.6-.18,2.38,0,.07-.02.3-.05.34-.63.4-1.31.73-1.93,1.15h-.07ZM96.45,86.76c-.06,0-.04,0-.04.03,0,.04-.02.1-.02.14-.02.31-.02.62-.05.93-.1,1.31-.23,2.61-.32,3.92,0,.01.11-.03.13-.04.06-.03.12-.09.16-.12.11-.06.55-.26.57-.35l-.43-4.51Z"/>
                <path class="cls-31" d="M121.21,76.1c.24.05.39.09.54.28.22.28.28.87.3,1.23.05,1.15-.03,2.32.02,3.48,0,.12.04.26.03.39l-1.87,1.06s-.06-.28-.07-.34c-.12-1.16.02-2.38-.04-3.54,0-.17-.05-.67-.23-.74-.13-.05-.3.03-.43.09-.16.07-.42.18-.41.38v4.86s-.14.1-.19.13c-.51.31-1.09.65-1.61.93-.03.01-.14.08-.15.06.01-2.61-.01-5.22,0-7.83,0-.06.02-.12.02-.18,0-1.21-.02-2.42.01-3.62.06-.04.13-.07.2-.11.53-.34,1.1-.64,1.65-.95,1.04-.59,2.77-1.77,3.11.24.16.94.08,2.37-.31,3.25-.15.34-.36.63-.57.94ZM119.08,76.4c.57-.24.95-.62,1.06-1.24.07-.37.11-1.57-.03-1.89-.13-.29-.42-.17-.64-.07-.07.03-.39.21-.39.27v2.94Z"/>
                <path class="cls-31" d="M105.26,79.6l-1.43,6.26c.41,1.66,1.02,3.29,1.47,4.94.03.12.08.24.08.37l-2.06,1.17-.76-3.48c-.22,1.45-.51,2.89-.74,4.33-.01.03-.03.04-.05.06-.1.08-.38.23-.51.3-.4.24-.83.5-1.24.71-.03.01-.14.08-.15.06,0-.09.02-.17.03-.25.44-2.14,1.01-4.25,1.44-6.39-.45-1.68-1-3.34-1.45-5.02l2.09-1.2.66,3.27.67-4.04c.03-.05.59-.34.69-.4.31-.18.64-.4.96-.57.04-.02.31-.15.32-.14Z"/>
                <path class="cls-31" d="M115.9,73.47v1.99l-2.03,1.17c-.12.09-.14.1-.15.26-.06.7.05,1.48,0,2.18l.02.12,2.04-1.14v1.97l-.06.05c-.57.37-1.28.67-1.83,1.05-.04.03-.17.12-.17.17v3.01c.15,0,.29-.11.41-.18.55-.3,1.1-.66,1.65-.97.03-.02.33-.17.35-.16-.05.7-.14,1.41-.23,2.11l-3.98,2.31-.15.06v-11.62l4.13-2.37Z"/>
                <path class="cls-31" d="M110.81,76.42v1.97c-.41.27-.87.48-1.28.74-.05.03-.19.12-.2.17v9.56c-.02.05-.21.16-.27.19-.55.34-1.13.63-1.69.96l-.02-9.59-1.45.77v-1.97c.1-.1.23-.15.35-.22,1.17-.7,2.38-1.38,3.58-2.06.25-.14.6-.39.86-.5.04-.02.08-.03.12-.03Z"/>
                <path class="cls-31" d="M123.46,80.69c.01-2.68-.02-5.37,0-8.05,0-.06.02-.12.02-.18,0-1.11,0-2.23,0-3.34,0-.03.02-.04.04-.05.08-.08.43-.25.56-.32.2-.12.41-.25.62-.36.09-.05.66-.4.7-.39.03,0,.03.05.04.08.02.16,0,.42,0,.59-.05,2.52-.03,5.06-.05,7.59,0,1.11,0,2.21,0,3.32l-.04.05c-.64.35-1.25.75-1.89,1.07Z"/>
              </g>
            </g>
          </g>
          <g id="freepik--Products--inject-118">
            <g id="freepik--Product--inject-118">
              <path class="cls-21" d="M137.35,132.73l-31.26,18.03c-.44.25-.75,0-.75-.6v-.16c0-.59.28-1.15.75-1.5l31.26-18.03c.44-.25.75,0,.75.6v.16c0,.59-.28,1.15-.75,1.5Z"/>
              <path class="cls-21" d="M137.35,137.61l-31.26,18.03c-.44.25-.75,0-.75-.6v-.16c0-.59.28-1.15.75-1.5l31.26-18.03c.44-.25.75,0,.75.6v.16c0,.59-.28,1.15-.75,1.5Z"/>
              <g id="freepik--stars--inject-118">
                <path class="cls-23" d="M119.7,153.44l.37.75s.07.06.12.05l.83-.32c.14-.05.19.14.09.31l-.6,1.12c-.04.07-.05.14-.05.22l.14,1.01c0,.16-.11.38-.23.36l-.75-.09c-.06,0-.12.03-.15.08l-.75.95c-.12.15-.26.09-.23-.09l.14-1.18c.01-.06,0-.12-.05-.17l-.6-.43c-.09-.07-.04-.32.09-.41l.83-.64c.06-.05.1-.11.12-.19l.37-1.21c.09-.15.26-.25.32-.13Z"/>
                <path class="cls-23" d="M123.88,151.05l.37.75s.07.07.12.05c0,0,0,0,0,0l.83-.32c.14-.05.18.14.09.32l-.6,1.12c-.04.07-.05.14-.05.22l.14,1.01c0,.16-.11.37-.23.35l-.75-.09c-.06,0-.12.04-.15.09l-.75.94c-.12.15-.26.1-.23-.09l.14-1.17c.01-.06,0-.12-.05-.17l-.6-.43c-.09-.08-.04-.32.09-.42l.83-.63c.06-.05.1-.12.12-.19l.37-1.21c.08-.17.26-.26.32-.14Z"/>
                <path class="cls-23" d="M128.06,148.66l.37.75s.06.07.1.05c0,0,.01,0,.02,0l.83-.32c.13-.05.18.14.09.32l-.6,1.12c-.04.06-.05.14-.05.21l.14,1.01c0,.17-.11.38-.23.36l-.75-.09c-.06,0-.12.03-.15.08l-.75.95c-.12.15-.26.1-.23-.09l.14-1.18c0-.08,0-.14-.05-.16l-.6-.44c-.09-.07-.04-.31.09-.41l.83-.64c.07-.04.12-.1.15-.17l.37-1.21c.06-.18.23-.29.29-.15Z"/>
                <path class="cls-23" d="M132.24,146.26l.37.79s.07.07.12.05c0,0,0,0,0,0l.83-.32c.13-.05.18.14.09.31l-.6,1.12c-.04.07-.05.14-.05.22l.14,1.01c0,.17-.11.38-.23.36l-.75-.09c-.06,0-.12.03-.15.08l-.75.95c-.12.15-.26.1-.23-.09l.14-1.18c.01-.06,0-.12-.05-.17l-.6-.43c-.1-.07-.05-.32.09-.41l.83-.64c.06-.05.1-.11.12-.19l.37-1.21c.09-.17.26-.29.32-.17Z"/>
                <path class="cls-28" d="M136.42,143.87l.37.75s.07.07.12.05c0,0,0,0,0,0l.83-.32c.13-.05.18.14.09.32l-.6,1.12c-.04.07-.05.14-.05.22l.14,1.01c0,.16-.11.37-.23.36l-.75-.1c-.06,0-.12.04-.15.09l-.75.94c-.12.15-.26.1-.23-.09l.14-1.17c.01-.06,0-.12-.05-.17l-.6-.43c-.1-.07-.05-.32.09-.42l.83-.63c.06-.05.1-.12.12-.19l.37-1.21c.08-.17.25-.26.32-.14Z"/>
              </g>
            </g>
            <g id="freepik--product--inject-118">
              <g id="freepik--speech-bubble--inject-118">
                <g id="freepik--speech-bubble--inject-118-2" data-name="freepik--speech-bubble--inject-118">
                  <path class="cls-31" d="M153.98,142.39v-53.83c.02-.54.3-1.03.75-1.33l39.25-22.66c.42-.25.75-.05.75.44v53.83c-.03.54-.3,1.03-.75,1.33l-39.22,22.66c-.43.24-.77.05-.77-.44Z"/>
                  <path class="cls-23" d="M194.05,65.37v53.47c-.02.3-.17.57-.41.75l-38.94,22.47v-53.51c.02-.3.16-.57.41-.75l38.94-22.47M194.34,64.43c-.12,0-.24.04-.34.11l-39.25,22.7c-.45.3-.73.79-.75,1.33v53.83c0,.35.17.55.43.55.12,0,.24-.04.35-.11l39.25-22.66c.45-.3.73-.79.75-1.33v-53.83c0-.35-.17-.55-.43-.55v-.04Z"/>
                  <path class="cls-23" d="M194.76,64.87c-.06-.38-.38-.53-.75-.3l-39.25,22.66c-.23.14-.41.34-.54.57l-4.27-2.4c.13-.22.31-.41.53-.55l39.25-22.65c.47-.23,1.03-.23,1.5,0l2.75,1.54c.41.25.7.66.79,1.13Z"/>
                  <g class="cls-24">
                    <path class="cls-17" d="M194.76,64.87c-.06-.38-.38-.53-.75-.3l-39.25,22.66c-.23.14-.41.34-.54.57l-4.27-2.4c.13-.22.31-.41.53-.55l39.25-22.65c.47-.23,1.03-.23,1.5,0l2.75,1.54c.41.25.7.66.79,1.13Z"/>
                  </g>
                  <path class="cls-23" d="M154.76,142.83c-.49.23-1.06.23-1.56,0l-2.74-1.57c-.45-.29-.73-.78-.75-1.31v-53.8c.01-.27.1-.53.24-.75l4.28,2.44c-.14.23-.22.48-.23.75v53.83c-.02.41.29.68.75.41Z"/>
                </g>
                <polygon class="cls-32" points="158.17 90.02 190.21 71.51 190.21 95.06 158.17 113.57 158.17 90.02"/>
                <path class="cls-28" d="M158.17,113.95c-.06,0-.12-.02-.18-.05-.11-.07-.18-.19-.18-.32v-23.58c0-.13.07-.25.18-.31l32.05-18.5c.11-.07.25-.07.36,0,.11.06.18.18.18.31v23.55c0,.13-.07.24-.18.31l-32.05,18.51c-.05.04-.11.07-.18.08ZM158.52,90.25v22.72l31.33-18.09v-22.74l-31.33,18.12Z"/>
                <path class="cls-28" d="M159.93,128.36c.14-.03.28-.03.41,0,.12.04.23.1.32.18.09.08.16.18.2.29.05.12.08.24.08.37.01.05.01.1,0,.14-.01.04-.04.07-.08.09l-.66.38s-.08.01-.11,0c-.03,0-.06,0-.09,0l-.05-.05s-.06-.05-.09-.06c-.05-.01-.1-.01-.15,0-.08.01-.16.04-.23.08-.06.04-.13.08-.18.13-.06.04-.11.09-.16.15-.05.05-.08.12-.11.18-.01.07-.01.15,0,.22,0,.06.01.12.05.17.04.04.1.05.16.05.1,0,.2-.02.3-.05l.47-.12c.15-.03.3-.05.45-.04.13,0,.25.05.35.13.1.09.17.21.2.35.05.19.07.39.07.59,0,.22-.02.43-.08.65-.06.21-.13.41-.23.61-.19.39-.47.74-.81,1.01v.56c.01.05.01.11,0,.17-.02.05-.05.09-.1.12l-.65.38s-.07.02-.1,0c-.03-.04-.04-.08-.04-.13v-.57c-.14.03-.29.03-.44,0-.13-.03-.24-.09-.34-.17-.1-.09-.17-.19-.21-.32-.05-.14-.08-.28-.08-.43,0-.05.01-.09.04-.14.01-.04.04-.07.07-.1l.66-.38s.08-.01.11,0c.02,0,.05,0,.08,0l.06.07s.07.06.11.08c.06.01.12.01.17,0,.09-.02.17-.05.25-.09.17-.09.32-.21.45-.35.11-.11.18-.26.18-.42,0-.06-.02-.12-.07-.16-.06-.02-.13-.02-.2,0-.11.01-.23.03-.34.07l-.48.12c-.26.1-.54.05-.75-.13-.18-.27-.27-.6-.23-.93,0-.19.02-.37.06-.56.04-.2.11-.39.19-.57.09-.19.19-.37.31-.54.11-.17.25-.33.41-.47v-.57c0-.06.01-.12.04-.17.02-.05.05-.09.1-.12l.65-.38s.07-.02.1,0c.02.04.02.09,0,.13l-.05.55Z"/>
                <path class="cls-28" d="M163.71,126.18c.13-.03.27-.03.41,0,.12.03.23.1.32.18.09.08.17.18.21.29.05.12.07.24.08.37.01.05.01.1,0,.14-.01.04-.04.07-.08.09l-.65.38c-.05,0-.09.04-.11,0-.03,0-.06-.02-.09-.04l-.05-.05s-.06-.05-.09-.06c-.05-.01-.1-.01-.15,0-.08,0-.16.04-.23.08-.06.04-.12.08-.18.13-.06.04-.11.09-.16.15-.09.11-.14.25-.15.4,0,.06.01.12.05.17.05.03.11.05.17.05.1,0,.2-.02.3-.05l.46-.12c.16-.04.32-.06.49-.06.12,0,.24.05.34.13.1.09.18.21.21.35.05.19.07.39.07.59,0,.22-.03.43-.08.65-.05.21-.13.41-.23.61-.1.2-.22.38-.35.56-.13.17-.28.32-.45.46v.55c0,.06-.02.12-.05.17-.02.05-.05.09-.09.12l-.66.38s-.07.03-.1,0c0,0,0,0,0,0-.02-.04-.02-.08,0-.12v-.57c-.14.03-.29.03-.44,0-.12-.03-.24-.09-.33-.17-.1-.08-.18-.19-.22-.32-.05-.14-.07-.28-.08-.43-.01-.04-.01-.09,0-.14.01-.04.04-.07.08-.1l.65-.38c.05,0,.09-.05.11,0,.03,0,.06,0,.08,0l.06.07s.06.06.11.08c.06.01.12.01.17,0,.09-.01.18-.04.26-.09.16-.1.31-.21.44-.35.11-.11.18-.26.18-.42,0-.06-.02-.12-.07-.16-.06-.02-.13-.02-.2,0-.11.01-.22.04-.33.07l-.48.12c-.26.1-.54.04-.75-.14-.19-.27-.27-.6-.24-.92,0-.19.02-.37.07-.56.04-.2.11-.39.19-.57.08-.19.18-.37.3-.54.12-.17.25-.33.41-.47v-.57c-.01-.06-.01-.12,0-.17.02-.05.05-.09.1-.12l.66-.38h.09s.05.08.05.13v.6Z"/>
              </g>
              <path class="cls-21" d="M189.85,102.44l-31.26,18.03c-.44.26-.8,0-.8-.59v-.16c0-.6.31-1.16.8-1.5l31.26-18.03c.44-.26.79,0,.79.59v.16c0,.6-.3,1.16-.79,1.5Z"/>
              <path class="cls-21" d="M189.85,107.28l-31.26,18.03c-.44.26-.8,0-.8-.59v-.16c0-.6.31-1.16.8-1.5l31.26-18.03c.44-.26.79,0,.79.59v.16c0,.6-.3,1.16-.79,1.5Z"/>
              <g id="freepik--stars--inject-118-2" data-name="freepik--stars--inject-118">
                <path class="cls-23" d="M172.2,123.12l.37.75s.06.07.1.05c0,0,.01,0,.02,0l.82-.32c.14-.05.19.14.09.32l-.59,1.12c-.04.06-.06.14-.05.21l.14,1.01c0,.17-.11.38-.23.36l-.75-.09s-.1,0-.14.08l-.75.95c-.11.15-.26.1-.23-.09l.14-1.18c0-.08,0-.14-.05-.16l-.59-.44c-.1-.07-.05-.31.08-.41l.83-.64c.06-.05.1-.11.12-.18l.37-1.21c.08-.17.25-.29.31-.14Z"/>
                <path class="cls-23" d="M176.37,120.71l.38.79s.07.07.12.05c0,0,0,0,0,0l.82-.32c.14-.05.19.14.09.31l-.59,1.13c-.04.06-.06.14-.05.21l.14,1.01c0,.17-.11.38-.23.36l-.75-.09s-.1,0-.15.08l-.75.95c-.11.15-.26.1-.23-.09l.14-1.18c.01-.06,0-.12-.05-.17l-.59-.43c-.1-.07-.05-.32.08-.41l.83-.64c.06-.05.1-.11.12-.19l.37-1.21c.08-.17.26-.28.31-.17Z"/>
                <path class="cls-23" d="M180.55,118.33l.38.75s.07.07.12.05c0,0,0,0,0,0l.82-.32c.14-.05.19.13.09.31l-.59,1.12c-.04.07-.06.14-.05.22l.14,1.01c0,.16-.11.38-.23.36l-.75-.1c-.06,0-.12.04-.15.09l-.75.94c-.11.15-.26.1-.23-.09l.14-1.17c.01-.06,0-.12-.05-.17l-.59-.43c-.1-.07-.05-.32.08-.41l.83-.64c.06-.05.1-.11.12-.19l.37-1.21c.09-.17.26-.26.32-.14Z"/>
                <path class="cls-23" d="M184.73,115.94l.37.75s.07.07.12.05c0,0,0,0,0,0l.83-.32c.14-.05.19.14.09.32l-.59,1.12c-.04.07-.06.14-.05.22l.14,1.01c0,.16-.11.37-.23.35l-.75-.09s-.1,0-.15.09l-.75.94c-.11.15-.26.1-.23-.09l.14-1.18c.01-.06,0-.12-.05-.16l-.6-.44c-.09-.07,0-.31.09-.41l.83-.63c.06-.05.1-.12.12-.19l.37-1.21c.1-.17.26-.26.32-.14Z"/>
                <path class="cls-28" d="M188.91,113.54l.37.75s.07.07.12.05c0,0,0,0,0,0l.83-.32c.14-.05.19.14.09.31l-.59,1.13c-.04.06-.06.14-.05.21l.14,1.01c0,.17-.11.38-.23.36l-.75-.09s-.1,0-.15.08l-.75.95c-.12.15-.26.1-.23-.09l.14-1.18c0-.08,0-.14-.05-.16l-.6-.44c-.09-.07-.04-.32.09-.41l.83-.64c.06-.05.1-.11.12-.18l.37-1.22c.09-.15.26-.25.32-.13Z"/>
              </g>
            </g>
            <g id="freepik--product--inject-118-2" data-name="freepik--product--inject-118">
              <g id="freepik--speech-bubble--inject-118-3" data-name="freepik--speech-bubble--inject-118">
                <g id="freepik--speech-bubble--inject-118-4" data-name="freepik--speech-bubble--inject-118">
                  <path class="cls-31" d="M101.49,244.64v-53.83c.03-.54.31-1.03.75-1.33l39.25-22.66c.43-.24.75-.05.75.44v53.84c-.03.54-.3,1.03-.75,1.33l-39.25,22.65c-.38.25-.75.05-.75-.44Z"/>
                  <path class="cls-23" d="M141.55,167.62v53.48c-.03.28-.18.54-.41.71l-38.94,22.48v-53.48c.03-.28.17-.54.41-.71l38.94-22.48M141.85,166.71c-.12,0-.24.04-.35.11l-39.25,22.66c-.45.3-.72.79-.75,1.33v53.83c0,.35.17.55.43.55.12,0,.24-.04.34-.11l39.25-22.65c.45-.3.73-.79.75-1.33v-53.8c0-.35-.17-.55-.43-.55v-.04Z"/>
                  <path class="cls-23" d="M142.26,167.13c-.06-.39-.38-.53-.75-.31l-39.25,22.66c-.22.14-.41.34-.54.57l-4.28-2.44c.13-.22.31-.41.53-.54l39.25-22.66c.47-.23,1.03-.23,1.5,0l2.75,1.54c.42.26.71.69.79,1.18Z"/>
                  <g class="cls-24">
                    <path class="cls-17" d="M142.26,167.13c-.06-.39-.38-.53-.75-.31l-39.25,22.66c-.22.14-.41.34-.54.57l-4.28-2.44c.13-.22.31-.41.53-.54l39.25-22.66c.47-.23,1.03-.23,1.5,0l2.75,1.54c.42.26.71.69.79,1.18Z"/>
                  </g>
                  <path class="cls-23" d="M102.26,245.08c-.49.24-1.06.24-1.55,0l-2.74-1.56c-.45-.3-.73-.79-.75-1.32v-53.8c.01-.28.1-.55.25-.79l4.28,2.44c-.14.23-.22.49-.23.75v53.83c-.02.46.29.71.74.45Z"/>
                </g>
                <polygon class="cls-1" points="105.67 192.27 137.72 173.77 137.72 197.31 105.67 215.82 105.67 192.27"/>
                <path class="cls-28" d="M105.67,216.18c-.06,0-.13-.02-.18-.05-.11-.06-.18-.18-.18-.31v-23.55c0-.13.07-.25.18-.31l32.05-18.51c.11-.06.24-.06.35,0,.11.06.18.18.18.31v23.55c0,.13-.07.25-.18.32l-32.05,18.51c-.05.03-.11.04-.17.04ZM106.03,192.48v22.71l31.33-18.09v-22.72l-31.33,18.09Z"/>
                <path class="cls-28" d="M107.44,230.62c.14-.03.28-.03.41,0,.12.03.22.09.32.17.08.09.15.18.2.29.05.12.08.25.08.38,0,.05-.01.09-.04.14-.02.04-.04.07-.07.1l-.66.38s-.07.04-.11.04c-.03,0-.07-.02-.09-.05l-.05-.05s-.06-.05-.1-.06c-.05-.01-.1-.01-.15,0-.08.01-.15.04-.22.08-.07.04-.13.08-.19.13-.05.05-.1.1-.15.15-.04.06-.08.12-.11.19-.03.07-.05.14-.05.22,0,.06.01.12.05.17.04.04.1.06.16.05.1,0,.2-.02.3-.05l.47-.12c.15-.05.32-.07.48-.06.13,0,.25.05.35.13.1.09.17.21.2.35.05.19.07.39.07.59,0,.22-.03.43-.08.64-.05.21-.13.42-.23.62-.1.2-.21.38-.35.55-.13.17-.28.33-.45.47v.55c0,.06-.01.12-.04.17-.02.05-.06.08-.1.11l-.66.38h-.09s-.05-.08-.05-.12v-.58c-.14.03-.29.03-.44,0-.12-.03-.23-.09-.33-.17-.1-.09-.17-.19-.21-.32-.06-.14-.08-.28-.08-.43-.01-.05-.01-.1,0-.14.01-.04.04-.07.08-.09l.66-.38s.07,0,.11,0c.03,0,.06,0,.08,0l.06.07s.07.06.11.08c.05.02.11.02.17,0,.09,0,.18-.04.26-.09.17-.09.32-.21.45-.35.11-.12.17-.27.17-.43,0-.06-.02-.11-.06-.15-.07-.02-.14-.02-.2,0-.11,0-.22.03-.33.06l-.48.13c-.26.1-.54.04-.75-.14-.19-.27-.27-.6-.24-.92,0-.19.02-.38.07-.56.09-.4.26-.78.49-1.11.12-.17.26-.33.41-.47v-.57c0-.06.02-.12.05-.17.02-.05.05-.09.09-.11l.66-.38s.07-.02.1,0c.03.04.04.08.04.13l.02.58Z"/>
                <path class="cls-28" d="M111.22,228.44c.13-.03.27-.03.41,0,.12.03.23.09.32.17.09.08.16.18.2.29.05.12.08.25.08.38.01.04.01.09,0,.14-.01.04-.04.07-.08.1l-.66.38s-.07.04-.11.04c-.03,0-.06-.02-.08-.05l-.05-.05s-.06-.05-.09-.06c-.05-.01-.1-.01-.15,0-.08.02-.16.04-.23.08l-.18.13c-.06.04-.11.09-.16.15-.05.06-.08.12-.11.19-.02.07-.02.15,0,.22,0,.06.01.12.05.17.04.04.1.06.16.05.1,0,.2-.02.3-.05l.47-.12c.16-.05.32-.07.48-.07.13,0,.25.05.35.14.1.09.17.21.21.35.05.19.07.39.07.59,0,.22-.03.43-.08.64-.05.21-.13.42-.23.62-.1.19-.22.38-.35.55-.14.17-.29.32-.45.47v.55c0,.06-.02.12-.05.17-.02.04-.05.08-.09.11l-.66.38s-.07.02-.1,0c0,0-.04-.07-.04-.13v-.57c-.14.03-.29.03-.44,0-.12-.03-.24-.09-.34-.17-.09-.09-.16-.2-.21-.32-.05-.14-.08-.28-.08-.43-.01-.05-.01-.1,0-.14.01-.04.04-.07.07-.09l.66-.38s.07-.04.11-.04c.03,0,.06.02.08.04l.06.07s.06.06.11.08c.06.02.12.02.17,0,.09,0,.18-.04.26-.09.16-.09.31-.21.44-.35.11-.11.18-.27.18-.43,0-.06-.02-.12-.07-.15-.06-.02-.13-.02-.2,0-.11,0-.23.03-.34.06l-.48.13c-.26.1-.54.04-.75-.14-.18-.27-.27-.6-.23-.92,0-.19.02-.38.06-.56.05-.2.11-.39.2-.57.08-.19.18-.37.3-.54.12-.17.25-.33.41-.47v-.57c0-.06.01-.12.04-.17.02-.05.05-.09.1-.11l.66-.38s.06-.02.09,0c.03.03.05.08.05.12l-.04.59Z"/>
              </g>
              <path class="cls-21" d="M137.35,204.7l-31.26,18.03c-.44.25-.75,0-.75-.6v-.16c0-.59.28-1.15.75-1.5l31.26-18.03c.44-.25.75,0,.75.6v.16c0,.59-.28,1.15-.75,1.5Z"/>
              <path class="cls-21" d="M137.35,209.54l-31.26,18.03c-.44.25-.75,0-.75-.6v-.16c0-.59.28-1.15.75-1.5l31.26-18.03c.44-.25.75,0,.75.6v.16c0,.59-.28,1.15-.75,1.5Z"/>
              <g id="freepik--stars--inject-118-3" data-name="freepik--stars--inject-118">
                <path class="cls-23" d="M119.7,225.37l.37.75s.07.07.12.05c0,0,0,0,0,0l.83-.32c.14-.05.19.13.09.31l-.6,1.12c-.04.07-.05.14-.05.22l.14,1.01c0,.16-.11.38-.23.36l-.75-.09c-.06,0-.12.03-.15.08l-.75.95c-.12.14-.26.09-.23-.1l.14-1.17c.01-.06,0-.12-.05-.17l-.6-.43c-.09-.07-.04-.32.09-.41l.83-.64c.06-.05.1-.11.12-.19l.37-1.21c.09-.16.26-.26.32-.14Z"/>
                <path class="cls-23" d="M123.88,222.98l.37.75s.06.07.1.05c0,0,.01,0,.02,0l.83-.32c.14-.05.18.14.09.32l-.6,1.12c-.04.07-.05.14-.05.22l.14,1.01c0,.16-.11.37-.23.35l-.75-.09c-.06,0-.12.04-.15.09l-.75.94c-.12.15-.26.1-.23-.09l.14-1.18c.01-.06,0-.12-.05-.16l-.6-.43c-.09-.08-.04-.32.09-.42l.83-.63c.06-.05.1-.12.12-.19l.37-1.21c.08-.17.26-.26.32-.14Z"/>
                <path class="cls-23" d="M128.06,220.59l.37.75s.07.07.12.05c0,0,0,0,0,0l.83-.32c.13-.05.18.14.09.32l-.6,1.12c-.04.06-.05.14-.05.21l.14,1.01c0,.17-.11.38-.23.36l-.75-.09c-.06,0-.12.03-.15.08l-.75.95c-.12.15-.26.1-.23-.09l.14-1.18c0-.08,0-.14-.05-.16l-.6-.44c-.09-.07-.04-.32.09-.41l.83-.64c.06-.05.1-.11.12-.18l.37-1.21c.09-.17.26-.26.32-.14Z"/>
                <path class="cls-23" d="M132.24,218.19l.37.75s.07.06.12.05l.83-.32c.13-.05.18.14.09.31l-.6,1.12c-.04.07-.05.14-.05.22l.14,1.01c0,.17-.11.38-.23.36l-.75-.09c-.06,0-.12.03-.15.08l-.75.95c-.12.15-.26.09-.23-.09l.14-1.14c.01-.06,0-.12-.05-.17l-.6-.43c-.1-.07-.05-.32.09-.41l.83-.64c.06-.05.1-.11.12-.19l.37-1.21c.09-.19.26-.29.32-.17Z"/>
                <path class="cls-23" d="M136.42,215.8l.37.75s.07.07.12.05c0,0,0,0,0,0l.83-.32c.13-.05.18.14.09.32l-.6,1.12c-.04.07-.05.14-.05.22l.14,1.01c0,.16-.11.37-.23.35l-.75-.09c-.06,0-.12.04-.15.09l-.75.94c-.12.15-.26.1-.23-.09l.14-1.17c.01-.06,0-.12-.05-.17l-.6-.43c-.1-.08-.05-.32.09-.42l.83-.63c.06-.05.1-.12.12-.19l.37-1.21c.08-.17.25-.26.32-.14Z"/>
              </g>
            </g>
            <g id="freepik--product--inject-118-3" data-name="freepik--product--inject-118">
              <g id="freepik--speech-bubble--inject-118-5" data-name="freepik--speech-bubble--inject-118">
                <g id="freepik--speech-bubble--inject-118-6" data-name="freepik--speech-bubble--inject-118">
                  <path class="cls-31" d="M101.49,172.71v-53.83c.03-.54.31-1.03.75-1.33l39.25-22.66c.43-.24.75-.05.75.44v53.84c-.03.54-.3,1.03-.75,1.33l-39.25,22.65c-.38.25-.75.05-.75-.44Z"/>
                  <path class="cls-23" d="M141.55,95.69v53.48c-.03.28-.18.54-.41.71l-38.94,22.48v-53.48c.03-.28.17-.54.41-.71l38.94-22.48M141.85,94.78c-.12,0-.24.04-.35.11l-39.25,22.66c-.45.3-.72.79-.75,1.33v53.83c0,.35.17.55.43.55.12,0,.24-.04.34-.11l39.25-22.65c.45-.3.73-.79.75-1.33v-53.8c0-.35-.17-.55-.43-.55v-.04Z"/>
                  <path class="cls-23" d="M142.26,95.19c-.06-.39-.38-.53-.75-.31l-39.25,22.66c-.22.14-.41.34-.54.57l-4.28-2.44c.13-.22.31-.41.53-.54l39.25-22.66c.47-.23,1.03-.23,1.5,0l2.75,1.54c.42.26.71.69.79,1.18Z"/>
                  <g class="cls-24">
                    <path class="cls-17" d="M142.26,95.19c-.06-.39-.38-.53-.75-.31l-39.25,22.66c-.22.14-.41.34-.54.57l-4.28-2.44c.13-.22.31-.41.53-.54l39.25-22.66c.47-.23,1.03-.23,1.5,0l2.75,1.54c.42.26.71.69.79,1.18Z"/>
                  </g>
                  <path class="cls-23" d="M102.26,173.15c-.49.24-1.06.24-1.55,0l-2.74-1.56c-.45-.3-.73-.79-.75-1.32v-53.8c.01-.28.1-.55.25-.79l4.28,2.44c-.14.23-.22.49-.23.75v53.83c-.02.46.29.71.74.45Z"/>
                </g>
                <polygon class="cls-29" points="105.67 120.34 137.72 101.84 137.72 125.38 105.67 143.88 105.67 120.34"/>
                <path class="cls-28" d="M105.67,144.24c-.06,0-.13-.02-.18-.05-.11-.06-.18-.18-.18-.31v-23.55c0-.13.07-.25.18-.31l32.05-18.51c.11-.06.24-.06.35,0,.11.06.18.18.18.31v23.55c0,.13-.07.25-.18.32l-32.05,18.51c-.05.03-.11.04-.17.04ZM106.03,120.55v22.71l31.33-18.09v-22.72l-31.33,18.09Z"/>
                <path class="cls-28" d="M107.44,158.69c.14-.03.28-.03.41,0,.12.03.22.09.32.17.08.09.15.18.2.29.05.12.08.25.08.38,0,.05-.01.09-.04.14-.02.04-.04.07-.07.1l-.66.38s-.07.04-.11.04c-.03,0-.07-.02-.09-.05l-.05-.05s-.06-.05-.1-.06c-.05-.01-.1-.01-.15,0-.08.01-.15.04-.22.08-.07.04-.13.08-.19.13-.05.05-.1.1-.15.15-.04.06-.08.12-.11.19-.03.07-.05.14-.05.22,0,.06.01.12.05.17.04.04.1.06.16.05.1,0,.2-.02.3-.05l.47-.12c.15-.05.32-.07.48-.06.13,0,.25.05.35.13.1.09.17.21.2.35.05.19.07.39.07.59,0,.22-.03.43-.08.64-.05.21-.13.42-.23.62-.1.2-.21.38-.35.55-.13.17-.28.33-.45.47v.55c0,.06-.01.12-.04.17-.02.05-.06.08-.1.11l-.66.38h-.09s-.05-.08-.05-.12v-.58c-.14.03-.29.03-.44,0-.12-.03-.23-.09-.33-.17-.1-.09-.17-.19-.21-.32-.06-.14-.08-.28-.08-.43-.01-.05-.01-.1,0-.14.01-.04.04-.07.08-.09l.66-.38s.07,0,.11,0c.03,0,.06,0,.08,0l.06.07s.07.06.11.08c.05.02.11.02.17,0,.09,0,.18-.04.26-.09.17-.09.32-.21.45-.35.11-.12.17-.27.17-.43,0-.06-.02-.11-.06-.15-.07-.02-.14-.02-.2,0-.11,0-.22.03-.33.06l-.48.13c-.26.1-.54.04-.75-.14-.19-.27-.27-.6-.24-.92,0-.19.02-.38.07-.56.09-.4.26-.78.49-1.11.12-.17.26-.33.41-.47v-.57c0-.06.02-.12.05-.17.02-.05.05-.09.09-.11l.66-.38s.07-.02.1,0c.03.04.04.08.04.13l.02.58Z"/>
                <path class="cls-28" d="M111.22,156.51c.13-.03.27-.03.41,0,.12.03.23.09.32.17.09.08.16.18.2.29.05.12.08.25.08.38.01.04.01.09,0,.14-.01.04-.04.07-.08.1l-.66.38s-.07.04-.11.04c-.03,0-.06-.02-.08-.05l-.05-.05s-.06-.05-.09-.06c-.05-.01-.1-.01-.15,0-.08.02-.16.04-.23.08l-.18.13c-.06.04-.11.09-.16.15-.05.06-.08.12-.11.19-.02.07-.02.15,0,.22,0,.06.01.12.05.17.04.04.1.06.16.05.1,0,.2-.02.3-.05l.47-.12c.16-.05.32-.07.48-.07.13,0,.25.05.35.14.1.09.17.21.21.35.05.19.07.39.07.59,0,.22-.03.43-.08.64-.05.21-.13.42-.23.62-.1.19-.22.38-.35.55-.14.17-.29.32-.45.47v.55c0,.06-.02.12-.05.17-.02.04-.05.08-.09.11l-.66.38s-.07.02-.1,0c0,0-.04-.07-.04-.13v-.57c-.14.03-.29.03-.44,0-.12-.03-.24-.09-.34-.17-.09-.09-.16-.2-.21-.32-.05-.14-.08-.28-.08-.43-.01-.05-.01-.1,0-.14.01-.04.04-.07.07-.09l.66-.38s.07-.04.11-.04c.03,0,.06.02.08.04l.06.07s.06.06.11.08c.06.02.12.02.17,0,.09,0,.18-.04.26-.09.16-.09.31-.21.44-.35.11-.11.18-.27.18-.43,0-.06-.02-.12-.07-.15-.06-.02-.13-.02-.2,0-.11,0-.23.03-.34.06l-.48.13c-.26.1-.54.04-.75-.14-.18-.27-.27-.6-.23-.92,0-.19.02-.38.06-.56.05-.2.11-.39.2-.57.08-.19.18-.37.3-.54.12-.17.25-.33.41-.47v-.57c0-.06.01-.12.04-.17.02-.05.05-.09.1-.11l.66-.38s.06-.02.09,0c.03.03.05.08.05.12l-.04.59Z"/>
              </g>
              <path class="cls-21" d="M137.35,132.76l-31.26,18.03c-.44.25-.75,0-.75-.6v-.16c0-.59.28-1.15.75-1.5l31.26-18.03c.44-.25.75,0,.75.6v.16c0,.59-.28,1.15-.75,1.5Z"/>
              <path class="cls-21" d="M137.35,137.61l-31.26,18.03c-.44.25-.75,0-.75-.6v-.16c0-.59.28-1.15.75-1.5l31.26-18.03c.44-.25.75,0,.75.6v.16c0,.59-.28,1.15-.75,1.5Z"/>
              <g id="freepik--stars--inject-118-4" data-name="freepik--stars--inject-118">
                <path class="cls-23" d="M119.7,153.43l.37.75s.07.07.12.05c0,0,0,0,0,0l.83-.32c.14-.05.19.13.09.31l-.6,1.12c-.04.07-.05.14-.05.22l.14,1.01c0,.16-.11.38-.23.36l-.75-.09c-.06,0-.12.03-.15.08l-.75.95c-.12.14-.26.09-.23-.1l.14-1.17c.01-.06,0-.12-.05-.17l-.6-.43c-.09-.07-.04-.32.09-.41l.83-.64c.06-.05.1-.11.12-.19l.37-1.21c.09-.16.26-.26.32-.14Z"/>
                <path class="cls-23" d="M123.88,151.04l.37.75s.06.07.1.05c0,0,.01,0,.02,0l.83-.32c.14-.05.18.14.09.32l-.6,1.12c-.04.07-.05.14-.05.22l.14,1.01c0,.16-.11.37-.23.35l-.75-.09c-.06,0-.12.04-.15.09l-.75.94c-.12.15-.26.1-.23-.09l.14-1.18c.01-.06,0-.12-.05-.16l-.6-.43c-.09-.08-.04-.32.09-.42l.83-.63c.06-.05.1-.12.12-.19l.37-1.21c.08-.17.26-.26.32-.14Z"/>
                <path class="cls-23" d="M128.06,148.66l.37.75s.07.07.12.05c0,0,0,0,0,0l.83-.32c.13-.05.18.14.09.32l-.6,1.12c-.04.06-.05.14-.05.21l.14,1.01c0,.17-.11.38-.23.36l-.75-.09c-.06,0-.12.03-.15.08l-.75.95c-.12.15-.26.1-.23-.09l.14-1.18c0-.08,0-.14-.05-.16l-.6-.44c-.09-.07-.04-.32.09-.41l.83-.64c.06-.05.1-.11.12-.18l.37-1.21c.09-.17.26-.26.32-.14Z"/>
                <path class="cls-23" d="M132.24,146.26l.37.75s.07.06.12.05l.83-.32c.13-.05.18.14.09.31l-.6,1.12c-.04.07-.05.14-.05.22l.14,1.01c0,.17-.11.38-.23.36l-.75-.09c-.06,0-.12.03-.15.08l-.75.95c-.12.15-.26.09-.23-.09l.14-1.14c.01-.06,0-.12-.05-.17l-.6-.43c-.1-.07-.05-.32.09-.41l.83-.64c.06-.05.1-.11.12-.19l.37-1.21c.09-.19.26-.29.32-.17Z"/>
                <path class="cls-23" d="M136.42,143.87l.37.75s.07.07.12.05c0,0,0,0,0,0l.83-.32c.13-.05.18.14.09.32l-.6,1.12c-.04.07-.05.14-.05.22l.14,1.01c0,.16-.11.37-.23.35l-.75-.09c-.06,0-.12.04-.15.09l-.75.94c-.12.15-.26.1-.23-.09l.14-1.17c.01-.06,0-.12-.05-.17l-.6-.43c-.1-.08-.05-.32.09-.42l.83-.63c.06-.05.1-.12.12-.19l.37-1.21c.08-.17.25-.26.32-.14Z"/>
              </g>
            </g>
            <g id="freepik--product--inject-118-4" data-name="freepik--product--inject-118">
              <g id="freepik--speech-bubble--inject-118-7" data-name="freepik--speech-bubble--inject-118">
                <g id="freepik--speech-bubble--inject-118-8" data-name="freepik--speech-bubble--inject-118">
                  <path class="cls-31" d="M153.98,214.32v-53.84c.03-.54.3-1.03.75-1.33l39.27-22.66c.42-.25.75-.05.75.44v53.83c-.03.54-.3,1.03-.75,1.33l-39.25,22.67c-.43.24-.77.05-.77-.44Z"/>
                  <path class="cls-23" d="M194.05,137.3v53.48c-.03.28-.18.54-.41.71l-38.94,22.48v-53.48c.03-.28.18-.54.41-.71l38.94-22.48M194.34,136.39c-.12,0-.24.04-.34.11l-39.25,22.65c-.45.3-.73.79-.75,1.33v53.84c0,.35.17.55.43.55.12,0,.24-.04.35-.11l39.22-22.67c.45-.3.73-.79.75-1.33v-53.82c0-.35-.17-.55-.43-.55h.02Z"/>
                  <path class="cls-23" d="M194.76,136.8c-.06-.38-.38-.53-.75-.3l-39.25,22.65c-.23.14-.41.34-.54.58l-4.28-2.44c.13-.22.31-.41.53-.55l39.25-22.66c.47-.23,1.03-.23,1.5,0l2.75,1.54c.43.25.73.69.8,1.18Z"/>
                  <g class="cls-24">
                    <path class="cls-17" d="M194.76,136.8c-.06-.38-.38-.53-.75-.3l-39.25,22.65c-.23.14-.41.34-.54.58l-4.28-2.44c.13-.22.31-.41.53-.55l39.25-22.66c.47-.23,1.03-.23,1.5,0l2.75,1.54c.43.25.73.69.8,1.18Z"/>
                  </g>
                  <path class="cls-23" d="M154.76,214.76c-.49.23-1.06.23-1.56,0l-2.74-1.57c-.45-.29-.73-.78-.75-1.31v-53.81c.01-.27.1-.53.24-.75l4.28,2.44c-.14.23-.22.48-.23.75v53.84c-.02.41.29.68.75.41Z"/>
                </g>
                <polygon class="cls-2" points="158.17 161.94 190.21 143.44 190.21 166.99 158.17 185.49 158.17 161.94"/>
                <path class="cls-28" d="M158.17,185.85c-.06,0-.12-.02-.18-.05-.11-.07-.18-.19-.18-.32v-23.55c0-.13.07-.25.18-.31l32.05-18.5c.11-.07.25-.07.36,0,.11.06.18.18.18.31v23.55c0,.13-.07.24-.18.31l-32.05,18.51c-.06.03-.12.04-.18.05ZM158.52,162.15v22.72l31.33-18.09v-22.71l-31.33,18.09Z"/>
                <path class="cls-28" d="M159.93,200.29c.14-.03.28-.03.41,0,.12.04.23.1.32.18.09.08.16.18.2.29.05.12.08.24.08.37.01.05.01.1,0,.14-.01.04-.04.07-.08.09l-.66.38s-.08.02-.11,0c-.03,0-.06,0-.09,0l-.05-.05s-.06-.05-.09-.06c-.05-.01-.1-.01-.15,0-.08,0-.16.04-.23.08-.06.04-.13.08-.18.13-.06.04-.11.09-.16.15-.05.05-.08.12-.11.18-.01.07-.01.15,0,.22,0,.06.01.12.05.17.04.04.1.05.16.05.1,0,.2-.02.3-.05l.47-.12c.16-.04.32-.06.48-.06.13,0,.25.05.35.13.1.09.17.21.2.35.05.19.07.39.07.59,0,.22-.02.43-.08.65-.06.21-.13.41-.23.61-.1.2-.22.38-.35.56-.14.17-.29.32-.46.46v.55c.01.06.01.12,0,.17-.02.05-.05.09-.1.12l-.65.38s-.07.03-.1,0c0,0,0,0,0,0-.03-.03-.04-.08-.04-.12v-.57c-.14.03-.29.03-.44,0-.12-.03-.24-.09-.34-.17-.09-.09-.16-.2-.21-.32-.05-.14-.08-.28-.08-.43,0-.05.01-.09.04-.14.01-.04.04-.07.07-.1l.66-.38s.07-.04.11-.04c.02,0,.05,0,.08,0l.06.07s.07.06.11.08c.06.01.12.01.17,0,.09-.01.17-.05.25-.1.17-.09.32-.21.45-.35.11-.11.18-.26.18-.42,0-.06-.02-.12-.07-.16-.06-.02-.13-.02-.2,0-.11.01-.23.03-.34.07l-.48.12c-.26.1-.54.04-.75-.14-.18-.27-.27-.6-.23-.92,0-.19.02-.37.06-.56.04-.2.11-.39.19-.57.09-.19.19-.37.31-.54.11-.17.25-.33.41-.47v-.58c0-.06.01-.11.04-.17.02-.05.05-.09.1-.12l.65-.38s.07-.02.1,0c.02.04.02.09,0,.13l-.08.61Z"/>
                <path class="cls-28" d="M163.71,198.11c.13-.03.27-.03.41,0,.12.03.23.1.32.18.09.08.17.18.21.29.05.12.07.24.08.37.01.05.01.1,0,.14-.01.04-.04.07-.08.09l-.65.38c-.05,0-.09.04-.11,0-.03,0-.06-.02-.09-.04l-.05-.05s-.06-.05-.09-.06c-.05-.01-.1-.01-.15,0-.08,0-.16.04-.23.08l-.18.12c-.06.05-.11.1-.16.16-.09.11-.14.25-.15.4,0,.06.01.12.05.17.05.03.11.05.17.05.1,0,.2-.02.3-.05l.46-.12c.16-.04.32-.06.49-.06.12,0,.24.05.34.13.1.09.18.21.21.35.05.19.07.39.07.59,0,.22-.03.43-.08.65-.05.21-.13.41-.23.61-.1.2-.22.38-.35.56-.13.17-.29.32-.45.46v.62c0,.06-.02.12-.05.17-.02.05-.05.09-.09.12l-.66.38s-.07.03-.1,0c0,0,0,0,0,0-.01-.04-.01-.08,0-.12v-.57c-.14.03-.29.03-.44,0-.12-.03-.24-.09-.33-.17-.1-.09-.17-.19-.22-.32-.05-.14-.07-.28-.08-.43,0-.05,0-.1,0-.14.01-.04.04-.07.08-.09l.65-.38c.05,0,.09-.05.11,0,.03,0,.06,0,.08,0l.06.07s.06.06.11.08c.06.01.12.01.17,0,.09-.01.18-.05.26-.1.17-.09.32-.21.44-.35.11-.11.18-.26.18-.42,0-.06-.02-.12-.07-.16-.06-.02-.13-.02-.2,0-.11.01-.22.04-.33.07l-.48.12c-.26.1-.54.04-.75-.14-.19-.27-.27-.6-.24-.92,0-.19.02-.38.07-.56.05-.2.11-.39.19-.57.08-.19.18-.36.3-.53.12-.17.25-.33.41-.47v-.58c-.01-.05-.01-.11,0-.17.02-.05.05-.09.1-.12l.66-.38s.06-.02.09,0c.03.03.05.08.05.13v.54Z"/>
              </g>
              <path class="cls-21" d="M189.85,174.37l-31.26,18.03c-.44.26-.8,0-.8-.59v-.16c0-.6.31-1.16.8-1.5l31.26-18.03c.44-.26.79,0,.79.59v.16c0,.6-.3,1.16-.79,1.5Z"/>
              <path class="cls-21" d="M189.85,179.22l-31.26,18.03c-.44.26-.8,0-.8-.59v-.16c.01-.6.31-1.16.8-1.5l31.26-18.03c.44-.26.79,0,.79.59v.16c0,.6-.3,1.16-.79,1.5Z"/>
              <g id="freepik--stars--inject-118-5" data-name="freepik--stars--inject-118">
                <path class="cls-23" d="M172.2,195.05l.37.75s.07.07.12.05c0,0,0,0,0,0l.82-.32c.14-.05.19.14.09.32l-.59,1.12c-.04.06-.06.14-.05.21l.14,1.01c0,.17-.11.38-.23.36l-.75-.09c-.06,0-.11.03-.14.08l-.75.95c-.11.15-.26.1-.23-.09l.14-1.18c0-.08,0-.14-.05-.16l-.59-.44c-.1-.07-.05-.31.08-.41l.83-.64c.06-.05.1-.11.12-.18l.37-1.21c.08-.17.25-.26.31-.14Z"/>
                <path class="cls-23" d="M176.37,192.65l.38.79s.07.07.12.05c0,0,0,0,0,0l.82-.32c.14-.05.19.14.09.31l-.59,1.12c-.04.07-.05.14-.05.22l.14,1.01c0,.17-.11.38-.23.36l-.75-.09s-.1,0-.15.08l-.75.95c-.11.15-.26.09-.23-.09l.14-1.18c.01-.06,0-.12-.05-.17l-.59-.43c-.1-.07-.05-.32.08-.41l.83-.64c.06-.05.1-.11.12-.19l.37-1.21c.08-.19.26-.29.31-.17Z"/>
                <path class="cls-23" d="M180.55,190.26l.38.75s.07.07.12.05c0,0,0,0,0,0l.82-.32c.14-.05.19.14.09.32l-.59,1.12c-.04.07-.06.14-.05.22l.14,1.01c0,.16-.11.37-.23.36l-.75-.1c-.06,0-.12.04-.15.09l-.75.94c-.11.15-.26.1-.23-.09l.14-1.17c.01-.06,0-.12-.05-.17l-.59-.43c-.1-.07-.05-.32.08-.42l.83-.63c.06-.05.1-.12.12-.19l.37-1.21c.09-.17.26-.26.32-.14Z"/>
                <path class="cls-28" d="M184.73,187.87l.37.75s.07.07.12.05c0,0,0,0,0,0l.83-.32c.14-.05.19.14.09.32l-.59,1.12c-.04.06-.06.14-.05.21l.14,1.01c0,.17-.11.38-.23.36l-.75-.09s-.1,0-.15.08l-.75.95c-.11.15-.26.1-.23-.09l.14-1.18c0-.08,0-.14-.05-.16l-.6-.44c-.09-.07,0-.31.09-.41l.83-.64c.06-.05.1-.11.12-.18l.37-1.21c.1-.17.26-.26.32-.14Z"/>
                <path class="cls-28" d="M188.91,185.47l.37.79s.07.07.12.05c0,0,0,0,0,0l.83-.32c.14-.05.19.14.09.31l-.59,1.13c-.04.06-.06.14-.05.21l.14,1.01c0,.17-.11.38-.23.36l-.75-.09s-.1,0-.15.08l-.75.95c-.12.15-.26.1-.23-.09l.14-1.18c.01-.06,0-.12-.05-.17l-.6-.43c-.09-.07-.04-.32.09-.41l.83-.64c.08-.04.14-.12.17-.2l.37-1.21c.05-.17.21-.29.27-.15Z"/>
              </g>
            </g>
          </g>
          <g id="freepik--Character--inject-118">
            <g id="freepik--character--inject-118">
              <g id="freepik--Bottom--inject-118">
                <path class="cls-3" d="M189.85,289.11c-.56-.11-.68,1.58-.56,2.32.12.74,2.16,3.43,6.18,4.73s9.77,1.17,12.23,1.34c2.46.17,6.01,1.76,8.39,2.52,5.46,1.77,8.81.1,10.4-1.11.54-.5.84-1.21.82-1.95.14-1.62,0-1.96-.17-1.97l-37.28-5.89Z"/>
                <path class="cls-28" d="M226.95,289.78c.24,1.14.41,2.29.53,3.44.13,1.39.2,3.17-.84,4.16-1.76,1.66-3.76,1.94-5.78,1.94-2.43-.02-4.83-.55-7.05-1.56-2.06-.92-3.7-1.72-6.01-1.84-2.53-.14-6.05-.08-8.53-.61-2.12-.35-4.17-1.04-6.08-2.03-1.52-.86-2.72-2.21-3.39-3.82.06-2.38,1.59-4.48,3.84-5.26,2.07-.75,4.3-.96,6.47-.59,2.37.29,4.13.81,6.25.91,1.46.13,2.92-.04,4.31-.52.67-.42,1.2-1.01,1.54-1.72.43-.71.62-1.36,1.31-1.35,0,0,11.11,1.24,12.12,1.41,1.14.2.83,1.74.75,2.57-.04.75,0,.75-.05,1.47.02.81.13,1.62.35,2.41.12.31.21.64.27,1.01Z"/>
                <path class="cls-31" d="M204.59,283.82c-.15-.11-.32-.2-.5-.25-.95-.26-1.8.61-2.29,1.3-.28.43-.5.9-.67,1.38-.26.59-.35,1.24-.26,1.88,0,.16.14.35.29.34s.21-.2.24-.35c.19-.87.53-1.7,1.02-2.45.17-.33.41-.62.69-.86.31-.24.66-.4,1.04-.49.15-.04.8.04.67-.26-.02-.06-.06-.11-.11-.14l-.13-.11Z"/>
                <path class="cls-31" d="M207.38,284.14c-.45-.09-.92-.02-1.31.21-.41.3-.73.71-.91,1.19-.47.89-.9,2.25-.45,3.23.15.32.42.2.56-.06.11-.32.19-.65.23-.99.19-.72.46-1.42.81-2.07.13-.27.29-.52.49-.75.13-.15.29-.27.47-.35.09-.04.18-.07.28-.08h.27c0-.14-.14-.23-.26-.28l-.17-.04Z"/>
                <path class="cls-31" d="M210.28,283.67c-.33.06-.64.22-.89.46-.21.24-.38.51-.48.81-.29.66-.5,1.36-.62,2.07-.09.51-.02,1.03.19,1.5.09.18.26.37.46.31s.23-.39.26-.57c.07-.33.08-.68.12-1.02.15-1.25.7-2.42,1.56-3.34.04-.05.08-.11.08-.17s-.14-.11-.23-.11c-.15,0-.29.02-.44.05Z"/>
                <path class="cls-31" d="M201.6,283.76c-.98-.13-3.2.98-4.55,3.88-.85,2.15-1.26,4.45-1.21,6.76-2.02-.49-3.83-1.6-5.16-3.19-.51-.54-.91-1.18-1.17-1.88-.13-1.65.43-3.28,1.54-4.51,1.62-1.55,3.95-2.42,7.45-2.21,3.92.23,4.14,1.31,4.14,1.31l-1.04-.16Z"/>
                <path class="cls-20" d="M228.03,265.11s-2.13,15.49-2.46,18.68c-.14,1.35-3.13,2.84-7.28,2.43-2.92-.29-4.72-2.04-4.98-3.55-.26-1.51-1.11-19.76-1.11-19.76l15.83,2.21Z"/>
                <path class="cls-20" d="M271.24,265.9l-4.7-14.95-13.97,2.59s8.51,16.13,9.63,17.6c1.83,2.43,9.04-5.24,9.04-5.24Z"/>
                <path class="cls-28" d="M276.7,270.32c.34,1.38,0,2.81-.2,4.19-.2,1.38-.39,2.74-.5,4.14-.05.85-.16,1.69-.35,2.52-.14,1-.18,2-.12,3.01,0,1.07-.05,2.13-.06,3.19-.05.45-.05.91,0,1.37.11.44-6.76,4.37-9.51,5.88-.16.09-.32.16-.5.24-2.52.99-4.51-1.05-4.51-1.05-1.17-2.92-.43-6.25,1.86-8.4,0,0,.35,0,.29-2.68,0-1.93,0-3.88-.21-5.8-.13-1.21-.43-2.4-.91-3.52-.42-1.02-1.22-2.11-1.18-3.25.04-.92.65-1.5,1.08-2.25,1.01-1.73,3.22-3.16,5.01-3.96,1.01-.45,2.67-.95,3.72-.32.56.35.83,1.01,1.23,1.5.52.59,1.12,1.1,1.8,1.5,1.32.77,2.35,1.94,2.94,3.34.04.12.08.24.11.36Z"/>
                <path class="cls-31" d="M262.84,285.44c-.33.41-.63.84-.89,1.29h0c-1.22,2.16-1.57,4.7-.96,7.11-4.84-.44-6.11-3.24-6.11-3.24,0,0-.28-2.41,2.51-4.17.34-.21.69-.39,1.05-.55h.05c1.37-.6,2.88-.76,4.34-.44Z"/>
                <path class="cls-16" d="M277.83,271.07c1.28.5.95,3.99.14,7.36s-1.24,4.51-.83,7.34c.41,2.83.65,4.05-.5,5.08-1.14,1.03-10.22,5.26-10.22,5.26,1.24-3.37,1.92-6.93,2.03-10.52.23-6.2.65-10.2,3.53-13.01,2.89-2.82,5.85-1.5,5.85-1.5Z"/>
                <path class="cls-3" d="M254.86,290.6s3.52,2.85,7.58,3.31,4.25-1.1,4.67-5.9c.42-4.8.59-11.44,2.49-14.37,1.89-2.92,5.06-4.22,6.32-3.92.26-.13,1.5.8,1.9,1.35-1.99-.09-3.93.69-5.3,2.13-2.52,2.47-3.01,7.69-3.1,12.44s-.33,10.24-4.11,10.82c-3.78.58-7.8-1.04-10.3-3.13-1.44-1.2-.14-2.74-.14-2.74Z"/>
                <path class="cls-31" d="M263.13,283.67c-.3.21-.5.52-.56.88-.05,1.02.48,1.99,1.38,2.49.51.29.95.17.12-.83-.53-.75-.85-1.63-.94-2.55Z"/>
                <path class="cls-31" d="M263.05,280.33c-.2.2-.33.47-.35.75,0,.44.75,2.25,1.67,2.61.92.36.41-.59,0-1.04-.5-.74-.94-1.52-1.32-2.33Z"/>
                <path class="cls-31" d="M262.83,276.66c-.22.12-.38.34-.41.59,0,.38,1.8,1.76,2.37,1.71s.71-.23,0-.71c-.68-.5-1.33-1.03-1.95-1.59Z"/>
                <path class="cls-3" d="M258.36,265.18s-10.74-19.54-17.18-32.72c-2.21-4.51-3.21-6.48-3.88-9.97-.68-3.49-3.29-13.07-3.29-13.07l-3.55,20.29c.84,3.71,1.38,7.48,1.6,11.27.21,4.26-.47,9.23-1.99,18.51-2.19,13.4-3.15,16.7-3.15,16.7-.95.75-3.42.86-5.89.98-5.72.26-8.47-2.41-8.47-2.41,0,0-1.5-23.6-2.03-29.02-1.77-18.49-1.88-26.3-1.46-47.89.36-18.39,2.34-40.52,2.34-40.52l40.9-9.81s7.51,13.15,6.76,26.02c-.83,13.99-1.28,44.84-1.28,44.84,2.21,3.61,4.19,7.3,6.27,16.15,1.22,5.18,3.6,16.42,5.26,24.65-4.47-.11-8.65,2.17-10.97,6Z"/>
                <path class="cls-16" d="M234.01,209.42l5.21-28.76s5.59-.65,12.96-7.13c0,0-.5,5.05-10.29,9.37l-5.61,25.55,1.02,14.03-3.29-13.06Z"/>
              </g>
              <g id="freepik--Top--inject-118">
                <path class="cls-3" d="M246.13,104.06c5.67-.67,9.77,1.33,13.77,9.02,3.76,7.26,9.14,17.76,11.2,23.08,1.01,2.59,2.68,4.88-1.94,9.89-4.32,4.52-9.16,8.51-14.42,11.88l-5.72-10.31,6.33-8.39-3.01-6.49-6.23-28.67Z"/>
                <path class="cls-16" d="M255.33,139.2c1.56,1.8,3.56,3.17,5.8,3.97-2.15.68-6.01-1.28-6.82-2.61l1.02-1.35Z"/>
                <path class="cls-26" d="M217.71,79.95s-3.61,5.26-3.22,5.74,2.25.95,2.25.95l.97-6.69Z"/>
                <path class="cls-20" d="M226.01,67.05c-2.43,1.24-6.67,2.52-8.57,9.53-.32,1.2.15,3.07,0,4.59-.21,1.7-.95,3.59-.98,4.96-.2,7.13,1.86,9.87,3.1,11.04.99.94,6.11,1.28,8.78.47,3.34-1.02,10.58-4.51,13.97-10.01,4-6.43,4.82-15.03.21-18.37-6.51-4.73-14.1-3.4-16.52-2.2Z"/>
                <path class="cls-26" d="M219.83,97.36c1.2.66,4.61.94,7.15.57l-.08-1.91c-1.09.48-2.22.85-3.37,1.1-1.21.27-2.45.35-3.69.23Z"/>
                <path class="cls-16" d="M222.25,64.44c-1.72,1.33-3.67,3.28-4.51,5.39-1.5,3.38-.94,7.31,1.44,10.14-.2-.97-.2-1.98,0-2.95-.17.84.98,2.25,1.5,2.79.82.73,1.75,1.33,2.75,1.78.07.03.13.09.17.15.03.06.04.13.04.2v1.2c-.03.33.05.66.22.95.27.32.7.45,1.1.32.39-.13.73-.38.97-.71.26-.32.45-.68.7-1,.57-.96,1.56-1.6,2.67-1.73,1.21-.11,2.37.52,2.95,1.59.55,1.7.35,3.55-.56,5.09-.86,1.34-1.89,2.1-2.93,2.16-.53,0-1.77-.2-2.21-.92,0,0-.53,5.85,4.23,7.73,0,0,5.26,1.39,9.92-.39.53-.2,1.35-1.77,1.73-2.25.75-.88,1.5-1.74,2.25-2.6,1.15-1.42,2.16-2.96,3.01-4.58,2.03-3.49,2.56-7.63,2.33-11.73-.17-3.07-2.42-6.4-2.42-6.4-3.43-8.65-17.31-10.41-25.35-4.2Z"/>
                <path class="cls-23" d="M253.03,110.02c-1.04-4.1-2.41-6.76-10.17-6.41h-1.08c-2.77.4-6.63.62-13.73,1.16-.89.17-9.36,1.59-10.78,1.77,0,0-6.34,3.81-9.49,17.19-.89,3.76-.46,7.78,4.23,11.41-.11,3.85.75,7.18.26,10.89-.85,6-1.36,12.05-1.5,18.12,0,0,9.68,4.76,25.7,3.21,9.87-.95,19.27-6.42,21.14-8.2,0,0-1.68-6.19-6.88-16.67,1.56-13.22,5.91-18.46,2.29-32.48Z"/>
                <g id="freepik--Arm--inject-118">
                  <path class="cls-26" d="M173.65,109.37c-1.64-2.65-2.55-3.76-3.51-4.51s-4.13-3.82-5.45-4.76c-.83-.6-1.79.75-1.01,2.2.6,1.13,2.55,3.09,3.36,4.07s1.86,4.25,1.86,4.25l4.75-1.24Z"/>
                  <path class="cls-20" d="M179.54,121.28c-1.44-1.37-3.6-7.84-4.47-9.77-1.19-2.61-2.25-2.74-3.28-3.01-3.4-.79-4.21-.8-5.06-.63-.52.11-.95.49-1.11,1-.89-.23-2.16-.75-2.88.57-.22.34-.38.71-.5,1.1-.23-.05-.47-.01-.68.1-1.03.54-.94,3.86-.44,4.86.35.7,1.1,1.07,2.16,1.33.91.23.86-.81.86-.81l1.17.55c1.88,2.89.56,6.6,3.68,8.78,1.36.71,2.66,1.54,3.88,2.48,7.39,7.51,14.97,14.41,17.41,16.21l4.22-13.15s-13.53-8.24-14.97-9.6Z"/>
                  <path class="cls-26" d="M165.62,108.91l4.1.75-3.82-1.23c-.12.14-.22.31-.29.48Z"/>
                  <path class="cls-26" d="M162.25,110.58l4.61,1.17-4.4-1.68c-.08.16-.15.33-.2.51Z"/>
                  <path class="cls-26" d="M165.32,116.6c-.21-.34-.4-.68-.56-1.04-.17-.32-.25-.69-.21-1.06,0,0-.97-.41-1.44-.68-.2-.13-.39-.27-.57-.43-.21-.18-.37-.4-.47-.65.05.28.19.54.38.75.17.18.36.35.56.49l.04.65c-.17-.05-.35-.05-.52,0-.24.08-.45.22-.61.42.18-.15.4-.25.63-.3.22-.03.44.01.63.13.47.26.81.69.96,1.2l1.17.52Z"/>
                  <path class="cls-3" d="M217.48,106.62c-4.93,1.06-8.22,5.61-9.54,7.62-4.25,6.5-11.84,17.28-11.84,17.28l-9.77-5.7s-1.59.33-3.54,3.37c-1.95,3.04-1.43,7.4-1.43,7.4,0,0,7.48,7.51,8.96,8.84,6.76,6.13,10.22,3.86,12.14,2.13,6.2-5.55,14.58-17.4,16.23-19.27,3.16-3.62,3.79-16.25-1.22-21.66Z"/>
                </g>
                <path class="cls-16" d="M247.63,68.67s4.07,2.02,4.2,10.26c.09,5.85.3,13.6.37,21.04.04,3.76.43,7.29-.52,10.96-.95,3.71-2.81,7.12-5.43,9.93l-.25-5.61c-.1,2.57-1.13,5.01-2.9,6.88-1.76,1.85-3.81,3.4-6.08,4.58.07-1.86-.03-3.72-.31-5.56-.85,1.15-1.39,2.49-1.56,3.91-1.41-1.12-2.46-2.64-3.01-4.36-.23.94-.47,1.88-.69,2.82-.02.15-.1.29-.2.41-.22.2-.56.08-.81-.06-3.1-1.62-8.13-10.1-8.05-18.03l-5.14.89c.95-2.14,2.28-4.08,3.94-5.74,2.86-2.95,5.16-6.41,5.36-12.08,1.17,2.95,4.84,3.98,8.33,1.68,3.49-2.31,12.74-21.9,12.74-21.9Z"/>
              </g>
            </g>
          </g>
        </g>
      </g>
    </g>
  </g>
</svg>