<?xml version="1.0" encoding="UTF-8"?>
<svg xmlns="http://www.w3.org/2000/svg" viewBox="0 0 361.15 359.95">
  <defs>
    <style>
      .cls-1 {
        fill: #37474f;
      }

      .cls-2, .cls-3, .cls-4, .cls-5, .cls-6, .cls-7, .cls-8, .cls-9, .cls-10, .cls-11, .cls-12 {
        isolation: isolate;
      }

      .cls-2, .cls-4, .cls-13 {
        opacity: .3;
      }

      .cls-3 {
        opacity: .15;
      }

      .cls-14 {
        fill: #263238;
      }

      .cls-4, .cls-15, .cls-7, .cls-9 {
        fill: #fff;
      }

      .cls-5, .cls-16 {
        fill: #fafafa;
      }

      .cls-5, .cls-11 {
        opacity: .8;
      }

      .cls-17 {
        fill: #f0f0f0;
      }

      .cls-6, .cls-7 {
        opacity: .4;
      }

      .cls-18 {
        opacity: .28;
      }

      .cls-18, .cls-19 {
        mix-blend-mode: multiply;
      }

      .cls-20 {
        fill: #ffa8a7;
      }

      .cls-21 {
        fill: #f28f8f;
      }

      .cls-22 {
        fill: #e0e0e0;
      }

      .cls-19 {
        opacity: .27;
      }

      .cls-19, .cls-23 {
        fill: #7379ff;
      }

      .cls-9 {
        opacity: .7;
      }

      .cls-10 {
        opacity: .5;
      }

      .cls-24, .cls-11 {
        fill: #455a64;
      }

      .cls-25 {
        fill: #ebebeb;
      }

      .cls-26 {
        fill: #f5f5f5;
      }

      .cls-27 {
        opacity: .2;
      }

      .cls-12 {
        opacity: .1;
      }
    </style>
  </defs>
  <g class="cls-8">
    <g id="Capa_2" data-name="Capa 2">
      <g id="Capa_17" data-name="Capa 17">
        <g>
          <g id="freepik--Floor--inject-4" class="cls-18">
            <ellipse id="freepik--floor--inject-4" class="cls-23" cx="180.57" cy="255.7" rx="180.57" ry="104.25"/>
          </g>
          <g id="freepik--Shadows--inject-4">
            <path id="freepik--Shadow--inject-4" class="cls-19" d="M238.36,283.18c-.01-1.79-.51-3.54-1.44-5.07h0c-.19-.33-.4-.64-.62-.94l-.04-.05c-.21-.29-.43-.56-.67-.83l-.07-.07c-.23-.25-.47-.49-.73-.71l-.07-.05c-.25-.22-.51-.41-.78-.59l-.47-.26-.21-.09-.24-.11c-.11-.04-.23-.08-.34-.11h-.09c-.13-.04-.27-.06-.41-.08h0c-.51-.07-1.03,0-1.49.23h0c-4.13,2.07-27.9,17.2-38.84,24.01l-5.42,3.29c-.16.09-.3.22-.41.37-.01.02-.02.04-.04.06-.05.07-.09.15-.12.23-.02.05-.04.11-.05.16-.03.07-.05.14-.06.21v.14l-.9.49-.78.44c-1.86-1.78-3.94-3.32-6.18-4.59-7.5-4.33-17.44-6.71-27.98-6.71s-20.48,2.39-27.98,6.71c-7.8,4.48-12.04,10.54-12.04,17.06s4.27,12.56,12.04,17.06c7.5,4.33,17.44,6.71,27.98,6.71s20.48-2.38,27.98-6.71c7.8-4.49,12.04-10.54,12.04-17.06-.03-3-.91-5.92-2.54-8.43l.72-.38c.46.32,1.05.37,1.56.15h0c3.71-2.04,39.9-17.47,47.3-21.44h0c.78-.52,1.33-1.55,1.39-3.06ZM174.41,327.43c-6.47,3.74-15.2,5.79-24.56,5.79s-18.09-2.06-24.56-5.79c-5.56-3.21-8.63-7.17-8.63-11.13s3.06-7.92,8.63-11.13c6.47-3.74,15.19-5.8,24.56-5.8s18.09,2.06,24.56,5.8c5.56,3.21,8.63,7.16,8.63,11.13s-3.09,7.92-8.66,11.13h.04Z"/>
            <path id="freepik--shadow--inject-4" class="cls-19" d="M243.89,191.57l-36.7-21.24c-2.12-1.08-4.63-1.08-6.75,0L13.98,277.95c-1.86,1.08-1.86,2.82,0,3.9l36.71,21.24c2.12,1.08,4.63,1.08,6.75,0l69.87-40.34,10.75,6.24c5.69,3.28,14.9,3.28,20.6,0l32.01-18.35c5.69-3.28,5.69-8.58,0-11.89l-10.74-6.24,63.95-37.08c1.87-1.04,1.87-2.77.02-3.86Z"/>
            <ellipse id="freepik--shadow--inject-4-2" data-name="freepik--shadow--inject-4" class="cls-19" cx="305.46" cy="271.32" rx="35.99" ry="20.78"/>
          </g>
          <g id="freepik--Plant--inject-4">
            <g id="freepik--Plants--inject-4">
              <path class="cls-23" d="M325.91,247.85c0-4.87-.97-13.85,3.12-22.27,2.99-6.11,8.34-12.03,13.31-11.44,4.62.55,5.05,7.67.62,12.54s-10.06,11.62-11.29,22.39l-3.19,8-2.57-9.22Z"/>
              <g class="cls-27">
                <path d="M325.91,247.85c0-4.87-.97-13.85,3.12-22.27,2.99-6.11,8.34-12.03,13.31-11.44,4.62.55,5.05,7.67.62,12.54s-10.06,11.62-11.29,22.39l-3.19,8-2.57-9.22Z"/>
              </g>
              <path class="cls-15" d="M327.57,251.27c.17-.03.28-.18.28-.35-.56-13.85,3.95-25.35,13.03-33.25.14-.12.15-.34.03-.48-.12-.14-.34-.15-.48-.03h0c-9.25,8.04-13.84,19.72-13.26,33.79,0,.19.16.33.35.33h.04Z"/>
              <path class="cls-23" d="M325,265.27c2.6,1.53,5.56,2.36,8.58,2.39,5.22.12,7.14-2.62,7.14-2.62,0,0-2.66-4.52-5.73-5.46,3.23.28,6.4,1.11,9.36,2.44,0,0,3.12-.37,3.73-5.3,0,0-2.23-2.61-8.63-3.33,2.99-.96,6.15-1.23,9.26-.78.43.11,1.34-6.24,1.49-9.19.15-2.95-.99-2.72-3.28-3.02-2.29-.3-9.87.34-11.1,1.75-1.22,1.4-1.36,5.66-1.36,5.66,0,0-1.65-2.18-1.61-4.33-1.6-.22-3.23.05-4.68.78-2.34,1.2-3.12,2.16-3.24,3.98-.12,1.82-.27,4.55.46,6.66,0,0-2.16-3.49-2.05-6.51-.86,1.46-1.6,2.98-2.22,4.55-1.02,2.65.19,9.07,3.9,12.32Z"/>
              <path class="cls-15" d="M325.11,265.59c.11-.03.2-.11.23-.22,2.96-9.1,16.93-21.06,22.27-22.88.17-.05.27-.24.22-.41,0,0,0-.01,0-.02-.05-.17-.24-.27-.41-.22,0,0-.01,0-.02,0-5.46,1.83-19.67,14.04-22.69,23.31-.06.18.04.37.22.43.06.02.13.02.19,0Z"/>
            </g>
          </g>
          <g id="freepik--Device--inject-4">
            <g id="freepik--device--inject-4">
              <g id="freepik--Monitor--inject-4">
                <path class="cls-1" d="M158.64,265.97l27.59-15.96c2.84-1.64,4.26-3.79,4.26-5.94v-3.84l-25.96-14.73c-1.62-1.06-2.64-2.83-2.75-4.76v-34.06l-48.13,27.85v34.01c.1,1.93,1.13,3.7,2.75,4.76l21.63,12.67c5.69,3.24,14.91,3.24,20.6,0Z"/>
                <path class="cls-14" d="M125.18,254.57v3.82l-8.83-5.08c-1.62-1.06-2.64-2.82-2.75-4.76v-34.01l9.18-5.3c.19,2.34.4,4.74.58,7.09l-6.43,3.72v26.58c.1,1.93,1.12,3.7,2.75,4.76l5.5,3.18Z"/>
                <path class="cls-24" d="M116.94,246.63c.11,1.93,1.12,3.7,2.75,4.76l18.36,10.68c5.69,3.28,14.9,3.28,20.6,0l27.6-15.95c5.69-3.28,5.69-8.58,0-11.89l-18.37-10.69c-1.63-1.05-2.65-2.82-2.75-4.76v-26.58l-48.18,27.85v26.58Z"/>
                <path class="cls-3" d="M173.46,226.78h0l-5.59-3.23c-1.63-1.05-2.65-2.82-2.75-4.76v-26.59l-48.18,27.85v26.58c.11,1.93,1.12,3.7,2.75,4.76l5.5,3.17,48.28-27.78Z"/>
                <path class="cls-1" d="M190.49,240.23v3.84c0,2.16-1.43,4.3-4.27,5.95l-27.59,15.94c-3.02,1.62-6.4,2.46-9.83,2.44v-3.82c3.43.01,6.8-.82,9.83-2.44l27.59-15.96c2.84-1.68,4.27-3.83,4.27-5.95Z"/>
                <path class="cls-24" d="M39.56,283.33c2.11,1.02,4.58.97,6.65-.12l186.39-107.62c2.03-1.32,3.3-3.53,3.43-5.94V6.55c-.09-2.34-1.28-4.5-3.22-5.82-2.11-1.02-4.58-.98-6.65.12L39.77,108.48c-2.03,1.32-3.3,3.53-3.43,5.94v163.08c.09,2.34,1.28,4.51,3.22,5.83Z"/>
                <path class="cls-1" d="M46.22,283.2l186.39-107.58c2.03-1.32,3.3-3.53,3.43-5.94V6.55c0-2.19-1.56-3.08-3.43-1.98L46.25,112.2c-2.03,1.32-3.3,3.53-3.43,5.94v163.07c-.04,2.19,1.5,3.08,3.39,1.98Z"/>
                <path class="cls-23" d="M49.23,259.67V120.24c.07-1.44.83-2.77,2.04-3.56L227.52,14.94c1.13-.66,2.06-.12,2.06,1.19v139.44c-.07,1.45-.84,2.78-2.06,3.56l-176.25,101.74c-1.12.66-2.04.12-2.04-1.19Z"/>
                <path class="cls-9" d="M49.23,259.67V120.24c.07-1.44.83-2.77,2.04-3.56L227.52,14.94c1.13-.66,2.06-.12,2.06,1.19v139.44c-.07,1.45-.84,2.78-2.06,3.56l-176.25,101.74c-1.12.66-2.04.12-2.04-1.19Z"/>
                <path class="cls-23" d="M139.04,222.8c-.36,0-.72-.09-1.03-.27-.79-.54-1.23-1.47-1.14-2.43.11-2.41,1.39-4.61,3.42-5.91h0c.99-.83,2.47-.7,3.3.3.44.53.63,1.22.51,1.9-.11,2.41-1.38,4.62-3.42,5.92-.49.3-1.06.47-1.64.49ZM141.92,214.5c-.44.02-.87.16-1.24.39h0c-1.79,1.17-2.91,3.11-3.03,5.24-.26.82.2,1.7,1.03,1.95.58.18,1.2.01,1.61-.43,1.79-1.16,2.91-3.11,3.03-5.24.07-.68-.23-1.35-.78-1.75-.19-.11-.4-.16-.62-.16Z"/>
              </g>
            </g>
          </g>
          <g id="freepik--Window--inject-4">
            <g id="freepik--window--inject-4">
              <path class="cls-17" d="M260.17,41.17l-181.49,104.69v133.73c.02,1.29,1.08,2.32,2.38,2.3.38,0,.76-.11,1.1-.29l3.24-1.86,171.39-98.83c2-1.3,3.26-3.48,3.38-5.86V41.17Z"/>
              <path class="cls-22" d="M259.39,42.52v132.53c-.13,2.1-1.24,4.02-2.99,5.19l-171.39,98.83-3.24,1.86c-.24.14-.51.21-.78.21-.4,0-.78-.16-1.07-.44-.3-.29-.47-.69-.47-1.11v-133.31l179.93-103.72M260.15,41.21l-181.47,104.65v133.73c0,1.29,1.05,2.34,2.34,2.34.41,0,.8-.11,1.15-.31l3.24-1.86,171.37-98.84c2-1.3,3.26-3.48,3.38-5.86V41.17l-.02.04Z"/>
              <polygon class="cls-11" points="255.86 38.69 74.36 143.34 78.68 145.83 260.17 41.17 255.86 38.69"/>
              <path class="cls-25" d="M79.9,281.64c-.75-.41-1.21-1.19-1.22-2.04v-133.73l-4.32-2.5v132.99c-.01.16-.01.33,0,.49.15,1.1.8,2.07,1.76,2.62l3.56,2.07.18.09h.03Z"/>
              <path class="cls-23" d="M74.36,143.4v-9.02c.06-1.19.69-2.28,1.68-2.93L254.18,28.75c1.06-.54,2.31-.54,3.37,0l.93.54c1,.65,1.63,1.74,1.69,2.92v9.03l-181.49,104.62-4.32-2.46Z"/>
              <path class="cls-2" d="M74.36,143.4v-9.02c.06-1.19.69-2.28,1.68-2.93L254.18,28.75c1.06-.54,2.31-.54,3.37,0l.93.54c1,.65,1.63,1.74,1.69,2.92v9.03l-181.49,104.62-4.32-2.46Z"/>
              <path class="cls-23" d="M78.68,136.87c.06-1.19.69-2.28,1.68-2.93L258.48,31.22c.93-.55,1.68-.11,1.68.97v9.05l-181.49,104.62v-9Z"/>
              <path class="cls-6" d="M78.68,136.87c.06-1.19.69-2.28,1.68-2.93L258.48,31.22c.93-.55,1.68-.11,1.68.97v9.05l-181.49,104.62v-9Z"/>
              <path class="cls-23" d="M79.17,135.2c-.3.51-.47,1.08-.49,1.67v9l-4.31-2.49v-9.01c.02-.59.19-1.16.49-1.66l4.31,2.49Z"/>
              <path class="cls-10" d="M79.17,135.2c-.3.51-.47,1.08-.49,1.67v9l-4.31-2.49v-9.01c.02-.59.19-1.16.49-1.66l4.31,2.49Z"/>
              <path class="cls-16" d="M252.25,40.84c0,1.01.71,1.42,1.56.91.93-.61,1.51-1.63,1.56-2.75,0-1.01-.71-1.42-1.56-.91-.93.62-1.51,1.63-1.56,2.75Z"/>
              <path class="cls-16" d="M245.91,44.48c0,1.01.71,1.42,1.56.91.93-.62,1.51-1.63,1.56-2.75,0-1.01-.71-1.42-1.56-.91-.93.62-1.51,1.63-1.56,2.75Z"/>
              <path class="cls-16" d="M239.57,48.15c0,1.01.71,1.42,1.56.91.93-.62,1.51-1.63,1.56-2.75,0-1.01-.71-1.42-1.56-.91-.93.61-1.51,1.63-1.56,2.75Z"/>
              <path class="cls-16" d="M78.68,145.87v133.73c.02,1.29,1.08,2.32,2.38,2.3.38,0,.76-.11,1.1-.29l3.24-1.86,39.66-22.87V119.15l-46.36,26.71Z"/>
              <polygon class="cls-16" points="128.21 121.42 128.21 251.27 256.36 177.29 256.36 47.43 128.21 121.42"/>
              <path class="cls-23" d="M114.43,134.85l-29.58,17.1c-.59.38-.95,1.02-.99,1.72v3.08c0,.63.44.88.99.57l29.58-17.1c.59-.38.95-1.02.99-1.72v-3.07c0-.63-.44-.89-.99-.58Z"/>
              <path class="cls-5" d="M114.43,134.85l-29.58,17.1c-.59.38-.95,1.02-.99,1.72v3.08c0,.63.44.88.99.57l29.58-17.1c.59-.38.95-1.02.99-1.72v-3.07c0-.63-.44-.89-.99-.58Z"/>
              <path class="cls-24" d="M121.01,136.07l-.87-.84c.17-.44.27-.91.27-1.39.07-.58-.18-1.15-.65-1.5-.33-.19-.74-.17-1.06.05-.88.67-1.39,1.72-1.37,2.83-.06.58.19,1.15.66,1.5.14.08.3.13.46.12.21,0,.42-.06.6-.17.32-.2.58-.46.78-.78l.72.69c.06.07.14.1.23.1.09,0,.18-.04.25-.11.13-.13.13-.34,0-.47,0,0-.02-.02-.03-.02ZM118.71,136.07c-.11.08-.25.1-.37.05-.15-.09-.31-.37-.31-.9-.02-.86.36-1.69,1.03-2.24.07-.05.16-.08.24-.08.04-.01.09-.01.13,0,.14.09.3.37.3.9.03.88-.35,1.71-1.02,2.28h0Z"/>
              <path class="cls-24" d="M84.59,166.35l-.66.38s-.07,0-.07-.05v-1.79c0-.06.03-.11.07-.14l.66-.38s.07,0,.07.05v1.79c0,.06-.03.11-.07.14Z"/>
              <path class="cls-24" d="M85.58,165.77l-.66.38s-.07,0-.07-.05v-1.79c0-.05.03-.1.07-.13l.66-.37s.07,0,.07.05v1.8s-.03.09-.07.12Z"/>
              <path class="cls-24" d="M86.57,165.19l-.66.39s-.07,0-.07-.05v-1.8c0-.05.03-.1.07-.13l.66-.38s.07,0,.07.05v1.79c0,.05-.02.1-.07.13Z"/>
              <path class="cls-24" d="M84.59,168.66l-.66.38s-.07,0-.07-.05v-1.79c0-.06.03-.11.07-.14l.66-.38s.07,0,.07.05v1.79c0,.06-.03.11-.07.14Z"/>
              <path class="cls-24" d="M85.58,168.08l-.66.38s-.07,0-.07-.05v-1.79c0-.05.03-.1.07-.13l.66-.34s.07,0,.07.05v1.8s-.04.07-.07.09Z"/>
              <path class="cls-24" d="M86.57,167.51l-.66.39s-.07,0-.07-.05v-1.8c0-.05.03-.1.07-.13l.66-.38s.07,0,.07.05v1.79c0,.05-.02.1-.07.13Z"/>
              <path class="cls-24" d="M84.69,174.78l-.78-.49v-.15l.78-1.44c0-.07.1-.06.1,0v1.94c0,.09-.06.16-.1.14Z"/>
              <path class="cls-24" d="M84.34,173.68l1.08-.62v.51l-1.08.62c-.09.05-.16,0-.16-.16,0-.14.06-.26.16-.35Z"/>
              <polygon class="cls-24" points="85.62 172.94 85.99 172.73 85.99 173.24 85.62 173.45 85.62 172.94"/>
              <path class="cls-24" d="M86.98,172.38v1.88c0,.14-.06.27-.17.35-.09.05-.16,0-.16-.16v-1.62l-.45.26v-.51l.62-.36c.09-.02.17.05.17.16Z"/>
              <path class="cls-24" d="M85.01,178.99c-.85.77-1.27,1.9-1.13,3.04.13.97.71.94.78,1.39,0,.05.04.07.07.05l.73-.41s.07-.08.08-.13c.08-.6.82-1.33.82-2.78,0-1.12-.61-1.66-1.34-1.15Z"/>
              <path class="cls-24" d="M85.44,184.24l-.7.41s-.09,0-.09-.07v-.64c0-.07.03-.13.09-.17l.7-.41s.09,0,.09.07v.66c0,.06-.04.12-.09.16Z"/>
              <path class="cls-24" d="M85.18,163.8c-.74.72-1.19,1.68-1.27,2.7-.07.5,0,1,.18,1.47l-.23,1.23c0,.1,0,.15.09.09l.71-.78c.37.09.76-.03,1.03-.3.74-.72,1.19-1.68,1.27-2.7.18-1.71-.73-2.56-1.78-1.71ZM85.43,167.83c-.65.37-1.18-.13-1.18-1.14-.02-.97.42-1.89,1.18-2.5.66-.37,1.19.13,1.19,1.14.02.98-.42,1.91-1.19,2.51v-.02Z"/>
              <path class="cls-24" d="M85.18,187.49c-.74.71-1.19,1.67-1.27,2.69-.07.5,0,1.01.18,1.47l-.23,1.22c0,.1,0,.16.09.09l.71-.78c.37.09.76-.03,1.03-.3.73-.72,1.18-1.68,1.27-2.7.18-1.71-.73-2.57-1.78-1.71ZM85.43,191.51c-.65.37-1.18-.13-1.18-1.14-.02-.97.42-1.89,1.18-2.5.66-.37,1.19.13,1.19,1.14.01.97-.42,1.89-1.19,2.5Z"/>
              <path class="cls-24" d="M86.18,196.16c0,.51-.22,1-.62,1.32-.34.2-.62-.07-.62-.6,0-.51.22-1,.62-1.32.34-.19.62.07.62.6Z"/>
              <path class="cls-24" d="M87.25,196.35c0,.34-.15.67-.41.88-.23.13-.42-.05-.42-.4,0-.34.15-.67.42-.88.23-.13.41.05.41.4Z"/>
              <path class="cls-24" d="M86.29,199.94l-1.49.84v-1.89c0-.41.21-.79.54-1.02l.41-.23c.29-.16.53,0,.53.41l.02,1.9Z"/>
              <path class="cls-24" d="M86.89,197.45l-.41.23v2.14l.78-.44v-1.67c-.02-.27-.18-.37-.37-.27Z"/>
              <path class="cls-24" d="M83.86,198.3c0,.35.19.53.41.4.27-.21.42-.53.41-.87,0-.36-.19-.54-.41-.41-.27.21-.42.54-.41.88Z"/>
              <path class="cls-24" d="M84.21,198.99l.4-.23v2.15l-.78.44v-1.67c0-.28.15-.53.38-.69Z"/>
              <path class="cls-22" d="M91.04,162.13l17.33-10.03c.47-.27.84-.08.84.43-.04.58-.35,1.1-.84,1.4l-17.33,10.03c-.47.27-.84.08-.84-.43.04-.58.35-1.1.84-1.4Z"/>
              <path class="cls-22" d="M91.04,170.28l17.32-10c.47-.27.84-.08.84.43-.04.58-.35,1.1-.84,1.4l-17.32,10c-.47.27-.84.08-.84-.43.04-.58.35-1.1.84-1.4Z"/>
              <path class="cls-22" d="M91.04,178.44l17.33-9.96c.47-.27.84-.08.84.42-.04.58-.35,1.1-.84,1.4l-17.33,9.96c-.47.27-.84.08-.84-.43.04-.57.35-1.09.84-1.4Z"/>
              <path class="cls-22" d="M91.04,186.59l17.32-10c.47-.27.84-.08.84.43-.04.57-.35,1.09-.84,1.4l-17.32,10.01c-.47.27-.84.08-.84-.43.04-.58.35-1.1.84-1.4Z"/>
              <path class="cls-22" d="M91.04,194.74l17.32-10c.47-.27.84-.08.84.43-.04.58-.35,1.1-.84,1.4l-17.32,9.98c-.47.27-.84.08-.84-.43.05-.57.36-1.08.84-1.39Z"/>
              <path class="cls-24" d="M94.21,201.4l17.32-10c.47-.27.84-.08.84.42-.04.58-.35,1.1-.84,1.4l-17.32,10c-.47.27-.84.08-.84-.42.04-.58.35-1.1.84-1.4Z"/>
              <path class="cls-22" d="M94.21,206.91l17.32-10c.47-.27.84-.08.84.43-.04.57-.35,1.09-.84,1.4l-17.32,10c-.47.27-.84.08-.84-.42.04-.58.35-1.1.84-1.4Z"/>
              <path class="cls-22" d="M94.21,212.41l17.32-10c.47-.27.84-.08.84.43-.04.57-.35,1.09-.84,1.4l-17.32,10.01c-.47.27-.84.08-.84-.43.04-.58.35-1.1.84-1.4Z"/>
              <path class="cls-22" d="M97.58,215.91l17.32-10c.47-.27.84-.08.84.42-.04.58-.35,1.1-.84,1.4l-17.32,10c-.46.27-.84.08-.84-.42.04-.58.35-1.1.84-1.4Z"/>
              <path class="cls-24" d="M93.53,220.65l1.41-2.48c.05-.09.05-.22,0-.25l-1.41-.86c-.06-.04-.16.09-.16.22v3.34c0,.12.1.16.16.03Z"/>
              <path class="cls-22" d="M97.58,221.4l17.32-10.02c.47-.27.84-.08.84.43-.04.58-.35,1.1-.84,1.4l-17.32,10.02c-.46.27-.84.08-.84-.43.04-.57.36-1.09.84-1.4Z"/>
              <path class="cls-24" d="M93.53,226.14l1.41-2.48c.05-.09.05-.22,0-.26l-1.41-.86c-.06-.04-.16.09-.16.23v3.34c0,.13.1.15.16.03Z"/>
              <path class="cls-22" d="M97.58,226.89l17.32-10c.47-.27.84-.08.84.43-.04.58-.35,1.1-.84,1.4l-17.32,10c-.46.27-.84.08-.84-.43.04-.57.36-1.09.84-1.4Z"/>
              <path class="cls-24" d="M93.53,231.65l1.41-2.49c.05-.09.05-.22,0-.25l-1.41-.86c-.06-.04-.16.09-.16.23v3.34c0,.11.1.12.16.03Z"/>
              <path class="cls-22" d="M97.58,232.38l17.32-10c.47-.27.84-.08.84.42-.04.58-.35,1.1-.84,1.4l-17.32,10c-.46.27-.84.08-.84-.42.04-.58.35-1.1.84-1.4Z"/>
              <path class="cls-24" d="M93.53,237.11l1.41-2.48c.05-.09.05-.22,0-.25l-1.41-.86c-.06-.05-.16.09-.16.22v3.37c0,.1.1.12.16,0Z"/>
              <path class="cls-22" d="M97.58,237.89l17.32-10c.47-.27.84-.08.84.43-.04.58-.35,1.1-.84,1.4l-17.32,10c-.46.27-.84.08-.84-.43.04-.57.36-1.09.84-1.4Z"/>
              <path class="cls-24" d="M93.53,242.57l1.41-2.48c.05-.09.05-.22,0-.26l-1.41-.86c-.06-.04-.16.09-.16.23v3.37c0,.13.1.15.16,0Z"/>
              <path class="cls-22" d="M97.58,243.35l17.32-10c.47-.27.84-.08.84.43-.04.57-.35,1.09-.84,1.4l-17.32,10.01c-.46.27-.84.08-.84-.43.04-.57.36-1.09.84-1.4Z"/>
              <path class="cls-24" d="M93.53,248.09l1.41-2.49c.05-.09.05-.22,0-.25l-1.41-.86c-.06-.04-.16.09-.16.23v3.31c0,.16.1.18.16.06Z"/>
              <path class="cls-22" d="M97.58,248.81l17.32-10c.47-.27.84-.08.84.42-.04.58-.35,1.1-.84,1.4l-17.32,10c-.46.27-.84.08-.84-.43.04-.57.36-1.09.84-1.4Z"/>
              <path class="cls-24" d="M93.53,253.58l1.41-2.48c.05-.09.05-.22,0-.25l-1.41-.86c-.06-.05-.16.09-.16.22v3.34c0,.13.1.16.16.03Z"/>
              <path class="cls-22" d="M97.58,254.32l17.32-10c.47-.27.84-.08.84.43-.04.58-.35,1.1-.84,1.4l-17.32,10c-.46.27-.84.08-.84-.43.04-.57.36-1.09.84-1.4Z"/>
              <path class="cls-24" d="M93.53,259.07l1.4-2.46c.05-.09.05-.22,0-.26l-1.41-.86c-.06-.04-.16.09-.16.23v3.34c.02.11.11.12.17,0Z"/>
              <path class="cls-17" d="M132.23,139.22l56.93-32.86c.5-.32.81-.87.84-1.46v-14.51c0-.54-.38-.78-.84-.48l-56.93,32.86c-.5.32-.82.86-.85,1.46v14.52c0,.54.38.76.85.48Z"/>
              <path class="cls-24" d="M137.19,128.98h0l.37-1.56-.51.3h0v-.33s0-.04,0-.05v-.05l.83-.48h0s0,.03,0,.05v.25s0,.1,0,.15l-.37,1.56s0,.04,0,.05c0,.01,0,.03,0,.04l-.25.14h0s-.06-.03-.06-.06c0,0,0,0,0,0Z"/>
              <path class="cls-24" d="M138.61,126.37c.07-.05.15-.07.23-.07.06,0,.11.02.16.06.04.05.07.11.09.18,0,.09,0,.17,0,.26v.48c0,.1,0,.2,0,.3-.02.1-.05.19-.09.28-.04.09-.1.17-.16.25-.07.07-.14.14-.23.19-.07.04-.15.07-.23.07-.06,0-.11-.03-.15-.07-.05-.05-.08-.11-.09-.18,0-.09,0-.17,0-.26v-.47c0-.1,0-.2,0-.3.02-.1.05-.2.09-.29.04-.09.09-.17.15-.24.06-.08.14-.14.23-.19ZM138.8,127.44v-.45s0-.08,0-.12c0-.03,0-.05,0-.08-.02,0-.04,0-.05,0h-.09s-.06.05-.09.08c-.02.03-.04.06-.05.09,0,.04,0,.08,0,.12v.69s0,.05,0,.08c.02,0,.04,0,.05,0,.03,0,.06,0,.09,0,.03-.02.06-.05.09-.08.03-.03.04-.06.05-.09,0-.04,0-.08,0-.12,0-.05-.02-.09-.04-.13h.04Z"/>
              <path class="cls-24" d="M139.77,126.06v.2c0,.05,0,.11,0,.16,0,.05-.02.1-.05.15-.02.04-.05.09-.09.12-.03.04-.07.07-.12.1-.04,0-.08,0-.12,0-.03.01-.06.01-.09,0-.03-.02-.04-.05-.05-.09,0-.05,0-.09,0-.14v-.2c0-.05,0-.1,0-.16,0-.05.02-.1.05-.15.02-.05.05-.09.09-.13.03-.04.07-.07.12-.09.04-.01.08-.01.12,0,.03-.01.06-.01.09,0l.05.09s0,.08,0,.12ZM140.2,125.49v-.05s.03,0,.04,0l.14-.09h0l-.86,2.23v.05s-.02.03-.04.04l-.14.08h0l.86-2.25ZM139.42,126.45s0,.06,0,.09h.05s.04-.04.05-.06c0-.04,0-.08,0-.12v-.17s0-.06,0-.09M139.47,126.1s-.05.04-.05.07c0,.04,0,.07,0,.11,0,.06,0,.11,0,.17l.05-.35ZM140.57,126.52v.2c0,.05,0,.11,0,.16-.01.05-.03.1-.05.15-.02.04-.05.09-.09.12-.03.04-.07.07-.12.1-.04,0-.08,0-.12,0-.03,0-.06,0-.09,0-.02-.03-.04-.06-.05-.09,0-.05,0-.09,0-.14v-.19c0-.05,0-.11,0-.16,0-.05.02-.1.05-.15,0-.05.03-.11.05-.16.03-.04.07-.07.12-.09.04,0,.08,0,.12,0,.03-.01.06-.01.09,0,.02.03.04.06.05.09l.03.16ZM140.22,126.91s0,.06,0,.09h.05c.05,0,.04,0,.05-.06,0-.04,0-.08,0-.12v-.17s0-.06,0-.09M140.28,126.56s-.05.04-.05.07c0,.04,0,.07,0,.11,0,.06,0,.11,0,.17l.05-.35Z"/>
              <path class="cls-24" d="M137.18,124.51l-.57-.88c-.66,1.13-1.11,2.36-1.35,3.64l.92-.08c.18-.94.52-1.85,1-2.68Z"/>
              <path class="cls-24" d="M138.8,122.77v-1.49c-.92.58-1.67,1.39-2.18,2.34l.57.88c.38-.7.94-1.3,1.61-1.73Z"/>
              <path class="cls-24" d="M136.05,128.58c0-.47.05-.93.13-1.39l-.92.08c-.12.62-.19,1.24-.19,1.87,0,.56.06,1.12.19,1.66l.92-1c-.09-.4-.14-.81-.13-1.22Z"/>
              <path class="cls-23" d="M142.33,123.19c-.14-.85-.63-1.6-1.35-2.08-.71-.34-1.54-.27-2.18.17v1.49c.48-.32,1.09-.37,1.61-.12.54.36.9.92,1,1.56.09.4.14.81.13,1.22,0,.47-.05.93-.13,1.39-.18.94-.52,1.85-1,2.68-.39.71-.94,1.31-1.61,1.75-.48.33-1.09.37-1.61.12-.54-.35-.9-.92-1-1.56l-.92,1c.13.85.62,1.61,1.35,2.08.71.34,1.54.28,2.18-.17.91-.59,1.66-1.39,2.18-2.34.65-1.13,1.11-2.35,1.35-3.63.12-.62.18-1.25.18-1.88,0-.56-.05-1.13-.18-1.68Z"/>
              <path class="cls-24" d="M148.07,119.1l17.31-10c.47-.27.85-.08.85.42-.04.58-.36,1.1-.85,1.4l-17.31,9.98c-.47.27-.85.08-.85-.42.05-.57.36-1.09.85-1.39Z"/>
              <path class="cls-22" d="M148.07,122.79l29.99-17.31c.47-.27.84-.08.84.43-.04.57-.35,1.09-.84,1.4l-29.99,17.31c-.47.27-.85.08-.85-.43.04-.57.36-1.09.85-1.4Z"/>
              <path class="cls-17" d="M193.98,103.56l56.93-32.86c.5-.33.81-.87.84-1.47v-14.51c0-.54-.37-.78-.84-.48l-56.93,32.86c-.5.33-.81.87-.84,1.47v14.51c.02.54.39.76.84.49Z"/>
              <path class="cls-24" d="M199.24,91.98c0-.1.02-.21.05-.3.02-.1.06-.19.11-.27.05-.08.1-.16.16-.23.06-.06.12-.11.19-.16.06-.03.12-.05.19-.06.06,0,.11,0,.16.04.05.04.09.08.12.14.03.08.04.17.04.26,0,.05,0,.1,0,.15,0,.05,0,.09,0,.14,0,.05-.02.09-.04.13l-.05.12-.33.89s0,.03,0,.05c0,.02-.02.03-.04.04l-.27.16h0s0-.03,0-.04h0l.23-.6c-.05.01-.11.01-.16,0-.05,0-.1-.02-.13-.05-.04-.04-.08-.09-.09-.14-.06-.08-.1-.16-.12-.26ZM199.93,91.59s0-.06,0-.09c0-.02-.02-.04-.04-.05h-.06s-.05,0-.07,0l-.07.05-.05.09s-.04.07-.05.1c0,.03,0,.07,0,.1,0,.03,0,.06,0,.09,0,0,0,.04.05.05h.05s.05,0,.07,0c.03-.02.05-.04.07-.06.02-.02.05-.05.06-.08.02-.03.03-.07.04-.1,0-.03,0-.07,0-.1h0Z"/>
              <path class="cls-24" d="M200.91,90.36c.06-.05.14-.07.22-.07.06,0,.11.02.16.06.04.05.08.11.09.18.01.09.01.17,0,.26v.48c.01.1.01.2,0,.3-.02.1-.06.19-.09.28-.04.09-.09.17-.16.25-.06.07-.14.14-.22.19-.07.04-.15.07-.23.07-.06,0-.11-.03-.16-.07-.05-.05-.08-.11-.09-.18,0-.08,0-.17,0-.25v-.48c0-.1,0-.2,0-.3.02-.1.05-.2.09-.29.04-.09.09-.17.16-.24.06-.08.14-.14.23-.19ZM201.09,91.44c0-.15,0-.3,0-.45,0-.04,0-.07,0-.11,0-.03,0-.06,0-.09-.02,0-.04,0-.05,0h-.09s-.06.05-.09.08c-.02.03-.04.06-.06.09v.25c0,.15,0,.3,0,.44v.12s0,.05,0,.08c.02,0,.04,0,.06,0h.09l.09-.07s.04-.07.05-.1c0-.04,0-.08,0-.12,0-.04,0-.08,0-.12h0Z"/>
              <path class="cls-24" d="M202.1,90.06c0,.07,0,.14,0,.2,0,.05,0,.11,0,.16-.01.05-.03.1-.05.15-.02.04-.05.09-.08.12-.04.04-.08.07-.12.1-.03.02-.08.04-.12.04-.03,0-.05,0-.08,0-.02-.03-.04-.06-.05-.09,0-.05,0-.09,0-.14,0-.03,0-.06,0-.09,0-.04,0-.07,0-.11,0-.05,0-.1,0-.16.01-.05.03-.1.05-.15.02-.05.04-.09.08-.13.04-.04.07-.07.12-.09.04,0,.08,0,.12,0,.02-.01.05-.01.08,0,.02.03.04.06.05.09,0,.03,0,.06,0,.09ZM202.54,89.5v-.05h.04l.14-.09h0l-.85,2.23s0,.03,0,.05v.04l-.14.08h0l.81-2.25ZM201.76,90.45v.09s0,0,.05,0c.03,0,.05-.03.05-.06v-.29s0-.06,0-.09h-.05s-.04.04-.05.07c0,.04,0,.07,0,.11v.17ZM202.9,90.53c0,.07,0,.14,0,.2,0,.05,0,.11,0,.16-.01.05-.03.1-.05.15-.02.05-.05.09-.09.12-.03.04-.07.08-.12.1-.04,0-.08,0-.12,0-.02.01-.05.01-.08,0-.02-.03-.04-.06-.05-.09,0-.04,0-.09,0-.13-.01-.07-.01-.14,0-.2,0-.05,0-.11,0-.16.01-.05.03-.1.05-.15.02-.05.04-.09.08-.12.03-.04.07-.07.12-.1.04,0,.08,0,.12,0,.03-.01.06-.01.09,0,.02.03.04.06.05.09,0,.03,0,.07,0,.1v.03ZM202.56,90.91v.09s0,0,.05,0c.03,0,.05-.03.05-.06,0-.04,0-.08,0-.12,0-.06,0-.11,0-.17,0-.03,0-.06,0-.09h-.05s-.04.04-.05.07c0,.04,0,.07,0,.11v.17Z"/>
              <path class="cls-24" d="M201.08,86.8v-1.49c-.92.58-1.67,1.39-2.18,2.34l.57.88c.38-.7.94-1.3,1.61-1.73Z"/>
              <path class="cls-23" d="M204.61,87.22c-.14-.85-.63-1.61-1.35-2.08-.71-.34-1.54-.28-2.18.17v1.49c.48-.33,1.09-.37,1.61-.12.54.36.9.92,1,1.56.09.4.14.81.13,1.22,0,.47-.05.93-.13,1.39-.18.94-.52,1.85-1,2.68-.39.71-.94,1.31-1.61,1.75-.48.33-1.09.37-1.61.12-.54-.35-.9-.92-1-1.56-.09-.4-.14-.81-.13-1.22,0-.47.05-.93.13-1.39.17-.94.5-1.85.97-2.68l-.57-.88c-.66,1.12-1.11,2.35-1.35,3.63-.12.62-.18,1.25-.19,1.88,0,.56.06,1.12.19,1.66.13.85.62,1.61,1.35,2.08.71.34,1.54.28,2.18-.17.91-.58,1.66-1.39,2.18-2.34h0c.65-1.13,1.11-2.36,1.35-3.63.12-.62.18-1.25.18-1.88.01-.56-.04-1.13-.16-1.68Z"/>
              <path class="cls-24" d="M210.36,83.13l17.32-10.01c.46-.27.84-.08.84.43-.04.58-.35,1.1-.84,1.4l-17.32,10c-.47.27-.84.08-.84-.43.04-.57.35-1.09.84-1.4Z"/>
              <path class="cls-22" d="M210.36,86.81l29.99-17.31c.47-.27.85-.08.85.43-.04.57-.36,1.09-.85,1.4l-29.99,17.31c-.47.27-.84.08-.84-.43.04-.58.35-1.1.84-1.4Z"/>
              <path class="cls-24" d="M138.02,143.21l12.15-7.02c.47-.27.84-.08.84.42-.04.58-.35,1.1-.84,1.4l-12.15,7.02c-.47.27-.84.08-.84-.43.04-.57.35-1.09.84-1.4Z"/>
              <path class="cls-22" d="M250.98,82.53v92.81c-.03.31-.2.6-.45.78l-118.37,68.32v-92.81c.04-.31.2-.6.46-.78l1.47-.85c.74-.46,1.21-1.26,1.24-2.14v-5.35c.03-.31.2-.6.45-.78l16.99-9.81v4.99c-.06.7.46,1.32,1.16,1.38.03,0,.06,0,.09,0,.27,0,.54-.08.78-.22l96.19-55.54M251.29,81.55c-.13,0-.26.05-.37.12l-96.52,55.72c-.11.07-.24.11-.37.12-.28,0-.47-.23-.47-.6v-5.37c0-.38-.19-.6-.47-.6-.13,0-.26.05-.37.12l-17.32,10c-.5.33-.81.87-.84,1.47v5.37c-.03.59-.35,1.14-.85,1.46l-1.47.86c-.5.32-.82.86-.85,1.46v93.16c0,.38.19.61.47.61.14,0,.27-.05.38-.12l118.68-68.53c.5-.32.81-.87.84-1.46v-93.16c0-.38-.19-.6-.47-.6h0Z"/>
              <path class="cls-22" d="M139.01,155.7c-.14,0-.29-.03-.41-.1-.3-.2-.47-.53-.44-.89v-3.53c.03-.73.42-1.41,1.05-1.8l9.41-5.46c.29-.2.67-.22.98-.06.3.2.47.53.44.89v3.53c-.03.73-.42,1.41-1.05,1.8l-9.41,5.46c-.18.1-.37.16-.58.16ZM139.59,150.05c-.38.25-.63.67-.66,1.12v3.53c0,.07.01.15.05.21.08,0,.15-.02.21-.06l9.41-5.42c.38-.26.62-.67.65-1.13v-3.53c0-.07-.01-.15-.05-.21-.08,0-.15.02-.21.06l-9.41,5.43Z"/>
              <path class="cls-22" d="M140.17,151.5l6.14-3.56c.31-.18.56-.05.56.28-.03.38-.23.73-.56.94l-6.14,3.56c-.31.18-.56.05-.56-.29.03-.38.24-.73.56-.94Z"/>
              <path class="cls-24" d="M147.71,147.36l.51.73s.05,0,.08-.05l.51-1.31c0-.06,0-.12,0-.09l-1.01.58c-.06.02-.09.08-.08.14Z"/>
              <path class="cls-23" d="M137.72,189.98c.45-.26.78-.05.78.47-.02.57-.31,1.09-.78,1.41-.45.26-.78.05-.78-.47.02-.57.31-1.09.78-1.41Z"/>
              <path class="cls-23" d="M144.07,182.66c.45-.26.82-.05.82.47-.03.57-.34,1.1-.82,1.41-.44.26-.78.05-.78-.47.02-.57.31-1.09.78-1.41Z"/>
              <path class="cls-23" d="M150.39,179c.44-.26.78-.05.78.47-.02.57-.31,1.09-.78,1.41-.45.26-.82.05-.82-.47.03-.57.34-1.1.82-1.41Z"/>
              <path class="cls-23" d="M156.73,176.95c.45-.26.78-.05.78.47-.02.57-.31,1.09-.78,1.41-.45.26-.78.05-.78-.47.02-.57.31-1.09.78-1.41Z"/>
              <path class="cls-23" d="M163.07,170.36c.45-.26.78-.05.78.48-.02.57-.31,1.09-.78,1.4-.44.27-.78.05-.78-.47.03-.57.31-1.09.78-1.41Z"/>
              <path class="cls-23" d="M169.4,168.03c.45-.26.78-.05.78.47-.02.57-.31,1.09-.78,1.41-.45.26-.78.05-.78-.47.02-.57.31-1.09.78-1.41Z"/>
              <path class="cls-23" d="M175.73,160.68c.45-.27.82-.05.82.47-.03.57-.34,1.1-.82,1.41-.44.26-.78.05-.78-.48.03-.56.31-1.08.78-1.4Z"/>
              <path class="cls-23" d="M182.07,158.88c.44-.26.78-.05.78.48-.03.56-.31,1.08-.78,1.4-.45.27-.78.05-.78-.47.02-.57.31-1.09.78-1.41Z"/>
              <path class="cls-23" d="M188.4,138.76c.45-.26.78-.05.78.48-.03.57-.31,1.09-.78,1.41-.45.26-.78.05-.78-.48.02-.57.31-1.09.78-1.41Z"/>
              <path class="cls-23" d="M194.76,149.76c.44-.27.78-.05.78.47-.03.57-.31,1.09-.78,1.41-.45.26-.82.05-.82-.48.03-.57.34-1.09.82-1.4Z"/>
              <path class="cls-23" d="M201.08,149.76c.45-.27.78-.05.78.47-.02.57-.31,1.09-.78,1.41-.45.26-.78.05-.78-.48.02-.57.31-1.09.78-1.4Z"/>
              <path class="cls-23" d="M207.41,149.76c.45-.27.78-.05.78.47-.03.57-.31,1.09-.78,1.41-.44.26-.78.05-.78-.48.03-.56.31-1.08.78-1.4Z"/>
              <path class="cls-23" d="M213.75,138.77c.44-.27.78-.05.78.47-.03.57-.31,1.09-.78,1.41-.45.26-.82.05-.82-.48.03-.57.34-1.09.82-1.4Z"/>
              <path class="cls-23" d="M220.08,136.66c.45-.26.78-.05.78.47-.02.57-.31,1.09-.78,1.41-.45.26-.78.05-.78-.47.02-.57.31-1.09.78-1.41Z"/>
              <path class="cls-23" d="M226.44,127.79c.45-.26.82-.05.82.48-.03.57-.34,1.09-.82,1.4-.44.27-.78.05-.78-.47.03-.57.31-1.09.78-1.41Z"/>
              <ellipse class="cls-23" cx="232.76" cy="128.75" rx="1.15" ry=".66" transform="translate(4.88 265.95) rotate(-60)"/>
              <ellipse class="cls-23" cx="239.1" cy="128.74" rx="1.15" ry=".66" transform="translate(8.06 271.44) rotate(-60)"/>
              <path class="cls-23" d="M245.45,124.13c.44-.26.78-.05.78.48-.03.56-.31,1.08-.78,1.4-.45.27-.82.05-.82-.47.03-.57.34-1.1.82-1.41Z"/>
              <path class="cls-23" d="M137.7,191.1s-.1-.02-.13-.05c-.08-.08-.08-.2,0-.28l6.4-7.35.05-.05,6.29-3.63,6.32-2.05,6.3-6.56.08-.05,6.29-2.34,6.3-7.28s.06-.05.09-.06l6.24-1.8,6.29-19.99c.02-.07.09-.13.16-.14.08,0,.15.03.19.1l6.28,10.87h12.48l6.25-10.83s.06-.08.11-.09l6.28-2.08,6.29-8.82s.1-.08.16-.08h12.62l6.29-3.63c.1-.05.22-.02.27.07.05.1.01.21-.08.27l-6.33,3.67s-.07,0-.1,0h-12.57l-6.28,8.79s-.06.06-.09.07l-6.24,2.08-6.3,10.92c-.04.06-.1.09-.17.09h-12.67c-.07,0-.13-.04-.16-.09l-6.11-10.59-6.2,19.72c-.02.06-.07.11-.13.13l-6.29,1.81-6.29,7.28-.08.05-6.3,2.34-6.3,6.56s-.05.04-.08.05l-6.34,2.05-6.24,3.6-6.4,7.28s-.08.05-.12.05Z"/>
              <path class="cls-22" d="M137.72,195c-.14,0-.27-.08-.34-.19-.11-.19-.04-.43.14-.54l107.71-62.18c.2-.09.43,0,.52.19.08.17.02.37-.13.48l-107.71,62.16c-.06.05-.12.08-.19.09Z"/>
              <path class="cls-23" d="M137.72,186.32c.45-.26.78-.05.78.47-.02.57-.31,1.09-.78,1.41-.45.26-.78.05-.78-.47.02-.57.31-1.09.78-1.41Z"/>
              <path class="cls-23" d="M144.07,175.35c.45-.26.82-.05.82.47-.03.57-.34,1.1-.82,1.41-.44.26-.78.05-.78-.47.02-.57.31-1.09.78-1.41Z"/>
              <ellipse class="cls-23" cx="150.4" cy="174.92" rx="1.15" ry=".66" transform="translate(-76.29 217.71) rotate(-60)"/>
              <path class="cls-23" d="M156.73,160.68c.45-.27.78-.05.78.47-.02.57-.31,1.09-.78,1.41-.45.26-.78.05-.78-.48.02-.57.31-1.09.78-1.4Z"/>
              <path class="cls-23" d="M163.07,164.37c.45-.26.78-.05.78.47-.02.57-.31,1.09-.78,1.41-.44.26-.78.05-.78-.47.02-.57.31-1.09.78-1.41Z"/>
              <path class="cls-23" d="M169.4,162.54c.45-.26.78-.05.78.48-.02.57-.31,1.09-.78,1.4-.45.27-.78.05-.78-.47.02-.57.31-1.09.78-1.41Z"/>
              <path class="cls-23" d="M175.73,157.06c.45-.27.82-.05.82.47-.03.57-.34,1.1-.82,1.41-.44.26-.78.05-.78-.47.02-.57.31-1.09.78-1.41Z"/>
              <path class="cls-23" d="M182.07,149.76c.44-.27.78-.05.78.47-.03.57-.31,1.09-.78,1.41-.45.26-.78.05-.78-.48.02-.57.31-1.09.78-1.4Z"/>
              <path class="cls-23" d="M188.4,147.91c.45-.26.78-.05.78.47-.02.57-.31,1.09-.78,1.41-.45.26-.78.05-.78-.47.02-.57.31-1.09.78-1.41Z"/>
              <path class="cls-23" d="M194.76,142.43c.45-.27.78-.05.78.47-.03.57-.31,1.09-.78,1.41-.44.26-.78.05-.78-.48.03-.56.31-1.08.78-1.4Z"/>
              <path class="cls-23" d="M201.08,142.43c.45-.27.78-.05.78.47-.02.57-.31,1.09-.78,1.41-.45.26-.78.05-.78-.48.02-.57.31-1.09.78-1.4Z"/>
              <path class="cls-23" d="M207.41,127.79c.45-.26.78-.05.78.48-.02.57-.31,1.09-.78,1.4-.44.27-.78.05-.78-.47.03-.57.31-1.09.78-1.41Z"/>
              <path class="cls-23" d="M213.75,135.06c.44-.26.78-.05.78.47-.02.57-.31,1.09-.78,1.41-.45.26-.82.05-.82-.47.03-.57.34-1.1.82-1.41Z"/>
              <path class="cls-23" d="M220.08,127.79c.45-.26.78-.05.78.48-.02.57-.31,1.09-.78,1.4-.45.27-.78.05-.78-.47.02-.57.31-1.09.78-1.41Z"/>
              <path class="cls-23" d="M226.42,124.13c.44-.26.78-.05.78.48-.03.56-.31,1.08-.78,1.4-.45.27-.82.05-.82-.47.03-.57.34-1.1.82-1.41Z"/>
              <path class="cls-23" d="M232.76,124.13c.45-.26.78-.05.78.48-.02.57-.31,1.09-.78,1.4-.45.27-.78.05-.78-.47.02-.57.31-1.09.78-1.41Z"/>
              <path class="cls-23" d="M239.09,120.47c.45-.26.82-.05.82.48-.03.57-.34,1.09-.82,1.4-.44.27-.78.05-.78-.47.03-.57.31-1.09.78-1.41Z"/>
              <path class="cls-23" d="M245.45,120.47c.44-.26.78-.05.78.48-.03.56-.31,1.08-.78,1.4-.45.27-.82.05-.82-.47.03-.57.34-1.1.82-1.41Z"/>
              <path class="cls-23" d="M137.72,187.46s-.07.01-.1,0c-.09-.05-.12-.17-.07-.27l6.38-11c.03-.05.08-.09.13-.09l6.19-1.33,6.29-13.18s.07-.09.12-.1c.05-.02.11-.02.16,0l6.24,3.62,6.24-1.8,6.29-5.46,6.32-7.3s.06-.05.09-.06l6.29-1.82,6.3-5.46s.08-.05.13-.05h6.24l6.25-14.51c.03-.06.09-.1.16-.12.07,0,.13.02.17.07l6.19,7.14,6.18-7.14s.03-.04.05-.05l6.36-3.67s.06-.01.09,0h6.29l6.24-3.62s.06,0,.09,0h6.39c.11,0,.19.09.19.19s-.09.19-.19.19h-6.29l-6.24,3.62h-6.38l-6.29,3.63-6.31,7.29c-.08.08-.2.09-.29,0,0,0,0,0,0,0l-6.14-7.08-6.24,14.35c-.03.07-.1.12-.18.12h-6.24l-6.34,5.4h-.08l-6.28,1.81-6.31,7.28-6.35,5.51-.07.04-6.33,1.83s-.1.02-.15,0l-6.16-3.56-6.24,13.08c-.02.06-.07.09-.13.1l-6.24,1.33-6.34,10.92c-.01.07-.06.12-.12.14Z"/>
              <g class="cls-13">
                <path d="M137.72,186.32c.45-.26.78-.05.78.47-.02.57-.31,1.09-.78,1.41-.45.26-.78.05-.78-.47.02-.57.31-1.09.78-1.41Z"/>
                <path d="M144.07,175.35c.45-.26.82-.05.82.47-.03.57-.34,1.1-.82,1.41-.44.26-.78.05-.78-.47.02-.57.31-1.09.78-1.41Z"/>
                <ellipse cx="150.4" cy="174.92" rx="1.15" ry=".66" transform="translate(-76.29 217.71) rotate(-60)"/>
                <path d="M156.73,160.68c.45-.27.78-.05.78.47-.02.57-.31,1.09-.78,1.41-.45.26-.78.05-.78-.48.02-.57.31-1.09.78-1.4Z"/>
                <path d="M163.07,164.37c.45-.26.78-.05.78.47-.02.57-.31,1.09-.78,1.41-.44.26-.78.05-.78-.47.02-.57.31-1.09.78-1.41Z"/>
                <path d="M169.4,162.54c.45-.26.78-.05.78.48-.02.57-.31,1.09-.78,1.4-.45.27-.78.05-.78-.47.02-.57.31-1.09.78-1.41Z"/>
                <path d="M175.73,157.06c.45-.27.82-.05.82.47-.03.57-.34,1.1-.82,1.41-.44.26-.78.05-.78-.47.02-.57.31-1.09.78-1.41Z"/>
                <path d="M182.07,149.76c.44-.27.78-.05.78.47-.03.57-.31,1.09-.78,1.41-.45.26-.78.05-.78-.48.02-.57.31-1.09.78-1.4Z"/>
                <path d="M188.4,147.91c.45-.26.78-.05.78.47-.02.57-.31,1.09-.78,1.41-.45.26-.78.05-.78-.47.02-.57.31-1.09.78-1.41Z"/>
                <path d="M194.76,142.43c.45-.27.78-.05.78.47-.03.57-.31,1.09-.78,1.41-.44.26-.78.05-.78-.48.03-.56.31-1.08.78-1.4Z"/>
                <path d="M201.08,142.43c.45-.27.78-.05.78.47-.02.57-.31,1.09-.78,1.41-.45.26-.78.05-.78-.48.02-.57.31-1.09.78-1.4Z"/>
                <path d="M207.41,127.79c.45-.26.78-.05.78.48-.02.57-.31,1.09-.78,1.4-.44.27-.78.05-.78-.47.03-.57.31-1.09.78-1.41Z"/>
                <path d="M213.75,135.06c.44-.26.78-.05.78.47-.02.57-.31,1.09-.78,1.41-.45.26-.82.05-.82-.47.03-.57.34-1.1.82-1.41Z"/>
                <path d="M220.08,127.79c.45-.26.78-.05.78.48-.02.57-.31,1.09-.78,1.4-.45.27-.78.05-.78-.47.02-.57.31-1.09.78-1.41Z"/>
                <path d="M226.42,124.13c.44-.26.78-.05.78.48-.03.56-.31,1.08-.78,1.4-.45.27-.82.05-.82-.47.03-.57.34-1.1.82-1.41Z"/>
                <path d="M232.76,124.13c.45-.26.78-.05.78.48-.02.57-.31,1.09-.78,1.4-.45.27-.78.05-.78-.47.02-.57.31-1.09.78-1.41Z"/>
                <path d="M239.09,120.47c.45-.26.82-.05.82.48-.03.57-.34,1.09-.82,1.4-.44.27-.78.05-.78-.47.03-.57.31-1.09.78-1.41Z"/>
                <path d="M245.45,120.47c.44-.26.78-.05.78.48-.03.56-.31,1.08-.78,1.4-.45.27-.82.05-.82-.47.03-.57.34-1.1.82-1.41Z"/>
                <path d="M137.72,187.46s-.07.01-.1,0c-.09-.05-.12-.17-.07-.27l6.38-11c.03-.05.08-.09.13-.09l6.19-1.33,6.29-13.18s.07-.09.12-.1c.05-.02.11-.02.16,0l6.24,3.62,6.24-1.8,6.29-5.46,6.32-7.3s.06-.05.09-.06l6.29-1.82,6.3-5.46s.08-.05.13-.05h6.24l6.25-14.51c.03-.06.09-.1.16-.12.07,0,.13.02.17.07l6.19,7.14,6.18-7.14s.03-.04.05-.05l6.36-3.67s.06-.01.09,0h6.29l6.24-3.62s.06,0,.09,0h6.39c.11,0,.19.09.19.19s-.09.19-.19.19h-6.29l-6.24,3.62h-6.38l-6.29,3.63-6.31,7.29c-.08.08-.2.09-.29,0,0,0,0,0,0,0l-6.14-7.08-6.24,14.35c-.03.07-.1.12-.18.12h-6.24l-6.34,5.4h-.08l-6.28,1.81-6.31,7.28-6.35,5.51-.07.04-6.33,1.83s-.1.02-.15,0l-6.16-3.56-6.24,13.08c-.02.06-.07.09-.13.1l-6.24,1.33-6.34,10.92c-.01.07-.06.12-.12.14Z"/>
              </g>
              <path class="cls-22" d="M141.03,159.18l6.15-3.56c.31-.18.56-.05.56.29-.03.38-.24.73-.56.93l-6.14,3.56c-.3.18-.56.05-.56-.29.03-.38.23-.72.55-.93Z"/>
              <path class="cls-23" d="M137.72,160.68c.45-.27.78-.05.78.47-.02.57-.31,1.09-.78,1.41-.45.26-.82.05-.82-.47.03-.57.34-1.1.82-1.41Z"/>
              <path class="cls-2" d="M137.72,160.68c.45-.27.78-.05.78.47-.02.57-.31,1.09-.78,1.41-.45.26-.82.05-.82-.47.03-.57.34-1.1.82-1.41Z"/>
              <path class="cls-22" d="M141.03,162.82l6.14-3.56c.31-.18.56-.05.56.28-.03.38-.23.73-.56.94l-6.14,3.56c-.3.18-.56.05-.56-.29.03-.38.24-.73.56-.94Z"/>
              <path class="cls-23" d="M137.72,164.37c.45-.26.78-.05.78.47-.02.57-.31,1.09-.78,1.41-.45.26-.82.05-.82-.47.03-.57.34-1.1.82-1.41Z"/>
              <path class="cls-23" d="M137.72,213.11s-.1-.02-.13-.05c-.08-.07-.08-.2,0-.28,0,0,0,0,0,0l3.21-3.31,3.12-.4,3.19-4.12,3.19.44,3.12-2.8,3.17-1.9,3.22-4.47,3.21,1.01,3.08-2.75c.08-.07.2-.07.27,0,.08.06.08.18.02.25,0,0-.01.01-.02.02l-3.24,2.9-3.12-.99-3.12,4.33-3.17,1.9-3.21,2.9-3.12-.43-3.12,4.06-3.32.39-3.12,3.21s-.06.08-.11.09Z"/>
              <path class="cls-24" d="M138.98,202.41s.05-.05.08-.07c.03-.02.05-.04.09-.06.14-.09.31-.14.48-.14.14,0,.28.05.38.14.12.11.2.25.25.4.07.2.1.42.09.63,0,.24-.03.49-.09.73-.06.24-.14.47-.25.69-.1.21-.23.41-.38.58-.13.16-.29.3-.48.41-.15.09-.31.14-.48.15-.14,0-.27-.06-.37-.15-.12-.11-.21-.25-.26-.4-.06-.21-.09-.42-.09-.63-.01-.13-.01-.27,0-.4.02-.13.04-.26.08-.38,0-.12.07-.24.11-.36s.08-.23.12-.34l.84-2.4s.04-.08.05-.12c.02-.05.05-.09.09-.11l.27-.15s.04-.02.05,0c0,0,0,0,0,0v.19l-.58,1.79ZM138.37,204.44c0,.13.02.25.05.37.03.1.08.19.16.26.06.06.15.1.23.1.11,0,.22-.03.32-.09.12-.08.23-.17.32-.27.09-.12.17-.24.23-.37.14-.27.21-.57.2-.87,0-.13-.01-.25-.05-.37-.03-.1-.08-.19-.16-.26-.06-.06-.15-.1-.23-.1-.11,0-.22.04-.32.09-.12.07-.23.17-.32.27-.09.12-.17.25-.23.38-.07.14-.12.28-.16.43-.03.14-.05.29-.05.44h0Z"/>
              <path class="cls-24" d="M141.13,203.3c.02.07.04.13.06.19.03.05.07.1.12.12.07.02.15.02.22,0,.13-.03.25-.08.36-.15.1-.06.19-.13.27-.21.09-.09.16-.19.23-.3.07-.12.12-.24.16-.37.04-.14.06-.29.05-.44,0-.12-.01-.24-.05-.36-.02-.07-.08-.14-.15-.17-.07-.02-.15-.02-.23,0-.1.03-.19.07-.28.12l-.38.22s-.07.02-.09,0c-.01-.04-.01-.07,0-.11v-.26s0-.09,0-.13l.05-.12.83-1.87-1.33.78s-.05.03-.08,0c0,0,0,0,0,0,0,0-.04-.05-.04-.11v-.26c0-.05.01-.11.04-.16.02-.05.05-.08.09-.11l1.82-1.05h.09s.02.08,0,.12v.22s0,.09,0,.14c-.01.05-.04.1-.06.15l-.82,1.84c.13-.08.28-.13.43-.13.12-.01.24.03.33.1.1.09.18.2.21.34.06.18.08.37.08.55,0,.24-.03.48-.09.71-.06.22-.14.43-.25.63-.1.19-.22.36-.37.51-.13.14-.28.26-.44.36-.16.11-.35.18-.54.2-.13.02-.26,0-.37-.08-.1-.07-.18-.17-.22-.28-.05-.13-.08-.28-.08-.42-.01-.04-.01-.08,0-.12.01-.03.04-.06.07-.09l.21-.12h.09s.07.06.08.11Z"/>
              <path class="cls-24" d="M143.89,201.71c0,.07.03.13.06.19.02.06.07.1.12.12.07.02.15.02.22,0,.13-.03.25-.08.36-.15.1-.06.19-.13.27-.21.09-.09.17-.19.23-.3.07-.12.12-.24.16-.37.04-.14.06-.29.05-.44,0-.12-.01-.24-.05-.36-.03-.07-.08-.13-.15-.17-.07-.02-.15-.02-.23,0-.1.03-.19.07-.28.12l-.39.23s-.06.02-.09,0c-.01-.04-.01-.07,0-.11v-.26s-.01-.09,0-.13c.01-.04.03-.08.05-.12l.83-1.87-1.33.78s-.07.02-.09,0c-.01-.04-.01-.07,0-.11v-.26c-.01-.05-.01-.1,0-.16.02-.05.05-.09.09-.11l1.82-1.06s.06-.02.09,0c.03.03.04.07.04.12v.26s0,.09,0,.14c0,.05-.04.09-.06.15l-.82,1.84c.13-.08.27-.12.42-.14.12,0,.24.03.34.11.1.09.17.2.21.33.05.18.08.37.08.56,0,.24-.03.48-.09.71-.06.22-.14.43-.25.62-.1.19-.22.36-.37.51-.13.14-.28.27-.44.37-.16.11-.35.17-.54.2-.13.01-.26-.01-.37-.08-.1-.07-.17-.17-.22-.28-.05-.14-.07-.28-.07-.42-.01-.04-.01-.08,0-.12.01-.04.04-.07.07-.09l.21-.12s.06-.02.09,0c.02.02.03.05.04.08Z"/>
              <path class="cls-22" d="M138.29,215.63l27.38-15.87c.3-.18.56-.05.56.29-.03.38-.24.73-.56.94l-27.38,15.85c-.3.18-.56.05-.56-.29.04-.37.24-.71.56-.91Z"/>
              <path class="cls-22" d="M138.29,197.34l6.14-3.56c.31-.18.56-.05.56.28-.03.38-.24.73-.56.94l-6.14,3.56c-.3.18-.56.05-.56-.28.03-.38.24-.73.56-.94Z"/>
              <path class="cls-23" d="M137.72,235.05c-.05,0-.1-.02-.13-.06-.08-.07-.08-.19,0-.26,0,0,0,0,0,0l3.21-3.31,3.18-.4,3.2-2.8,3.12-.84,3.22-6.4,3.22,1.56,3.12-2.75h.05l3.08-.58,3.12-5.39c.04-.1.16-.14.26-.1.1.04.14.16.1.26,0,.01-.01.02-.02.03l-3.21,5.54-3.21.61-3.23,2.84-3.12-1.56-3.12,6.24-3.21.87-3.18,2.8-3.16.41-3.12,3.21c-.04.06-.11.1-.19.09Z"/>
              <g class="cls-13">
                <path d="M137.72,235.05c-.05,0-.1-.02-.13-.06-.08-.07-.08-.19,0-.26,0,0,0,0,0,0l3.21-3.31,3.18-.4,3.2-2.8,3.12-.84,3.22-6.4,3.22,1.56,3.12-2.75h.05l3.08-.58,3.12-5.39c.04-.1.16-.14.26-.1.1.04.14.16.1.26,0,.01-.01.02-.02.03l-3.21,5.54-3.21.61-3.23,2.84-3.12-1.56-3.12,6.24-3.21.87-3.18,2.8-3.16.41-3.12,3.21c-.04.06-.11.1-.19.09Z"/>
              </g>
              <path class="cls-24" d="M139.33,227.27c.01.05.01.11,0,.16-.02.04-.05.08-.09.1l-.19.11s-.06.02-.09,0c-.01-.04-.01-.08,0-.12v-3.9l-.78,1.31c-.03.06-.06.09-.09.09-.02.02-.06.02-.09,0l-.11-.16s-.02-.08,0-.12c0-.06.02-.11.05-.16l.99-1.75s.05-.07.08-.09l.07-.05.19-.11s.07-.02.09,0c.01.03.01.07,0,.11l-.03,4.56Z"/>
              <path class="cls-24" d="M141.36,223.67c.09-.16.16-.33.21-.51.05-.18.07-.37.07-.56.02-.2-.03-.39-.15-.55-.09-.11-.24-.11-.45,0-.11.06-.2.14-.27.23-.08.09-.14.2-.19.3-.05.12-.09.24-.12.36-.03.12-.05.25-.07.37,0,.05-.02.1-.05.15-.02.03-.05.06-.08.09l-.21.12h-.07s-.01-.06,0-.09c0-.2.03-.39.08-.58.05-.21.12-.42.21-.62.1-.2.21-.39.34-.56.13-.16.28-.3.46-.41.14-.09.29-.14.45-.14.12,0,.23.06.32.14.1.1.17.23.2.37.04.18.06.37.06.55,0,.14,0,.29,0,.43-.02.13-.04.27-.07.4-.04.13-.09.27-.14.41s-.12.28-.2.44l-1.04,2.08,1.42-.82s.06-.02.09,0v.37c.02.05.02.11,0,.16-.01.05-.04.09-.09.11l-2,1.15s-.06.02-.09,0c-.03-.03-.04-.07-.04-.11v-.26s0-.1,0-.15c.02-.06.05-.13.08-.19l1.33-2.68Z"/>
              <path class="cls-24" d="M145.03,221.09v1.2c0,.27-.02.55-.07.82-.05.27-.12.53-.22.78-.09.22-.21.43-.37.62-.14.18-.32.34-.52.45-.16.11-.34.16-.53.16-.14-.02-.27-.09-.36-.2-.11-.15-.19-.32-.22-.5-.05-.24-.07-.49-.08-.73v-1.23c0-.28.03-.55.08-.83.04-.27.11-.53.22-.78.09-.22.21-.43.36-.62.15-.19.33-.34.53-.46.15-.1.34-.16.52-.15.15.01.28.09.37.21.11.15.18.32.22.5.05.25.08.51.07.76ZM143.1,223.42c-.03.31.04.62.19.88.12.15.31.15.55,0,.25-.15.44-.37.55-.64.14-.36.21-.73.2-1.12v-1.2c.03-.31-.04-.62-.2-.89-.12-.15-.3-.15-.55,0-.25.15-.44.37-.55.64-.14.36-.2.73-.19,1.12v1.21h0Z"/>
              <path class="cls-22" d="M138.29,237.56l27.38-15.86c.3-.18.56-.05.56.29-.03.38-.24.72-.56.93l-27.38,15.87c-.3.18-.56.05-.56-.29.03-.38.24-.73.56-.94Z"/>
              <path class="cls-22" d="M138.29,219.26l6.14-3.56c.31-.18.56-.05.56.29-.03.38-.24.73-.56.94l-6.14,3.56c-.3.18-.56.05-.56-.28.03-.38.24-.73.56-.94Z"/>
              <path class="cls-23" d="M175.73,191.1c-.06,0-.11-.03-.15-.08-.08-.07-.08-.19,0-.26,0,0,0,0,0,0l3.17-2.53,3.19-3.64,3.24-.48,3.12-.69,3.21-3.77,3.12.55,3.12-5,3.21.05,3.12-2.77c.07-.08.2-.08.28,0,0,0,0,0,0,0,.07.08.07.2,0,.27l-3.22,2.88-3.12-.05-3.17,5.04-3.19-.56-3.12,3.7-3.24.73-3.12.45-3.12,3.56-3.2,2.61s-.08.01-.12,0Z"/>
              <path class="cls-24" d="M176.99,180.42l.08-.07.09-.06c.14-.08.29-.11.45-.11.14,0,.28.05.38.14.11.11.2.25.25.4.06.21.09.42.09.63,0,.24-.03.49-.09.73-.06.24-.14.47-.25.69-.1.21-.23.41-.38.58-.14.16-.3.3-.48.41-.14.09-.31.14-.48.15-.14,0-.28-.06-.38-.15-.11-.13-.19-.29-.22-.46-.07-.2-.1-.42-.09-.63,0-.13,0-.27,0-.4,0-.13.05-.26.08-.38l.11-.37c.04-.12.09-.23.12-.34l.84-2.4.05-.12s.05-.08.09-.11l.27-.15h.07s.01.06,0,.09c0,.02,0,.04,0,.06,0,.01,0,.03,0,.04l-.59,1.82ZM176.39,182.45c0,.13.02.25.05.37.03.1.08.19.15.26.06.06.15.1.24.1.11,0,.22-.03.31-.09.12-.07.23-.17.32-.27.09-.12.18-.25.24-.38.06-.14.11-.28.15-.43.03-.14.05-.29.05-.44,0-.13-.02-.25-.05-.37-.03-.1-.08-.18-.15-.26-.07-.06-.15-.1-.24-.1-.11,0-.22.04-.32.09-.12.07-.22.17-.31.27-.1.11-.18.24-.24.38-.07.14-.12.28-.15.43-.04.14-.06.29-.05.44h0Z"/>
              <path class="cls-24" d="M180.2,179.28c.09-.16.16-.34.21-.51.05-.18.07-.37.07-.56.02-.19-.04-.39-.15-.55-.09-.12-.25-.11-.45,0-.1.06-.2.14-.28.23-.07.1-.14.2-.19.31-.05.11-.09.23-.12.35,0,.12-.05.25-.08.37,0,.05-.02.1-.05.15-.01.03-.04.06-.07.09l-.21.12s-.06.02-.08,0c-.01-.03-.01-.06,0-.09,0-.19.03-.39.08-.58.05-.21.12-.42.21-.62.09-.2.21-.39.34-.56.13-.17.28-.31.46-.41.13-.08.29-.13.44-.13.12,0,.24.05.33.14.1.1.16.23.19.37.05.18.07.37.07.56,0,.14,0,.28,0,.42-.01.13-.04.27-.08.4-.03.14-.08.27-.13.41-.06.14-.12.28-.2.44l-1.04,2.08,1.42-.82s.06-.02.09,0c.03.03.04.07.04.12v.26c0,.05-.02.11-.04.16-.02.04-.05.08-.09.11l-2,1.15s-.07,0-.09,0c-.01-.04-.01-.08,0-.12v-.26s0-.1,0-.15c.02-.06.05-.12.08-.18l1.3-2.68Z"/>
              <path class="cls-24" d="M183.35,175.09s.06-.02.09,0c.03.03.05.07.04.12v.3s0,.09,0,.14c0,.06,0,.11,0,.17l-1.03,4.68c-.01.05-.03.1-.05.15-.02.04-.05.08-.09.1l-.21.12s-.06.02-.08,0c-.01-.03-.01-.07,0-.1h0s0-.04,0-.06l1.03-4.68-1.56.88s-.06.02-.09,0c-.03-.03-.04-.07-.04-.12v-.26c0-.05.02-.11.04-.16.02-.04.05-.08.09-.11l1.86-1.18Z"/>
              <path class="cls-22" d="M176.31,193.64l27.37-15.87c.31-.18.56-.05.56.29-.03.38-.24.73-.56.94l-27.37,15.86c-.31.18-.56.05-.56-.29.03-.38.24-.73.56-.93Z"/>
              <path class="cls-22" d="M176.31,175.34l6.13-3.56c.31-.18.57-.05.57.28-.03.38-.24.73-.57.94l-6.13,3.56c-.31.18-.56.05-.56-.28.03-.38.24-.73.56-.94Z"/>
              <path class="cls-23" d="M175.73,213.04s-.07,0-.1,0c-.09-.06-.11-.18-.06-.27l3.24-5.3,3.26.6,3.06-.84,3.17-3.86,3.12-.78,3.2-5.71,3.28.95,3.07-.58,3.12-2.78c.07-.08.19-.09.27-.02.08.07.09.19.02.27-.01.01-.02.02-.04.03l-3.21,2.85h-.05l-3.23.61-3.02-.88-3.12,5.58-3.19.78-3.17,3.86h-.05l-3.21.88h-.05l-3.03-.56-3.12,5.08c-.04.05-.1.09-.16.09Z"/>
              <g class="cls-13">
                <path d="M175.73,213.04s-.07,0-.1,0c-.09-.06-.11-.18-.06-.27l3.24-5.3,3.26.6,3.06-.84,3.17-3.86,3.12-.78,3.2-5.71,3.28.95,3.07-.58,3.12-2.78c.07-.08.19-.09.27-.02.08.07.09.19.02.27-.01.01-.02.02-.04.03l-3.21,2.85h-.05l-3.23.61-3.02-.88-3.12,5.58-3.19.78-3.17,3.86h-.05l-3.21.88h-.05l-3.03-.56-3.12,5.08c-.04.05-.1.09-.16.09Z"/>
              </g>
              <path class="cls-24" d="M177.2,203.85l-.06.05h-.06c-.13.08-.28.13-.43.14-.13,0-.27-.04-.37-.12-.1-.09-.18-.21-.23-.34-.08-.21-.11-.44-.1-.66,0-.24.03-.49.09-.73.06-.23.14-.46.25-.68.1-.2.23-.39.37-.56.12-.15.27-.29.44-.39.15-.09.31-.15.48-.16.14,0,.27.06.37.15.11.11.19.25.23.4.06.2.08.41.08.62.01.13.01.25,0,.38,0,.13-.06.27-.09.41s-.08.27-.12.4-.08.25-.12.35l-.84,2.4-.05.12s-.05.09-.09.11l-.27.16s-.04.02-.06,0c-.01-.03-.01-.07,0-.1v-.05s0-.03,0-.05l.58-1.84ZM177.8,201.83c0-.13-.01-.26-.05-.38-.03-.08-.08-.15-.14-.21-.06-.06-.14-.09-.23-.09-.1,0-.21.03-.3.09-.11.07-.21.15-.3.25-.09.11-.17.22-.23.35-.13.27-.2.56-.19.86,0,.13.01.26.05.39.03.09.08.18.15.24.06.06.14.09.23.09.11,0,.21-.03.3-.09.11-.07.21-.15.3-.25.09-.11.16-.23.23-.35.07-.13.12-.27.15-.41.04-.16.05-.32.05-.48Z"/>
              <path class="cls-24" d="M179,203.31c.02.07.04.13.07.19.03.06.07.1.12.13.07.02.15.02.22,0,.13-.03.25-.08.36-.15.1-.06.19-.13.27-.21.09-.09.16-.19.23-.3.06-.12.12-.24.16-.37.04-.14.06-.29.05-.44,0-.12-.01-.24-.05-.36-.03-.07-.08-.13-.15-.17-.07-.02-.15-.02-.23,0-.1.03-.19.07-.28.12l-.39.22s-.06.02-.09,0c-.01-.03-.01-.07,0-.11v-.26s0-.09,0-.13l.05-.12.83-1.87-1.34.78s-.06.02-.09,0c-.03-.03-.04-.07-.04-.12v-.26c0-.05.02-.11.04-.16.02-.04.05-.08.09-.11l1.83-1.05s.06-.02.09,0c.03.03.04.07.04.11v.26s0,.09,0,.14c-.02.05-.04.1-.06.15l-.82,1.84c.13-.08.27-.12.42-.13.12,0,.24.03.33.1.1.09.18.21.22.34.05.18.08.37.08.55,0,.24-.03.48-.09.71-.06.22-.14.43-.25.63-.1.19-.22.36-.37.51-.13.14-.28.26-.44.36-.16.11-.35.17-.54.2-.13.02-.26-.01-.37-.08-.1-.07-.17-.17-.22-.28-.05-.13-.07-.27-.07-.41,0-.04,0-.09,0-.13.02-.04.04-.07.08-.09l.21-.12h.08s.03.05.02.08Z"/>
              <path class="cls-22" d="M176.31,215.56l27.37-15.89c.31-.18.56-.05.56.29-.03.38-.24.73-.56.93l-27.37,15.87c-.31.18-.56.05-.56-.29.03-.38.24-.71.56-.91Z"/>
              <path class="cls-22" d="M176.31,197.27l6.13-3.56c.31-.18.57-.05.57.29-.03.38-.24.73-.57.94l-6.13,3.56c-.31.18-.56.05-.56-.28.03-.38.23-.73.56-.94Z"/>
              <path class="cls-23" d="M216.92,155.52c1.05-.74,2.42-.85,3.58-.3l-3.61,9.73.03-9.44Z"/>
              <path class="cls-23" d="M213.31,159.42c.86-1.58,2.1-2.92,3.61-3.9v9.47l-3.61-5.57Z"/>
              <path class="cls-23" d="M211.07,165.44c.4-2.12,1.16-4.16,2.24-6.02l3.61,5.57-5.85.45Z"/>
              <path class="cls-2" d="M213.31,159.42c-1.08,1.87-1.84,3.9-2.24,6.02l5.85-.45v-9.47c-1.51.98-2.75,2.32-3.61,3.9Z"/>
              <path class="cls-23" d="M220.5,155.22c1.2.78,2.01,2.02,2.24,3.43l-5.85,6.3,3.61-9.73Z"/>
              <path class="cls-23" d="M211.07,171.29c-.21-.9-.31-1.83-.3-2.75,0-1.05.11-2.09.3-3.12l5.85-.45-5.85,6.32Z"/>
              <path class="cls-23" d="M222.77,164.54c-.4,2.12-1.16,4.16-2.24,6.02l-3.61-5.57,5.85-.45Z"/>
              <path class="cls-23" d="M216.92,174.46c-1.07.74-2.45.84-3.61.27l3.61-9.73v9.47Z"/>
              <path class="cls-23" d="M211.07,171.29l5.85-6.3-3.61,9.73c-1.2-.78-2.01-2.02-2.24-3.43Z"/>
              <path class="cls-23" d="M222.77,158.69c.21.9.31,1.83.3,2.75,0,1.05-.1,2.09-.3,3.12l-5.85.45,5.85-6.32Z"/>
              <path class="cls-23" d="M220.5,170.56c-.86,1.58-2.1,2.92-3.61,3.9v-9.47l3.61,5.57Z"/>
              <path class="cls-24" d="M213.85,179.28l6.13-3.56c.31-.18.56-.05.56.28-.03.38-.24.73-.56.94l-6.13,3.56c-.31.18-.56.05-.56-.28.03-.38.24-.73.56-.94Z"/>
              <path class="cls-22" d="M212.49,183.74l8.84-5.12c.31-.18.56-.05.56.29-.03.38-.24.73-.56.93l-8.84,5.13c-.31.18-.56.05-.56-.28.02-.39.23-.75.56-.95Z"/>
              <path class="cls-22" d="M212.49,187.4l8.84-5.13c.31-.18.56-.05.56.29-.03.38-.24.73-.56.93l-8.84,5.13c-.31.18-.56.05-.56-.28.03-.38.23-.73.56-.94Z"/>
              <path class="cls-22" d="M212.49,191.1l8.84-5.13c.31-.18.56-.05.56.29-.03.38-.24.73-.56.94l-8.84,5.12c-.31.18-.56.05-.56-.28.03-.38.24-.73.56-.94Z"/>
              <path class="cls-23" d="M239.09,142.67c1.07-.74,2.45-.84,3.61-.27l-3.61,9.7v-9.44Z"/>
              <path class="cls-23" d="M235.48,146.57c.86-1.58,2.1-2.92,3.61-3.9v9.44l-3.61-5.54Z"/>
              <path class="cls-23" d="M233.25,152.59c.4-2.12,1.15-4.15,2.23-6.02l3.61,5.57-5.84.45Z"/>
              <path class="cls-23" d="M242.7,142.4c1.2.78,2.01,2.02,2.24,3.43l-5.85,6.3,3.61-9.73Z"/>
              <path class="cls-23" d="M233.25,158.44c-.21-.9-.31-1.83-.3-2.75,0-1.05.11-2.09.3-3.12l5.84-.45-5.84,6.32Z"/>
              <path class="cls-23" d="M244.94,151.68c-.4,2.12-1.16,4.16-2.24,6.02l-3.61-5.6,5.85-.42Z"/>
              <path class="cls-23" d="M239.09,161.6c-1.07.74-2.45.84-3.61.27l3.61-9.77v9.5Z"/>
              <path class="cls-23" d="M233.25,158.44l5.84-6.3-3.61,9.74c-1.19-.78-2-2.03-2.23-3.44Z"/>
              <path class="cls-2" d="M235.48,146.57c-1.08,1.87-1.83,3.9-2.23,6.02-.2,1.03-.3,2.07-.3,3.12,0,.93.1,1.85.3,2.75.23,1.41,1.04,2.66,2.23,3.44l3.61-9.8v-9.44c-1.51.98-2.75,2.32-3.61,3.9Z"/>
              <path class="cls-23" d="M244.94,145.87c.21.9.31,1.83.3,2.75,0,1.05-.11,2.09-.3,3.12l-5.85.45,5.85-6.32Z"/>
              <path class="cls-23" d="M242.7,157.7c-.86,1.58-2.1,2.93-3.61,3.9v-9.5l3.61,5.6Z"/>
              <path class="cls-24" d="M236.02,166.48l6.14-3.56c.31-.18.56-.05.56.28-.03.38-.23.73-.56.94l-6.14,3.56c-.31.18-.56.05-.56-.29.03-.38.24-.73.56-.94Z"/>
              <path class="cls-22" d="M234.67,170.93l8.84-5.13c.31-.18.56-.05.56.29-.03.38-.24.73-.56.94l-8.84,5.12c-.31.18-.57.05-.57-.28.03-.38.24-.73.57-.94Z"/>
              <path class="cls-22" d="M234.67,174.6l8.84-5.12c.31-.18.56-.05.56.28-.03.38-.24.73-.56.94l-8.84,5.12c-.31.19-.57.05-.57-.28.03-.38.24-.73.57-.94Z"/>
              <path class="cls-22" d="M234.67,178.26l8.84-5.1c.31-.18.56-.05.56.28-.03.38-.24.73-.56.94l-8.84,5.13c-.31.18-.57.05-.57-.29.02-.39.24-.75.57-.96Z"/>
            </g>
          </g>
          <g id="freepik--magnifying-glass--inject-4">
            <g id="freepik--Glass--inject-4">
              <path class="cls-23" d="M238.97,269.62c-.06-3.33-1.71-6.42-4.44-8.33-1.26-.78-2.43-.9-3.29-.45h0c-5.22,2.62-41.88,26.13-44.23,27.3h0c-.52.32-.82.9-.78,1.51.03,1.67.86,3.23,2.23,4.19.48.38,1.12.46,1.68.22h0c3.71-2.04,39.91-17.47,47.3-21.43h0c.92-.47,1.48-1.51,1.53-3Z"/>
              <path class="cls-12" d="M237.53,264.55c-.72-1.31-1.75-2.43-2.99-3.26-1.26-.78-2.42-.9-3.28-.46l-.11.05c-4.77,2.44-32.05,19.85-41.23,25.51h-.06l-.37.23-.11.07-.21.12-.25.15h0c-.97.59-1.63.97-1.88,1.1h0c-.08.05-.15.11-.21.17-.36.35-.55.84-.53,1.34-.01.17-.01.35,0,.52v.21c0,.07,0,.21.06.32l.07.26c0,.1.06.19.1.3.02.08.05.15.08.23h0l50.93-26.87Z"/>
              <path class="cls-23" d="M188.47,293.85c-1.37-.95-2.19-2.51-2.22-4.17.05-1.51,1.12-2.08,2.41-1.29,1.35.96,2.17,2.51,2.2,4.17,0,1.48-1.11,2.08-2.39,1.29Z"/>
              <path class="cls-1" d="M177.52,294.86c.03,1.28.66,2.47,1.71,3.21.37.28.85.34,1.28.17h0l8.88-4.72h0c.38-.26.59-.7.56-1.15-.03-1.28-.66-2.47-1.71-3.21-.37-.28-.85-.34-1.28-.16h0l-8.87,4.72h0c-.38.25-.6.69-.57,1.15Z"/>
              <path class="cls-14" d="M178.09,293.7c-.39.25-.61.7-.58,1.16,0,.47.09.93.27,1.36l11.44-6.08c-.26-.39-.59-.72-.98-.98-.37-.28-.85-.34-1.28-.16l-8.87,4.72v-.02Z"/>
              <path class="cls-23" d="M188.9,302.73c0-5.69-3.76-11.36-11.27-15.7-15.02-8.67-39.38-8.67-54.4,0-7.51,4.34-11.27,10.01-11.27,15.7h0v10.47c0,5.68,3.76,11.36,11.27,15.7,15.02,8.67,39.38,8.67,54.4,0,7.51-4.34,11.27-10.02,11.27-15.7v-10.47ZM125.09,290.25c6.71-3.9,15.71-6.01,25.34-6.01s18.63,2.13,25.34,6.01c6.07,3.5,9.41,7.93,9.41,12.48s-3.34,8.98-9.41,12.48c-6.71,3.9-15.71,6.01-25.34,6.01s-18.63-2.14-25.34-6.01c-6.07-3.5-9.41-7.94-9.41-12.48s3.35-8.98,9.41-12.48h0Z"/>
              <path class="cls-4" d="M123.23,318.44c15.02,8.67,39.38,8.67,54.4,0,15.02-8.67,15.02-22.73,0-31.41-15.02-8.67-39.38-8.67-54.4,0-15.02,8.67-15.04,22.73,0,31.41ZM115.68,302.73c0-4.55,3.34-8.98,9.41-12.48,6.71-3.9,15.71-6.01,25.34-6.01s18.63,2.13,25.35,6.01c6.06,3.5,9.41,7.93,9.41,12.48s-3.35,8.98-9.41,12.48c-6.71,3.9-15.71,6.01-25.35,6.01s-18.63-2.14-25.34-6.01c-6.06-3.49-9.41-7.91-9.41-12.48Z"/>
              <path class="cls-23" d="M115.68,302.73c.02,1.85.54,3.66,1.5,5.24,1.56-2.64,4.21-5.12,7.92-7.25,6.7-3.9,15.7-6.01,25.34-6.01s18.63,2.13,25.33,6.01c3.7,2.13,6.39,4.61,7.92,7.25.96-1.58,1.47-3.39,1.5-5.24,0-4.55-3.34-8.98-9.41-12.48-6.7-3.9-15.71-6.01-25.33-6.01s-18.64,2.14-25.34,6.01c-6.08,3.5-9.41,7.93-9.41,12.48Z"/>
              <path class="cls-12" d="M115.68,302.73c.02,1.85.54,3.66,1.5,5.24,1.56-2.64,4.21-5.12,7.92-7.25,6.7-3.9,15.7-6.01,25.34-6.01s18.63,2.13,25.33,6.01c3.7,2.13,6.39,4.61,7.92,7.25.96-1.58,1.47-3.39,1.5-5.24,0-4.55-3.34-8.98-9.41-12.48-6.7-3.9-15.71-6.01-25.33-6.01s-18.64,2.14-25.34,6.01c-6.08,3.5-9.41,7.93-9.41,12.48Z"/>
              <path class="cls-7" d="M125.09,294.99c6.71-3.9,15.71-6.01,25.34-6.01s18.63,2.14,25.35,6.01c5,2.89,8.14,6.42,9.09,10.14-.95,3.7-4.09,7.22-9.09,10.14-6.71,3.9-15.71,6.01-25.35,6.01s-18.63-2.14-25.34-6.01c-5.01-2.89-8.15-6.42-9.09-10.14.94-3.72,4.09-7.25,9.09-10.14Z"/>
              <path class="cls-12" d="M141.36,324.33v10.46c-6.36-.79-12.52-2.78-18.13-5.88-7.51-4.34-11.27-10.02-11.27-15.71v-10.47c0-1.16.16-2.31.46-3.43h0c-1.82,6.76,1.78,13.92,10.8,19.14,5.62,3.09,11.78,5.09,18.14,5.89Z"/>
            </g>
          </g>
          <g id="freepik--Character--inject-4">
            <g id="freepik--character--inject-4">
              <path class="cls-14" d="M324.7,260.4c.46.19.55,1.06.58,2.8,0,1.32.25,3.63-1.29,4.05s-3.81.14-4.77-1.12c-1.2-1.56-2-2.96-3.72-4.89-1.49-1.67-3.12-3.24-3.67-5.54-.51-2.09,0-2.98,1.41-3.56,1.97-.78,4.96,2,6.48,2.46,1.3.4,4.5,5.62,4.98,5.81Z"/>
              <path class="cls-20" d="M324.74,258.79l-.05,2.13c-1.66,1-3.74,1-5.4,0-.09-.2-.49-3.06-.49-3.06l5.93.94Z"/>
              <path class="cls-14" d="M307.13,272.32s.57,1.87.87,3.5c.23,1.29.56,3.46.09,4.42s-2.25,1.56-4.98,1.47c-1.77-.05-4.55,1.08-6.47,2.1s-6.04,1.39-8.1,1.1c-2.43-.34-4.91-1.81-5.28-2.82s.17-2.05,5.96-4.37c.05,0,8.03-2.42,10.87-5.41l7.06.02Z"/>
              <path class="cls-20" d="M307.19,270.01s-.05,1.56-.06,2.49-1.11,2.23-3.9,2.07c-1.94-.11-3.29-.66-3.17-2.26l.05-2.34,7.08.05Z"/>
              <path class="cls-1" d="M326.76,230.49c-.39-3.79-1.15-7.53-2.27-11.18,0,0,.97-9.58,1.56-18.67.62-9.81,1.19-14.86-.74-29.04,0,0-30.1-2.71-30.91,8.64-.82,11.35.34,40.3.61,45.3.27,5,1.02,9.43,1.87,17.54.85,8.11,3.27,26.91,3.27,26.91,2.21,1.17,4.85,1.17,7.06,0,0,0,2.74-22.66,2.64-28.42-.09-4.27-.73-8.51-1.9-12.62,0,0,.78-9.36,1.56-17.48s1.36-12.03,1.56-15.6l.69-.32s.38,14.04.65,19.06c.27,5.02.94,9.8,2.18,19.1,1.08,8.08,4.38,25.24,4.38,25.24,3.58,2.04,5.79-.12,5.79-.12,0,0,2.85-21.34,2.03-28.33Z"/>
              <path class="cls-14" d="M311.02,195.91s7.8-3.62,11.7-6.95c0,0-3.68,4.95-8.42,7.08,0,0-2.07,17.42-2.05,17.07l-.58-17.21h-.65Z"/>
              <polygon class="cls-20" points="305.63 131.16 306.8 141.55 316.61 141.06 315.53 128.93 305.63 131.16"/>
              <path class="cls-1" d="M320.32,135.14c3.65-.17,5.51.38,7.15,3.53,1.65,3.15,2.28,12.56,2.85,17.42.58,4.86.71,8.27-1.29,8.77-2,.5-9.78.72-9.78.72l1.06-30.45Z"/>
              <path class="cls-24" d="M326.47,140.52c-.52-2.9-4.35-5.96-7.93-5.38l-2.43.41c-.43,1.75-5.22,2.84-9.8,1.76-1.38.37-5.92,1.22-7.07,1.6-3.28,1.09-4.68,4.33-5.16,15.05,0,0,.27,24.29.13,29.13,8.12,3.43,16.64,3.52,21.38,2.6,9.86-1.92,11.13-5.96,11.13-5.96l-1.47-11.11s2.41-21.52,1.21-28.1Z"/>
              <path class="cls-1" d="M306.01,134.59l.08.66c1.98.42,4.04.42,6.02,0,3.19-.71,3.84-1.61,3.84-1.61l-.07-.78s.78-.29,1.21.93c.18.49.34.98.47,1.49,0,0,.37,2.24-3.38,3.38-3.12,1-6.52.62-9.36-1.02l-1.47.31s1.27-2.93,1.65-3.53c.18-.34.54-.54.92-.51l.09.69Z"/>
              <polygon class="cls-24" points="276.06 123.44 256.6 133.61 266.27 160.04 284.42 149.87 276.06 123.44"/>
              <polygon class="cls-26" points="275.17 126.03 258.84 134.56 267.4 157.28 282.63 148.75 275.17 126.03"/>
              <path class="cls-3" d="M271.72,128.49s-.14-.37-.32-.78-1.56-.18-3.03.59l-2.87,1.49c-1.51.78-2.58,1.76-2.4,2.21l.31.78,8.31-4.29Z"/>
              <path class="cls-23" d="M271.4,125.25c-.1-.28-.69-.23-1.32.1l-1.12.61s-.69-1.75-3.28-.54c-2.59,1.21-2,3.24-2,3.24l-1.19.66c-.66.37-1.13.89-1.05,1.17l.15.51,10.02-5.23-.2-.52Z"/>
              <path class="cls-23" d="M270.32,126.42c-.94.46-1.3.69-1.04,1.37.27.69.59,1.35.59,1.35l-4.43,2.34s-.37-1-.53-1.38-.49-.57-1.19-.2l-.27-.28,7.02-3.56-.16.37Z"/>
              <path class="cls-2" d="M270.32,126.42c-.94.46-1.3.69-1.04,1.37.27.69.59,1.35.59,1.35l-4.43,2.34s-.37-1-.53-1.38-.49-.57-1.19-.2l-.27-.28,7.02-3.56-.16.37Z"/>
              <path class="cls-23" d="M271.91,128.53l-.31-.78c-.18-.45-1.56-.19-3.03.59l-2.88,1.48c-1.5.78-2.57,1.76-2.4,2.21l.32.78,8.31-4.29Z"/>
              <path class="cls-20" d="M299.26,138.92c-4.49.39-6.4,1.21-9.77,7.28-3.67,6.61-10.7,18.55-11.59,20.06-1.24,2.1-1.47,5.29-.41,7.21,1,1.8,4.17,2.62,7.8-1.44,4.28-4.84,12.24-16.64,12.24-16.64,0,0,6.72-8.92,1.72-16.47Z"/>
              <path class="cls-20" d="M279.35,174.85c-3.45-.41-11.49-11.32-13.77-14.89-1.81-2.89-4.18-5.4-6.97-7.35-3.64-2.69-3.12-6.83-1.52-10.62.55-1.31,2.42-.46,2.42-.46l.66,1.8,1.14,3.12c.78.72,1.22.95,1.26.74.1-.41-.56-2.08-.55-3.83,0-2.1,1.49-.72,1.93,0,.61,1.12,1.13,2.28,1.56,3.47.73,1.88.44,3.78,1.33,5.06.89,1.28,12.89,12.78,12.89,12.78l-.37,10.18Z"/>
              <path class="cls-1" d="M300.11,138.68c-2.72-.06-5.99.37-8.52,3.67-2.53,3.29-12.67,21.18-12.67,21.18l-5.69-5.1c-2.22,1.39-3.79,3.61-4.38,6.16,1.55,2.46,3.27,4.8,5.15,7.02,2.41,2.64,5.09,4.47,7.29,3.66,2.2-.81,4.45-2.55,9.18-9.15,4.73-6.6,9.9-14.37,9.9-14.37,0,0,3.27-7.6-.26-13.06Z"/>
              <path class="cls-21" d="M298.71,118.44s-2.45,3.71-2.17,4.08,2.08.69,2.08.69l.09-4.77Z"/>
              <path class="cls-14" d="M299.86,120.83c-1.62,0-2.92-1.31-2.92-2.92,0-1.62,1.31-2.92,2.92-2.92s2.92,1.31,2.92,2.92h0c0,1.62-1.31,2.92-2.92,2.92ZM299.86,115.64c-1.26,0-2.28,1.01-2.29,2.27,0,1.26,1.01,2.28,2.27,2.29,1.26,0,2.28-1.01,2.29-2.27,0,0,0,0,0,0,0-1.25-1.01-2.27-2.27-2.28h0Z"/>
              <path class="cls-20" d="M305.5,108.16c-4.96,1.05-6.4,3.23-6.86,11.1-.48,8.24.36,10.82,1.43,11.92.73.78,4.79.89,6.83.32,2.57-.7,8.35-2.75,11.06-6.89,3.19-4.87,4.02-11.47.62-14.18-4.79-3.81-11.05-2.7-13.08-2.27Z"/>
              <path class="cls-21" d="M305.69,131.73l-.23-1.51c-1.56.84-3.31,1.23-5.08,1.15.94.46,3.41.6,5.31.37Z"/>
              <polygon class="cls-14" points="297.21 117.3 306.03 118.44 305.68 119.06 297.21 117.96 297.21 117.3"/>
              <path class="cls-14" d="M300.38,114.75c.84,1.02,2.51,2.38,3.7,2.3.05,1.15.07,2.28,1.29,2.8,0,0,.78-3.04,3.35-2.66,2.57.38,2.92,3.67,1.3,5.68-1.62,2-3.12,1.24-3.12,1.23.15.07.2,1.05.25,1.22.17.58.39,1.14.66,1.67.56,1.07,1.36,2,2.34,2.71,1.29,1.11,3,1.58,4.68,1.29,1.48-.35,2.73-1.35,3.39-2.72.11-.36,1.42-2.41,1.64-2.81,1.62-2.87,5.75-12.64,5.33-14.34-.42-1.38-1.53-2.45-2.93-2.81-1.01-.29-.62-.44-.93-1.43-1.4-3.48-8.45-4.31-11.34-4.71-3.23-.45-5.92-.57-7.23-.54-1.32.05-3.17.32-4.28,1.45-1.58,1.61-1.75,3.86-1.57,5.21.47,3.52,2.36,5.13,3.45,6.44Z"/>
              <path class="cls-14" d="M305.33,121.56l.09-3.45c-.95-.02-1.59-2.14-1.62-1.19-.02.95.58,4.61,1.53,4.63Z"/>
            </g>
          </g>
        </g>
      </g>
    </g>
  </g>
</svg>