<?xml version="1.0" encoding="UTF-8"?>
<svg xmlns="http://www.w3.org/2000/svg" viewBox="0 0 359.8 322.1">
  <defs>
    <style>
      .cls-1 {
        fill: #37474f;
      }

      .cls-2 {
        mix-blend-mode: screen;
        opacity: .87;
      }

      .cls-3, .cls-4, .cls-5, .cls-6, .cls-7, .cls-8, .cls-9, .cls-10, .cls-11, .cls-12 {
        isolation: isolate;
      }

      .cls-3, .cls-6, .cls-13 {
        opacity: .3;
      }

      .cls-4, .cls-14 {
        opacity: .15;
      }

      .cls-5, .cls-6, .cls-15, .cls-7, .cls-8 {
        fill: #fff;
      }

      .cls-5, .cls-12 {
        opacity: .1;
      }

      .cls-16 {
        fill: #263238;
      }

      .cls-17 {
        fill: #35505b;
      }

      .cls-18 {
        opacity: .31;
      }

      .cls-18, .cls-19 {
        mix-blend-mode: multiply;
      }

      .cls-7, .cls-11 {
        opacity: .2;
      }

      .cls-20 {
        fill: #f0f0f0;
      }

      .cls-8 {
        opacity: .4;
      }

      .cls-21 {
        fill: #ffa8a7;
      }

      .cls-22 {
        fill: none;
      }

      .cls-23 {
        fill: #f28f8f;
      }

      .cls-24 {
        fill: #ad615f;
      }

      .cls-25 {
        fill: #e0e0e0;
      }

      .cls-9, .cls-19 {
        opacity: .25;
      }

      .cls-19, .cls-26 {
        fill: #7379ff;
      }

      .cls-27 {
        fill: #455a64;
      }

      .cls-28 {
        fill: #ebebeb;
      }

      .cls-29 {
        fill: #914746;
      }
    </style>
  </defs>
  <g class="cls-10">
    <g id="Capa_2" data-name="Capa 2">
      <g id="Capa_17" data-name="Capa 17">
        <g>
          <g id="freepik--Floor--inject-3" class="cls-18">
            <path class="cls-26" d="M306.65,144.22c-70.45-40.73-184.35-40.73-254.37,0-70.03,40.73-69.65,106.67.86,147.36,70.51,40.69,184.38,40.7,254.4,0,70.03-40.7,69.62-106.67-.89-147.36Z"/>
          </g>
          <g id="freepik--Shadows--inject-3">
            <path class="cls-19" d="M310.44,233.38c-13.55-7.84-35.52-7.84-49.01,0-13.5,7.84-13.42,20.55.16,28.39,13.58,7.84,35.52,7.84,49.01,0,13.49-7.84,13.42-20.54-.16-28.39Z"/>
            <path class="cls-19" d="M217.76,262.27c-13.55-7.84-35.52-7.84-49.01,0-13.49,7.84-13.42,20.54.16,28.39,13.58,7.84,35.52,7.84,49.01,0s13.42-20.54-.16-28.39Z"/>
            <path class="cls-19" d="M93.74,274.21c-.54.19-.83.77-.65,1.32.1.3.34.54.65.65l4.67,2.71c1.06.54,2.32.54,3.38,0l95.28-54.64c.54-.18.83-.76.65-1.3-.1-.31-.34-.55-.65-.65l-4.68-2.72c-1.06-.54-2.32-.54-3.38,0l-95.27,54.64Z"/>
            <path class="cls-19" d="M58.27,257.16c-.54.19-.83.77-.65,1.32.1.3.34.54.65.65l4.69,2.72c1.06.54,2.32.54,3.38,0l95.28-54.64c.54-.18.83-.76.65-1.3-.1-.31-.34-.55-.65-.65l-4.68-2.72c-1.06-.54-2.32-.54-3.38,0l-95.29,54.63Z"/>
            <path class="cls-19" d="M319.12,204.88c4.94-2.85,12.94-2.85,17.85,0,4.91,2.85,4.89,7.49-.06,10.36-4.94,2.87-12.94,2.85-17.86,0-4.92-2.85-4.89-7.5.06-10.36Z"/>
            <path class="cls-19" d="M29.44,211.4c5.21-3.01,13.63-3.01,18.81,0s5.15,7.88-.06,10.9c-5.21,3.01-13.63,3.01-18.81,0s-5.15-7.89.06-10.9Z"/>
          </g>
          <g id="freepik--Plants--inject-3">
            <path class="cls-15" d="M316.04,188.45l11.96.35,11.96-.35c.52,8.09-1.06,16.33-3.24,20.36h0c-.53,1.03-1.36,1.87-2.39,2.39-3.53,2.04-9.24,2.04-12.76,0-1.05-.54-1.89-1.41-2.39-2.47-2.09-3.99-3.65-12.23-3.14-20.28Z"/>
            <path class="cls-28" d="M319.58,183.55c-4.7,2.71-4.72,7.1-.06,9.81,4.66,2.7,12.25,2.71,16.94,0,4.7-2.71,4.71-7.1.05-9.81-4.66-2.71-12.24-2.73-16.93,0Z"/>
            <path class="cls-25" d="M321.43,184.63c-3.67,2.11-3.68,5.58-.05,7.65,3.64,2.07,9.57,2.11,13.22,0,3.65-2.11,3.68-5.54.04-7.65-3.64-2.11-9.55-2.11-13.21,0Z"/>
            <g class="cls-14">
              <path d="M321.43,184.63c-3.67,2.11-3.68,5.58-.05,7.65,3.64,2.07,9.57,2.11,13.22,0,3.65-2.11,3.68-5.54.04-7.65-3.64-2.11-9.55-2.11-13.21,0Z"/>
            </g>
            <path class="cls-26" d="M334.12,163.95c1.95-2.39,4.21-4.59,5.99-7.14,1.22-1.74,2.24-3.86,1.72-5.92-.58-1.93-2.2-3.36-4.19-3.69-1.97-.29-3.97.15-5.63,1.25-1.64,1.1-3.08,2.47-4.26,4.05-6.74,8.54-9.93,19.35-8.9,30.18.02,1.24.41,2.45,1.11,3.47.88,1.03,2.28,1.46,3.58,1.09,3.26-.96,2.83-5.37,3.36-7.97.74-3.56,2-6.99,3.75-10.18,1-1.82,2.15-3.54,3.45-5.15Z"/>
            <path class="cls-7" d="M334.12,163.95c1.95-2.39,4.21-4.59,5.99-7.14,1.22-1.74,2.24-3.86,1.72-5.92-.58-1.93-2.2-3.36-4.19-3.69-1.97-.29-3.97.15-5.63,1.25-1.64,1.1-3.08,2.47-4.26,4.05-6.74,8.54-9.93,19.35-8.9,30.18.02,1.24.41,2.45,1.11,3.47.88,1.03,2.28,1.46,3.58,1.09,3.26-.96,2.83-5.37,3.36-7.97.74-3.56,2-6.99,3.75-10.18,1-1.82,2.15-3.54,3.45-5.15Z"/>
            <path class="cls-20" d="M323.39,183.96c.13-.03.22-.13.22-.26.23-5.24,1.94-23.12,14.25-33.26.12-.1.14-.28.04-.4-.09-.12-.27-.15-.39-.05,0,0-.01,0-.02.01-12.5,10.29-14.22,28.37-14.45,33.67,0,.16.11.29.27.3,0,0,0,0,0,0h.07Z"/>
            <path class="cls-26" d="M321.56,184.53c.52,2.32,1.95,4.34,3.99,5.58,1.88.89,3.98,1.24,6.05,1.01,2.1-.24,4.16-.73,6.15-1.46.99-.33,2.08-.8,2.18-2,.04-.65-.22-1.28-.69-1.72-.2-.19-.41-.37-.64-.55-.28-.21-.33-.6-.13-.88.11-.15.28-.24.46-.25.59-.04,1.17-.11,1.75-.22,1.35-.22,2.62-.79,3.68-1.66.77-.69,1.35-1.55,1.7-2.52.38-.8.29-1.75-.24-2.46-.39-.32-.86-.53-1.36-.6-.44-.1-.88-.18-1.32-.24-.32-.05-.54-.34-.49-.66.03-.21.17-.38.36-.46l1.87-.8c.53-.17,1.01-.48,1.4-.88.49-.76.62-1.7.36-2.56-.22-1.16-.63-2.29-.9-3.44-.32-1.15-.36-2.35-.12-3.52-3.48-.39-7.01-.15-10.41.69-1.02.21-1.99.64-2.84,1.24-1.07.96-1.58,2.41-1.34,3.83.02.14-.07.28-.22.3-.12.02-.24-.05-.28-.16l-1.19-2.19c-.36-.65-1.17-.91-1.85-.59-1.04.52-1.96,1.25-2.71,2.14-.84.95-1.26,2.21-1.16,3.48.14,1.72.43,3.43.86,5.1.07.25-.08.51-.33.58-.14.04-.29.01-.4-.08l-.06-.04c-.32-.25-.72-.36-1.12-.33-1.04.13-1.32,1.19-1.39,2.1-.03,1.41.1,2.83.4,4.21Z"/>
            <path class="cls-11" d="M321.56,184.53c.52,2.32,1.95,4.34,3.99,5.58,1.88.89,3.98,1.24,6.05,1.01,2.1-.24,4.16-.73,6.15-1.46.99-.33,2.08-.8,2.18-2,.04-.65-.22-1.28-.69-1.72-.2-.19-.41-.37-.64-.55-.28-.21-.33-.6-.13-.88.11-.15.28-.24.46-.25.59-.04,1.17-.11,1.75-.22,1.35-.22,2.62-.79,3.68-1.66.77-.69,1.35-1.55,1.7-2.52.38-.8.29-1.75-.24-2.46-.39-.32-.86-.53-1.36-.6-.44-.1-.88-.18-1.32-.24-.32-.05-.54-.34-.49-.66.03-.21.17-.38.36-.46l1.87-.8c.53-.17,1.01-.48,1.4-.88.49-.76.62-1.7.36-2.56-.22-1.16-.63-2.29-.9-3.44-.32-1.15-.36-2.35-.12-3.52-3.48-.39-7.01-.15-10.41.69-1.02.21-1.99.64-2.84,1.24-1.07.96-1.58,2.41-1.34,3.83.02.14-.07.28-.22.3-.12.02-.24-.05-.28-.16l-1.19-2.19c-.36-.65-1.17-.91-1.85-.59-1.04.52-1.96,1.25-2.71,2.14-.84.95-1.26,2.21-1.16,3.48.14,1.72.43,3.43.86,5.1.07.25-.08.51-.33.58-.14.04-.29.01-.4-.08l-.06-.04c-.32-.25-.72-.36-1.12-.33-1.04.13-1.32,1.19-1.39,2.1-.03,1.41.1,2.83.4,4.21Z"/>
            <path class="cls-7" d="M321.56,184.53c.52,2.32,1.95,4.34,3.99,5.58,1.88.89,3.98,1.24,6.05,1.01,2.1-.24,4.16-.73,6.15-1.46.99-.33,2.08-.8,2.18-2,.04-.65-.22-1.28-.69-1.72-.2-.19-.41-.37-.64-.55-.28-.21-.33-.6-.13-.88.11-.15.28-.24.46-.25.59-.04,1.17-.11,1.75-.22,1.35-.22,2.62-.79,3.68-1.66.77-.69,1.35-1.55,1.7-2.52.38-.8.29-1.75-.24-2.46-.39-.32-.86-.53-1.36-.6-.44-.1-.88-.18-1.32-.24-.32-.05-.54-.34-.49-.66.03-.21.17-.38.36-.46l1.87-.8c.53-.17,1.01-.48,1.4-.88.49-.76.62-1.7.36-2.56-.22-1.16-.63-2.29-.9-3.44-.32-1.15-.36-2.35-.12-3.52-3.48-.39-7.01-.15-10.41.69-1.02.21-1.99.64-2.84,1.24-1.07.96-1.58,2.41-1.34,3.83.02.14-.07.28-.22.3-.12.02-.24-.05-.28-.16l-1.19-2.19c-.36-.65-1.17-.91-1.85-.59-1.04.52-1.96,1.25-2.71,2.14-.84.95-1.26,2.21-1.16,3.48.14,1.72.43,3.43.86,5.1.07.25-.08.51-.33.58-.14.04-.29.01-.4-.08l-.06-.04c-.32-.25-.72-.36-1.12-.33-1.04.13-1.32,1.19-1.39,2.1-.03,1.41.1,2.83.4,4.21Z"/>
            <path class="cls-20" d="M327.08,189.79c.66-2.79,1.59-5.51,2.8-8.11,0-.08.04-.16.1-.22l.19-.42c-.34-3.25-1.29-6.4-2.8-9.3-.08-.13-.03-.3.1-.38,0,0,0,0,0,0,.14-.08.31-.03.39.1,1.4,2.7,2.33,5.62,2.73,8.63,2.73-5.7,6.84-10.63,11.96-14.35.13-.09.3-.06.39.07,0,0,0,0,0,0,.09.12.06.3-.06.39,0,0,0,0-.01,0-6.01,4.19-9.81,10-12.12,14.81,3.1-1.4,6.55-1.87,9.92-1.34.15.04.25.19.21.35-.03.1-.11.19-.21.21h-.1c-.06,0-5.5-1-10.21,1.63-1.2,2.58-2.13,5.27-2.78,8.04-.02.11-.11.2-.22.22h-.11c-.14-.06-.22-.21-.17-.36Z"/>
            <path class="cls-15" d="M26.2,194.08l12.62.37,12.62-.37c.55,8.52-1.12,17.21-3.41,21.45h0c-.54,1.09-1.42,1.98-2.5,2.54-3.72,2.15-9.74,2.15-13.44,0-1.1-.57-1.98-1.49-2.5-2.61-2.29-4.27-3.93-12.91-3.39-21.39Z"/>
            <path class="cls-28" d="M29.92,188.92c-4.94,2.85-4.97,7.48-.06,10.36,4.92,2.89,12.91,2.85,17.85,0,4.94-2.85,4.97-7.49.06-10.36-4.92-2.88-12.91-2.85-17.85,0Z"/>
            <path class="cls-25" d="M31.87,190.05c-3.86,2.23-3.87,5.84,0,8.07,3.87,2.22,10.07,2.23,13.93,0,3.86-2.23,3.87-5.84,0-8.07s-10.07-2.22-13.93,0Z"/>
            <g class="cls-14">
              <path d="M31.87,190.05c-3.86,2.23-3.87,5.84,0,8.07,3.87,2.22,10.07,2.23,13.93,0,3.86-2.23,3.87-5.84,0-8.07s-10.07-2.22-13.93,0Z"/>
            </g>
            <path class="cls-26" d="M18.06,140.22c28.44,9.31,28.7,28.34,22.32,41.89-1.59,2.74-6.51,4.22-10.77-12.64l7.47.96-8.71-4.42-2.29-6.72,7.26.54-9.22-3.87c-1.7-5.37-3.73-10.63-6.07-15.74Z"/>
            <path class="cls-11" d="M18.06,140.22c28.44,9.31,28.7,28.34,22.32,41.89-1.59,2.74-6.51,4.22-10.77-12.64l7.47.96-8.71-4.42-2.29-6.72,7.26.54-9.22-3.87c-1.7-5.37-3.73-10.63-6.07-15.74Z"/>
            <path class="cls-7" d="M18.06,140.22c28.44,9.31,28.7,28.34,22.32,41.89-1.59,2.74-6.51,4.22-10.77-12.64l7.47.96-8.71-4.42-2.29-6.72,7.26.54-9.22-3.87c-1.7-5.37-3.73-10.63-6.07-15.74Z"/>
            <path class="cls-15" d="M26.11,144.95c15,11.38,16.35,24.43,12.12,38.06,1.5-11.97,3.12-24.09-12.12-38.06Z"/>
            <path class="cls-26" d="M66.24,159.55c-28.04,3.95-31.44,21.63-27.72,35.31,1.05,2.83,5.37,5.01,12.13-9.98l-7.09-.34,8.84-2.66,3.19-5.92-6.84-.71,9.22-2.08c2.47-4.7,5.23-9.25,8.26-13.61Z"/>
            <path class="cls-7" d="M66.24,159.55c-28.04,3.95-31.44,21.63-27.72,35.31,1.05,2.83,5.37,5.01,12.13-9.98l-7.09-.34,8.84-2.66,3.19-5.92-6.84-.71,9.22-2.08c2.47-4.7,5.23-9.25,8.26-13.61Z"/>
            <path class="cls-12" d="M66.24,159.55c-28.04,3.95-31.44,21.63-27.72,35.31,1.05,2.83,5.37,5.01,12.13-9.98l-7.09-.34,8.84-2.66,3.19-5.92-6.84-.71,9.22-2.08c2.47-4.7,5.23-9.25,8.26-13.61Z"/>
            <path class="cls-15" d="M57.96,162.65c-15.86,8.11-19.29,20.04-17.58,33.43.57-11.42,1.08-22.99,17.58-33.43Z"/>
            <path class="cls-26" d="M9.85,166.18c25.72.41,30.76,15.94,28.94,28.7-.63,2.66-4.27,5.12-12.05-7.64l6.38-1.11-8.27-1.41-3.6-4.95,6.1-1.4-8.49-.85c-2.76-3.97-5.77-7.75-9-11.34Z"/>
            <path class="cls-15" d="M17.67,168.07c15.21,5.58,19.64,15.94,19.62,28.17-1.82-10.26-3.57-20.62-19.62-28.17Z"/>
            <path class="cls-7" d="M9.85,166.18c25.72.41,30.76,15.94,28.94,28.7-.63,2.66-4.27,5.12-12.05-7.64l6.38-1.11-8.27-1.41-3.6-4.95,6.1-1.4-8.49-.85c-2.76-3.97-5.77-7.75-9-11.34Z"/>
          </g>
          <g id="freepik--Device--inject-3">
            <path class="cls-27" d="M161.02,6.39h0c-.64-2.22-5.17-6.47-9.66-6.38-.43.02-.86.1-1.27.25L62.7,50c-2.6,1.5-4.21,4.27-4.23,7.27v189.14c0,4.78,5.58,9.41,10.77,7.17h0c.12-.03.23-.08.33-.14l87.45-49.83c2.61-1.49,4.22-4.26,4.23-7.27V7.3c0-.32-.09-.63-.23-.91Z"/>
            <path class="cls-26" d="M70.67,77.26c0-1.5.81-2.89,2.11-3.64l81.19-46.19c1-.57,2.28-.22,2.85.78.18.32.28.68.28,1.04v152.51c0,1.5-.81,2.89-2.11,3.64l-81.19,46.24c-1,.57-2.28.22-2.85-.78-.18-.31-.27-.65-.28-1.01V77.26Z"/>
            <path class="cls-11" d="M70.67,77.26c0-1.5.81-2.89,2.11-3.64l81.19-46.19c1-.57,2.28-.22,2.85.78.18.32.28.68.28,1.04v152.51c0,1.5-.81,2.89-2.11,3.64l-81.19,46.24c-1,.57-2.28.22-2.85-.78-.18-.31-.27-.65-.28-1.01V77.26Z"/>
            <path class="cls-3" d="M58.44,57.26v189.15c0,4.78,5.58,9.41,10.77,7.17h0c-1.08.39-2.27-.17-2.67-1.25-.08-.23-.12-.47-.12-.71V62.49c0-1.64.5-3.25,1.41-4.62l-8.56-4.28c-.55,1.14-.83,2.39-.83,3.66Z"/>
            <path class="cls-5" d="M151.37,0c-.43.02-.86.1-1.27.25L62.7,50c-1.46.83-2.63,2.09-3.36,3.6l8.56,4.28c.72-1.09,1.68-2,2.81-2.65L158.16,5.48c1.01-.56,2.28-.21,2.84.8.02.04.04.07.06.11h0c-.67-2.23-5.2-6.47-9.69-6.39Z"/>
            <path class="cls-16" d="M124.62,36.71c.61-.36,1.12-.08,1.12.62-.04.79-.45,1.51-1.12,1.94l-17.16,9.91c-.61.35-1.11.06-1.11-.65.03-.78.44-1.49,1.1-1.91l17.16-9.9Z"/>
            <path class="cls-16" d="M103.06,49.16c.61-.35,1.11-.07,1.11.64-.04.78-.45,1.5-1.1,1.93-.61.35-1.12.06-1.13-.65.05-.78.47-1.49,1.12-1.92Z"/>
            <path class="cls-16" d="M114.04,35.27c1.23-.71,2.22-.14,2.22,1.27-.08,1.56-.9,2.99-2.21,3.85-1.23.71-2.25.13-2.25-1.28.09-1.56.92-2.99,2.23-3.84Z"/>
            <path class="cls-16" d="M114.05,213.33c2.5-1.44,4.51-.29,4.52,2.57-.16,3.18-1.83,6.09-4.49,7.84-2.5,1.44-4.58.26-4.58-2.61.18-3.18,1.87-6.09,4.55-7.81Z"/>
          </g>
          <g id="freepik--Screen--inject-3">
            <path class="cls-26" d="M186.66,46.1h0c-.57-2.02-4.68-5.87-8.77-5.79-.39.02-.78.09-1.15.23l-79.36,45.11c-2.35,1.37-3.81,3.88-3.83,6.6v171.68c0,4.37,5.05,8.55,9.77,6.54h0c.11-.03.21-.07.31-.12l79.37-45.23c2.37-1.35,3.83-3.87,3.83-6.59V46.89c0-.28-.06-.55-.18-.8Z"/>
            <path class="cls-7" d="M93.54,92.25v171.68c0,4.37,5.05,8.55,9.77,6.54h0c-.98.36-2.06-.15-2.41-1.12-.08-.21-.11-.43-.11-.65V96.99c0-1.49.45-2.95,1.28-4.19l-7.76-3.88c-.5,1.04-.76,2.18-.76,3.33Z"/>
            <path class="cls-8" d="M177.9,40.26c-.39.02-.78.09-1.15.23l-79.37,45.15c-1.32.76-2.38,1.9-3.05,3.27l7.76,3.88c.66-.98,1.53-1.8,2.56-2.39l79.37-45.15c.9-.52,2.05-.21,2.57.69.02.04.04.07.06.11h0c-.57-2.02-4.67-5.87-8.76-5.79Z"/>
            <path class="cls-6" d="M186.66,46.1h0c-.57-2.02-4.68-5.87-8.77-5.79-.39.02-.78.09-1.15.23l-79.36,45.11c-2.35,1.37-3.81,3.88-3.83,6.6v171.68c0,4.37,5.05,8.55,9.77,6.54h0c.11-.03.21-.07.31-.12l79.37-45.23c2.37-1.35,3.83-3.87,3.83-6.59V46.89c0-.28-.06-.55-.18-.8Z"/>
            <path class="cls-26" d="M172.87,89.1c.82-.55,1.83-.74,2.8-.52,1.08.34,1.78,1.44,1.78,3.13v9.63c-.08,1.86-.69,3.65-1.76,5.17-.72,1.1-1.67,2.02-2.79,2.71-.82.55-1.83.74-2.79.51-1.08-.33-1.78-1.43-1.79-3.13v-9.62c.07-1.86.68-3.66,1.76-5.17.72-1.1,1.67-2.02,2.79-2.7Z"/>
            <path class="cls-6" d="M172.83,77.44c1.54-.89,2.8-.18,2.8,1.59v9.57c-.96-.22-1.98-.04-2.8.52-1.12.68-2.07,1.61-2.78,2.7v-9.57c.11-1.96,1.14-3.75,2.78-4.82Z"/>
            <path class="cls-26" d="M175.71,106.5l.1,36.19c-.1,1.96-1.14,3.75-2.78,4.82-1.54.89-2.8.18-2.8-1.59l-.1-36.19c.96.23,1.97.04,2.79-.51,1.12-.69,2.07-1.62,2.79-2.72Z"/>
            <path class="cls-6" d="M159.37,85.21c1.54-.88,2.8-.17,2.8,1.59l.08,26.57c-.96-.22-1.98-.04-2.8.52-1.12.68-2.07,1.61-2.79,2.7l-.07-26.56c.1-1.96,1.14-3.75,2.78-4.82Z"/>
            <path class="cls-26" d="M159.45,113.9c.82-.55,1.83-.74,2.8-.52,1.08.33,1.78,1.43,1.79,3.13v9.61c-.07,1.86-.68,3.66-1.76,5.17-.72,1.09-1.67,2.02-2.78,2.7-.82.56-1.83.75-2.8.52-1.08-.33-1.79-1.43-1.79-3.12v-9.62c.08-1.86.69-3.65,1.76-5.17.72-1.09,1.67-2.02,2.78-2.7Z"/>
            <path class="cls-26" d="M156.71,134.51c.96.23,1.98.04,2.8-.52,1.11-.69,2.06-1.61,2.78-2.7l.06,19.13c-.12,1.95-1.15,3.72-2.78,4.78-1.54.89-2.8.18-2.8-1.59l-.06-19.1Z"/>
            <path class="cls-26" d="M145.92,98.85c.82-.55,1.83-.74,2.79-.52,1.08.33,1.79,1.43,1.79,3.13v9.63c-.06,1.85-.65,3.64-1.7,5.17-.72,1.1-1.67,2.02-2.79,2.71-.82.54-1.83.72-2.79.48-1.08-.33-1.77-1.43-1.78-3.12v-9.63c.07-1.86.68-3.65,1.75-5.17.7-1.08,1.63-1.99,2.73-2.68Z"/>
            <path class="cls-6" d="M145.9,92.99c1.54-.88,2.79-.18,2.8,1.59v3.74c-.96-.22-1.97-.04-2.79.52-1.12.69-2.07,1.61-2.79,2.71v-3.75c.1-1.96,1.14-3.75,2.78-4.82Z"/>
            <path class="cls-26" d="M143.22,119.44c.96.23,1.98.05,2.8-.51,1.11-.68,2.06-1.59,2.78-2.68l.12,41.99c-.12,1.95-1.15,3.72-2.78,4.78-1.54.89-2.8.18-2.81-1.59l-.11-41.99Z"/>
            <path class="cls-26" d="M129.8,158.33c.96.22,1.98.04,2.8-.52,1.12-.68,2.07-1.61,2.78-2.7v10.9c-.1,1.96-1.13,3.75-2.77,4.82-1.55.88-2.8.18-2.81-1.59v-10.91Z"/>
            <path class="cls-26" d="M132.54,137.71c.82-.55,1.83-.74,2.79-.52,1.08.34,1.78,1.43,1.79,3.13v9.62c-.07,1.86-.68,3.66-1.76,5.17-.71,1.1-1.66,2.02-2.78,2.7-.82.55-1.83.74-2.8.52-1.08-.34-1.78-1.44-1.78-3.13v-9.62c.08-1.86.69-3.65,1.76-5.17.71-1.1,1.67-2.02,2.78-2.71Z"/>
            <path class="cls-6" d="M132.44,100.76c1.54-.89,2.79-.17,2.8,1.59l.1,34.83c-.96-.22-1.97-.04-2.79.52-1.12.68-2.07,1.61-2.79,2.71l-.1-34.84c.11-1.96,1.15-3.75,2.79-4.82Z"/>
            <path class="cls-26" d="M119.02,127.17c.82-.55,1.83-.74,2.79-.52,1.08.33,1.79,1.43,1.79,3.13v9.61c-.08,1.86-.69,3.66-1.76,5.17-.72,1.1-1.67,2.02-2.79,2.7-.82.56-1.83.75-2.8.52-1.08-.33-1.77-1.43-1.78-3.13v-9.61c.07-1.86.68-3.66,1.75-5.17.72-1.1,1.68-2.02,2.8-2.7Z"/>
            <path class="cls-3" d="M172.87,89.1c.82-.55,1.83-.74,2.8-.52,1.08.34,1.78,1.44,1.78,3.13v9.63c-.08,1.86-.69,3.65-1.76,5.17-.72,1.1-1.67,2.02-2.79,2.71-.82.55-1.83.74-2.79.51-1.08-.33-1.78-1.43-1.79-3.13v-9.62c.07-1.86.68-3.66,1.76-5.17.72-1.1,1.67-2.02,2.79-2.7Z"/>
            <path class="cls-3" d="M159.45,113.9c.82-.55,1.83-.74,2.8-.52,1.08.33,1.78,1.43,1.79,3.13v9.61c-.07,1.86-.68,3.66-1.76,5.17-.72,1.09-1.67,2.02-2.78,2.7-.82.56-1.83.75-2.8.52-1.08-.33-1.79-1.43-1.79-3.12v-9.62c.08-1.86.69-3.65,1.76-5.17.72-1.09,1.67-2.02,2.78-2.7Z"/>
            <path class="cls-3" d="M145.92,98.85c.82-.55,1.83-.74,2.79-.52,1.08.33,1.79,1.43,1.79,3.13v9.63c-.06,1.85-.65,3.64-1.7,5.17-.72,1.1-1.67,2.02-2.79,2.71-.82.54-1.83.72-2.79.48-1.08-.33-1.77-1.43-1.78-3.12v-9.63c.07-1.86.68-3.65,1.75-5.17.7-1.08,1.63-1.99,2.73-2.68Z"/>
            <g class="cls-13">
              <path d="M132.54,137.71c.82-.55,1.83-.74,2.79-.52,1.08.34,1.78,1.43,1.79,3.13v9.62c-.07,1.86-.68,3.66-1.76,5.17-.71,1.1-1.66,2.02-2.78,2.7-.82.55-1.83.74-2.8.52-1.08-.34-1.78-1.44-1.78-3.13v-9.62c.08-1.86.69-3.65,1.76-5.17.71-1.1,1.67-2.02,2.78-2.71Z"/>
            </g>
            <path class="cls-3" d="M119.02,127.17c.82-.55,1.83-.74,2.79-.52,1.08.33,1.79,1.43,1.79,3.13v9.61c-.08,1.86-.69,3.66-1.76,5.17-.72,1.1-1.67,2.02-2.79,2.7-.82.56-1.83.75-2.8.52-1.08-.33-1.77-1.43-1.78-3.13v-9.61c.07-1.86.68-3.66,1.75-5.17.72-1.1,1.68-2.02,2.8-2.7Z"/>
            <path class="cls-6" d="M118.97,108.53c1.55-.88,2.8-.17,2.8,1.59l.05,16.52c-.96-.22-1.97-.04-2.79.52-1.12.68-2.07,1.61-2.79,2.7l-.05-16.52c.11-1.96,1.14-3.75,2.78-4.82Z"/>
            <path class="cls-26" d="M116.28,147.79c.96.23,1.98.04,2.8-.52,1.12-.68,2.07-1.61,2.79-2.7l.08,29.22c-.1,1.96-1.13,3.76-2.78,4.82-1.54.89-2.8.18-2.8-1.59l-.09-29.23Z"/>
            <polygon class="cls-15" points="139.81 176.1 114.48 190.72 114.49 197.36 139.83 182.74 139.81 176.1"/>
            <path class="cls-26" d="M175.95,211.21l-5.13,2.96c.96.14,1.59,1,1.59,2.39-.07,1.55-.62,3.04-1.59,4.25l5.13-2.96c1.7-1.11,2.77-2.96,2.88-4.99,0-1.83-1.28-2.54-2.88-1.65Z"/>
            <path class="cls-15" d="M170.39,206.58c.07-1.55.63-3.03,1.59-4.24l-5.17,2.98c-1.71,1.11-2.78,2.97-2.88,5,0,1.83,1.3,2.57,2.89,1.64l5.17-2.98c-.96-.14-1.6-1-1.61-2.4Z"/>
            <path class="cls-15" d="M170.36,195.44c.07-1.55.63-3.03,1.59-4.24l-5.17,2.98c-1.69,1.11-2.75,2.96-2.85,4.97,0,1.83,1.3,2.57,2.89,1.64l5.17-2.98c-.99-.12-1.63-.98-1.64-2.38Z"/>
            <path class="cls-26" d="M172.35,183.14c-.07,1.55-.63,3.04-1.59,4.25l5.12-2.96c1.7-1.11,2.77-2.96,2.88-4.99,0-1.83-1.3-2.57-2.89-1.64l-5.13,2.96c.96.14,1.61.99,1.62,2.38Z"/>
            <path class="cls-15" d="M170.32,173.16c.07-1.55.63-3.04,1.59-4.25l-5.17,2.99c-1.7,1.1-2.78,2.96-2.88,4.98,0,1.83,1.3,2.57,2.89,1.65l5.17-2.98c-.97-.14-1.6-1-1.6-2.39Z"/>
            <path class="cls-26" d="M172.28,160.89c-.07,1.55-.63,3.04-1.59,4.25l5.13-2.97c1.7-1.1,2.78-2.96,2.88-4.98,0-1.83-1.3-2.57-2.89-1.65l-5.14,2.96c.97.1,1.62.96,1.63,2.39Z"/>
            <path class="cls-26" d="M170.83,214.17c-.63-.06-1.27.1-1.8.45l-2.39,1.36c-2,1.3-3.26,3.48-3.39,5.87,0,2.16,1.53,3.03,3.4,1.95l2.39-1.36c.69-.42,1.3-.96,1.79-1.59.97-1.21,1.53-2.7,1.59-4.25,0-1.43-.64-2.29-1.6-2.42Z"/>
            <path class="cls-26" d="M176.14,199.35l-2.39,1.36c-.7.41-1.3.95-1.79,1.59-.96,1.21-1.52,2.7-1.59,4.24,0,1.4.65,2.26,1.59,2.39.63.06,1.27-.1,1.8-.45l2.39-1.36c2-1.3,3.26-3.49,3.39-5.88,0-2.1-1.51-3-3.4-1.91Z"/>
            <path class="cls-26" d="M176.11,188.21l-2.39,1.36c-.69.41-1.3.95-1.79,1.59-.96,1.21-1.52,2.7-1.59,4.24,0,1.4.65,2.26,1.59,2.39.63.06,1.27-.1,1.8-.45l2.39-1.36c2-1.3,3.26-3.48,3.39-5.87,0-2.12-1.51-2.99-3.4-1.91Z"/>
            <path class="cls-26" d="M166.6,190.39l2.35-1.36c.7-.41,1.31-.95,1.8-1.59.96-1.21,1.52-2.7,1.59-4.25,0-1.4-.65-2.25-1.59-2.39-.63-.05-1.27.1-1.8.45l-2.35,1.36c-2.01,1.3-3.27,3.48-3.39,5.87-.02,2.12,1.53,2.99,3.39,1.92Z"/>
            <path class="cls-26" d="M176.05,165.93l-2.39,1.36c-.69.41-1.3.95-1.79,1.59-.97,1.21-1.53,2.7-1.59,4.25,0,1.4.65,2.26,1.59,2.39.63.06,1.27-.1,1.8-.45l2.39-1.36c2.01-1.3,3.27-3.49,3.39-5.88,0-2.13-1.52-2.97-3.4-1.91Z"/>
            <path class="cls-26" d="M166.54,168.07l2.35-1.36c.69-.41,1.3-.95,1.79-1.59.96-1.21,1.52-2.7,1.59-4.25,0-1.4-.65-2.26-1.59-2.39-.63-.05-1.26.11-1.79.45l-2.35,1.36c-2.01,1.3-3.27,3.48-3.39,5.87,0,2.15,1.51,3.03,3.39,1.92Z"/>
            <g class="cls-13">
              <path d="M170.83,214.17c-.63-.06-1.27.1-1.8.45l-2.39,1.36c-2,1.3-3.26,3.48-3.39,5.87,0,2.16,1.53,3.03,3.4,1.95l2.39-1.36c.69-.42,1.3-.96,1.79-1.59.97-1.21,1.53-2.7,1.59-4.25,0-1.43-.64-2.29-1.6-2.42Z"/>
              <path d="M176.14,199.35l-2.39,1.36c-.7.41-1.3.95-1.79,1.59-.96,1.21-1.52,2.7-1.59,4.24,0,1.4.65,2.26,1.59,2.39.63.06,1.27-.1,1.8-.45l2.39-1.36c2-1.3,3.26-3.49,3.39-5.88,0-2.1-1.51-3-3.4-1.91Z"/>
              <path d="M176.11,188.21l-2.39,1.36c-.69.41-1.3.95-1.79,1.59-.96,1.21-1.52,2.7-1.59,4.24,0,1.4.65,2.26,1.59,2.39.63.06,1.27-.1,1.8-.45l2.39-1.36c2-1.3,3.26-3.48,3.39-5.87,0-2.12-1.51-2.99-3.4-1.91Z"/>
              <path d="M166.6,190.39l2.35-1.36c.7-.41,1.31-.95,1.8-1.59.96-1.21,1.52-2.7,1.59-4.25,0-1.4-.65-2.25-1.59-2.39-.63-.05-1.27.1-1.8.45l-2.35,1.36c-2.01,1.3-3.27,3.48-3.39,5.87-.02,2.12,1.53,2.99,3.39,1.92Z"/>
              <path d="M176.05,165.93l-2.39,1.36c-.69.41-1.3.95-1.79,1.59-.97,1.21-1.53,2.7-1.59,4.25,0,1.4.65,2.26,1.59,2.39.63.06,1.27-.1,1.8-.45l2.39-1.36c2.01-1.3,3.27-3.49,3.39-5.88,0-2.13-1.52-2.97-3.4-1.91Z"/>
              <path d="M166.54,168.07l2.35-1.36c.69-.41,1.3-.95,1.79-1.59.96-1.21,1.52-2.7,1.59-4.25,0-1.4-.65-2.26-1.59-2.39-.63-.05-1.26.11-1.79.45l-2.35,1.36c-2.01,1.3-3.27,3.48-3.39,5.87,0,2.15,1.51,3.03,3.39,1.92Z"/>
            </g>
            <polygon class="cls-15" points="114.64 246.43 114.65 253.07 145.59 235.2 145.58 228.56 114.64 246.43"/>
            <polygon class="cls-15" points="139.93 220.66 114.6 235.29 114.62 241.92 139.95 227.29 139.93 220.66"/>
            <polygon class="cls-15" points="143.07 207.7 114.57 224.14 114.59 230.78 143.08 214.33 143.07 207.7"/>
            <polygon class="cls-15" points="132.76 202.48 114.54 213.01 114.56 219.64 132.77 209.12 132.76 202.48"/>
            <polygon class="cls-15" points="145.45 184 114.51 201.86 114.53 208.49 145.47 190.64 145.45 184"/>
            <g class="cls-2">
              <g>
                <path class="cls-15" d="M127.24,97.48c0-.06.04-.16.05-.24.47-4.29.96-8.58,1.44-12.87.02-.06.23-.15.3-.2.84-.52,1.77-1.05,2.65-1.53.05-.02.08-.11.18-.08l1.58,11.53-2.18,1.25-.3-2.72s-.81.42-.9.47c-.1.06-.38.21-.41.29-.03.08-.04.26-.05.35-.09.84-.09,1.73-.2,2.56-.02.15-.05.16-.17.23-.57.38-1.26.68-1.84,1.06-.03.02-.07.04-.08.08h-.08c0-.07,0-.14,0-.2ZM130.22,90.85c.13-.07.26-.12.39-.2.06-.04.16-.09.16-.17l-.43-4.53-.06-.26s-.03.14-.04.16c-.15,1.69-.21,3.39-.4,5.08l.04.11s.09-.03.13-.04c.05-.03.17-.12.22-.15Z"/>
                <path class="cls-15" d="M141.17,86.83c.01.13.07.41.14.51.21.3.65-.04.81-.24.3-.36.32-.78.35-1.23l-.03-9.36v-.06c.04-.06.42-.25.51-.3.37-.22.77-.45,1.15-.66.07-.04.43-.28.48-.24v9.57c-.02,2.22-1.35,4.08-3.37,4.93-1.44.6-2.01-.06-2.14-1.46-.06-3.28,0-6.57-.03-9.86l.02-.05c.19-.11.38-.21.56-.32.31-.18.66-.38.98-.56.18-.1.36-.24.55-.29v9.62Z"/>
                <path class="cls-15" d="M147.81,83.04c0,.14.05.41.12.53.21.38.72-.05.87-.3.28-.49.32-1.73.04-2.21-.45-.78-2.07-.72-2.65-1.8-.42-.78-.31-2.34-.12-3.19.34-1.56,1.35-2.84,2.82-3.5,2.11-.94,2.13,1.19,2.06,2.66l-1.95,1.11c0-.25.01-.5,0-.74,0-.17-.02-.43-.06-.59-.15-.6-.68-.1-.81.25-.16.41-.22,1.38.06,1.74.45.59,1.81.58,2.47,1.42.73.93.52,3.2.19,4.28-.44,1.42-1.54,2.62-2.91,3.2-2.18.94-2.2-1.2-2.15-2.73.02-.1.54-.33.65-.41.27-.19.61-.33.88-.53l.51-.25c.02.35-.03.72,0,1.07Z"/>
                <path class="cls-15" d="M162.45,64.97v2.1l-2.23,1.3c-.15.1-.08.33-.09.49-.03.63-.07,1.41-.03,2.04,0,.06.02.11.03.16.03.02.55-.28.62-.32.45-.26.9-.56,1.36-.81.02-.01.14-.06.16-.07.03,0,.05.02.05.03v2.04c-.05.06-.11.09-.17.13-.58.38-1.29.67-1.85,1.07-.06.04-.19.13-.19.21v3.18c.08,0,.15-.03.22-.07.71-.36,1.43-.88,2.14-1.26.02-.01.2-.09.21-.08-.07.65-.11,1.3-.2,1.95-.01.09-.02.24-.07.31-.11.14-.55.28-.69.42l-3.69,2.11c.02-3.03-.02-6.06,0-9.09,0-.07.03-.13.03-.2,0-1.02,0-2.05,0-3.07.02-.1.24-.19.33-.24,1.29-.79,2.69-1.47,3.97-2.29.04-.02-.01-.07.09-.02Z"/>
                <path class="cls-15" d="M157.02,68.09v2.1c-.42.32-.97.52-1.39.82-.06.04-.15.09-.16.16,0,3.39-.05,6.77-.03,10.15,0,.04-.01.06-.04.09-.06.05-.33.2-.42.25-.52.31-1.05.58-1.57.9l-.06-.04c.03-3.36.02-6.72.02-10.08l-.02-.09c-.07-.05-1.33.77-1.53.83v-2.12l5.21-2.98Z"/>
                <path class="cls-15" d="M134.31,91.69s.33-.17.4-.21c.15-.08.41-.27.52-.41.3-.38.24-.89.24-1.34v-9.23c.04-.1.89-.52,1.03-.61.28-.14.6-.39.88-.53.1-.05.22-.1.21.06v9.91c.02,2.06-1.19,3.5-3.03,4.27-.04.02-.24.12-.24.03v-1.94Z"/>
              </g>
            </g>
          </g>
          <g id="freepik--character-2--inject-3">
            <path class="cls-17" d="M260.96,241.93c1.38,1.32,3.25,2.01,5.16,1.9,1.89-.12,3.73-.59,5.45-1.37,1.75-.72,3.94-2.73,5.82-2.69,1.84-.02,3.69-.14,5.52-.38.06-2.51-.21-5.03-.8-7.47l-8.81-.23c-2.39,3.25-7,5.96-10.5,6.98-1.1.31-1.93,1.2-2.17,2.32v.06c.07.31.18.61.33.89Z"/>
            <path class="cls-16" d="M277.39,239.77c-1.88-.04-4.07,1.97-5.82,2.69-1.72.78-3.57,1.25-5.45,1.37-1.91.12-3.78-.57-5.16-1.9-.14-.28-.25-.58-.31-.89v-.06c-.08.39-.08.79,0,1.17.07.31.17.61.31.9,1.38,1.32,3.25,2,5.16,1.89,1.89-.12,3.73-.59,5.45-1.37,1.75-.72,3.94-2.73,5.82-2.69,1.81.02,3.63-.09,5.43-.32.05-.39.07-.8.09-1.18-1.83.24-3.67.37-5.52.38Z"/>
            <path class="cls-16" d="M304.52,246.84c0,.96-.09,1.92-.29,2.86-.3,1.68-1.24,3.17-2.61,4.18-1.27.73-2.71,1.11-4.17,1.11-1.28.14-2.58,0-3.81-.39-.93-.33-1.71-.98-2.22-1.82,0,.02,0,.03,0,.05.36,1.26,1.32,2.26,2.57,2.67,1.23.4,2.53.53,3.81.39,1.46,0,2.89-.38,4.16-1.11,1.38-1,2.32-2.5,2.62-4.18.19-.94.29-1.91.28-2.87,0-1.33.57-2.59,1.54-3.5.24-.22.46-.45.67-.69.3-.34.45-.79.41-1.24,0-.18,0-.36-.06-.53-.34.41-1.16,1.37-1.36,1.59-.96.9-1.52,2.16-1.53,3.48Z"/>
            <path class="cls-17" d="M297.29,236.85c.31,1.97.06,3.98-.73,5.81-.8,1.81-1.83,3.51-3.08,5.05-.61.73-1.14,1.52-1.59,2.35-.45.83-.61,1.78-.45,2.71.51.84,1.3,1.48,2.22,1.82,1.23.4,2.53.53,3.81.39,1.46,0,2.9-.38,4.17-1.11,1.38-1,2.31-2.5,2.61-4.18.2-.94.29-1.9.29-2.86,0-1.33.57-2.6,1.54-3.51.2-.19,1.02-1.16,1.36-1.59-.19-1.43-.67-2.82-1.41-4.06l-8.74-.83Z"/>
            <path class="cls-26" d="M272.95,154.47s-2.22,29.26-2.03,37.4c.19,8.14,1.01,40.3,1.01,40.3,4.56,2.66,11.16.68,11.16.68.53-25.68,2.96-31.19,1.31-40.59,1.16-6.98,2.77-23.23,2.77-23.23,2.27,19.55,3.91,29.62,3.91,29.62l5.43,39.13c4.46,2.33,10.08,0,10.08,0,0-22.32.48-31.74-1.84-46.47-.13-22.66-1.27-36.44-1.27-36.44l-30.53-.4Z"/>
            <path class="cls-9" d="M272.95,154.47s-2.22,29.26-2.03,37.4c.19,8.14,1.01,40.3,1.01,40.3,4.56,2.66,11.16.68,11.16.68.53-25.68,2.96-31.19,1.31-40.59,1.16-6.98,2.77-23.23,2.77-23.23,2.27,19.55,3.91,29.62,3.91,29.62l5.43,39.13c4.46,2.33,10.08,0,10.08,0,0-22.32.48-31.74-1.84-46.47-.13-22.66-1.27-36.44-1.27-36.44l-30.53-.4Z"/>
            <path class="cls-3" d="M278.34,162.03c1.55,3.81,6.43,3.81,6.43,3.81l.87,4.33-.33,15.44c.94-7.49,1.83-16.56,1.83-16.56l-.61-4.63c-2.93.16-5.82-.69-8.2-2.39Z"/>
            <polygon class="cls-21" points="243.62 113.03 254.72 124.93 258.21 121.8 263.66 130.11 253.11 138.64 240.82 118.67 243.62 113.03"/>
            <path class="cls-27" d="M274.95,108.8c-4.74-.27-5.99,2.21-8.98,5.01-3,2.8-8.64,8.23-8.64,8.23.44,3.83,2.81,7.16,6.27,8.84l10.44-7.71.91-14.37Z"/>
            <path class="cls-7" d="M274.95,108.8c-4.74-.27-5.99,2.21-8.98,5.01-3,2.8-8.64,8.23-8.64,8.23.44,3.83,2.81,7.16,6.27,8.84l10.44-7.71.91-14.37Z"/>
            <path class="cls-27" d="M304.25,156.68s-17.69,6.47-32.06-1.59c0,0,.87-10.29,1.12-16.29s-1.81-17.59-2.12-20.73c-.31-3.14.1-8.48,3.76-9.3,6.79-1.43,19.56,0,19.56,0l7.62,8.42c2.36,13.02,3.07,26.29,2.11,39.49Z"/>
            <path class="cls-21" d="M285.36,131.4l-4.23,10.91,4.68,7.29c6.81-3.09,5.41-2.22,10.12-13.55l-10.57-4.65Z"/>
            <path class="cls-27" d="M294.5,108.8c-5.1,6.04-7.02,16.41-9.66,23.12,2.95,5.58,11.16,5.04,11.16,5.04,7.54-15.7,10.72-27.53-1.5-28.16Z"/>
            <path class="cls-7" d="M294.5,108.8c-5.1,6.04-7.02,16.41-9.66,23.12,2.95,5.58,11.16,5.04,11.16,5.04,7.54-15.7,10.72-27.53-1.5-28.16Z"/>
            <path class="cls-21" d="M294.58,94.73c-.25-.58-.7-1.06-1.28-1.33-.12-.06-.25-.11-.38-.14-.78-.13-1.57.14-2.12.71-.53.57-.89,1.29-1.04,2.06-.14.76-.23,1.54-.26,2.31-.11,1.37-.33,2.74-.64,4.08-.33,1.48-1.3,2.74-2.65,3.45l-.09.05c-1.93.96-4.02,1.52-6.17,1.64v2.32c-1.7,2.31-2.18,6.74,2.31,5.42,4.49-1.32,7.41-4.3,7.41-7.24,0-1.24.06-2.83.09-4.26.05-1.91.08-3.52.08-3.52.42.49,1,.8,1.64.86.29.04.58.02.86-.05.83-.27,1.52-.85,1.91-1.63.38-.78.59-1.63.61-2.5.07-.76-.03-1.53-.3-2.24Z"/>
            <path class="cls-1" d="M293.09,86.61c-.9-1.04-2.16-1.7-3.52-1.87l-18.42,1.71c-2.13,4.5-.43,7.48-.43,7.48-.29,6.86-.53,11.23,2.5,12.68,2.13.86,4.44,1.18,6.73.93,2.15-.13,4.25-.68,6.17-1.64l.1-.05c1.34-.72,2.31-1.98,2.65-3.47.31-1.34.52-2.7.63-4.07.03-.78.11-1.55.26-2.31.14-.77.5-1.48,1.04-2.06.55-.57,1.34-.84,2.12-.71.13.03.26.08.38.14.56-3.05.71-5.7-.18-6.77Z"/>
            <path class="cls-21" d="M286.38,87.14c-.32,1.28-.24,2.63.24,3.86.48,1.22.87,2.47,1.17,3.75.24,1.28.06,2.61-.5,3.79-.59,1.18-1.66,2.03-2.94,2.34-1.98.41-3.91-.73-5.9-1.12-1.9-.33-3.87.01-5.54.98-.46.27-1.05.11-1.32-.35-.08-.14-.13-.29-.13-.45-.23-3.99-.23-10.14.35-13.05l14.57.26Z"/>
            <path class="cls-1" d="M272.13,83.56l-2.3-1.59c-.48,1.56-.15,3.25.88,4.51,1.05,1.22,2.47,2.06,4.04,2.39,1.56.32,3.16.39,4.74.22,2.32-.18,4.62-.6,6.86-1.25,1.01-.21,1.94-.7,2.69-1.41.95-1.22,1.01-2.92.14-4.2-.9-1.24-2.28-2.03-3.79-2.19-1.53-.12-3.06,0-4.55.36-1.49.36-3.03.47-4.56.33-1.55-.16-2.92-1.07-3.68-2.43-1.29,2.09-.48,5.28-.48,5.28Z"/>
            <polygon class="cls-23" points="277.91 94.14 274.54 98.21 277.63 99.3 277.91 94.14"/>
            <path class="cls-23" d="M280.45,101.32l-2.6.8c.34.63,1.05.95,1.75.8.63-.26.98-.93.85-1.59Z"/>
            <path class="cls-3" d="M280.45,101.32l-2.6.8c.34.63,1.05.95,1.75.8.63-.26.98-.93.85-1.59Z"/>
            <path class="cls-23" d="M278.74,102.87c.27.1.57.12.85.05.49-.18.83-.65.85-1.17-.35-.05-.7.01-1,.18-.34.21-.59.55-.69.94Z"/>
            <path class="cls-16" d="M282.47,95.04c-.03.51-.46.9-.97.87-.51-.03-.9-.46-.87-.97.03-.51.46-.9.97-.87.51.02.9.45.88.95,0,0,0,.01,0,.02Z"/>
            <path class="cls-16" d="M274.76,94.32c-.03.51-.46.9-.97.87-.51-.03-.9-.46-.87-.97.03-.51.46-.9.97-.87,0,0,0,0,0,0,.51.03.9.46.87.97Z"/>
            <path class="cls-16" d="M274.06,90.6l-2.12,1.31c-.16-.53.03-1.1.48-1.43.53-.27,1.16-.22,1.64.12Z"/>
            <path class="cls-16" d="M281.93,90.91l1.97,1.52c.21-.51.08-1.09-.32-1.47-.5-.32-1.13-.35-1.65-.06Z"/>
            <path class="cls-11" d="M287.38,105.77c.51-.66.88-1.42,1.08-2.23-.48.98-1.26,1.79-2.23,2.3l-.09.05c-1.93.96-4.02,1.52-6.17,1.64v1.59c1.24-.12,2.47-.38,3.64-.8,1.47-.48,2.78-1.37,3.77-2.56Z"/>
            <path class="cls-25" d="M260.74,177.99c0-4.3-2.02-9.22-5.03-12.97h0l-4.22,2.39h0l-.68.39,1.91,19.54,4.78-2.76h0c1.99-.96,3.22-3.25,3.24-6.59Z"/>
            <path class="cls-12" d="M260.74,177.99c0-4.3-2.02-9.22-5.03-12.97h0l-4.22,2.39h0l-.68.39,1.91,19.54,4.78-2.76h0c1.99-.96,3.22-3.25,3.24-6.59Z"/>
            <path class="cls-25" d="M263.01,77.98c0-5.82-3.06-12.59-7.45-17.23l-4.9,2.81,3.14,7.22.54,17.92,5.16-2.95h0c2.16-1.29,3.51-3.97,3.52-7.77Z"/>
            <path class="cls-11" d="M263.01,77.98c0-5.82-3.06-12.59-7.45-17.23l-4.9,2.81,3.14,7.22.54,17.92,5.16-2.95h0c2.16-1.29,3.51-3.97,3.52-7.77Z"/>
            <polygon class="cls-25" points="246.11 55.35 246.07 68.73 241.18 71.53 241.22 58.16 246.11 55.35"/>
            <polygon class="cls-11" points="246.11 55.35 246.07 68.73 241.18 71.53 241.22 58.16 246.11 55.35"/>
            <polygon class="cls-25" points="246.07 68.73 250.79 74.64 245.89 77.44 241.18 71.53 246.07 68.73"/>
            <polygon class="cls-12" points="246.07 68.73 250.79 74.64 245.89 77.44 241.18 71.53 246.07 68.73"/>
            <polygon class="cls-25" points="245.89 77.44 250.79 74.64 250.63 76.99 245.89 77.44"/>
            <polygon class="cls-11" points="245.89 77.44 250.79 74.64 250.63 76.99 245.89 77.44"/>
            <path class="cls-25" d="M245.91,91.54c1.58,1.03,2.57,2.75,2.67,4.63l-.13,61.85c0,1.71-1.2,2.39-2.69,1.54-1.58-1.03-2.58-2.75-2.67-4.63l.1-61.85c.03-1.71,1.28-2.39,2.72-1.54Z"/>
            <path class="cls-4" d="M245.91,91.54c1.58,1.03,2.57,2.75,2.67,4.63l-.13,61.85c0,1.71-1.2,2.39-2.69,1.54-1.58-1.03-2.58-2.75-2.67-4.63l.1-61.85c.03-1.71,1.28-2.39,2.72-1.54Z"/>
            <path class="cls-25" d="M250.84,167.82c3.01,3.75,5.04,8.67,5.02,12.96,0,4.78-2.54,7.45-6.15,7.14l.04-13.77-3.91-4.9-3.93.37v13.81c-3.64-3.85-6.2-9.47-6.19-14.29,0-4.3,2.06-6.87,5.08-7.14l.14-78.44c-4.19-4.62-7.1-11.16-7.08-16.82,0-5.77,3.07-8.96,7.41-8.59l-.04,13.38,4.71,5.91,4.74-.45v-13.43c4.4,4.64,7.48,11.41,7.46,17.22,0,5.66-2.96,8.83-7.17,8.61l-.14,78.44ZM248.45,158.02l.1-61.85c-.1-1.88-1.09-3.6-2.67-4.63-1.47-.85-2.69-.17-2.69,1.54l-.1,61.85c.09,1.88,1.09,3.61,2.67,4.63,1.48.85,2.69.17,2.69-1.54"/>
            <path class="cls-22" d="M243.98,157.7c-.06-.09-.1-.18-.15-.26.05.06.1.14.15.26Z"/>
            <path class="cls-22" d="M254.62,174.51v-3.19l-3.81-4.78v1.24c1.62,2.02,2.91,4.3,3.81,6.73Z"/>
            <polygon class="cls-25" points="245.82 169.25 241.89 169.62 241.87 172.87 241.87 172.87 241.85 183.43 246.74 180.63 246.78 170.45 245.82 169.25"/>
            <polygon class="cls-11" points="245.82 169.25 241.89 169.62 241.87 172.87 241.87 172.87 241.85 183.43 246.74 180.63 246.78 170.45 245.82 169.25"/>
            <path class="cls-25" d="M242.3,56.12h0l-5.05,2.89,3.99-.85,4.89-2.81c-1.33-.15-2.67.12-3.83.77Z"/>
            <path class="cls-12" d="M242.3,56.12h0l-5.05,2.89,3.99-.85,4.89-2.81c-1.33-.15-2.67.12-3.83.77Z"/>
            <path class="cls-25" d="M250.96,89.38l-.07,50.87-.05,27.57,4.89-2.81h0l.14-77.46c-1.28,1.32-3.09,1.99-4.92,1.83Z"/>
            <path class="cls-11" d="M250.96,89.38l-.07,50.87-.05,27.57,4.89-2.81h0l.14-77.46c-1.28,1.32-3.09,1.99-4.92,1.83Z"/>
            <path class="cls-21" d="M252.72,152.79c-1.99-1.26-3.47-3.19-4.17-5.44-.26-.84.22-1.73,1.06-1.99.34-.1.69-.09,1.02.03,1.7.6,3.81,1.08,5.11.27v-2.97c3.19,0,5.48,1.79,7.88,3.87,4.94-.84,9.78-2.25,14.41-4.18,1.35-.6,2.74-1.1,4.17-1.49,1.43-.39,2.95-.35,4.36.12,1.43.5,2.5,1.71,2.83,3.19.18,1.55-.41,3.08-1.59,4.1-1.17.98-2.53,1.72-3.99,2.17-6.02,2.11-28.32,4.05-31.09,2.33Z"/>
            <path class="cls-21" d="M240.82,118.64l-.26-.35c-2.58-3.41-3.86-7.63-3.62-11.9l.08-1.59c.05-.82.43-1.58,1.05-2.1l2.64-2.25c.61-.52,1.38-.8,2.18-.8h1.49c.47,0,.86.34.94.8h0c.07.51-.29.98-.8,1.06l-1.72.28-1.55,1.59,2.14-.89,1.45.08c.74.04,1.32.67,1.3,1.41l-.15,4.1c-.03.74-.64,1.33-1.39,1.32h-1.18l-2.62,1.38v7.88Z"/>
          </g>
          <g id="freepik--character-1--inject-3">
            <path class="cls-16" d="M195.16,281.19c-.48,1.01-2.01,1.95-3.69,2.22-1.69.15-3.4.04-5.06-.33-2.5-.35-5.03-.41-7.55-.19-1.56.2-3.13.31-4.7.33-1.59.02-3.13-.47-4.42-1.4-.88-.7-1.47-1.71-1.66-2.82-.14,1.47.49,2.9,1.66,3.8,1.29.92,2.84,1.41,4.42,1.4,1.57-.02,3.14-.13,4.7-.34,2.52-.22,5.05-.15,7.55.2,1.68.23,3.51.72,5.18.44,1.67-.28,3.19-1.21,3.69-2.22l-.12-1.1Z"/>
            <path class="cls-15" d="M176.82,278.2c1.4,0,.88-2.09,2.23-3.48-.55,0-1.09.04-1.64,0-1.2,1.77-1.51,3.48-.59,3.48Z"/>
            <path class="cls-15" d="M179.75,278.08c1.42,0,1.04-2.49,2.44-3.94-.32.11-.64.21-.96.28-.28.06-.56.11-.8.15-1.28,1.76-1.64,3.51-.68,3.51Z"/>
            <path class="cls-27" d="M193.7,273.3c-.09-.46-.35-.87-.73-1.15l-7.61-.19c-.82,1.03-1.93,1.78-3.19,2.17-1.4,1.45-1.02,3.94-2.44,3.94-.96,0-.61-1.75.64-3.51-.45.06-.88.1-1.33.14-1.35,1.4-.8,3.48-2.23,3.48-.96,0-.61-1.71.59-3.45h-1.07c-.33,0-.65,0-.97-.06-2.81,2.22-3.05,4.62-2.68,8.39.48.09.97.14,1.46.15,1.57-.02,3.14-.13,4.7-.33,2.52-.22,5.05-.16,7.55.19,1.66.36,3.37.47,5.06.33,1.68-.28,3.19-1.21,3.69-2.22l-1.43-7.88Z"/>
            <path class="cls-15" d="M175.37,274.69c-1.26-.2-2.55-.2-3.81,0-1.6.31-2.9,1.45-3.43,2.99-.11.44-.13.89-.06,1.34.18,1.11.78,2.12,1.66,2.82.87.65,1.89,1.08,2.97,1.24-.37-3.77-.13-6.18,2.68-8.39Z"/>
            <path class="cls-24" d="M185.13,269.82v3.67c0,.83.67,1.51,1.51,1.51,0,0,0,0,0,0h3.83c1.34,0,2.44-1.05,2.48-2.39l.09-2.78h-7.92Z"/>
            <path class="cls-16" d="M210.52,268.18c-.43.91-1.31,1.51-2.31,1.59-1.03.07-2.05-.18-2.93-.72-1.32-.85-1.83-2.16-2.73-3.35-.94-1.15-2.01-2.2-3.19-3.12-1.27-.93-2.31-2.14-3.05-3.53-.18-.41-.3-.85-.36-1.29-.11.85.01,1.71.36,2.49.74,1.39,1.78,2.59,3.05,3.52,1.18.92,2.25,1.96,3.19,3.12.9,1.19,1.42,2.51,2.73,3.35.88.54,1.9.79,2.93.72,1-.08,1.88-.69,2.31-1.59.16-.67.21-1.36.14-2.05,0,.29-.05.58-.14.86Z"/>
            <path class="cls-15" d="M201.86,260.12c-.13.18-.2.4-.18.63.05.22.21.39.41.47.3.08.63,0,.86-.22.22-.22.42-.46.59-.71.51-.65,1.19-1.14,1.96-1.43.38-.14.77-.23,1.17-.26l-.95-.87c-1.61.09-3.07.99-3.87,2.39h0Z"/>
            <path class="cls-15" d="M202.07,257.09c-.89.42-1.63,1.11-2.13,1.96-.13.18-.2.4-.18.63.05.22.21.39.41.47.3.08.63,0,.86-.22.22-.22.42-.46.59-.71.92-1.19,2.39-1.83,3.89-1.68l-.91-.86c-.87-.1-1.74.04-2.54.41Z"/>
            <path class="cls-15" d="M203.97,256.14c-.87-.84-1.88-1.52-2.99-2-1.37-.6-2.96-.38-4.11.57-.77.83-1.11,1.97-.91,3.09.06.45.18.88.36,1.29.25.54.57,1.04.95,1.5.37-3.28,3.21-4.82,6.7-4.44Z"/>
            <path class="cls-27" d="M210.6,264.96c.01-1.11-.25-2.2-.75-3.19l-1.85-1.95-1.32-1.2c-.4.03-.8.12-1.17.26-.77.29-1.45.78-1.96,1.43-.17.25-.37.49-.59.71-.23.22-.56.3-.86.22-.21-.08-.37-.25-.41-.47-.01-.22.05-.45.18-.63.8-1.4,2.25-2.3,3.87-2.39l-.22-.19c-1.5-.14-2.97.49-3.89,1.68-.17.25-.37.49-.59.71-.23.21-.56.29-.86.22-.21-.08-.37-.25-.41-.47-.01-.22.05-.45.18-.63.49-.85,1.24-1.54,2.13-1.96.78-.36,1.65-.5,2.5-.41h0c-.18-.18-.37-.34-.57-.51-3.49-.37-6.34,1.16-6.7,4.44.63.74,1.34,1.42,2.1,2.03,1.18.92,2.25,1.96,3.19,3.12.9,1.19,1.42,2.5,2.73,3.35.88.54,1.9.79,2.93.72,1-.08,1.88-.69,2.31-1.59.09-.28.14-.57.14-.86,0-.81-.03-1.62-.1-2.42Z"/>
            <path class="cls-24" d="M203.91,259.16l.22,3.95c2.48,1.43,5.09.65,5.97-.26l.16-3.69h-6.35Z"/>
            <path class="cls-24" d="M208.81,174.01c-.22-.42-.35-.88-.38-1.36l-.21-3.38-24.09,1.55c-.32,1.69-.65,3.76-.96,6.11,8.61,2.25,17.75,1.21,25.64-2.92Z"/>
            <path class="cls-24" d="M208.33,160.37l5.13,9.92-4.66,7.8,5.15,8.16,7.78-12.09c1.06-1.66,1.35-3.69.8-5.58-1.33-4.71-3.02-9.31-5.05-13.76l-9.15,5.55Z"/>
            <path class="cls-28" d="M204.26,141.22c5.91-1.1,9.28.87,14.27,14.23-2.04,4.57-10.68,6.26-10.68,6.26l-3.59-20.49Z"/>
            <path class="cls-15" d="M193.2,142.79l-6.45,1.27c-1.43,2.61-2.88,5.06-4.3,7.67-1.07,1.96-2.18,4.05-2.09,6.28.11,2.45,1.61,4.62,3.86,5.58l-.74,8.77c10.12,3.09,22.5.37,25.22-1.97.8-3.68,1.51-7.61,2.3-11.3.59-2.38.96-4.81,1.09-7.26.12-2.47-.47-4.92-1.71-7.06l-.04-.06c-1.73-2.6-4.83-3.93-7.91-3.4l-9.23,1.47Z"/>
            <path class="cls-27" d="M209.19,174.63c-.15-.19-.27-.4-.37-.62-7.89,4.12-17.03,5.16-25.64,2.92-1.82,13.51-3.38,36.4-2.39,51.5.8,17.58,3.99,42.47,3.99,42.47,4.22,1.26,7.38.49,8.58-.42,1.4-17.43,4.5-29.39,2.11-40.92,1.59-8.06,2.62-18.18,2.62-18.18l1.22,17.81,4.12,31.31c2.36,1.21,5.18,1.07,7.41-.37,3-17.9,4.12-30.03,1.5-38.92,4.03-29.38,4.23-36.89-3.14-46.56Z"/>
            <path class="cls-3" d="M199.87,207.84l2.22-9.27c2.57-.42,6.61-2.11,8.72-5.64-3.06,2.39-6.81,3.71-10.69,3.77l-2.02,14.67.43,6.27.17-2.28c.2-2.53.59-5.04,1.17-7.51Z"/>
            <path class="cls-24" d="M145.24,132.19l6.5,16.74c.85,2.19,2.78,3.78,5.09,4.18l11.1,1.98c2.63-2.79,3.4-6.86,1.96-10.41-3.36-.05-6.7-.42-9.99-1.1,0,0-7.01-8.52-9.93-12.92l2.09-6.92c.19-.63.11-1.3-.22-1.87l-1.12-1.95c-.29-.5-.75-.88-1.29-1.07l-1.59-.55c-.74-.25-1.55-.19-2.24.17l-2.46,1.29c-.32.16-.52.49-.51.85h0c.02.34.21.64.51.8l.92.47,1.28,2.17c-1.83,2.4-1.86,5.72-.09,8.16Z"/>
            <path class="cls-28" d="M185.75,143.94c-3.99.18-9.98.85-15.86.73,1.44,3.55.68,7.62-1.95,10.41l13.85,2.39c3.03.48,5.92-1.42,6.69-4.38.43-1.75.89-3.23,1.16-4.93.28-2.03-1.14-3.91-3.17-4.19-.24-.03-.47-.04-.71-.03Z"/>
            <path class="cls-1" d="M185.35,125.47c-.96-1.83-1.4-3.88-1.27-5.94.16-2.08,1.32-3.95,3.12-5.02,1.86-1.02,4.18-.61,5.58.98,5.03-2.74,11.32-.88,14.06,4.14.96,1.76,1.39,3.77,1.23,5.77-.14,2.14-.92,4.23-.68,6.38.14,1.25.64,2.51.3,3.72-.33,1.01-1.06,1.84-2.02,2.3-.93.49-3.11.36-4.14.57-3.14,2.86-7.09,1.79-9.57-.8-2.48-2.58-6.62-12.1-6.62-12.1Z"/>
            <polygon class="cls-29" points="184.7 128.3 182.74 131.72 184.88 132.5 184.7 128.3"/>
            <path class="cls-24" d="M184.47,126.78c.32-3,1.19-5.82,3.14-7.25-.52,3.72.27,7.51,2.24,10.71.2-.99.71-1.89,1.45-2.57.74-.71,1.82-.94,2.79-.59.65.3,1.15.85,1.4,1.52.74,1.87-.17,3.98-2.04,4.72-.8.32-1.69.34-2.5.06.55,2.72,2.65,4.85,5.37,5.44,1.75.36,3.56.18,5.21-.49l.8,4.03c-3.28,3.51-8.9,1.15-8.9,1.15l-.74-3.99c-6.46.38-7.06.27-7.77-3.28-.58-3.12-.72-6.3-.44-9.46Z"/>
            <path class="cls-3" d="M198.78,122.44c.91-2.6,2.74-4.79,5.14-6.14,2.78,2.17,4.33,5.57,4.15,9.1-.14,2.14-.92,4.23-.68,6.38.14,1.25.64,2.51.3,3.72-.33,1.01-1.06,1.84-2.02,2.3-.93.49-3.11.36-4.14.57-.14.13-.27.23-.41.34-1.1-2.08-1.95-4.28-2.55-6.56-.89-3.19-.81-6.57.22-9.71Z"/>
            <path class="cls-1" d="M200.57,120.24c1.31-4.35,5.9-6.81,10.25-5.5,2.57.78,4.59,2.75,5.43,5.3,1.95,5.9-3.05,12.17-1.95,18.28.4,2.21,1.59,4.21,1.96,6.38.96,5.16-2.44,10.11-7.6,11.07-.2.04-.4.07-.6.09,1.4-1.55,1.43-3.93.63-5.86s-2.22-3.52-3.45-5.2c-4.96-6.85-7.12-16.55-4.68-24.56Z"/>
          </g>
          <g id="freepik--speech-bubble--inject-3">
            <path class="cls-26" d="M312.5,52.97c-.33-.6-.82-1.09-1.41-1.43l-30.84-17.49c-1.7-.98-5.72.34-5.72,3.08v22.18c0,1.36.73,2.62,1.91,3.29l14.35,8.2-1.99-1.13,1.26,3.53c.03.1.15.16.25.13,0,0,0,0,0,0h0c.22-.11,1.2-.64,1.75-1h0s.04,0,.05-.05l.31-.49,14.81,8.29c1.75,1.1,4.06.57,5.15-1.18.36-.57.55-1.22.57-1.9v-22.13c.01-.66-.15-1.32-.46-1.9Z"/>
            <path class="cls-7" d="M292.15,72.24l-.05.05h0c-.56.37-1.53.89-1.75,1h0s.09-.04.12-.08l1.2-1.95-.24-.14h0l1.06.61-.34.51Z"/>
            <path class="cls-8" d="M308.74,55.11c-.25-.49-.59-.92-1.01-1.28h0c-.14-.12-.3-.22-.45-.31l-30.84-17.49c-.6-.35-1.37-.14-1.72.46-.11.19-.17.41-.17.63,0-2.73,3.99-4.06,5.72-3.08l30.84,17.49c.59.34,1.08.83,1.41,1.43l-3.77,2.14Z"/>
            <path class="cls-7" d="M309.16,78.94v-22.13c.01-.15.01-.3,0-.45-.06-.43-.19-.85-.39-1.24l3.76-2.14c.32.58.49,1.23.49,1.9v22.14c-.05,2.06-1.76,3.7-3.83,3.65-.67-.02-1.33-.21-1.9-.57.62.33,1.39.1,1.72-.52.1-.19.15-.4.15-.62Z"/>
            <path class="cls-25" d="M284.61,54.79c-.41-.29-.93-.36-1.41-.21-.52.28-.82.85-.75,1.44.03.82.28,1.62.74,2.31.35.58.84,1.06,1.41,1.41.41.29.93.37,1.41.22.53-.28.82-.85.75-1.44-.03-.82-.28-1.62-.73-2.3-.36-.58-.84-1.07-1.42-1.43Z"/>
            <path class="cls-15" d="M284.61,54.79c.58.36,1.06.85,1.42,1.43v-9.22c-.05-.99-.58-1.9-1.41-2.45-.8-.45-1.41-.09-1.41.8v9.22c.48-.15,1-.07,1.4.22Z"/>
            <path class="cls-15" d="M284.6,59.75c-.58-.35-1.06-.84-1.41-1.41v2.34c.05.99.58,1.89,1.4,2.43.8.45,1.42.1,1.42-.8v-2.34c-.48.15-1,.07-1.41-.22Z"/>
            <path class="cls-15" d="M291.76,50.62c.58.35,1.06.84,1.41,1.42v-.92c-.05-.99-.58-1.9-1.41-2.45-.8-.45-1.41-.09-1.42.8v.92c.48-.15,1.01-.07,1.42.23Z"/>
            <path class="cls-15" d="M291.75,55.58c-.57-.36-1.05-.84-1.4-1.42v10.63c.06.99.58,1.89,1.4,2.44.8.45,1.42.09,1.42-.8v-10.63c-.48.15-1.01.07-1.42-.22Z"/>
            <path class="cls-25" d="M300.27,62.25c-.35-.58-.84-1.06-1.41-1.42-.41-.29-.93-.36-1.41-.21-.54.27-.86.84-.8,1.44.03.82.29,1.62.74,2.31.35.57.84,1.06,1.41,1.41.42.32.97.41,1.47.24.52-.28.82-.85.75-1.44-.03-.83-.29-1.64-.75-2.34Z"/>
            <path class="cls-15" d="M298.86,65.79c-.57-.35-1.06-.84-1.41-1.41v4.53c.05.99.57,1.9,1.4,2.44.8.45,1.42.09,1.42-.8v-4.54c-.48.15-1,.07-1.41-.22Z"/>
            <path class="cls-3" d="M284.6,59.75c-.58-.35-1.06-.84-1.41-1.41v2.34c.05.99.58,1.89,1.4,2.43.8.45,1.42.1,1.42-.8v-2.34c-.48.15-1,.07-1.41-.22Z"/>
            <path class="cls-3" d="M291.75,55.58c-.57-.36-1.05-.84-1.4-1.42v10.63c.06.99.58,1.89,1.4,2.44.8.45,1.42.09,1.42-.8v-10.63c-.48.15-1.01.07-1.42-.22Z"/>
            <path class="cls-3" d="M298.86,65.79c-.57-.35-1.06-.84-1.41-1.41v4.53c.05.99.57,1.9,1.4,2.44.8.45,1.42.09,1.42-.8v-4.54c-.48.15-1,.07-1.41-.22Z"/>
            <path class="cls-15" d="M298.87,60.83c.58.36,1.06.84,1.41,1.42v-7.02c-.05-.99-.58-1.9-1.41-2.45-.8-.45-1.41-.09-1.42.8v7.02c.48-.15,1.01-.07,1.42.22Z"/>
            <path class="cls-25" d="M291.76,50.62c-.41-.29-.93-.37-1.41-.22-.53.28-.83.86-.75,1.45.02.82.28,1.62.74,2.3.35.58.83,1.06,1.4,1.42.41.29.94.36,1.42.22.54-.27.86-.85.8-1.45-.03-.82-.29-1.62-.75-2.3-.36-.58-.86-1.07-1.45-1.42Z"/>
          </g>
        </g>
      </g>
    </g>
  </g>
</svg>