<?xml version="1.0" encoding="UTF-8"?>
<svg xmlns="http://www.w3.org/2000/svg" viewBox="0 0 350.85 342.07">
  <defs>
    <style>
      .cls-1 {
        fill: #37474f;
      }

      .cls-2, .cls-3, .cls-4, .cls-5, .cls-6, .cls-7, .cls-8, .cls-9, .cls-10, .cls-11, .cls-12 {
        isolation: isolate;
      }

      .cls-2, .cls-4 {
        opacity: .3;
      }

      .cls-3, .cls-4, .cls-13, .cls-5, .cls-7, .cls-10 {
        fill: #fff;
      }

      .cls-3, .cls-14, .cls-12 {
        opacity: .1;
      }

      .cls-15 {
        fill: #263238;
      }

      .cls-16 {
        fill: #873e3e;
      }

      .cls-5, .cls-9, .cls-17 {
        opacity: .2;
      }

      .cls-18 {
        fill: #f0f0f0;
      }

      .cls-6, .cls-7 {
        opacity: .4;
      }

      .cls-19, .cls-20 {
        mix-blend-mode: multiply;
        opacity: .28;
      }

      .cls-21 {
        fill: #ffa8a7;
      }

      .cls-22 {
        fill: #f28f8f;
      }

      .cls-23 {
        fill: #ab6060;
      }

      .cls-24 {
        fill: #e0e0e0;
      }

      .cls-25 {
        opacity: .15;
      }

      .cls-20, .cls-26 {
        fill: #7379ff;
      }

      .cls-10, .cls-27 {
        opacity: .5;
      }

      .cls-11, .cls-28 {
        opacity: .7;
      }

      .cls-29 {
        fill: #455a64;
      }

      .cls-30 {
        fill: #ebebeb;
      }

      .cls-31 {
        opacity: .8;
      }
    </style>
  </defs>
  <g class="cls-8">
    <g id="Capa_2" data-name="Capa 2">
      <g id="Capa_17" data-name="Capa 17">
        <g>
          <g id="freepik--Floor--inject-153" class="cls-19">
            <path class="cls-26" d="M299.06,168.62c-68.72-39.68-179.8-39.68-248.08,0-68.28,39.68-67.92,104.05.81,143.7,68.72,39.65,179.81,39.68,248.09,0,68.28-39.68,67.92-104.02-.81-143.7Z"/>
          </g>
          <g id="freepik--Shadows--inject-153">
            <path class="cls-20" d="M74.7,299.97c-4.07-2.35-10.63-2.35-14.7,0s-4.03,6.17.05,8.51c4.07,2.35,10.63,2.35,14.7,0s4.03-6.16-.05-8.51Z"/>
            <path class="cls-20" d="M217.13,158.21l-10.31-5.95c-3.22-1.86-7.2-1.86-10.42,0l-57.21,33.16-5.05-2.91-41.41,24.24,4.78,2.73-67.72,39.12c-1.66.96-2.23,3.08-1.28,4.74.31.53.75.97,1.28,1.28l10.46,6.02c3.23,1.87,7.21,1.87,10.44,0l67.68-39.14,7.91,4.56c6.45,3.72,14.39,3.72,20.84,0l24.3-14.04c2.22-1.28,2.98-4.12,1.7-6.34-.41-.7-.99-1.29-1.7-1.7l-11.39-6.56,9.61-5.57,3.33-1.94,44.22-25.66c1.66-.96,2.23-3.08,1.27-4.74-.31-.54-.76-.98-1.3-1.29Z"/>
            <path class="cls-20" d="M142.01,257.76c-11.89-6.84-31.1-6.84-42.91,0-11.81,6.84-11.75,17.99.14,24.86,11.89,6.87,31.09,6.84,42.91,0,11.82-6.84,11.76-17.99-.14-24.86Z"/>
            <path class="cls-20" d="M242.32,299.94c-10.77-6.22-28.18-6.22-38.88,0-10.7,6.22-10.63,16.3.13,22.52,10.76,6.22,28.18,6.22,38.88,0,10.7-6.22,10.64-16.3-.13-22.52Z"/>
            <path class="cls-20" d="M255.21,208.73c-11.1-6.41-29.05-6.41-40.08,0s-10.97,16.8.13,23.21c11.1,6.41,29.05,6.41,40.08,0s10.97-16.81-.13-23.21Z"/>
            <path class="cls-20" d="M306.58,203.89c-4.36-2.51-11.39-2.51-15.73,0-4.34,2.51-4.3,6.59.05,9.11,4.35,2.52,11.39,2.51,15.72,0,4.33-2.51,4.31-6.6-.05-9.11Z"/>
          </g>
          <g id="freepik--Device--inject-153">
            <path class="cls-26" d="M162.96,205.69l-19.84,11.35c-5.8,3.33-12.93,3.33-18.73,0l-14.72-8.48c-1.75-1-2.82-2.86-2.83-4.88v-10.04l-3.04,1.77v8.69c0,2.35,1.26,4.53,3.3,5.7l17.47,10.07c5.71,3.28,12.73,3.28,18.44,0l19.98-11.39c2.79-1.59,4.26-4.78,3.65-7.93-.4,2.18-1.75,4.06-3.68,5.14Z"/>
            <path class="cls-12" d="M162.96,205.69l-19.84,11.35c-5.8,3.33-12.93,3.33-18.73,0l-14.72-8.48c-1.75-1-2.82-2.86-2.83-4.88v-10.04l-3.04,1.77v8.69c0,2.35,1.26,4.53,3.3,5.7l17.47,10.07c5.71,3.28,12.73,3.28,18.44,0l19.98-11.39c2.79-1.59,4.26-4.78,3.65-7.93-.4,2.18-1.75,4.06-3.68,5.14Z"/>
            <path class="cls-26" d="M109.68,208.52l14.72,8.48c5.8,3.33,12.93,3.33,18.73,0l19.84-11.31c1.92-1.09,3.26-2.97,3.65-5.14-.39-2.11-1.66-3.95-3.51-5.05l-16.28-9.76c-1.98-1.19-3.2-3.34-3.2-5.65v-7.76l-36.79,21.27v10.04c0,2.02,1.09,3.88,2.84,4.88Z"/>
            <path class="cls-6" d="M109.68,208.52c-1.75-1-2.82-2.86-2.83-4.88v-10.04l-3.04,1.77v8.73c0,2.35,1.26,4.53,3.3,5.7l6.2,3.58v-2.79l-3.63-2.07Z"/>
            <path class="cls-2" d="M109.68,208.52l3.58,2.07h0l38.41-21.95-4.85-2.9c-1.98-1.19-3.2-3.34-3.2-5.65v-7.75l-36.79,21.27v10.04c0,2.02,1.09,3.88,2.84,4.88Z"/>
            <path class="cls-26" d="M42.91,229.85l-.28-125.81c.21-3.95,2.29-7.57,5.61-9.72L204.63,4.26c1.52-.89,2.95-.98,3.96-.41l-5.89-3.41h0c-1.03-.65-2.48-.6-4.09.33L42.23,90.83c-3.31,2.16-5.4,5.77-5.61,9.72l.29,125.81c0,1.69.57,2.89,1.52,3.51h0c.1.07.2.13.31.18l5.81,3.38c-1.01-.58-1.63-1.82-1.63-3.58Z"/>
            <path class="cls-4" d="M202.7.44h0c-1.03-.65-2.48-.6-4.09.33L42.23,90.83c-1.84,1.17-3.31,2.83-4.27,4.79l6.02,3.48c.96-1.96,2.45-3.62,4.3-4.78L204.63,4.26c1.52-.89,2.95-.98,3.96-.41l-5.89-3.41Z"/>
            <path class="cls-9" d="M36.62,100.55l.29,125.81c0,1.69.57,2.89,1.52,3.51h0c.1.07.2.13.31.18l5.81,3.38c-.99-.59-1.61-1.83-1.62-3.58l-.28-125.81c.05-1.73.5-3.42,1.31-4.94l-6-3.47c-.82,1.52-1.28,3.2-1.34,4.93Z"/>
            <path class="cls-26" d="M210.28,7.47c0-1.75-.62-2.99-1.62-3.58h-.04c-1.02-.57-2.42-.48-3.96.41L48.24,94.32c-3.32,2.15-5.41,5.77-5.61,9.72l.28,125.81c0,1.75.62,2.99,1.62,3.58.02.02.05.04.08.05h.05c1.01.53,2.38.43,3.9-.45l156.38-90.03c3.31-2.16,5.4-5.77,5.61-9.72l-.28-125.82ZM202.16,138.2L48.46,226.71l-.28-122.69c.22-1.96,1.25-3.73,2.84-4.89L204.72,10.62l.27,122.69c-.21,1.96-1.24,3.73-2.83,4.89Z"/>
            <path class="cls-26" d="M204.72,10.62l-3.98,2.28.27,118.48c-.21,1.96-1.24,3.73-2.83,4.89L48.45,222.47v4.24l153.72-88.51c1.59-1.16,2.62-2.93,2.83-4.89l-.27-122.69Z"/>
            <path class="cls-2" d="M204.72,10.62l-3.98,2.28.27,118.48c-.21,1.96-1.24,3.73-2.83,4.89L48.45,222.47v4.24l153.72-88.51c1.59-1.16,2.62-2.93,2.83-4.89l-.27-122.69Z"/>
            <path class="cls-29" d="M201.01,131.36l-.27-118.48L51.02,99.13c-1.59,1.16-2.62,2.93-2.84,4.89l.27,118.48,149.76-86.25c1.58-1.16,2.6-2.94,2.8-4.89Z"/>
          </g>
          <g id="freepik--Window--inject-153">
            <path class="cls-26" d="M66.61,236.21l-.27-118.91c.2-3.74,2.18-7.15,5.32-9.19L219.47,22.99c1.47-.84,2.79-.93,3.75-.39l-5.57-3.23h0c-.97-.62-2.34-.57-3.87.31L65.96,104.81c-3.14,2.03-5.12,5.45-5.32,9.19l.27,118.91c0,1.59.54,2.73,1.41,3.32h0l.3.17,5.49,3.2c-.92-.56-1.5-1.74-1.5-3.39Z"/>
            <path class="cls-7" d="M217.64,19.37h0c-.97-.62-2.34-.57-3.87.31L65.96,104.81c-1.75,1.11-3.16,2.69-4.06,4.56l5.69,3.29c.9-1.87,2.31-3.45,4.06-4.56L219.47,22.99c1.47-.84,2.79-.93,3.75-.39l-5.59-3.23Z"/>
            <path class="cls-4" d="M60.66,114l.27,118.91c0,1.59.54,2.73,1.41,3.32h0l.3.17,5.49,3.2c-.94-.56-1.52-1.74-1.52-3.39l-.27-118.91c.04-1.63.47-3.23,1.25-4.67l-5.69-3.29c-.77,1.44-1.19,3.03-1.24,4.66Z"/>
            <path class="cls-26" d="M66.36,124.19l.25,112.02c0,1.66.58,2.83,1.52,3.39l.08.05h0c.96.51,2.28.41,3.69-.42l147.85-85.1c3.14-2.04,5.11-5.45,5.32-9.19l-.28-112.2L66.36,124.19Z"/>
            <path class="cls-10" d="M66.36,124.19l.25,112.02c0,1.66.58,2.83,1.52,3.39l.08.05h0c.96.51,2.28.41,3.69-.42l147.85-85.1c3.14-2.04,5.11-5.45,5.32-9.19l-.28-112.2L66.36,124.19Z"/>
            <path class="cls-26" d="M218.71,40.19c1.37-.76,2.49-.15,2.49,1.42-.09,1.75-1.02,3.34-2.49,4.29l-126.73,73.21c-1.37.76-2.48.16-2.49-1.42.1-1.74,1.02-3.34,2.48-4.29l126.74-73.21Z"/>
            <g class="cls-31">
              <path class="cls-13" d="M218.71,40.19c1.37-.76,2.49-.15,2.49,1.42-.09,1.75-1.02,3.34-2.49,4.29l-126.73,73.21c-1.37.76-2.48.16-2.49-1.42.1-1.74,1.02-3.34,2.48-4.29l126.74-73.21Z"/>
            </g>
            <path class="cls-26" d="M73.37,125.47c.05-.03.12-.03.17,0,.1.05.11.23,0,.39l-.81,1.47,2.7-1.56c.14-.08.25,0,.25.14,0,.18-.1.34-.25.43l-2.7,1.56.81.54c.09.06.08.25,0,.42-.04.07-.1.13-.17.17-.05.04-.13.04-.18,0l-1.19-.81s-.04-.04-.05-.06c0-.03,0-.06,0-.09,0-.04,0-.07,0-.11l.05-.12,1.18-2.18c.04-.08.11-.15.19-.2Z"/>
            <path class="cls-26" d="M80.19,121.53c.06-.03.13-.03.18,0l1.19.81s.04.04.05.06c0,.03,0,.07,0,.1,0,.04,0,.07,0,.11l-.05.11-1.19,2.18c-.04.08-.1.16-.18.21-.05.02-.11.02-.17,0-.1-.05-.11-.23,0-.4l.76-1.47-2.7,1.56c-.14.08-.25,0-.25-.14,0-.17.1-.33.24-.43l2.7-1.56-.81-.55c-.09-.06-.08-.24,0-.41.06-.07.13-.13.21-.17Z"/>
            <path class="cls-26" d="M85.18,118.65c.24-.16.54-.23.83-.21.02-.16.12-.3.25-.39h0c.14-.07.24,0,.24.16v.64c-.01.17-.1.32-.24.42l-.54.34h0c-.13.08-.24,0-.24-.13,0-.15.07-.3.18-.39-.16,0-.31.05-.45.14-.62.4-1.01,1.07-1.04,1.81,0,.66.47.93,1.05.6.43-.27.75-.68.92-1.16.04-.11.12-.21.22-.27.04,0,.08,0,.12,0,.12,0,.17.15.1.33-.25.7-.73,1.31-1.36,1.71-.85.49-1.52.1-1.52-.88.03-1.09.58-2.1,1.48-2.71Z"/>
            <g class="cls-28">
              <path class="cls-13" d="M73.37,125.47c.05-.03.12-.03.17,0,.1.05.11.23,0,.39l-.81,1.47,2.7-1.56c.14-.08.25,0,.25.14,0,.18-.1.34-.25.43l-2.7,1.56.81.54c.09.06.08.25,0,.42-.04.07-.1.13-.17.17-.05.04-.13.04-.18,0l-1.19-.81s-.04-.04-.05-.06c0-.03,0-.06,0-.09,0-.04,0-.07,0-.11l.05-.12,1.18-2.18c.04-.08.11-.15.19-.2Z"/>
              <path class="cls-13" d="M80.19,121.53c.06-.03.13-.03.18,0l1.19.81s.04.04.05.06c0,.03,0,.07,0,.1,0,.04,0,.07,0,.11l-.05.11-1.19,2.18c-.04.08-.1.16-.18.21-.05.02-.11.02-.17,0-.1-.05-.11-.23,0-.4l.76-1.47-2.7,1.56c-.14.08-.25,0-.25-.14,0-.17.1-.33.24-.43l2.7-1.56-.81-.55c-.09-.06-.08-.24,0-.41.06-.07.13-.13.21-.17Z"/>
              <path class="cls-13" d="M85.18,118.65c.24-.16.54-.23.83-.21.02-.16.12-.3.25-.39h0c.14-.07.24,0,.24.16v.64c-.01.17-.1.32-.24.42l-.54.34h0c-.13.08-.24,0-.24-.13,0-.15.07-.3.18-.39-.16,0-.31.05-.45.14-.62.4-1.01,1.07-1.04,1.81,0,.66.47.93,1.05.6.43-.27.75-.68.92-1.16.04-.11.12-.21.22-.27.04,0,.08,0,.12,0,.12,0,.17.15.1.33-.25.7-.73,1.31-1.36,1.71-.85.49-1.52.1-1.52-.88.03-1.09.58-2.1,1.48-2.71Z"/>
            </g>
            <g class="cls-27">
              <path class="cls-13" d="M75.59,192.62c-.42,0-.84-.1-1.21-.31-.93-.63-1.45-1.73-1.34-2.85l-.14-46.21c.16-2.89,1.68-5.52,4.1-7.1l55.44-32c1.17-.98,2.92-.82,3.89.36.51.61.73,1.42.6,2.21l.13,46.21c-.15,2.89-1.68,5.53-4.1,7.1l-55.44,32c-.58.36-1.25.57-1.93.59ZM134.41,104.31c-.56.02-1.1.19-1.57.49l-55.44,32c-2.2,1.43-3.59,3.83-3.73,6.46l.14,46.21c-.1.85.27,1.69.96,2.19.79.35,1.71.25,2.41-.27l55.44-32c2.2-1.43,3.58-3.83,3.73-6.45l-.14-46.21c.1-.85-.27-1.69-.96-2.19-.25-.15-.54-.22-.84-.21Z"/>
            </g>
            <path class="cls-13" d="M182.6,161.12c-.18,0-.36-.04-.52-.13-.37-.25-.59-.69-.55-1.14l-.23-78.86c.05-1.02.59-1.96,1.45-2.51l31.14-17.98c.5-.39,1.21-.3,1.6.2.19.24.27.55.23.85l.23,78.83c-.04,1.02-.58,1.96-1.44,2.51l-31.14,17.98c-.23.15-.49.24-.77.25ZM214.09,60.82l.18.33-31.14,17.98c-.63.42-1.03,1.11-1.08,1.86l.23,78.86c-.02.18.04.37.18.49.18.05.37.02.52-.09l31.14-17.98c.63-.42,1.02-1.11,1.07-1.86l-.22-78.86c0-.24-.07-.43-.19-.49-.18-.06-.38-.02-.52.09l-.17-.33Z"/>
            <path class="cls-26" d="M104.51,180.71c1.15-.66,2.09-.13,2.1,1.2l.07,24.6c-.08,1.47-.85,2.81-2.08,3.61l-29.52,17.04c-1.15.67-2.09.13-2.1-1.19l-.07-24.61c.08-1.47.85-2.81,2.08-3.61l29.52-17.04Z"/>
            <g class="cls-17">
              <path class="cls-13" d="M104.51,180.71c1.15-.66,2.09-.13,2.1,1.2l.07,24.6c-.08,1.47-.85,2.81-2.08,3.61l-29.52,17.04c-1.15.67-2.09.13-2.1-1.19l-.07-24.61c.08-1.47.85-2.81,2.08-3.61l29.52-17.04Z"/>
            </g>
            <path class="cls-13" d="M104.73,182.32s.12-.04.17,0c.07.06.05.23-.05.36l-14.71,21.04,14.79,4.01c.09,0,.11.17,0,.31-.03.08-.09.15-.17.2-.04.01-.08.01-.12,0l-14.89-4.04-14.78,21.24s-.07.09-.12.12c-.05.04-.12.04-.17,0-.07-.12-.05-.27.05-.36l14.71-21.02-14.79-4.01c-.09,0-.11-.17-.05-.31.04-.08.09-.15.17-.2.04-.01.09-.01.13,0l14.89,4.04,14.81-21.19c.03-.07.07-.13.13-.18Z"/>
            <path class="cls-26" d="M140.73,160.31c1.15-.66,2.1-.13,2.1,1.2l.07,24.6c-.07,1.47-.85,2.81-2.08,3.61l-29.51,17.04c-1.15.67-2.1.13-2.1-1.19l-.08-24.61c.08-1.47.86-2.81,2.09-3.61l29.51-17.04Z"/>
            <g class="cls-17">
              <path class="cls-13" d="M140.73,160.31c1.15-.66,2.1-.13,2.1,1.2l.07,24.6c-.07,1.47-.85,2.81-2.08,3.61l-29.51,17.04c-1.15.67-2.1.13-2.1-1.19l-.08-24.61c.08-1.47.86-2.81,2.09-3.61l29.51-17.04Z"/>
            </g>
            <path class="cls-13" d="M140.95,161.92c.07,0,.13-.04.17,0,.07.12.05.26-.04.36l-14.71,21.04,14.78,4.01c.09,0,.11.17.05.31-.04.08-.09.15-.17.2-.04.01-.09.01-.13,0l-14.89-4.04-14.81,21.19s-.08.09-.13.12c-.05.03-.12.03-.17,0-.07-.07-.05-.24.05-.36l14.71-21.04-14.79-3.99c-.1,0-.11-.17-.05-.31.03-.08.09-.15.17-.2.04-.01.08-.01.12,0l14.89,4.04,14.82-21.19c.03-.06.08-.11.14-.14Z"/>
            <path class="cls-26" d="M176.5,139.72c1.15-.67,2.09-.14,2.09,1.19l.08,24.61c-.08,1.47-.85,2.81-2.09,3.6l-29.51,17.04c-1.15.67-2.09.13-2.1-1.19l-.07-24.61c.07-1.47.85-2.81,2.08-3.61l29.52-17.03Z"/>
            <g class="cls-17">
              <path class="cls-13" d="M176.5,139.72c1.15-.67,2.09-.14,2.09,1.19l.08,24.61c-.08,1.47-.85,2.81-2.09,3.6l-29.51,17.04c-1.15.67-2.09.13-2.1-1.19l-.07-24.61c.07-1.47.85-2.81,2.08-3.61l29.52-17.03Z"/>
            </g>
            <path class="cls-13" d="M176.72,141.34s.12-.04.17,0c.07.07.05.23-.05.36l-14.71,21.04,14.81,4.01c.1,0,.11.16.05.31-.03.08-.09.15-.17.19-.04.01-.08.01-.12,0l-14.95-4.01-14.79,21.18s-.07.09-.12.12c-.05.04-.12.04-.17,0-.07-.07-.05-.23,0-.36l14.75-21.02-14.78-4.01c-.09,0-.11-.17-.05-.31.04-.08.09-.15.17-.2.04-.01.09-.01.13,0l14.89,4.04,14.81-21.19c.03-.06.07-.11.13-.15Z"/>
            <path class="cls-26" d="M173.63,84.94c1.93-1.11,3.49-.22,3.5,2-.13,2.45-1.43,4.68-3.48,6.02l-29.04,16.76c-1.92,1.12-3.49.23-3.49-1.99.13-2.44,1.42-4.68,3.47-6.02l29.04-16.77Z"/>
            <g class="cls-17">
              <path class="cls-13" d="M173.63,84.94c1.93-1.11,3.49-.22,3.5,2-.13,2.45-1.43,4.68-3.48,6.02l-29.04,16.76c-1.92,1.12-3.49.23-3.49-1.99.13-2.44,1.42-4.68,3.47-6.02l29.04-16.77Z"/>
            </g>
            <path class="cls-26" d="M173.63,96.2c1.93-1.11,3.49-.22,3.5,2-.13,2.45-1.42,4.68-3.48,6.02l-29.04,16.77c-1.92,1.11-3.49.22-3.49-2,.13-2.44,1.42-4.68,3.47-6.02l29.04-16.77Z"/>
            <g class="cls-17">
              <path class="cls-13" d="M173.63,96.2c1.93-1.11,3.49-.22,3.5,2-.13,2.45-1.42,4.68-3.48,6.02l-29.04,16.77c-1.92,1.11-3.49.22-3.49-2,.13-2.44,1.42-4.68,3.47-6.02l29.04-16.77Z"/>
            </g>
            <path class="cls-26" d="M173.63,107.44c1.93-1.11,3.49-.21,3.5,2-.13,2.45-1.42,4.68-3.48,6.02l-29.04,16.77c-1.92,1.11-3.49.22-3.49-2,.13-2.44,1.42-4.68,3.47-6.02l29.04-16.77Z"/>
            <g class="cls-17">
              <path class="cls-13" d="M173.63,107.44c1.93-1.11,3.49-.21,3.5,2-.13,2.45-1.42,4.68-3.48,6.02l-29.04,16.77c-1.92,1.11-3.49.22-3.49-2,.13-2.44,1.42-4.68,3.47-6.02l29.04-16.77Z"/>
            </g>
            <path class="cls-26" d="M224.79,26.03c0-1.66-.58-2.83-1.52-3.39h0c-.96-.54-2.28-.46-3.75.39L71.64,108.11c-3.14,2.04-5.12,5.45-5.32,9.19v6.89L224.79,32.74v-6.71Z"/>
            <path class="cls-2" d="M224.79,26.03c0-1.66-.58-2.83-1.52-3.39h0c-.96-.54-2.28-.46-3.75.39L71.64,108.11c-3.14,2.04-5.12,5.45-5.32,9.19v6.89L224.79,32.74v-6.71Z"/>
            <g class="cls-27">
              <path class="cls-13" d="M73.37,112.92c.81-.46,1.46-.09,1.46.83-.05,1.02-.59,1.95-1.44,2.51-.81.46-1.46.09-1.46-.83.06-1.02.59-1.95,1.44-2.51Z"/>
              <path class="cls-13" d="M77.34,110.64c.81-.46,1.46-.09,1.46.83-.06,1.02-.59,1.95-1.44,2.51-.81.46-1.46.09-1.46-.83.06-1.02.59-1.95,1.44-2.51Z"/>
              <path class="cls-13" d="M81.3,108.35c.81-.46,1.46-.09,1.46.83-.06,1.02-.59,1.95-1.44,2.51-.81.46-1.46.09-1.46-.84.05-1.02.59-1.94,1.44-2.5Z"/>
            </g>
            <path class="cls-26" d="M73.37,112.92c.81-.46,1.46-.09,1.46.83-.05,1.02-.59,1.95-1.44,2.51-.81.46-1.46.09-1.46-.83.06-1.02.59-1.95,1.44-2.51Z"/>
            <path class="cls-26" d="M77.34,110.64c.81-.46,1.46-.09,1.46.83-.06,1.02-.59,1.95-1.44,2.51-.81.46-1.46.09-1.46-.83.06-1.02.59-1.95,1.44-2.51Z"/>
            <path class="cls-26" d="M81.3,108.35c.81-.46,1.46-.09,1.46.83-.06,1.02-.59,1.95-1.44,2.51-.81.46-1.46.09-1.46-.84.05-1.02.59-1.94,1.44-2.5Z"/>
          </g>
          <g id="freepik--Plants--inject-153">
            <path class="cls-13" d="M77.23,286.44l-9.87.29-9.87-.29c-.43,6.66.87,13.45,2.67,16.76h0c.43.85,1.11,1.55,1.95,1.99,3.3,1.68,7.2,1.68,10.5,0,.86-.45,1.55-1.16,1.95-2.04,1.82-3.33,3.1-10.08,2.67-16.71Z"/>
            <path class="cls-30" d="M74.32,282.4c3.87,2.23,3.88,5.85.05,8.08-3.84,2.23-10.09,2.23-13.95,0-3.87-2.23-3.88-5.85,0-8.08,3.88-2.23,10.04-2.23,13.91,0Z"/>
            <path class="cls-24" d="M72.8,283.29c3.04,1.74,3.04,4.56,0,6.3-3.42,1.74-7.46,1.74-10.88,0-3.04-1.74-3.04-4.56,0-6.3,3.42-1.74,7.46-1.74,10.88,0Z"/>
            <g class="cls-25">
              <path d="M72.8,283.29c3.04,1.74,3.04,4.56,0,6.3-3.42,1.74-7.46,1.74-10.88,0-3.04-1.74-3.04-4.56,0-6.3,3.42-1.74,7.46-1.74,10.88,0Z"/>
            </g>
            <path class="cls-26" d="M62.34,266.26c-1.6-2-3.46-3.8-4.94-5.88-1-1.43-1.84-3.17-1.42-4.87.48-1.59,1.82-2.77,3.46-3.04,1.62-.24,3.27.13,4.63,1.03,1.35.9,2.53,2.03,3.5,3.33,5.55,7.03,8.18,15.93,7.33,24.85-.02,1.02-.33,2.01-.91,2.86-.72.85-1.87,1.2-2.95.9-2.69-.76-2.33-4.43-2.77-6.56-.95-4.62-2.98-8.95-5.93-12.63Z"/>
            <path class="cls-5" d="M62.34,266.26c-1.6-2-3.46-3.8-4.94-5.88-1-1.43-1.84-3.17-1.42-4.87.48-1.59,1.82-2.77,3.46-3.04,1.62-.24,3.27.13,4.63,1.03,1.35.9,2.53,2.03,3.5,3.33,5.55,7.03,8.18,15.93,7.33,24.85-.02,1.02-.33,2.01-.91,2.86-.72.85-1.87,1.2-2.95.9-2.69-.76-2.33-4.43-2.77-6.56-.95-4.62-2.98-8.95-5.93-12.63Z"/>
            <path class="cls-18" d="M71.21,282.75c-.11-.02-.18-.11-.19-.22-.19-4.31-1.59-19.03-11.73-27.39-.11-.07-.13-.22-.06-.33.07-.11.22-.13.33-.06,0,0,.02.01.03.02,10.29,8.48,11.71,23.37,11.91,27.73,0,.13-.1.24-.23.24h-.05Z"/>
            <path class="cls-26" d="M72.69,283.21c-.44,1.9-1.63,3.54-3.3,4.56-1.55.73-3.28,1.02-4.98.83-1.73-.19-3.43-.6-5.06-1.2-.82-.27-1.72-.64-1.81-1.65-.03-.54.18-1.06.58-1.42.17-.16.34-.31.52-.45.23-.17.28-.49.12-.72-.09-.13-.24-.21-.4-.21-.48-.03-.97-.1-1.44-.18-1.12-.18-2.17-.65-3.04-1.37-.62-.55-1.1-1.25-1.38-2.04-.33-.66-.25-1.45.2-2.04.32-.26.71-.43,1.12-.49.36-.08.76-.14,1.08-.2.26-.03.45-.28.41-.54-.02-.17-.14-.32-.3-.38l-1.52-.64c-.44-.14-.84-.39-1.16-.72-.4-.63-.51-1.4-.3-2.11.19-.96.52-1.88.76-2.83.27-.94.3-1.94.1-2.9,2.87-.32,5.77-.12,8.57.58.84.17,1.64.52,2.34,1.02.88.79,1.3,1.98,1.1,3.15-.02.12.07.23.19.25.09.01.19-.04.23-.12l.97-1.81c.3-.54.96-.75,1.52-.49.86.43,1.62,1.03,2.24,1.76.69.79,1.04,1.82.96,2.86-.12,1.42-.36,2.82-.71,4.2-.06.21.07.42.27.48.12.03.24,0,.33-.06l.05-.04c.26-.2.59-.29.92-.27.87.11,1.09.98,1.15,1.73.03,1.16-.08,2.32-.33,3.45Z"/>
            <path class="cls-9" d="M72.69,283.21c-.44,1.9-1.63,3.54-3.3,4.56-1.55.73-3.28,1.02-4.98.83-1.73-.19-3.43-.6-5.06-1.2-.82-.27-1.72-.64-1.81-1.65-.03-.54.18-1.06.58-1.42.17-.16.34-.31.52-.45.23-.17.28-.49.12-.72-.09-.13-.24-.21-.4-.21-.48-.03-.97-.1-1.44-.18-1.12-.18-2.17-.65-3.04-1.37-.62-.55-1.1-1.25-1.38-2.04-.33-.66-.25-1.45.2-2.04.32-.26.71-.43,1.12-.49.36-.08.76-.14,1.08-.2.26-.03.45-.28.41-.54-.02-.17-.14-.32-.3-.38l-1.52-.64c-.44-.14-.84-.39-1.16-.72-.4-.63-.51-1.4-.3-2.11.19-.96.52-1.88.76-2.83.27-.94.3-1.94.1-2.9,2.87-.32,5.77-.12,8.57.58.84.17,1.64.52,2.34,1.02.88.79,1.3,1.98,1.1,3.15-.02.12.07.23.19.25.09.01.19-.04.23-.12l.97-1.81c.3-.54.96-.75,1.52-.49.86.43,1.62,1.03,2.24,1.76.69.79,1.04,1.82.96,2.86-.12,1.42-.36,2.82-.71,4.2-.06.21.07.42.27.48.12.03.24,0,.33-.06l.05-.04c.26-.2.59-.29.92-.27.87.11,1.09.98,1.15,1.73.03,1.16-.08,2.32-.33,3.45Z"/>
            <path class="cls-5" d="M72.69,283.21c-.44,1.9-1.63,3.54-3.3,4.56-1.55.73-3.28,1.02-4.98.83-1.73-.19-3.43-.6-5.06-1.2-.82-.27-1.72-.64-1.81-1.65-.03-.54.18-1.06.58-1.42.17-.16.34-.31.52-.45.23-.17.28-.49.12-.72-.09-.13-.24-.21-.4-.21-.48-.03-.97-.1-1.44-.18-1.12-.18-2.17-.65-3.04-1.37-.62-.55-1.1-1.25-1.38-2.04-.33-.66-.25-1.45.2-2.04.32-.26.71-.43,1.12-.49.36-.08.76-.14,1.08-.2.26-.03.45-.28.41-.54-.02-.17-.14-.32-.3-.38l-1.52-.64c-.44-.14-.84-.39-1.16-.72-.4-.63-.51-1.4-.3-2.11.19-.96.52-1.88.76-2.83.27-.94.3-1.94.1-2.9,2.87-.32,5.77-.12,8.57.58.84.17,1.64.52,2.34,1.02.88.79,1.3,1.98,1.1,3.15-.02.12.07.23.19.25.09.01.19-.04.23-.12l.97-1.81c.3-.54.96-.75,1.52-.49.86.43,1.62,1.03,2.24,1.76.69.79,1.04,1.82.96,2.86-.12,1.42-.36,2.82-.71,4.2-.06.21.07.42.27.48.12.03.24,0,.33-.06l.05-.04c.26-.2.59-.29.92-.27.87.11,1.09.98,1.15,1.73.03,1.16-.08,2.32-.33,3.45Z"/>
            <path class="cls-18" d="M68.14,287.55c-.53-2.3-1.29-4.54-2.28-6.68,0-.07-.03-.13-.08-.17l-.16-.35c.27-2.67,1.05-5.26,2.28-7.65.06-.12.02-.26-.09-.33-.11-.06-.26-.02-.32.09-1.16,2.22-1.93,4.63-2.28,7.11-2.25-4.71-5.65-8.77-9.87-11.83-.1-.08-.25-.06-.33.04-.08.1-.06.25.04.33,0,0,.02.01.03.02,4.32,3.14,7.76,7.34,9.98,12.2-2.56-1.16-5.39-1.54-8.16-1.11-.13.02-.21.15-.19.27.02.1.09.17.19.19h.08c2.87-.44,5.81.03,8.41,1.34.98,2.12,1.74,4.34,2.28,6.61.02.09.09.17.18.19h.09c.13,0,.22-.11.22-.24,0-.01,0-.02,0-.04Z"/>
            <path class="cls-13" d="M309.28,189.42l-10.54.3-10.55-.3c-.45,7.12.94,14.38,2.86,17.92h0c.45.92,1.19,1.67,2.1,2.14,3.53,1.79,7.7,1.79,11.23,0,.92-.47,1.65-1.24,2.08-2.18,1.88-3.58,3.28-10.8,2.83-17.89Z"/>
            <path class="cls-30" d="M306.17,185.1c4.13,2.38,4.15,6.25.05,8.64-4.1,2.39-10.78,2.38-14.92,0s-4.15-6.26-.05-8.64c4.11-2.38,10.78-2.38,14.92,0Z"/>
            <path class="cls-24" d="M304.53,186.05c3.23,1.86,3.24,4.88.04,6.74-3.2,1.86-8.41,1.87-11.64,0-3.23-1.87-3.24-4.88-.04-6.74,3.66-1.86,7.98-1.86,11.64,0Z"/>
            <g class="cls-25">
              <path d="M304.53,186.05c3.23,1.86,3.24,4.88.04,6.74-3.2,1.86-8.41,1.87-11.64,0-3.23-1.87-3.24-4.88-.04-6.74,3.66-1.86,7.98-1.86,11.64,0Z"/>
            </g>
            <path class="cls-26" d="M316.08,144.42c-23.76,7.78-23.98,23.69-18.62,35,1.35,2.28,5.44,3.52,9-10.56l-6.24.8,7.28-3.68,1.88-5.65-6.08.46,7.7-3.24c1.42-4.48,3.12-8.86,5.08-13.12Z"/>
            <path class="cls-9" d="M316.08,144.42c-23.76,7.78-23.98,23.69-18.62,35,1.35,2.28,5.44,3.52,9-10.56l-6.24.8,7.28-3.68,1.88-5.65-6.08.46,7.7-3.24c1.42-4.48,3.12-8.86,5.08-13.12Z"/>
            <path class="cls-5" d="M316.08,144.42c-23.76,7.78-23.98,23.69-18.62,35,1.35,2.28,5.44,3.52,9-10.56l-6.24.8,7.28-3.68,1.88-5.65-6.08.46,7.7-3.24c1.42-4.48,3.12-8.86,5.08-13.12Z"/>
            <path class="cls-13" d="M309.36,148.4c-12.53,9.51-13.67,20.41-10.12,31.8-1.25-10.03-2.61-20.16,10.12-31.8Z"/>
            <path class="cls-26" d="M275.83,160.57c23.42,3.3,26.27,18.07,23.16,29.51-.87,2.35-4.48,4.18-10.13-8.35l5.95-.29-7.39-2.23-2.7-4.95,5.72-.58-7.71-1.74c-2.06-3.93-4.36-7.72-6.9-11.36Z"/>
            <path class="cls-5" d="M275.83,160.57c23.42,3.3,26.27,18.07,23.16,29.51-.87,2.35-4.48,4.18-10.13-8.35l5.95-.29-7.39-2.23-2.7-4.95,5.72-.58-7.71-1.74c-2.06-3.93-4.36-7.72-6.9-11.36Z"/>
            <path class="cls-12" d="M275.83,160.57c23.42,3.3,26.27,18.07,23.16,29.51-.87,2.35-4.48,4.18-10.13-8.35l5.95-.29-7.39-2.23-2.7-4.95,5.72-.58-7.71-1.74c-2.06-3.93-4.36-7.72-6.9-11.36Z"/>
            <path class="cls-13" d="M282.74,163.16c13.25,6.77,16.12,16.71,14.71,27.93-.52-9.55-.92-19.21-14.71-27.93Z"/>
            <path class="cls-26" d="M322.94,166.11c-21.49.35-25.7,13.34-24.18,24,.53,2.23,3.58,4.28,10.07-6.38l-5.32-.93,6.9-1.18,2.98-4.15-5.09-1.17,7.14-.7c2.3-3.31,4.8-6.48,7.49-9.49Z"/>
            <path class="cls-13" d="M316.4,167.67c-12.7,4.63-16.4,13.28-16.38,23.54,1.52-8.56,2.99-17.22,16.38-23.54Z"/>
            <path class="cls-5" d="M322.94,166.11c-21.49.35-25.7,13.34-24.18,24,.53,2.23,3.58,4.28,10.07-6.38l-5.32-.93,6.9-1.18,2.98-4.15-5.09-1.17,7.14-.7c2.3-3.31,4.8-6.48,7.49-9.49Z"/>
          </g>
          <g id="freepik--character-3--inject-153">
            <polygon class="cls-21" points="240.13 82.67 240.12 89.71 241.37 100.76 243.21 111.53 249.5 112.26 246.93 100.76 242.04 81.74 240.13 82.67"/>
            <path class="cls-26" d="M242.63,110.2c4.34-1.62,7.18.66,7.18.66l.71,18.43-7.75-4.44-.14-14.66Z"/>
            <path class="cls-26" d="M242.63,110.2c4.34-1.62,7.18.66,7.18.66l.71,18.43-7.75-4.44-.14-14.66Z"/>
            <path class="cls-2" d="M242.63,110.2c4.34-1.62,7.18.66,7.18.66l.71,18.43-7.75-4.44-.14-14.66Z"/>
            <path class="cls-4" d="M242.63,110.2c4.34-1.62,7.18.66,7.18.66l.71,18.43-7.75-4.44-.14-14.66Z"/>
            <path class="cls-26" d="M238.76,57.22c.71-.42,1.29-.08,1.3.76l.23,80.72c-.05.91-.53,1.74-1.29,2.23l-31.9,18.41c-.71.41-1.29.08-1.3-.76l-.23-80.71c.03-.92.52-1.77,1.29-2.28l31.9-18.37Z"/>
            <g class="cls-17">
              <path d="M238.76,57.22c.71-.42,1.29-.08,1.3.76l.23,80.72c-.05.91-.53,1.74-1.29,2.23l-31.9,18.41c-.71.41-1.29.08-1.3-.76l-.23-80.71c.03-.92.52-1.77,1.29-2.28l31.9-18.37Z"/>
            </g>
            <g class="cls-14">
              <path class="cls-13" d="M238.76,57.22c.71-.42,1.29-.08,1.3.76l.23,80.72c-.05.91-.53,1.74-1.29,2.23l-31.9,18.41c-.71.41-1.29.08-1.3-.76l-.23-80.71c.03-.92.52-1.77,1.29-2.28l31.9-18.37Z"/>
            </g>
            <path class="cls-13" d="M238.32,60c.3-.05.37.13.3.36l-15.35,47.7,15.55,29.88c.06.21,0,.44-.16.58-.25.18-.37.17-.43.07l-15.31-29.43-15.1,46.98c-.05.16-.15.3-.29.39-.3.05-.37-.13-.3-.36l15.35-47.69-15.55-29.88c-.06-.21,0-.44.16-.58.26-.18.37-.17.43-.07l15.31,29.43,15.1-46.98c.04-.16.15-.31.29-.4Z"/>
            <path class="cls-21" d="M219.91,120.63l-6.84-2.28-4.5-17.02c-.11-.51-.07-1.04.13-1.52l.47-1.18c.25-.62.37-1.29.35-1.97l-.09-2.6c0-.42-.34-.76-.76-.76h0c-.38,0-.71.28-.76.65l-.4,2.28-.96,1.1-.87-3.09v-3.93l-1.94,2.83c-.53.76-.73,1.69-.58,2.6l.81,4.94,2.19,19.13c.32,2.82,2.19,5.23,4.84,6.25l7.19,2.78,1.72-8.22Z"/>
            <path class="cls-29" d="M234.57,224.19c-.5,1.15-1.62,1.9-2.88,1.93-1.23,0-2.45-.15-3.63-.46-2.7-.49-5.32,0-8-.07-.88,0-1.77-.09-2.63-.29-.88-.19-1.68-.65-2.28-1.32-.34-.41-.56-.89-.65-1.41-.12.79.12,1.6.65,2.2.6.67,1.4,1.13,2.28,1.32.86.2,1.74.3,2.63.29,2.7.06,5.32-.42,8,.07,1.18.31,2.41.47,3.63.46,1.25-.02,2.38-.78,2.88-1.93.12-.4.15-.83.09-1.25-.02.15-.05.31-.09.46Z"/>
            <path class="cls-1" d="M234.5,221.95l-.5-2.45c-.06-.44-.2-.86-.41-1.25-.22-.39-.64-.63-1.09-.62-1.48-.2-3.56-.76-4.78.11-1.94,1.33-4.26,2-6.61,1.91-1.21-.15-2.44-.19-3.66-.14-1.25.07-2.35.84-2.83,1.99-.1.34-.12.71-.06,1.06.09.52.31,1.01.65,1.41.6.67,1.4,1.13,2.28,1.32.86.2,1.74.3,2.63.29,2.7.06,5.32-.42,8,.07,1.18.31,2.41.47,3.63.46,1.25-.02,2.38-.78,2.88-1.93.04-.15.08-.3.09-.46.03-.6-.04-1.2-.19-1.78Z"/>
            <path class="cls-21" d="M227.35,215.16l-.1,3.2c-.02.68.49,1.25,1.17,1.31,1.07.09,2.15.09,3.22,0,.9-.08,1.6-.81,1.65-1.71l.13-2.36-6.07-.43Z"/>
            <path class="cls-29" d="M248.21,213.46c0,.47-.16.93-.43,1.32-.38.47-.92.77-1.52.85-1.44.25-2.89-.34-3.74-1.52-.4-.58-.63-1.27-1.01-1.86-.58-.8-1.29-1.49-2.1-2.04-.81-.55-1.53-1.24-2.11-2.03-.56-.78-.71-1.79-.4-2.7-.08.1-.14.22-.2.33-.37.96-.23,2.05.38,2.88.6.81,1.33,1.52,2.16,2.09.83.57,1.55,1.29,2.14,2.1.39.62.62,1.32,1.03,1.92.86,1.21,2.33,1.83,3.8,1.59.6-.09,1.14-.41,1.52-.87.34-.55.5-1.19.45-1.84.02-.07.04-.15.05-.23Z"/>
            <path class="cls-1" d="M247.25,209.49c-.97-1.7-2.98-2.94-4.52-4.15-.85-.73-1.89-1.2-3-1.36-1.13-.13-2.23.43-2.79,1.43,0,.03,0,.06,0,.09-.31.91-.16,1.92.4,2.7.59.79,1.3,1.47,2.11,2.03.81.55,1.53,1.25,2.1,2.04.38.59.61,1.28,1.01,1.86.85,1.18,2.31,1.77,3.74,1.52.6-.08,1.14-.38,1.52-.85.27-.39.42-.85.43-1.32v-.46c-.04-1.24-.39-2.46-1.01-3.53Z"/>
            <path class="cls-21" d="M243.02,207.97v2.9c1.46.69,3.16.62,4.56-.2l.27-2.61-4.83-.09Z"/>
            <path class="cls-29" d="M248.58,155.29c.87,2.62-.2,15.03-.71,26.94,1.89,4.5,1.38,17.28.29,26.35,0,0-1.88,1.16-5.32,0l-4.28-25.06-.6-14.16s-1.07,12.56-2.28,20.62c1.16,6.17.87,7.33-2,26.31-2.02,1.01-4.4,1.01-6.43,0-1.62-26.67-1.03-50.97-.71-59.7l22.03-1.3Z"/>
            <path class="cls-2" d="M238.35,177.99l-.49-11.54c2.98,0,5.76-2.23,7.86-4.34-1.41,2.29-3.49,4.11-5.95,5.2l-1.43,10.69Z"/>
            <path class="cls-26" d="M226.09,157.31c13.31,5.57,21.94.54,23.11-2.09-.62-9.2,1.56-19.97,1.4-24.54-.17-4.57-.76-9.73-7.82-8.7l-7.54.76-3.8.93-4.56,9.53-.79,24.11Z"/>
            <path class="cls-9" d="M226.09,157.31c13.31,5.57,21.94.54,23.11-2.09-.62-9.2,1.56-19.97,1.4-24.54-.17-4.57-.76-9.73-7.82-8.7l-7.54.76-3.8.93-4.56,9.53-.79,24.11Z"/>
            <path class="cls-4" d="M226.09,157.31c13.31,5.57,21.94.54,23.11-2.09-.62-9.2,1.56-19.97,1.4-24.54-.17-4.57-.76-9.73-7.82-8.7l-7.54.76-3.8.93-4.56,9.53-.79,24.11Z"/>
            <path class="cls-29" d="M242.77,118.35c.54.04,1.07-.14,1.47-.5.31-.34.44-.81.35-1.26.45-.09.84-.4,1.02-.82.14-.47.05-.98-.24-1.38.66-.16,1.22-.61,1.52-1.22.3-.62.33-1.34.07-1.98.73-.19,1.3-.75,1.52-1.47.23-.74.07-1.55-.43-2.15.6-.84.71-1.94.27-2.89-.48-.95-1.41-1.59-2.48-1.67.14-1-.23-2-.97-2.67-.76-.64-1.8-.84-2.74-.54-.55-1.35-2.09-1.99-3.44-1.44-.37.15-.69.38-.96.68-.44-.5-1.11-.75-1.77-.65-.68.07-1.28.46-1.61,1.06-1.36-.61-2.95,0-3.56,1.36-.17.38-.25.81-.23,1.23-.69.21-1.15.85-1.14,1.57.06.74.59,1.36,1.31,1.52.67,3.61,1.86,7.1,3.54,10.36.76,1.46,1.66,2.93,3.11,3.68s4.03.36,5.38-.81Z"/>
            <path class="cls-26" d="M242.77,118.35c.54.04,1.07-.14,1.47-.5.31-.34.44-.81.35-1.26.45-.09.84-.4,1.02-.82.14-.47.05-.98-.24-1.38.66-.16,1.22-.61,1.52-1.22.3-.62.33-1.34.07-1.98.73-.19,1.3-.75,1.52-1.47.23-.74.07-1.55-.43-2.15.6-.84.71-1.94.27-2.89-.48-.95-1.41-1.59-2.48-1.67.14-1-.23-2-.97-2.67-.76-.64-1.8-.84-2.74-.54-.55-1.35-2.09-1.99-3.44-1.44-.37.15-.69.38-.96.68-.44-.5-1.11-.75-1.77-.65-.68.07-1.28.46-1.61,1.06-1.36-.61-2.95,0-3.56,1.36-.17.38-.25.81-.23,1.23-.69.21-1.15.85-1.14,1.57.06.74.59,1.36,1.31,1.52.67,3.61,1.86,7.1,3.54,10.36.76,1.46,1.66,2.93,3.11,3.68s4.03.36,5.38-.81Z"/>
            <path class="cls-11" d="M242.77,118.35c.54.04,1.07-.14,1.47-.5.31-.34.44-.81.35-1.26.45-.09.84-.4,1.02-.82.14-.47.05-.98-.24-1.38.66-.16,1.22-.61,1.52-1.22.3-.62.33-1.34.07-1.98.73-.19,1.3-.75,1.52-1.47.23-.74.07-1.55-.43-2.15.6-.84.71-1.94.27-2.89-.48-.95-1.41-1.59-2.48-1.67.14-1-.23-2-.97-2.67-.76-.64-1.8-.84-2.74-.54-.55-1.35-2.09-1.99-3.44-1.44-.37.15-.69.38-.96.68-.44-.5-1.11-.75-1.77-.65-.68.07-1.28.46-1.61,1.06-1.36-.61-2.95,0-3.56,1.36-.17.38-.25.81-.23,1.23-.69.21-1.15.85-1.14,1.57.06.74.59,1.36,1.31,1.52.67,3.61,1.86,7.1,3.54,10.36.76,1.46,1.66,2.93,3.11,3.68s4.03.36,5.38-.81Z"/>
            <polygon class="cls-22" points="230.21 109.85 228.66 112.57 230.36 113.2 230.21 109.85"/>
            <path class="cls-21" d="M230.75,105.12c-1.04,3.76-1.19,7.71-.45,11.54.08.66.33,1.29.72,1.83.52.55,1.23.88,1.98.91.75.03,1.5-.04,2.23-.21v3.53c2.68.63,5.44.88,7.54-.76v-3.61c-1.51.48-3.12.59-4.68.3-1.85-1-2.23-4.39-1.97-5.28.34.44.91.64,1.45.51.51-.14.94-.49,1.2-.96.25-.47.4-.99.45-1.52.14-.63.04-1.29-.27-1.86-.48-.65-1.32-.93-2.1-.71-.76.24-1.4.77-1.77,1.47-.12.22-.22.44-.31.68-.07.22-.31.34-.53.26-.16-.05-.27-.2-.28-.36-.09-1.02.09-2.04.53-2.96-.62-.06-1.18-.4-1.52-.93-.36-.49-.47-1.11-.3-1.69-.65.05-1.3-.01-1.93-.18Z"/>
            <path class="cls-21" d="M240.13,82.66l-1.24-2.95-.62-2.8c-.06-.36.14-.71.48-.84h0c.37-.1.76.09.9.45l.52,1.52v-4.3l1.79,3.21c.27.48.39,1.03.34,1.58l-.27,3.2-1.91.93Z"/>
            <path class="cls-26" d="M231.43,123.67c-4.25-1.41-11.8-3.68-11.8-3.68-3.39,3.42-3.1,8.94-3.1,8.94l10.29,4.28c9.82,3.08,11.26-7.37,4.61-9.54Z"/>
            <path class="cls-2" d="M231.43,123.67c-4.25-1.41-11.8-3.68-11.8-3.68-3.39,3.42-3.1,8.94-3.1,8.94l10.29,4.28c9.82,3.08,11.26-7.37,4.61-9.54Z"/>
            <path class="cls-4" d="M231.43,123.67c-4.25-1.41-11.8-3.68-11.8-3.68-3.39,3.42-3.1,8.94-3.1,8.94l10.29,4.28c9.82,3.08,11.26-7.37,4.61-9.54Z"/>
          </g>
          <g id="freepik--character-2--inject-153">
            <path class="cls-21" d="M235.3,214.49l-14.31-10.59-5.51-16.58c0-1.24-.05-2.49-.08-3.74,0-.76-.44-1.46-1.12-1.8-1.04-.51-2.16-.83-3.31-.94-.21-.79-.58-1.54-1.07-2.19-.27-.33-.73-.43-1.11-.24h0c-.45.22-.63.77-.4,1.21.01.02.03.05.04.07,1.18,1.8,1.96,3.84,2.28,5.98-.75-.39-1.43-.9-2.01-1.52-.46-.5-1.24-.54-1.74-.08-.11.1-.21.23-.27.36h0c1.04,2.06,2.74,3.71,4.83,4.69l2.6,17c.25,1.63,1.05,3.13,2.28,4.24l10.59,9.52,8.32-5.39Z"/>
            <path class="cls-22" d="M220.99,203.91l-2.72-8.09c-2.53,3.39-3.88,7.52-3.84,11.76.4,1.09,1.05,2.06,1.91,2.83l10.59,9.52,8.35-5.41-14.31-10.61Z"/>
            <path class="cls-15" d="M224.69,316.35c-.62.91-1.61,1.51-2.7,1.63-1.24.11-2.49.03-3.71-.24-1.84-.26-3.7-.31-5.54-.14-1.14.16-2.29.24-3.44.25-1.16.01-2.3-.35-3.24-1.03-.65-.51-1.08-1.25-1.22-2.07-.11,1.08.35,2.13,1.22,2.79.95.68,2.08,1.04,3.24,1.03,1.15-.01,2.3-.1,3.44-.25,1.85-.16,3.71-.11,5.54.14,1.24.29,2.52.4,3.8.33,1.1-.13,2.08-.72,2.7-1.63l-.09-.81Z"/>
            <path class="cls-13" d="M211.25,314.16c1.03,0,.65-1.52,1.64-2.55h-1.21c-.88,1.3-1.13,2.55-.43,2.55Z"/>
            <path class="cls-13" d="M213.4,314.08c1.04,0,.76-1.82,1.78-2.89-.23.08-.47.14-.71.2s-.41.08-.62.11c-.91,1.27-1.17,2.57-.46,2.57Z"/>
            <path class="cls-29" d="M223.62,310.58c-.07-.33-.26-.63-.53-.84l-5.59-.14c-.59.75-1.38,1.3-2.28,1.59-1.02,1.06-.76,2.89-1.78,2.89-.71,0-.45-1.28.46-2.57-.32.05-.65.08-.97.1-.99,1.03-.61,2.55-1.64,2.55-.7,0-.45-1.25.43-2.52h-.76l-.71-.05c-2.05,1.63-2.23,3.39-1.96,6.15.35.06.71.1,1.07.11,1.15-.01,2.3-.1,3.44-.25,1.85-.16,3.71-.11,5.54.14,1.22.27,2.47.35,3.71.24,1.1-.13,2.08-.72,2.7-1.63l-1.13-5.77Z"/>
            <path class="cls-13" d="M210.18,311.59c-.92-.15-1.86-.15-2.79,0-1.17.23-2.12,1.06-2.51,2.19-.08.32-.09.66-.05.99.13.82.57,1.55,1.22,2.07.64.48,1.38.79,2.17.91-.27-2.76-.09-4.53,1.96-6.15Z"/>
            <path class="cls-21" d="M217.34,308.02v2.69c0,.61.5,1.1,1.11,1.11h2.82c.98,0,1.77-.78,1.81-1.75l.07-2.04h-5.8Z"/>
            <path class="cls-15" d="M235.95,306.82c-.31.67-.96,1.13-1.7,1.18-.75.06-1.5-.13-2.14-.52-.96-.62-1.34-1.58-2.01-2.45-.69-.85-1.48-1.61-2.34-2.28-.92-.69-1.68-1.57-2.23-2.59-.13-.3-.22-.62-.27-.95-.08.62,0,1.25.27,1.82.54,1.02,1.3,1.9,2.23,2.58.86.67,1.65,1.43,2.34,2.28.66.87,1.04,1.84,2.01,2.45.64.4,1.39.58,2.14.52.74-.06,1.39-.51,1.7-1.18.11-.5.15-1.01.1-1.52,0,.22-.03.44-.1.65Z"/>
            <path class="cls-13" d="M229.6,300.92c-.09.13-.14.29-.14.46.04.16.15.29.3.35.22.06.46,0,.63-.16.16-.16.31-.33.43-.52.38-.47.88-.84,1.44-1.05.28-.1.57-.16.86-.19l-.7-.63c-.44.02-.87.13-1.28.31-.65.31-1.2.81-1.56,1.44Z"/>
            <path class="cls-13" d="M229.76,298.7c-.65.31-1.2.81-1.56,1.44-.1.13-.15.29-.14.46.03.16.15.29.3.35.22.06.46,0,.63-.16.16-.16.31-.34.43-.52.38-.47.87-.83,1.44-1.05.45-.17.93-.23,1.41-.18l-.69-.63c-.63-.06-1.26.04-1.83.3Z"/>
            <path class="cls-13" d="M231.15,298c-.63-.62-1.38-1.12-2.19-1.47-1.01-.45-2.18-.29-3.04.41-.57.61-.82,1.46-.67,2.28.04.33.13.65.27.95.18.39.41.76.69,1.09.3-2.42,2.38-3.54,4.94-3.27Z"/>
            <path class="cls-29" d="M236.01,304.46c.01-.82-.17-1.63-.55-2.35l-1.36-1.42-.96-.89c-.29.03-.58.09-.86.19-.57.21-1.07.57-1.44,1.05-.12.19-.27.37-.43.52-.17.16-.41.22-.63.16-.15-.06-.27-.19-.3-.35,0-.16.04-.32.14-.46.36-.63.9-1.13,1.56-1.44.4-.19.83-.29,1.28-.31l-.16-.14c-.48-.05-.96.02-1.41.18-.56.21-1.06.58-1.44,1.05-.13.19-.27.36-.43.52-.17.16-.41.22-.63.16-.16-.06-.27-.19-.3-.35-.01-.16.04-.33.14-.46.68-1.2,2.01-1.89,3.39-1.74h0l-.42-.37c-2.56-.27-4.65.85-4.91,3.25.46.55.97,1.06,1.52,1.52.86.67,1.65,1.43,2.34,2.28.66.87,1.04,1.84,2.01,2.45.64.4,1.39.58,2.14.52.98.02,1.78-.76,1.8-1.74,0-.02,0-.05,0-.07.02-.68-.05-1.53-.06-1.78Z"/>
            <path class="cls-21" d="M231.11,300.21l.16,2.89c1.36.85,3.1.78,4.37-.19l.12-2.7h-4.66Z"/>
            <path class="cls-26" d="M234.97,238.26c-.1-.14-.19-.3-.27-.46-5.78,3.02-12.47,3.78-18.78,2.13-1.34,9.91-2.48,26.68-1.78,37.75.58,12.91,2.95,31.14,2.95,31.14,3.09.93,5.42.36,6.29-.31,1.03-12.78,3.3-21.54,1.52-29.99,1.17-5.9,1.93-13.32,1.93-13.32l.89,13.05,3.04,22.95c1.73.89,3.8.78,5.43-.28,2.19-13.12,3.04-22.02,1.1-28.53,2.94-21.55,3.09-27.05-2.32-34.13Z"/>
            <path class="cls-6" d="M234.97,238.26c-.1-.14-.19-.3-.27-.46-5.78,3.02-12.47,3.78-18.78,2.13-1.34,9.91-2.48,26.68-1.78,37.75.58,12.91,2.95,31.14,2.95,31.14,3.09.93,5.42.36,6.29-.31,1.03-12.78,3.3-21.54,1.52-29.99,1.17-5.9,1.93-13.32,1.93-13.32l.89,13.05,3.04,22.95c1.73.89,3.8.78,5.43-.28,2.19-13.12,3.04-22.02,1.1-28.53,2.94-21.55,3.09-27.05-2.32-34.13Z"/>
            <path class="cls-3" d="M234.97,238.26c-.1-.14-.19-.3-.27-.46-5.78,3.02-12.47,3.78-18.78,2.13-1.34,9.91-2.48,26.68-1.78,37.75.58,12.91,2.95,31.14,2.95,31.14,3.09.93,5.42.36,6.29-.31,1.03-12.78,3.3-21.54,1.52-29.99,1.17-5.9,1.93-13.32,1.93-13.32l.89,13.05,3.04,22.95c1.73.89,3.8.78,5.43-.28,2.19-13.12,3.04-22.02,1.1-28.53,2.94-21.55,3.09-27.05-2.32-34.13Z"/>
            <path class="cls-9" d="M228.15,262.6l1.62-6.8c2.61-.43,4.93-1.93,6.39-4.14-2.24,1.76-4.99,2.73-7.84,2.76l-1.47,10.75.31,4.59.13-1.68c.14-1.85.42-3.69.86-5.5Z"/>
            <path class="cls-26" d="M223.27,214.92l-4.72.93c-1.04,1.91-2.1,3.71-3.15,5.61-.76,1.44-1.59,2.97-1.52,4.61.09,1.78,1.18,3.36,2.83,4.07l-2.28,16.17c8.76,5.32,22.95,1.58,24.26-3.16-1.27-3.27-2.61-4.45-3.44-8.31-.6-2.84.82-6.84,1.06-7.97.44-1.74.71-3.52.81-5.32.09-1.81-.34-3.6-1.25-5.16v-.05c-1.27-1.91-3.55-2.88-5.8-2.49l-6.78,1.06Z"/>
            <path class="cls-15" d="M229.26,211.15c1.36-.51,2.41-1.61,2.86-2.98.43-1.42.13-2.93.55-4.36.21-.7.58-1.29.76-2.02.18-.78.25-1.58.19-2.38-.38-2.67-2.1-4.96-4.56-6.08-2.84-1.27-5.99-1.73-9.08-1.31-1.24.13-2.41.66-3.32,1.52-.85.96-.79,2.43.15,3.3-.6.42-.99,1.08-1.07,1.82,0,.96.61,1.81,1.52,2.11.88,8.45,4.74,10.15,6.74,10.88,2.01.73,3.41,1.27,5.26-.51Z"/>
            <polygon class="cls-21" points="216.75 203.6 215.3 206.13 216.9 206.73 216.75 203.6"/>
            <path class="cls-21" d="M216.59,202.47c.24-2.23.89-4.32,2.34-5.38-.24,1.39,0,3.37,1.44,4.44-.24,1.17-.16,2.39.23,3.52.15-.73.53-1.4,1.08-1.91.55-.53,1.35-.7,2.07-.45.48.23.85.64,1.04,1.14.56,1.38-.1,2.95-1.48,3.52-.6.25-1.28.27-1.9.05.41,2.02,1.97,3.6,3.99,4.04,1.29.28,2.63.18,3.87-.3l.61,2.92c-2.45,2.6-6.61.85-6.61.85l-.55-2.95c-4.8.29-5.25.21-5.78-2.44-.43-2.33-.55-4.7-.34-7.06Z"/>
            <path class="cls-26" d="M231.53,197.88l-.48-1.86c-.2-.31-.6-.44-.94-.29-.32.15-.54.45-.59.8-.05.35,0,.7.14,1.03.08.29.25.55.47.76.22.2.52.28.81.22.28-.11.62-.36.59-.65Z"/>
            <path class="cls-15" d="M231.16,197.94c1.47-.24,2.93.48,3.62,1.8.64,1.31.79,2.81.43,4.22-.45,2.13-1.56,4.05-2.51,6s-1.78,4.08-1.59,6.24c.24,2.85,2.53,5.09,5.32,5.83-.69-.57-1.09-1.42-1.09-2.32.74,1.08,1.89,1.8,3.19,1.99,1.27.18,2.56-.2,3.54-1.04-1.13.03-2.22-.4-3.04-1.18.76.13,1.53.02,2.23-.31-2.28-1.3-3.09-4.33-2.8-6.97s1.38-5.12,1.88-7.73c.49-2.61.26-5.62-1.68-7.44-1.61-1.35-3.75-1.89-5.8-1.46-.67.12-1.32.29-1.96.52-.99.24-.42,2,.28,1.85Z"/>
            <polygon class="cls-26" points="187.91 207.46 194.91 227.76 209.39 219.73 202.47 199.65 187.91 207.46"/>
            <polygon class="cls-2" points="187.91 207.46 194.91 227.76 209.39 219.73 202.47 199.65 187.91 207.46"/>
            <polygon class="cls-5" points="187.91 207.46 194.91 227.76 209.39 219.73 202.47 199.65 187.91 207.46"/>
            <polygon class="cls-13" points="207.25 218.9 201.48 202.18 190.07 208.31 195.9 225.2 207.25 218.9"/>
            <polygon class="cls-29" points="199.47 203.42 193.13 206.75 192.85 205.91 194.08 204.82 197.55 203.07 199.13 202.78 199.47 203.42"/>
            <polygon class="cls-1" points="197.55 203.07 197.28 202.43 193.89 204.25 194.08 204.82 197.55 203.07"/>
            <polygon class="cls-29" points="199.25 201.37 191.59 205.49 191.25 204.69 198.99 200.63 199.25 201.37"/>
            <path class="cls-1" d="M197.18,201.58c-.67-2.11-4.68-.13-3.9,2.04l3.9-2.04Z"/>
            <path class="cls-21" d="M215.3,217.72l-10.21,13.07-9.29-9.11c-.52-.51-.85-1.18-.94-1.91-.45-3.46-1.41-5.94-2.64-5.51-.76.27.22,3.65.22,3.65l-1.15-.66-1.35-3.97h-.62c-.66,0-1.25.41-1.46,1.04l-.58,1.67c-.7,2.03,0,4.28,1.72,5.56l2.04,1.52c.3.23.56.51.76.83,3.22,4.95,6.87,9.61,10.9,13.93.93.95,2.41,1.1,3.52.36,3.95-2.6,11.99-10.15,16.12-15.4,1.49-1.89,1.15-4.64-.74-6.12-.14-.11-.29-.21-.44-.3h0c-2-1.18-4.58-.59-5.86,1.36Z"/>
          </g>
          <g id="freepik--character-1--inject-153">
            <path class="cls-26" d="M145.54,105.26c2.22-1.28,4.02-.25,4.03,2.28l.14,47.29c-.15,2.82-1.64,5.39-4,6.93l-56.73,32.76c-2.22,1.28-4.02.25-4.03-2.28l-.14-47.3c.15-2.82,1.64-5.4,4-6.93l56.73-32.74Z"/>
            <g class="cls-31">
              <path class="cls-13" d="M145.54,105.26c2.22-1.28,4.02-.25,4.03,2.28l.14,47.29c-.15,2.82-1.64,5.39-4,6.93l-56.73,32.76c-2.22,1.28-4.02.25-4.03-2.28l-.14-47.3c.15-2.82,1.64-5.4,4-6.93l56.73-32.74Z"/>
            </g>
            <path class="cls-13" d="M145.96,108.37c.09-.07.23-.07.32,0,.14.13.1.44-.08.7l-28.28,40.42,28.42,7.71c.17.05.21.32.08.6-.07.15-.18.28-.32.37-.07.05-.16.06-.24.05l-28.61-7.77-28.48,40.72c-.06.09-.14.17-.24.23-.1.07-.23.07-.33,0-.13-.13-.09-.44.08-.69l28.28-40.44-28.41-7.69c-.18-.05-.21-.31-.08-.6.07-.15.18-.28.32-.37.07-.05.16-.06.24-.05l28.61,7.76,28.48-40.72c.06-.09.14-.17.24-.23Z"/>
            <path class="cls-23" d="M146.76,139.2l2.91,6.19-5.17,15.71-11.43,7.42,4.09,9.68,11.68-11.39c1.39-1.36,2.29-3.16,2.55-5.09l2.19-16.51-2.46-9.38-1.44-1.38.05,5.92-1.46-2.04c-.27-.38-.79-.47-1.18-.21h0c-.37.23-.51.7-.33,1.09Z"/>
            <path class="cls-1" d="M132.47,166.96l9.33-4.69c5.46,1.38,5.6,7.15,5.6,7.15l-9.65,8.77-5.29-11.23Z"/>
            <path class="cls-15" d="M122.61,273.6c-.51,1.2-1.68,1.99-2.99,2.01-1.28,0-2.56-.15-3.8-.48-2.81-.51-5.53,0-8.35-.08-.9.02-1.8-.07-2.67-.26-.9-.21-1.72-.69-2.35-1.38-.35-.42-.58-.93-.67-1.47-.11.82.13,1.65.67,2.28.63.67,1.45,1.13,2.35,1.33.9.2,1.82.3,2.74.3,2.8.06,5.52-.44,8.35.07,1.24.32,2.52.49,3.8.49,1.31-.02,2.48-.81,2.99-2.02.12-.42.16-.86.1-1.29-.03.17-.09.34-.17.5Z"/>
            <path class="cls-26" d="M122.54,271.27c-.17-.85-.35-1.7-.52-2.56-.07-.46-.21-.9-.43-1.3-.23-.41-.67-.66-1.14-.65-1.52-.21-3.71-.76-4.99.12-2.02,1.39-4.43,2.09-6.87,2-1.26-.15-2.53-.2-3.8-.15-1.3.07-2.45.88-2.95,2.08-.1.36-.12.74-.06,1.11.09.54.32,1.05.67,1.47.62.7,1.44,1.2,2.35,1.42.9.21,1.82.31,2.74.3,2.8.07,5.52-.43,8.35.08,1.24.32,2.52.49,3.8.48,1.31-.02,2.48-.81,2.99-2.01.05-.15.08-.31.1-.47.02-.64-.05-1.28-.24-1.9Z"/>
            <path class="cls-21" d="M115.09,264.17l-.11,3.33c-.03.71.51,1.31,1.22,1.36,1.12.09,2.24.09,3.36,0,.94-.09,1.67-.85,1.72-1.78l.14-2.46-6.32-.45Z"/>
            <path class="cls-6" d="M115.09,264.17l-.11,3.33c-.03.71.51,1.31,1.22,1.36,1.12.09,2.24.09,3.36,0,.94-.09,1.67-.85,1.72-1.78l.14-2.46-6.32-.45Z"/>
            <path class="cls-15" d="M136.84,262.43c-.01.49-.17.97-.44,1.37-.4.48-.96.8-1.57.89-1.5.26-3.02-.37-3.9-1.61-.42-.61-.66-1.32-1.06-1.94-.6-.83-1.34-1.56-2.19-2.13-.85-.57-1.59-1.29-2.2-2.11-.59-.81-.75-1.87-.42-2.82-.08.11-.15.23-.21.36-.37,1-.23,2.13.39,3,.63.85,1.4,1.58,2.28,2.18.87.59,1.62,1.33,2.23,2.19.41.65.65,1.38,1.08,2.01.9,1.27,2.44,1.92,3.98,1.66.63-.09,1.2-.42,1.6-.91.37-.57.53-1.24.47-1.91,0-.07-.02-.14-.04-.21Z"/>
            <path class="cls-26" d="M135.82,258.25c-1.01-1.77-3.1-3.04-4.71-4.32-.88-.76-1.97-1.26-3.12-1.42-1.19-.13-2.34.47-2.91,1.52,0,.03,0,.06,0,.09-.33.95-.17,2,.42,2.82.61.82,1.35,1.54,2.2,2.11.83.57,1.56,1.27,2.15,2.09.39.62.64,1.33,1.06,1.94.88,1.24,2.4,1.87,3.9,1.61.62-.09,1.17-.41,1.57-.89.28-.41.43-.88.44-1.37v-.48c-.02-1.29-.37-2.56-1-3.69Z"/>
            <path class="cls-21" d="M131.44,256.71v3.04c1.51.71,3.27.63,4.71-.21l.29-2.73-5-.11Z"/>
            <path class="cls-6" d="M131.44,256.71v3.04c1.51.71,3.27.63,4.71-.21l.29-2.73-5-.11Z"/>
            <path class="cls-1" d="M137.22,201.79c.91,2.73.63,17,.1,29.41.87,6.08.84,19.13-.3,28.59-2.39,1.08-5.12,1.13-7.55.15l-2.66-28.72-.62-14.76s-1.12,13.09-2.41,21.49c.47,6.17-.55,17.95-1.46,30.53,0,0-4.86,2.83-9.68-.27-1.69-27.8,1.06-55.95,1.62-65.07l22.96-1.36Z"/>
            <path class="cls-2" d="M126.56,225.44l-.5-12.01c3.11,0,6-2.33,8.19-4.56-1.47,2.39-3.63,4.28-6.2,5.42l-1.5,11.15Z"/>
            <path class="cls-29" d="M113.77,180.32v23.54c13.88,5.82,22.88.56,24.1-2.17-.65-9.59,1.63-20.82,1.45-25.58s-.76-10.15-8.15-9.07l-7.87.76-3.99.97-5.54,11.54Z"/>
            <path class="cls-23" d="M106.4,179.04l-2.65,2.76-14.76-5.83c0-1.35-.09-2.7-.27-4.04-.09-.42-.33-.76-.76-.76h0c-.29,0-.71.47-.76,1.23,0,.14,0,.99-.05,1.24-.02.32-.3.56-.62.53-.15-.01-.3-.09-.4-.2-.31-.32-.58-.68-.81-1.06l-.24-.65c-.15-.69-.23-1.39-.23-2.09-1.3.52-2.18,1.74-2.28,3.13-.24,1.08-.28,2.18-.12,3.27.46,1.52,1.82,2.22,4.15,2.98,4.66,3.26,11.18,7.06,14.68,9.06,1.51.87,3.37.8,4.82-.17l5.6-3.74-5.31-5.65Z"/>
            <path class="cls-16" d="M102.13,185.19c.26-1.24.82-2.4,1.62-3.39l-1.26-.49c-.84.7-1.08,2.57-.36,3.88Z"/>
            <path class="cls-1" d="M105.75,179.06l7.46-7.34c1.66-1.63,3.81-2.67,6.12-2.94h.14c3.15,6.91-1.02,10.29-1.02,10.29l-6.93,6.36c-2.62-1.38-4.66-3.64-5.77-6.38Z"/>
            <path class="cls-15" d="M130.77,162.75c2.56-2.28,4.22-5.4,4.69-8.79.17-.93.07-1.89-.3-2.76-.42-.84-1.52-1.72-2.41-1.52-.05-1.18-.63-2.27-1.58-2.98-.86-.44-1.83-.65-2.79-.59-.96,0-1.92.16-2.89.16-1.52,0-4.97-.43-6.34-1.1,0,.88.26,1.74.76,2.47-.99-.18-1.87-1.05-2.66-1.68.05,1.33.62,2.58,1.58,3.49-1.34-.13-1.59,2.18.7,2.18,1.01,10.02,7.94,13.94,11.25,11.13Z"/>
            <path class="cls-16" d="M118.63,155.68l-1.24,2.16,1.23.45c-.04-.87-.04-1.74,0-2.61Z"/>
            <path class="cls-23" d="M119.53,151.65c-.46,1.3-.76,2.66-.9,4.03-.05.87-.05,1.74,0,2.61.05,1.23.19,2.45.43,3.65.08.66.32,1.29.71,1.83.52.55,1.23.88,1.99.91.75.03,1.5-.04,2.23-.21v3.54c2.68.63,4.91.91,7.02-.71l-.23-4.56c-1.3.19-2.62-.02-3.8-.59-1.85-1-2.37-2.6-2.11-3.49.34.44.91.64,1.45.51.52-.14.95-.49,1.21-.96.25-.47.4-.99.45-1.52.13-.63.03-1.29-.27-1.86-.49-.65-1.32-.93-2.1-.71-.76.24-1.4.77-1.77,1.48-.12.22-.23.44-.31.68-.07.22-.31.34-.53.26-.16-.05-.27-.2-.28-.36-.1-1.02.08-2.04.53-2.96-.31.15-.65.22-.99.23-.36,0-.71-.16-.95-.44-.23-.29-.25-.7-.04-1.01-.6.14-1.23.01-1.72-.35Z"/>
            <path class="cls-16" d="M144.5,161.1c1.28-.03,2.45.75,2.91,1.94-.12-3.38-2.14-2.83-2.7-2.57l-.21.62Z"/>
          </g>
        </g>
      </g>
    </g>
  </g>
</svg>