<svg width="211" height="112" viewBox="0 0 211 112" fill="none" xmlns="http://www.w3.org/2000/svg">
<path d="M0.0741504 55.949C0.0741504 45.143 0.31315 34.331 0.0111504 23.534C-0.32985 11.378 7.18215 3.479 18.1931 1.22099C26.9221 -0.569008 35.7932 -0.631012 44.4132 2.67399C52.0901 5.61799 57.8401 13.378 57.9492 21.641C58.0491 29.332 57.9601 37.025 58.0631 44.716C58.0871 46.489 57.5281 47.227 55.7421 47.216C49.4241 47.178 43.1052 47.154 36.7872 47.233C34.6222 47.26 34.4922 46.03 34.5162 44.4C34.5951 38.908 34.6542 33.415 34.6402 27.922C34.6362 26.471 34.4711 24.991 34.1511 23.575C33.5121 20.748 31.6301 19.491 28.7052 19.735C26.0212 19.959 24.4962 21.536 24.4902 24.498C24.4501 45.285 24.4501 66.072 24.4781 86.859C24.4811 89.602 26.1521 91.564 28.5401 91.974C30.8251 92.367 33.1392 90.881 34.0432 88.376C34.5452 86.986 34.6831 85.531 34.6741 84.051C34.6362 78.374 34.7062 72.695 34.5611 67.021C34.5151 65.209 35.0471 64.534 36.8391 64.548C43.1572 64.597 49.4762 64.605 55.7942 64.549C57.5951 64.533 58.1381 65.196 58.0882 67.004C57.9492 72.036 57.9792 77.075 58.0102 82.111C58.0392 86.919 56.1861 90.748 52.4352 93.767C45.8852 99.04 39.4091 104.404 32.8811 109.705C31.4331 110.88 29.8141 111.468 27.8501 111.523C21.7381 111.695 15.7142 111.477 10.4032 107.995C3.76815 103.645 0.0341504 97.606 0.0651504 89.464C0.10615 78.292 0.0751504 67.121 0.0741504 55.949Z" fill="white"/>
<path d="M167.87 68.3171C167.87 81.7791 167.824 95.2411 167.919 108.702C167.933 110.773 167.245 111.351 165.286 111.521C161.955 111.811 159.338 110.819 156.841 108.57C152.567 104.719 148.086 101.089 143.572 97.5171C141.732 96.0611 141.46 94.2871 141.462 92.1901C141.49 71.0351 141.483 49.8811 141.479 28.7271C141.479 24.1691 141.467 24.1691 137.014 24.1701C134.267 24.1711 131.517 24.1041 128.773 24.1941C126.688 24.2631 125.807 23.4941 125.848 21.3171C125.949 16.0071 125.997 10.6911 125.828 5.38508C125.744 2.73108 126.91 2.08808 129.263 2.10208C138.878 2.16208 148.494 2.08808 158.11 2.13408C165.798 2.17108 173.487 1.97008 181.177 2.30608C182.913 2.38107 183.424 2.95307 183.414 4.54408C183.376 10.4051 183.369 16.2661 183.411 22.1261C183.423 23.8261 182.713 24.3161 181.063 24.2411C178.047 24.1031 175.021 24.1741 171.999 24.1731C167.857 24.1731 167.852 24.1801 167.851 28.2061C167.848 41.5771 167.85 54.9471 167.85 68.3171H167.87Z" fill="white"/>
<path d="M97.2036 25.5728C96.6936 26.8037 96.3486 27.3647 96.2266 27.9697C94.7306 35.3677 93.2646 42.7708 91.7966 50.1738C91.5296 51.5228 92.2456 52.0038 93.4706 52.0058C95.5676 52.0098 97.6686 51.9458 99.7626 52.0358C101.674 52.1178 102.305 51.5648 101.944 49.4918C100.59 41.6998 99.0176 33.9567 97.2036 25.5728ZM133.556 88.4688C129.709 86.2178 127.15 83.6048 124.369 81.3268C117.375 75.5958 110.496 69.7257 103.571 63.9118C101.96 62.5598 100.326 61.2358 98.7426 59.8517C97.4896 58.7547 96.3826 58.8247 95.0966 59.8737C85.3266 67.8347 75.5316 75.7657 65.7226 83.6787C64.8566 84.3757 64.0236 86.0008 62.8266 85.1478C61.6256 84.2908 62.7016 82.7278 62.9586 81.5708C65.6546 69.4478 68.4716 57.3528 71.2076 45.2388C74.2656 31.7018 77.3016 18.1598 80.2666 4.60275C80.6156 3.00875 81.3826 2.47075 82.8806 2.47375C92.3116 2.48975 101.744 2.51675 111.176 2.45175C113.171 2.43875 113.616 3.66275 113.964 5.16475C115.572 12.1087 117.157 19.0577 118.798 25.9927C122.413 41.2797 126.063 56.5578 129.685 71.8428C130.924 77.0718 132.124 82.3098 133.556 88.4688Z" fill="white"/>
<path d="M96.0925 111.419H43.9005C43.3515 111.419 42.8005 111.448 42.2535 111.411C41.5495 111.363 40.6455 111.547 40.3885 110.653C40.1795 109.928 40.9035 109.54 41.3865 109.149C47.4995 104.199 53.6145 99.2509 59.7445 94.3209C71.1465 85.1489 82.5795 76.0169 93.9515 66.8069C96.9535 64.3759 96.9105 64.2269 99.9405 66.7499C117.021 80.9679 134.081 95.2109 151.15 109.443C151.564 109.787 152.176 110.074 151.903 110.72C151.668 111.28 151.033 111.342 150.481 111.367C149.658 111.405 148.834 111.407 148.01 111.407C130.704 111.409 113.399 111.408 96.0925 111.408V111.419Z" fill="white"/>
<path d="M210.869 7.7761C210.882 11.7351 208.272 14.6281 204.638 14.6811C201.217 14.7301 198.011 11.4141 198.055 7.8701C198.098 4.3131 200.951 1.5301 204.594 1.4891C208.575 1.4441 210.855 3.7291 210.869 7.7761Z" fill="white"/>
</svg>
