<svg width="300" height="100" viewBox="0 0 300 100" fill="none" xmlns="http://www.w3.org/2000/svg">
<path d="M214.91 58.9232C215.007 54.7039 214.212 53.4914 212.248 53.6966C209.612 53.97 206.264 57.3212 205.857 60.0916C205.419 63.0854 207.496 66.755 210.226 67.9675C211.244 68.4191 211.764 68.0596 212.201 67.1715C213.659 64.2098 214.875 61.179 214.91 58.9232ZM192.693 84.5273C192.681 85.837 192.824 87.1406 194.116 87.7904C195.793 88.6355 197.261 87.7494 198.425 86.7031C202.542 83.0014 206.089 78.8061 208.673 73.8189C209.329 72.5533 209.387 71.6341 207.928 70.9933C206.137 70.2073 204.67 68.9207 203.522 67.3798C202.134 65.5175 201.315 66.0812 200.235 67.6732C197.54 71.6431 195.329 75.8554 193.697 80.3811C193.214 81.7218 192.677 83.0565 192.693 84.5273ZM245.38 85.5917C245.434 86.4598 245.19 87.434 246.09 87.9006C246.952 88.3461 247.684 87.7103 248.368 87.2788C249.939 86.2875 251.149 84.9048 252.221 83.3959C255.612 78.6199 258.463 73.5035 261.361 68.4151C263.473 64.7054 265.659 61.0398 267.772 57.3302C268.246 56.4971 269.079 55.5139 268.111 54.6027C267.124 53.6746 266.039 54.3254 265.196 55.0033C263.709 56.2008 262.204 57.4113 260.903 58.807C255.168 64.9608 250.808 72.0857 247.029 79.5951C246.081 81.4775 245.553 83.5171 245.38 85.5917ZM232.27 89.855C230.149 92.0147 228.419 93.9321 226.33 95.431C225.454 96.0598 224.569 96.7006 223.619 97.1972C218.255 99.9917 213.575 97.1592 213.453 90.9174C213.349 85.6117 215.117 80.6435 216.574 75.6372C216.85 74.692 217.184 73.7638 217.508 72.7746C214.74 72.3641 213.125 73.1821 211.68 75.6021C207.072 83.3228 202.139 90.8483 194.325 95.7574C192.555 96.8688 190.777 97.8891 188.663 98.2315C184.814 98.8533 181.975 97.1071 180.986 93.2313C180.105 89.7809 180.569 86.3807 181.645 83.0304C184.903 72.8847 190.581 64.1948 197.854 56.6944C201.586 52.8465 205.879 49.3261 211.596 48.6373C215.759 48.1366 218.679 50.5416 219.022 54.817C219.337 58.749 217.831 62.2373 216.55 65.8008C216.197 66.781 214.759 68.2329 216.018 68.7946C217.358 69.3943 219.115 68.5483 219.957 66.9302C221.391 64.1788 222.738 61.3813 224.177 58.6318C230.924 45.7316 238.551 33.4262 248.075 22.4233C253.12 16.596 258.548 11.1562 264.609 6.42925C267.501 4.17342 270.622 2.18491 274.375 1.6933C278.05 1.21169 279.871 2.9689 279.663 6.74064C279.509 9.51512 278.377 11.9472 277.042 14.2991C276.646 14.998 276.006 15.3865 275.252 15.5577C274.621 15.7019 273.914 16.0784 273.351 15.5717C272.679 14.965 273.291 14.3192 273.539 13.7434C274.236 12.1254 275.038 10.5524 275.689 8.91637C276.019 8.08533 276.429 7.03 275.549 6.34614C274.742 5.72036 273.971 6.4693 273.3 6.90685C269.57 9.3399 266.468 12.5499 263.507 15.813C252.353 28.1035 244.011 42.3684 236.124 56.9297C235.785 57.5555 235.331 58.2173 235.543 59.2756C237.911 57.8859 239.894 56.1617 241.761 54.3164C249.72 46.4475 257.609 38.5085 264.16 29.333C264.754 28.5 265.523 28.1355 266.486 28.1205C267.128 28.1105 267.938 27.752 268.352 28.3828C268.812 29.0827 268.086 29.6184 267.694 30.119C264.601 34.077 261.615 38.1301 258.355 41.9408C250.503 51.1224 241.939 59.5389 232.144 66.6088C229.387 68.5973 229.047 72.0897 227.761 74.9583C226.419 77.9531 225.8 81.2092 225.232 84.4472C224.981 85.877 224.693 87.5231 226.075 88.3932C227.613 89.3614 228.764 87.8835 229.706 86.9714C232.363 84.3972 234.256 81.1971 236.191 78.0562C241.121 70.0521 246.206 62.1733 252.947 55.562C255.231 53.3221 257.734 51.3597 260.512 49.8538C263.655 48.1506 266.905 47.3136 269.825 50.4565C270.328 50.9992 270.902 51.2605 271.569 50.7209C274.442 48.3939 277.788 49.6706 280.909 49.6015C282.641 49.5634 281.765 50.9782 281.308 51.8072C278.838 56.2879 276.205 60.6814 273.879 65.2371C270.403 72.0467 265.988 78.3175 262.864 85.3193C262.515 86.1013 261.528 87.0255 262.389 87.8125C263.252 88.6014 264.08 87.5181 264.767 87.0535C268.503 84.5263 271.029 80.8537 273.548 77.1881C274.404 75.9455 275.211 74.6649 276.128 73.4714C277.039 72.283 278.421 72.2389 279.493 72.8927C280.456 73.4815 279.54 74.4787 279.143 75.0705C273.587 83.3589 268.16 91.7654 259.257 96.9339C254.344 99.7865 251.612 98.8974 249.872 93.5116C249.365 91.9436 248.776 92.3972 247.987 93.1221C246.259 94.7111 244.393 96.0878 242.318 97.1892C236.917 100.054 232.764 97.6458 232.395 91.402C232.375 91.0735 232.342 90.7441 232.27 89.855Z" fill="white"/>
<path d="M66.7218 33.2815C66.6125 32.4124 67.0023 30.7353 65.3229 30.0705C63.7389 29.4437 62.1904 29.9163 60.8949 30.9706C59.5147 32.095 58.5253 33.5499 57.8657 35.229C56.5456 38.5902 59.0707 42.5672 62.6117 42.7434C63.5873 42.7925 64.1849 42.3479 64.5629 41.5049C65.6655 39.0458 66.7877 36.5917 66.7218 33.2815ZM44.3504 60.2574C44.3632 61.0644 44.3376 62.5883 45.7581 63.4274C47.1157 64.2284 48.3039 63.3122 49.4695 62.7195C49.9823 62.4592 50.4765 62.1177 50.8979 61.7232C55.0237 57.8624 58.1384 53.2136 60.9588 48.3314C61.5751 47.2661 61.3477 46.6343 60.252 46.1917C58.0557 45.3046 56.1843 43.9409 54.683 42.0816C53.6779 40.837 53.042 41.2085 52.2466 42.392C50.1399 45.5259 48.3354 48.8411 46.6352 52.2013C45.4716 54.5012 44.3996 56.9182 44.3504 60.2574ZM104.136 61.545C104.183 63.8699 105.128 64.4717 106.844 63.5005C108.456 62.5883 109.788 61.3047 110.832 59.7678C112.664 57.0694 114.528 54.385 116.191 51.5795C119.863 45.3837 123.429 39.1249 127.003 32.87C127.385 32.2002 128.157 31.3851 127.348 30.6072C126.611 29.8993 125.6 30.1496 124.759 30.505C123.605 30.9927 122.586 31.7546 121.784 32.7328C116.164 39.5844 110.596 46.4881 106.657 54.5312C105.525 56.8401 104.273 59.173 104.136 61.545ZM92.2453 62.9288C88.5744 66.6524 84.8138 69.9015 80.4183 72.3786C78.0418 73.7173 75.5748 74.4753 72.8292 74.3922C68.9742 74.275 65.8623 71.9361 64.617 68.2334C62.9986 63.4224 64.1553 58.9237 65.9657 54.4922C66.9777 52.0161 68.098 49.586 69.2646 46.9166C67.1313 46.8095 65.8141 47.5725 64.7913 49.3687C60.4538 56.9873 55.4676 64.0972 48.6701 69.7083C46.3311 71.6387 43.7567 73.1766 40.8566 74.0247C36.6018 75.2683 33.3906 73.5241 32.2979 69.1686C30.9206 63.6817 32.1906 58.4021 34.4311 53.4398C39.1899 42.9056 45.9589 33.9804 55.6232 27.5874C57.3469 26.4469 59.2459 25.5048 61.1754 24.7778C66.4412 22.7944 70.4754 25.5839 70.8357 31.262C71.0228 34.2057 70.2195 36.9251 69.2892 39.6465C68.9879 40.5256 68.0439 41.6941 68.9909 42.3399C69.7725 42.8726 70.817 41.8913 71.6371 41.3376C75.3199 38.8545 78.4317 35.7056 81.6016 32.6067C84.4604 29.8112 87.335 27.0036 91.1674 25.4998C92.7464 24.879 94.3127 24.5125 95.9961 24.5145C101.494 24.5205 104.255 28.0189 102.907 33.4718C102.089 36.7829 100.772 39.8708 97.9423 41.9895C96.6733 42.9397 95.2745 43.5104 93.8313 42.389C92.3625 41.2475 92.2306 39.6205 92.8498 38.0395C93.7929 35.6285 95.2341 33.5839 97.8625 32.8039C98.7052 32.5536 99.5509 32.3463 99.2979 31.1839C99.0537 30.0655 98.2248 29.7941 97.2079 29.8642C96.0679 29.9423 95.2055 30.5901 94.3284 31.238C87.1341 36.5586 82.5821 43.9319 78.8432 51.9189C77.4896 54.8086 76.2551 57.7503 75.9273 61.0053C75.7402 62.8597 75.8328 64.5798 77.3705 65.8294C78.917 67.085 80.5049 66.4622 82.0505 65.7463C86.6488 63.6146 89.8069 59.7908 93.029 56.0501C99.035 49.0754 103.66 41.0032 109.925 34.2177C113.142 30.7313 116.699 27.7846 120.774 25.4717C123.689 23.8176 126.597 23.6044 129.322 25.9794C129.685 26.2958 130.045 26.8084 130.596 26.459C133.217 24.7979 136.094 25.8922 138.843 25.6529C140.978 25.4667 140.984 26.5851 140.092 28.1401C134.33 38.1817 128.584 48.2333 122.841 58.2859C122.343 59.159 121.835 60.0401 121.471 60.9733C121.194 61.6882 120.383 62.5713 121.301 63.2401C122.094 63.8169 122.863 63.083 123.542 62.6204C127.406 59.9811 129.984 56.1162 132.836 52.5117C133.511 51.6596 134.168 50.7805 134.936 50.0195C135.87 49.0924 137.215 48.9212 138.117 49.6671C139.006 50.402 137.979 51.3612 137.52 52.0681C134.407 56.8581 130.881 61.3207 126.969 65.4609C124.149 68.4447 121.222 71.3193 117.562 73.2347C112.973 75.6367 110.545 74.7296 108.706 69.8825C108.238 68.6469 107.84 68.659 107.03 69.473C105.416 71.094 103.424 72.1593 101.473 73.2687C98.9011 74.7316 96.2048 74.9919 93.7092 73.2497C91.4401 71.6637 91.4361 69.0865 91.6045 66.6094C91.6881 65.3738 92.0238 64.1553 92.2453 62.9288Z" fill="white"/>
<path d="M192.624 36.6827C193.793 36.6196 194.864 35.9647 195.867 35.2208C203.738 29.3815 208.403 21.5386 209.881 11.7553C209.995 11.0094 210.683 9.94708 209.764 9.47148C209.036 9.09601 208.228 9.89401 207.55 10.3336C201.714 14.1193 197.364 19.3529 193.643 25.1912C192.146 27.5412 191.042 30.0844 190.358 32.7808C189.745 35.1988 190.636 36.6686 192.624 36.6827ZM206.611 5.82991C202.37 5.39536 199.05 7.64519 195.73 9.79589C188.235 14.651 182.063 21.019 176.437 27.9086C168.474 37.6589 161.525 48.1 156.263 59.6595C153.114 66.5772 151.407 73.7973 151.13 81.3808C150.904 87.6036 155.995 91.4845 161.767 89.4289C165.682 88.0341 168.856 85.4309 171.577 82.309C176.861 76.2473 181.145 69.597 182.873 61.5269C183.103 60.4575 183.363 59.3802 183.437 58.2948C183.536 56.843 183.439 55.297 182.056 54.47C180.592 53.5949 179.291 54.477 178.225 55.4282C174.57 58.6883 172.129 62.7404 171.052 67.5724C170.672 69.2746 169.851 70.3219 168.267 71.1169C164.901 72.806 162.002 75.202 159.417 77.9855C158.997 78.4391 158.586 79.2541 157.821 78.8706C157.181 78.5502 157.52 77.8093 157.61 77.2596C159.084 68.2373 162.183 60.06 169.087 53.7471C172.357 50.7573 176.137 49.0772 180.427 48.5105C182.921 48.1811 184.978 49.677 186.147 52.4585C188.014 56.897 187.171 61.4127 185.677 65.5639C181.29 77.7452 173.989 87.7197 163.13 94.8777C150.206 103.397 137.912 96.1704 137.305 80.3004C137.051 73.6431 139.235 67.4633 141.617 61.4698C145.421 51.9018 150.699 43.1147 156.836 34.8994C165.577 23.2007 175.538 12.8107 188.401 5.73879C192.779 3.33277 197.432 1.50247 202.353 0.550274C205.142 0.0105965 207.797 0.487196 210.181 2.1623C211.071 2.78708 211.929 3.44891 213.134 2.89021C223.18 -1.76263 232.375 1.06893 241.288 6.25143C245.027 8.42617 248.733 10.66 252.482 12.8157C254.301 13.862 254.382 14.8112 252.756 16.219C251.25 17.5216 249.867 19.0115 248.63 20.5824C247.25 22.3366 245.903 22.3917 244.14 21.2212C239.147 17.9051 234.174 14.5458 229.052 11.444C225.131 9.06897 220.922 7.28473 216.252 7.0184C214.389 6.91226 213.344 7.62516 213.747 9.68375C213.982 10.8792 213.841 12.0527 213.585 13.1952C211.24 23.6633 206.313 32.5044 197.516 38.7352C194.981 40.5305 192.063 41.9533 188.972 39.8817C186.548 38.2576 185.849 34.6871 187.229 30.605C189.729 23.2127 193.846 16.8908 199.734 11.7904C202 9.82692 204.189 7.77435 206.611 5.82991Z" fill="white"/>
<path d="M129.952 100C123.836 96.1131 117.179 94.1647 110.203 93.3917C104.766 92.7899 99.7805 93.9674 96.2158 98.6733C95.321 99.8548 94.6299 100.048 93.803 98.6884C90.0277 92.4856 83.9497 90.3739 77.3707 89.619C70.3054 88.8079 63.3356 90.0435 56.4543 91.6836C46.544 94.0475 36.7813 97.0593 26.6327 98.372C15.9318 99.7567 5.42589 94.0345 1.85237 84.3233C-0.310442 78.4469 -0.409875 72.2982 0.684822 66.1285C3.18825 52.0227 9.38924 39.7313 18.2482 28.6985C24.522 20.8836 31.6356 14.028 39.8242 8.31586C46.161 3.89531 53.1259 1.15086 60.712 0.0644994C65.5949 -0.63538 70.396 4.48304 69.5415 9.49033C68.9666 12.8626 67.5805 15.9354 65.3862 18.5547C64.76 19.3037 63.8918 19.8864 63.0452 20.39C61.8274 21.1129 60.527 21.2641 59.3181 20.3059C58.0668 19.3157 57.7075 17.949 58.0747 16.4571C58.7983 13.5274 60.3301 11.1975 63.2804 10.1892C64.509 9.76969 65.3999 9.27005 65.1666 7.73713C64.9294 6.18318 63.8298 6.03099 62.6002 5.94989C58.9784 5.71259 56.031 7.45678 53.1456 9.3011C45.0781 14.4576 39.0229 21.7307 33.2245 29.2291C27.7274 36.3381 22.9696 43.9466 19.5201 52.3061C16.5038 59.6163 13.577 66.9946 14.0909 75.1898C14.276 78.1395 14.7249 81.0112 15.8235 83.7977C18.1891 89.7982 28.9422 93.0403 34.5279 92.2002C44.2994 90.7304 53.8731 88.4165 63.4143 85.8863C72.7163 83.4202 82.096 81.2054 91.7465 80.903C102.79 80.5566 112.563 84.2392 121.161 91.266C124.362 93.8823 127.606 96.4375 129.952 100Z" fill="white"/>
<path d="M300.001 0.873686C296.394 8.49025 291.294 14.7221 284.481 19.5311C277.642 24.3572 270.263 27.362 261.841 27.3039C260.193 27.2919 257.99 27.4781 257.24 26.1324C256.426 24.6746 258.51 23.5161 259.324 22.2375C261.349 19.0515 263.853 17.4615 268.03 17.3524C278.282 17.086 286.925 12.271 294.61 5.60763C296.409 4.04667 298.274 2.5568 300.001 0.873686Z" fill="white"/>
<path d="M147.482 34.7704C142.166 34.7644 142.117 34.7363 144.586 30.2807C145.496 28.6387 145.983 26.2367 147.948 25.8512C150.413 25.3686 153.036 25.6469 155.586 25.721C156.537 25.749 156.526 26.515 156.127 27.2009C154.826 29.4407 153.63 31.7596 152.146 33.8662C150.923 35.6014 148.898 34.464 147.482 34.7704Z" fill="white"/>
</svg>
