<svg width="320" height="64" viewBox="0 0 320 64" fill="none" xmlns="http://www.w3.org/2000/svg">
<path d="M272.343 50.7376C278.355 50.7045 277.328 51.1191 279.315 45.668C280.535 42.3201 281.789 38.9842 282.944 35.6112C284.895 29.9101 284.859 30.0938 278.998 29.8449C275.798 29.7084 274.153 30.8678 273.204 34.0622C271.935 38.3357 270.265 42.4747 268.811 46.688C267.425 50.7045 267.45 50.7135 271.386 50.7366C271.706 50.7386 272.024 50.7376 272.343 50.7376ZM112.915 50.7376C118.943 50.6985 117.78 51.1854 119.854 45.6419C121.063 42.4135 122.277 39.183 123.365 35.9083C125.374 29.8599 126.449 30.0155 119.389 29.8499C116.354 29.7796 114.719 30.8076 113.804 33.8975C112.602 37.9542 110.987 41.8714 109.61 45.8718C107.711 51.3871 107.567 50.6674 112.915 50.7376ZM166.493 31.1309C171.033 26.9035 174.971 23.3588 178.764 19.6485C180.351 18.0955 182.058 17.2472 184.182 17.2422C187.695 17.2331 191.209 17.204 194.721 17.2311C195.531 17.2372 196.635 17.0103 196.918 18.0774C197.129 18.8725 196.247 19.3925 195.726 19.9336C190.719 25.1377 185.75 30.384 180.672 35.5098C179.108 37.0869 178.361 38.6469 179.285 40.8454C179.497 41.3514 179.552 41.9306 179.677 42.4767C181.757 51.5558 182.108 51.7445 191.021 50.7617C193.339 50.5067 193.632 48.7158 194.181 47.1066C197.062 38.6509 200.008 30.2143 202.634 21.6693C203.718 18.1447 205.296 16.3919 208.984 16.8868C211.394 17.2111 213.874 16.937 216.322 16.95C220.014 16.9711 220.139 17.1328 218.821 20.6604C215.462 29.6481 212.15 38.6569 208.657 47.5854C207.593 50.304 208.295 50.8942 210.818 50.7758C214.219 50.6162 217.631 50.6654 221.037 50.7587C222.797 50.8069 223.787 50.048 224.399 48.3494C226.444 42.6815 228.536 37.0317 230.653 31.3929C231.377 29.4634 230.851 28.6292 228.892 28.8009C228.68 28.8199 228.459 28.841 228.254 28.7938C226.096 28.3029 222.31 30.0969 222.037 27.6936C221.661 24.3848 223.522 20.6754 225.728 17.9489C226.971 16.414 229.393 17.0795 231.255 17.3877C234.28 17.8877 235.988 16.936 236.818 13.6192C237.738 9.93895 239.248 6.42839 240.376 2.80036C241.004 0.78357 242.107 -0.0737456 244.14 0.029654C246.796 0.164174 249.463 0.120004 252.123 0.0487287C254.201 -0.00748857 254.766 0.852837 254.126 2.92585C253.006 6.55688 252.032 10.2371 250.932 13.8762C250.273 16.0536 250.543 17.1749 253.104 17.2542C259.047 17.4359 259.12 17.5755 257.262 23.3709C255.258 29.626 256.33 28.9304 249.999 28.7075C246.665 28.59 244.977 29.6291 244.071 33.0834C242.939 37.4031 241.275 41.5672 239.848 45.8016C238.725 49.1374 238.959 49.5249 242.211 49.5711C244.872 49.6083 247.546 49.4356 250.191 49.6544C252.264 49.8261 253.245 49.034 253.951 47.0132C256.198 40.5854 258.617 34.2238 260.976 27.8391C263.731 20.3813 268.341 16.9812 275.836 16.9551C284.14 16.926 292.446 17.0223 300.748 16.9129C303.542 16.8758 304.058 17.9208 303.14 20.5339C300.103 29.1693 297.156 37.8408 294.182 46.5013C293.048 49.805 293.248 50.1293 296.601 50.1423C303.202 50.1684 309.804 50.2196 316.404 50.1243C318.917 50.0881 320.195 50.8852 319.976 53.7874C319.799 56.1325 319.877 58.5067 319.95 60.8648C320.012 62.8575 319.188 63.7569 317.319 63.7539C306.14 63.7308 294.96 63.8122 283.783 63.6696C280.195 63.6234 277.463 61.8114 276.608 57.829C276.238 57.8883 275.92 57.8451 275.849 57.9646C271.603 65.0951 264.883 64.0119 258.475 63.6977C255.474 63.5512 253.823 61.1278 252.602 58.59C251.782 56.8864 251.144 56.794 250.283 58.342C247.551 63.252 243.404 64.544 238.342 63.7981C236.985 63.5983 235.578 63.77 234.194 63.77C228.065 63.769 225.275 61.8586 222.773 55.7641C220.628 57.1344 219.403 59.4122 217.725 61.1639C216.425 62.5212 215.064 63.2319 213.213 63.1918C209.381 63.1084 205.547 63.1938 201.714 63.1747C195.879 63.1456 194.019 61.7693 192.005 55.9156C191.327 56.7308 190.541 57.3803 190.124 58.2316C187.739 63.0924 183.939 64.5831 179.008 63.8051C177.55 63.5752 176.031 63.771 174.541 63.77C169.462 63.767 169.5 63.7569 168.266 58.4083C166.966 52.7715 165.585 47.1568 163.423 41.4206C161.518 46.5755 159.591 51.7204 157.715 56.8874C154.733 65.1042 156.601 63.783 148.18 63.8754C146.584 63.8925 144.986 63.8684 143.389 63.8363C139.707 63.761 139.707 63.7539 140.078 59.7786C138.769 63.8292 135.764 63.9788 132.517 63.7951C130.075 63.6566 127.619 63.8332 125.173 63.7419C121.814 63.6154 118.795 62.7972 117.617 58.855C117.123 57.2016 116.154 57.6092 115.6 58.6121C112.718 63.8262 108.155 63.8573 103.167 63.8905C96.8311 63.9316 94.3815 62.6667 91.952 55.4027C90.9069 55.7691 90.5998 56.8563 90.2974 57.6875C88.4707 62.7089 85.1815 64.4426 80.1217 63.8694C75.8065 63.3805 71.4019 63.7941 67.0363 63.76C63.2755 63.7298 63.0434 63.3584 64.3985 59.7224C67.5536 51.2546 70.6517 42.7608 73.9294 34.3463C74.9345 31.7663 74.79 30.662 71.8194 30.7634C63.807 31.0355 65.5795 29.5277 62.6983 37.4553C59.9169 45.1099 57.1954 52.7906 54.5385 60.4953C53.7131 62.8886 52.5388 64.2017 49.8914 63.9648C47.1433 63.7178 44.36 63.9266 41.5919 63.9095C38.0869 63.8885 37.9138 63.6495 39.1937 60.0396C42.9993 49.3091 46.8257 38.5867 50.6759 27.8733C52.2887 23.3819 52.2126 23.2153 47.6264 23.2052C41.1906 23.1902 42.248 22.9563 40.2901 28.6964C36.7223 39.1589 33.1526 49.6203 29.6495 60.1058C28.962 62.1628 27.9436 63.2942 25.728 63.1958C22.7526 63.0623 19.7667 63.2048 16.7866 63.1546C13.5221 63.0994 13.2882 62.6958 14.4939 59.3329C19.1277 46.4099 23.7729 33.492 28.418 20.5731C29.9385 16.3447 29.9443 16.3839 25.7089 16.3949C18.3708 16.413 11.0326 16.3437 3.69542 16.3859C1.0614 16.4019 -0.204256 15.4141 0.0268145 12.4035C0.241719 9.61269 0.21128 6.77773 0.0334599 3.98093C-0.147212 1.1279 1.02146 0.244487 3.57179 0.26858C12.4076 0.352906 21.2454 0.295682 30.0821 0.295682C35.6183 0.295682 41.1555 0.358928 46.6907 0.278617C49.3276 0.24047 50.1529 1.05361 49.0556 3.85444C47.6254 7.50655 47.7576 7.57482 51.6211 7.58184C57.0508 7.59289 62.4815 7.65011 67.9102 7.55875C70.2865 7.5186 71.1775 8.12695 70.4757 10.8886C68.9429 16.9139 69.0617 16.947 75.1066 16.948C80.3233 16.949 85.541 17.0233 90.7567 16.9239C93.3783 16.8748 93.8909 17.8817 93.0037 20.3823C89.7573 29.5347 86.6706 38.7523 83.3881 47.8896C82.4515 50.4957 82.6806 51.4936 85.617 51.3912C94.1286 51.095 92.2734 52.6038 95.3581 44.5066C97.5024 38.8798 99.5221 33.1988 101.586 27.537C104.117 20.5901 108.917 17.0103 116.006 16.9651C124.416 16.9109 132.83 17.0464 141.238 16.8989C144.265 16.8456 144.612 17.8646 143.625 20.6383C140.556 29.2596 137.735 37.9803 134.674 46.6047C133.675 49.4185 134.459 50.2397 137.11 50.1704C145.033 49.9636 143.615 51.2948 146.362 43.6071C151.17 30.1541 155.999 16.7081 160.697 3.21095C161.535 0.803648 162.757 -0.130966 165.152 0.0145964C168.123 0.196299 171.115 0.147107 174.092 0.0306573C176.46 -0.0616996 177.121 0.607891 176.189 3.14168C173.186 11.3082 170.357 19.5461 167.474 27.7618C167.189 28.574 166.988 29.4192 166.493 31.1309Z" fill="white"/>
</svg>
