<svg width="259" height="46" viewBox="0 0 259 46" fill="none" xmlns="http://www.w3.org/2000/svg">
<path d="M106.882 7.94205C105.952 13.3096 105.018 18.6751 104.093 24.0437C102.918 30.8564 101.726 37.6647 100.603 44.4871C100.414 45.632 99.9655 46.0125 98.9331 45.9922C96.3154 45.9418 93.6948 45.9289 91.0781 45.9986C89.9802 46.0275 89.5067 45.6137 89.3091 44.4377C87.7129 34.9268 86.071 25.4245 84.4401 15.92C83.9666 13.1638 83.4851 10.4088 82.7624 7.68155C82.7624 12.9151 82.7873 18.1498 82.7555 23.3844C82.7138 30.3611 82.6046 37.3378 82.5818 44.3145C82.5768 45.5483 82.2323 46.0286 81.061 45.9964C78.6121 45.9289 76.1611 45.9814 73.7112 45.975C72.0316 45.9696 71.972 45.9278 72.0058 44.1461C72.1676 35.4382 72.3503 26.7313 72.519 18.0243C72.6193 12.8722 72.7265 7.72014 72.7811 2.56803C72.793 1.46922 73.1206 1.01254 74.1758 1.02004C78.9903 1.05435 83.8057 1.0522 88.6212 1.02004C89.6149 1.01361 90.0229 1.41347 90.1797 2.4887C91.6628 12.6192 93.1895 22.7434 94.7073 32.8685C94.7679 33.2716 94.8532 33.6704 94.9982 34.4594C95.7327 29.5968 96.4197 25.1072 97.0897 20.6143C97.9692 14.7183 98.8617 8.82324 99.6895 2.91858C99.8801 1.56141 100.343 0.976088 101.711 1.00074C106.314 1.08543 110.919 1.07257 115.523 1.00825C116.806 0.990024 117.203 1.48959 117.216 2.83389C117.282 9.62833 117.4 16.4217 117.532 23.215C117.668 30.1885 117.849 37.162 117.993 44.1354C118.031 45.9128 117.958 45.9707 116.291 45.975C113.798 45.9814 111.305 45.9278 108.815 45.9975C107.644 46.0308 107.271 45.5537 107.273 44.322C107.286 36.9776 107.239 29.6343 107.224 22.2899C107.214 17.513 107.222 12.7361 107.222 7.95813L106.882 7.94205Z" fill="white"/>
<path d="M200.102 10.3878C200.102 14.2728 200.014 17.7619 200.133 21.2423C200.215 23.5954 200.229 25.9464 200.27 28.2985C200.36 33.5581 200.444 38.8188 200.519 44.0785C200.544 45.9423 200.508 45.9738 198.861 45.9781C196.361 45.9846 193.861 45.9488 191.361 45.9933C190.391 46.0107 190 45.6451 190.001 44.5536C190.021 30.5215 190.021 16.4882 190 2.45497C189.998 1.35813 190.401 0.999033 191.36 1.00554C195.681 1.03158 200.004 1.03592 204.324 1.00012C205.284 0.992522 205.747 1.35813 206.022 2.3953C208.748 12.6813 211.518 22.9532 214.275 33.2283C214.418 33.7567 214.566 34.2828 214.897 34.8155C214.916 34.4011 214.955 33.9856 214.95 33.5711C214.851 25.3562 214.753 17.1424 214.638 8.92861C214.608 6.80762 214.539 4.68662 214.448 2.5678C214.4 1.44167 214.823 0.988184 215.861 1.00446C218.445 1.04351 221.03 1.03592 223.615 1.00663C224.539 0.996862 225.002 1.28545 225 2.42243C224.976 16.4557 224.978 30.4878 224.998 44.5211C224.999 45.581 224.679 46.0031 223.678 45.9933C219.526 45.9564 215.374 45.9499 211.222 45.9998C210.254 46.0107 209.902 45.5344 209.65 44.622C207.354 36.316 205.027 28.0197 202.71 19.7202C201.875 16.7312 201.04 13.7434 200.102 10.3878Z" fill="white"/>
<path d="M185.985 18.7127C185.985 23.3638 185.988 28.0148 185.984 32.6649C185.976 40.4472 182.882 44.2697 175.392 45.6042C171.996 46.2101 168.579 46.1216 165.212 45.3304C159.239 43.9272 156.162 40.1849 156.076 33.6819C155.938 23.2742 156.036 12.8645 156.007 2.45576C156.004 1.3263 156.498 0.999435 157.509 1.01193C160.148 1.04524 162.789 1.0671 165.427 1.00152C166.652 0.971331 167.083 1.38668 167.077 2.67853C167.033 12.1129 167.048 21.5473 167.061 30.9816C167.062 32.1309 167.122 33.2832 167.216 34.4293C167.387 36.4967 168.738 37.6897 170.881 37.7282C173.173 37.7688 174.687 36.5633 174.917 34.4855C174.975 33.9599 174.95 33.4238 174.95 32.8918C174.951 22.8818 174.95 12.8718 174.952 2.8607C174.953 1.06502 174.993 1.0265 176.79 1.02234C179.386 1.01818 181.983 1.05357 184.578 1.00881C185.651 0.990068 186.008 1.41895 186 2.50156C185.964 7.90527 185.984 13.309 185.985 18.7127Z" fill="white"/>
<path d="M239.891 23.1336C239.891 26.6125 239.875 30.0913 239.896 33.5691C239.913 36.2535 241.402 37.7251 244.019 37.7104C246.568 37.6958 248.056 36.22 248.094 33.6216C248.12 31.8376 248.072 30.0536 248.111 28.2707C248.132 27.3378 247.874 26.9133 246.882 26.8986C243.918 26.8556 243.919 26.8148 243.919 23.7541C243.919 20.3172 243.919 20.3172 247.263 20.3172C250.644 20.3172 254.025 20.3528 257.406 20.2983C258.521 20.2805 259.043 20.5666 258.997 21.858C258.838 26.3546 259.215 30.8628 258.759 35.3552C258.296 39.9053 255.905 42.9471 251.874 44.4984C246.67 46.5004 241.376 46.4951 236.164 44.5151C231.299 42.6683 229.146 38.7314 229.08 33.5262C228.992 26.6146 228.955 19.6988 229.084 12.7893C229.221 5.43113 233.221 1.10116 240.27 0.24481C243.27 -0.119951 246.243 -0.110519 249.207 0.50161C255.499 1.80134 258.795 5.8483 258.93 12.5157C258.998 15.8939 259.081 15.3636 256.201 15.3939C253.933 15.4181 251.664 15.3646 249.397 15.4118C248.41 15.4327 247.965 15.0722 248.042 14.0177C248.087 13.3982 248.065 12.7693 248.036 12.1467C247.917 9.61332 246.439 8.18047 243.953 8.17104C241.501 8.16266 239.957 9.6217 239.918 12.1635C239.861 15.8195 239.903 19.4766 239.903 23.1336H239.891Z" fill="white"/>
<path d="M5.6835 29.9339C7.0725 29.9339 8.46347 29.9738 9.85049 29.9217C10.9081 29.8818 11.4275 30.2438 11.3216 31.4178C11.2514 32.1941 11.3048 32.9836 11.3107 33.767C11.3236 35.8164 12.0507 37.0948 13.506 37.6368C15.3046 38.3056 17.4474 37.8782 18.4199 36.6561C19.431 35.3849 19.527 32.9887 18.6247 31.4792C17.9193 30.299 16.8944 29.4482 15.7735 28.7568C13.2092 27.1737 10.5885 25.6867 8.01927 24.1118C6.02581 22.8897 4.10258 21.5551 2.61169 19.6692C-2.19142 13.5904 0.17996 4.04256 7.29707 1.40402C12.3554 -0.472607 17.5632 -0.459313 22.6482 1.39175C26.834 2.91555 28.9561 6.18713 28.9581 10.7739C28.9591 14.5895 29.4962 14.205 25.7151 14.2275C23.7365 14.2387 21.7579 14.204 19.7792 14.2367C18.8305 14.252 18.3606 13.9023 18.4338 12.8673C18.4644 12.4388 18.3665 12.0011 18.3388 11.5675C18.1934 9.31758 17.3623 8.12513 15.7132 7.80911C13.779 7.4389 12.1388 8.11183 11.4641 9.55177C10.6499 11.2903 11.0753 13.2519 12.6166 14.6049C14.2984 16.0806 16.2682 17.09 18.1993 18.1515C20.7646 19.5618 23.2903 21.0161 25.6152 22.8508C29.4379 25.8667 30.3629 29.9595 29.8841 34.5882C29.1767 41.4269 25.7329 44.8641 18.3784 45.7559C14.1303 46.2714 9.87621 46.0863 5.90412 44.0634C2.18925 42.1724 0.38079 38.9857 0.0612422 34.8162C-0.02186 33.7342 0.101804 32.6359 0.0127661 31.5549C-0.0960582 30.2458 0.494561 29.8756 1.64315 29.9217C2.98763 29.9759 4.33606 29.9339 5.6835 29.9339Z" fill="white"/>
<path d="M51.0529 6.38957C49.9258 14.3354 48.8561 21.8577 47.7944 29.3821C47.0876 34.3855 46.3747 39.3879 45.7061 44.3977C45.5513 45.5526 45.1049 46.0287 43.9587 45.9987C41.0521 45.9247 38.1414 45.9354 35.2338 45.9933C34.0776 46.0169 33.8695 45.5462 34.0645 44.4288C36.4976 30.4877 38.9116 16.5433 41.2994 2.59465C41.4975 1.43763 41.9771 0.991546 43.0911 1.00012C48.3956 1.04409 53.7001 1.03766 59.0037 1.00549C60.0433 0.999053 60.4826 1.36149 60.6787 2.5153C63.0474 16.4221 65.4725 30.3172 67.8784 44.2165C68.1569 45.8271 68.0523 45.9644 66.5372 45.9708C63.715 45.9837 60.8908 45.93 58.0686 45.9955C56.9094 46.0223 56.5314 45.514 56.3735 44.3484C54.6965 31.9396 52.9732 19.5383 51.26 7.13483C51.2429 7.00937 51.1936 6.88927 51.0529 6.38957Z" fill="white"/>
<path d="M127.832 29.9664C129.061 29.9664 130.289 29.9644 131.518 29.9664C133.454 29.9706 133.454 29.9716 133.458 32.0502C133.46 32.887 133.437 33.7259 133.475 34.5617C133.559 36.4218 134.722 37.6874 136.485 37.879C139.143 38.169 140.593 37.3601 141.091 35.2888C141.536 33.4432 141.222 31.8172 139.855 30.446C137.777 28.3591 135.172 27.138 132.711 25.6839C130.499 24.3779 128.343 23.0015 126.326 21.3745C120.451 16.6342 121.804 7.09875 125.408 3.79288C126.869 2.45168 128.508 1.50404 130.378 0.974809C134.937 -0.317712 139.514 -0.367424 144.031 1.08148C148.575 2.53868 150.889 5.84455 150.965 10.8199C151.024 14.7659 151.216 14.1227 147.82 14.1693C145.871 14.1952 143.923 14.1807 141.975 14.1714C140.449 14.1631 140.349 14.0492 140.323 12.4211C140.317 12.0244 140.328 11.6267 140.315 11.2311C140.255 9.33788 139.521 8.24835 138.044 7.84548C136.216 7.34628 134.525 7.87965 133.738 9.20324C132.911 10.5931 133.054 12.6603 134.088 13.8917C135.693 15.8015 137.9 16.7937 139.97 17.9785C141.751 18.9976 143.53 20.0126 145.274 21.1031C150.275 24.2267 152.588 28.6045 151.873 34.7948C151.237 40.3014 148.716 43.7264 143.58 45.1681C142.602 45.4425 141.599 45.6714 140.594 45.7802C137.249 46.1395 133.909 46.1323 130.636 45.1929C125.067 43.5959 122.191 39.7318 122.041 33.4743C121.942 29.344 121.743 30.0317 125.291 29.9685C126.138 29.954 126.985 29.9664 127.832 29.9664Z" fill="white"/>
</svg>
