<?xml version="1.0" encoding="UTF-8"?>
<svg id="Capa_2" data-name="Capa 2" xmlns="http://www.w3.org/2000/svg" xmlns:xlink="http://www.w3.org/1999/xlink" viewBox="0 0 440 440">
  <defs>
    <style>
      .cls-1 {
        fill: #fff;
      }

      .cls-2 {
        fill: none;
      }

      .cls-3 {
        opacity: .66;
      }

      .cls-4 {
        clip-path: url(#clippath);
      }
    </style>
    <clipPath id="clippath">
      <circle class="cls-2" cx="220" cy="220" r="220"/>
    </clipPath>
  </defs>
  <g id="Contenido">
    <g class="cls-4">
      <g class="cls-3">
        <g>
          <path class="cls-1" d="M222.84,368.84c-1.36.08-1.46.17-1.62,1.53-.08-1.36-.17-1.46-1.53-1.62,1.36-.08,1.46-.17,1.62-1.53.08,1.36.17,1.46,1.53,1.62Z"/>
          <path class="cls-1" d="M228.41,334.16c1.19.79,1.33.77,2.31-.26-.79,1.19-.77,1.33.26,2.31-1.19-.79-1.33-.77-2.31.26.79-1.19.77-1.33-.26-2.31Z"/>
          <path class="cls-1" d="M260.41,407.24c1.13.49,1.25.45,1.92-.57-.49,1.13-.45,1.25.57,1.92-1.13-.49-1.25-.45-1.92.57.49-1.13.45-1.25-.57-1.92Z"/>
          <path class="cls-1" d="M284.31,402.79c1.48-1.09,1.52-1.27.71-2.91,1.09,1.48,1.27,1.52,2.91.71-1.48,1.09-1.52,1.27-.71,2.91-1.09-1.48-1.27-1.52-2.91-.71Z"/>
          <path class="cls-1" d="M306.55,403.55c-.11-2.03-.25-2.17-2.26-2.41,2.03-.11,2.17-.25,2.41-2.26.11,2.03.25,2.17,2.26,2.41-2.03.11-2.17.25-2.41,2.26Z"/>
          <path class="cls-1" d="M279.01,331.26c.06,2.11.2,2.26,2.29,2.57-2.11.06-2.26.2-2.57,2.29-.06-2.11-.2-2.26-2.29-2.57,2.11-.06,2.26-.2,2.57-2.29Z"/>
          <path class="cls-1" d="M342.29,418.06c-.43-1.41-.55-1.49-2.01-1.31,1.41-.43,1.49-.55,1.31-2.01.43,1.41.55,1.49,2.01,1.31-1.41.43-1.49.55-1.31,2.01Z"/>
          <path class="cls-1" d="M365.28,439.79c1.43-1.57,1.44-1.78.14-3.47,1.57,1.43,1.78,1.44,3.47.14-1.43,1.57-1.44,1.78-.14,3.47-1.57-1.43-1.78-1.44-3.47-.14Z"/>
          <path class="cls-1" d="M344.01,359.6c-.53-.64-.61-.65-1.33-.24.64-.53.65-.61.24-1.33.53.64.61.65,1.33.24-.64.53-.65.61-.24,1.33Z"/>
          <path class="cls-1" d="M382.41,356.72c.81,1.59.97,1.66,2.68,1.14-1.59.81-1.66.97-1.14,2.68-.81-1.59-.97-1.66-2.68-1.14,1.59-.81,1.66-.97,1.14-2.68Z"/>
          <path class="cls-1" d="M438.07,371.14c.15,1.32.25,1.41,1.58,1.49-1.32.15-1.41.25-1.49,1.58-.15-1.32-.25-1.41-1.58-1.49,1.32-.15,1.41-.25,1.49-1.58Z"/>
          <path class="cls-1" d="M403.48,334.09c2,.86,2.2.8,3.4-1.02-.86,2-.8,2.2,1.02,3.4-2-.86-2.2-.8-3.4,1.02.86-2,.8-2.2-1.02-3.4Z"/>
          <path class="cls-1" d="M355.33,295.03c.71,1.26.85,1.31,2.21.83-1.26.71-1.31.85-.83,2.21-.71-1.26-.85-1.31-2.21-.83,1.26-.71,1.31-.85.83-2.21Z"/>
          <path class="cls-1" d="M429.9,314.32c-.05-.87-.11-.94-.98-1.04.87-.05.94-.11,1.04-.98.05.87.11.94.98,1.04-.87.05-.94.11-1.04.98Z"/>
          <path class="cls-1" d="M438.04,308.59c.41,1.5.54,1.59,2.09,1.44-1.5.41-1.59.54-1.44,2.09-.41-1.5-.54-1.59-2.09-1.44,1.5-.41,1.59-.54,1.44-2.09Z"/>
          <path class="cls-1" d="M318.07,263.47c.93-1.43.91-1.6-.34-2.76,1.43.93,1.6.91,2.76-.34-.93,1.43-.91,1.6.34,2.76-1.43-.93-1.6-.91-2.76.34Z"/>
          <path class="cls-1" d="M368.52,259.3c-1.74-1.31-1.95-1.29-3.54.19,1.31-1.74,1.29-1.95-.19-3.54,1.74,1.31,1.95,1.29,3.54-.19-1.31,1.74-1.29,1.95.19,3.54Z"/>
          <path class="cls-1" d="M436.84,207.62c-.97.19-1.03.27-1.01,1.25-.19-.97-.27-1.03-1.25-1.01.97-.19,1.03-.27,1.01-1.25.19.97.27,1.03,1.25,1.01Z"/>
          <path class="cls-1" d="M340.52,209.97c1.01,1.66,1.2,1.72,3,1.01-1.66,1.01-1.72,1.2-1.01,3-1.01-1.66-1.2-1.72-3-1.01,1.66-1.01,1.72-1.2,1.01-3Z"/>
          <path class="cls-1" d="M381.17,183.75c1.57,1.52,1.78,1.54,3.56.26-1.52,1.57-1.54,1.78-.26,3.56-1.57-1.52-1.78-1.54-3.56-.26,1.52-1.57,1.54-1.78.26-3.56Z"/>
          <path class="cls-1" d="M346.32,192.24c-2.34,1.01-2.45,1.24-1.86,3.72-1.01-2.34-1.24-2.45-3.72-1.86,2.34-1.01,2.45-1.24,1.86-3.72,1.01,2.34,1.24,2.45,3.72,1.86Z"/>
          <path class="cls-1" d="M333.45,164.03c1.14-1.27,1.15-1.44.1-2.78,1.27,1.14,1.44,1.15,2.78.1-1.14,1.27-1.15,1.44-.1,2.78-1.27-1.14-1.44-1.15-2.78-.1Z"/>
          <path class="cls-1" d="M327.39,159.87c-.71,1.57-.66,1.74.77,2.7-1.57-.71-1.74-.66-2.7.77.71-1.57.66-1.74-.77-2.7,1.57.71,1.74.66,2.7-.77Z"/>
          <path class="cls-1" d="M425.84,82.62c1.21-.02,1.31-.1,1.5-1.3.02,1.21.1,1.31,1.3,1.5-1.21.02-1.31.1-1.5,1.3-.02-1.21-.1-1.31-1.3-1.5Z"/>
          <path class="cls-1" d="M398.66,72.96c-.21-.73-.27-.77-1.03-.69.73-.21.77-.27.69-1.03.21.73.27.77,1.03.69-.73.21-.77.27-.69,1.03Z"/>
          <path class="cls-1" d="M359.35,74.05c1.33-1.47,1.34-1.67.12-3.24,1.47,1.33,1.67,1.34,3.24.12-1.33,1.47-1.34,1.67-.12,3.24-1.47-1.33-1.67-1.34-3.24-.12Z"/>
          <path class="cls-1" d="M294.87,145.53c-.56-.99-.66-1.03-1.74-.66.99-.56,1.03-.66.66-1.74.56.99.66,1.03,1.74.66-.99.56-1.03.66-.66,1.74Z"/>
          <path class="cls-1" d="M365.33,2.82c.08,2.26.24,2.43,2.48,2.74-2.26.08-2.43.24-2.74,2.48-.08-2.26-.24-2.43-2.48-2.74,2.26-.08,2.43-.24,2.74-2.48Z"/>
          <path class="cls-1" d="M292.03,87.6c.65-2.01.57-2.2-1.3-3.19,2.01.65,2.2.57,3.19-1.3-.65,2.01-.57,2.2,1.3,3.19-2.01-.65-2.2-.57-3.19,1.3Z"/>
          <path class="cls-1" d="M276.26,104.1c.93-1.03.94-1.17.09-2.26,1.03.93,1.17.94,2.26.09-.93,1.03-.94,1.17-.09,2.26-1.03-.93-1.17-.94-2.26-.09Z"/>
          <path class="cls-1" d="M256.75,90.41c-.19,1.32-.12,1.43,1.15,1.84-1.32-.19-1.43-.12-1.84,1.15.19-1.32.12-1.43-1.15-1.84,1.32.19,1.43.12,1.84-1.15Z"/>
          <path class="cls-1" d="M230.77,94.57c.54.74.63.76,1.45.35-.74.54-.76.63-.35,1.45-.54-.74-.63-.76-1.45-.35.74-.54.76-.63.35-1.45Z"/>
          <path class="cls-1" d="M212.84,5.67c-.37.6-.36.67.17,1.15-.6-.37-.67-.36-1.15.17.37-.6.36-.67-.17-1.15.6.37.67.36,1.15-.17Z"/>
          <path class="cls-1" d="M190.99,48.75c-1.76.62-1.85.78-1.55,2.61-.62-1.76-.78-1.85-2.61-1.55,1.76-.62,1.85-.78,1.55-2.61.62,1.76.78,1.85,2.61,1.55Z"/>
          <path class="cls-1" d="M183.05,105.38c-.45.87-.42.97.36,1.55-.87-.45-.97-.42-1.55.36.45-.87.42-.97-.36-1.55.87.45.97.42,1.55-.36Z"/>
          <path class="cls-1" d="M160.54,122.04c.2,1.62.32,1.74,1.95,1.82-1.62.2-1.74.32-1.82,1.95-.2-1.62-.32-1.74-1.95-1.82,1.62-.2,1.74-.32,1.82-1.95Z"/>
          <path class="cls-1" d="M145.52,116.57c-.7-.55-.79-.55-1.45.05.55-.7.55-.79-.05-1.45.7.55.79.55,1.45-.05-.55.7-.55.79.05,1.45Z"/>
          <path class="cls-1" d="M109.05,89.16c1.49,1.69,1.72,1.73,3.64.55-1.69,1.49-1.73,1.72-.55,3.64-1.49-1.69-1.72-1.73-3.64-.55,1.69-1.49,1.73-1.72.55-3.64Z"/>
          <path class="cls-1" d="M55.52,68.35c-.75-.76-.85-.77-1.73-.16.76-.75.77-.85.16-1.73.75.76.85.77,1.73.16-.76.75-.77.85-.16,1.73Z"/>
          <path class="cls-1" d="M79.61,100.17c.38.9.47.95,1.42.73-.9.38-.95.47-.73,1.42-.38-.9-.47-.95-1.42-.73.9-.38.95-.47.73-1.42Z"/>
          <path class="cls-1" d="M131.04,159.08c.74,2.5.95,2.64,3.54,2.35-2.5.74-2.64.95-2.35,3.54-.74-2.5-.95-2.64-3.54-2.35,2.5-.74,2.64-.95,2.35-3.54Z"/>
          <path class="cls-1" d="M42.87,117.2c-.02-.8-.08-.86-.87-.97.8-.02.86-.08.97-.87.02.8.08.86.87.97-.8.02-.86.08-.97.87Z"/>
          <path class="cls-1" d="M89.03,156.45c.93.05,1.01,0,1.22-.92-.05.93,0,1.01.92,1.22-.93-.05-1.01,0-1.22.92.05-.93,0-1.01-.92-1.22Z"/>
          <path class="cls-1" d="M60.21,159.03c-.85.24-.89.32-.8,1.19-.24-.85-.32-.89-1.19-.8.85-.24.89-.32.8-1.19.24.85.32.89,1.19.8Z"/>
          <path class="cls-1" d="M82.83,189.47c-.04-.9-.1-.97-1-1.09.9-.04.97-.1,1.09-1,.04.9.1.97,1,1.09-.9.04-.97.1-1.09,1Z"/>
          <path class="cls-1" d="M8.11,198.36c-.41.65-.4.72.17,1.24-.65-.41-.72-.4-1.24.17.41-.65.4-.72-.17-1.24.65.41.72.4,1.24-.17Z"/>
          <path class="cls-1" d="M38.16,224.4c-1.47-2.14-1.72-2.21-4.08-1.14,2.14-1.47,2.21-1.72,1.14-4.08,1.47,2.14,1.72,2.21,4.08,1.14-2.14,1.47-2.21,1.72-1.14,4.08Z"/>
          <path class="cls-1" d="M85.2,242.49c.8,1.04.92,1.07,2.08.46-1.04.8-1.07.92-.46,2.08-.8-1.04-.92-1.07-2.08-.46,1.04-.8,1.07-.92.46-2.08Z"/>
          <path class="cls-1" d="M64.48,277.96c-.23-1.3-.33-1.38-1.64-1.38,1.3-.23,1.38-.33,1.38-1.64.23,1.3.33,1.38,1.64,1.38-1.3.23-1.38.33-1.38,1.64Z"/>
          <path class="cls-1" d="M65.95,295.76c1.2.41,1.32.37,1.93-.74-.41,1.2-.37,1.32.74,1.93-1.2-.41-1.32-.37-1.93.74.41-1.2.37-1.32-.74-1.93Z"/>
          <path class="cls-1" d="M117.57,287.37c.98.69,1.1.68,1.95-.16-.69.98-.68,1.1.16,1.95-.98-.69-1.1-.68-1.95.16.69-.98.68-1.1-.16-1.95Z"/>
          <path class="cls-1" d="M128.86,290.03c-.67-1.75-.84-1.84-2.68-1.48,1.75-.67,1.84-.84,1.48-2.68.67,1.75.84,1.84,2.68,1.48-1.75.67-1.84.84-1.48,2.68Z"/>
          <path class="cls-1" d="M95.53,348.96c1.5-.68,1.57-.82,1.16-2.41.68,1.5.82,1.57,2.41,1.16-1.5.68-1.57.82-1.16,2.41-.68-1.5-.82-1.57-2.41-1.16Z"/>
          <path class="cls-1" d="M84.16,370.83c.81-.44.84-.52.55-1.39.44.81.52.84,1.39.55-.81.44-.84.52-.55,1.39-.44-.81-.52-.84-1.39-.55Z"/>
          <path class="cls-1" d="M78.55,416.78c-1.44-.08-1.55,0-1.88,1.41.08-1.44,0-1.55-1.41-1.88,1.44.08,1.55,0,1.88-1.41-.08,1.44,0,1.55,1.41,1.88Z"/>
          <path class="cls-1" d="M155.78,325.73c-2.25-1.24-2.5-1.19-4.11.81,1.24-2.25,1.19-2.5-.81-4.11,2.25,1.24,2.5,1.19,4.11-.81-1.24,2.25-1.19,2.5.81,4.11Z"/>
          <path class="cls-1" d="M172.11,315.64c.73-.14.77-.19.77-.93.14.73.19.77.93.77-.73.14-.77.19-.77.93-.14-.73-.19-.77-.93-.77Z"/>
          <path class="cls-1" d="M165.08,343.58c-1.06-.3-1.16-.26-1.64.73.3-1.06.26-1.16-.73-1.64,1.06.3,1.16.26,1.64-.73-.3,1.06-.26,1.16.73,1.64Z"/>
          <path class="cls-1" d="M166.14,408.55c-.7-.95-.82-.98-1.88-.45.95-.7.98-.82.45-1.88.7.95.82.98,1.88.45-.95.7-.98.82-.45,1.88Z"/>
          <path class="cls-1" d="M183.44,425.19c-1.34,1.38-1.35,1.57-.22,3.13-1.38-1.34-1.57-1.35-3.13-.22,1.34-1.38,1.35-1.57.22-3.13,1.38,1.34,1.57,1.35,3.13.22Z"/>
          <path class="cls-1" d="M225.03,434.25c-2.09-.84-2.3-.77-3.49,1.14.84-2.09.77-2.3-1.14-3.49,2.09.84,2.3.77,3.49-1.14-.84,2.09-.77,2.3,1.14,3.49Z"/>
        </g>
      </g>
    </g>
  </g>
</svg>