<?xml version="1.0" encoding="UTF-8"?>
<svg id="Capa_2" data-name="Capa 2" xmlns="http://www.w3.org/2000/svg" viewBox="0 0 609.13 266.04">
  <defs>
    <style>
      .cls-1 {
        fill: #fff;
      }

      .cls-2 {
        opacity: .35;
      }
    </style>
  </defs>
  <g id="Contenido">
    <g class="cls-2">
      <g>
        <path class="cls-1" d="M476.26,139.3c-.69,1.29-.67,1.44.49,2.34-1.29-.69-1.44-.67-2.34.49.69-1.29.67-1.44-.49-2.34,1.29.69,1.44.67,2.34-.49Z"/>
        <path class="cls-1" d="M485.12,127.81c-2.01-1.13-2.23-1.09-3.7.69,1.13-2.01,1.09-2.23-.69-3.7,2.01,1.13,2.23,1.09,3.7-.69-1.13,2.01-1.09,2.23.69,3.7Z"/>
        <path class="cls-1" d="M475.39,139.71c-.62-.4-.7-.39-1.2.16.4-.62.39-.7-.16-1.2.62.4.7.39,1.2-.16-.4.62-.39.7.16,1.2Z"/>
        <path class="cls-1" d="M558.2,188.07c-.99,1.14-.99,1.29-.04,2.46-1.14-.99-1.29-.99-2.46-.04.99-1.14.99-1.29.04-2.46,1.14.99,1.29.99,2.46.04Z"/>
        <path class="cls-1" d="M580.77,194.36c1.05,1.12,1.2,1.14,2.49.3-1.12,1.05-1.14,1.2-.3,2.49-1.05-1.12-1.2-1.14-2.49-.3,1.12-1.05,1.14-1.2.3-2.49Z"/>
        <path class="cls-1" d="M553.09,147.46c1.11-.22,1.18-.31,1.16-1.44.22,1.11.31,1.18,1.44,1.16-1.11.22-1.18.31-1.16,1.44-.22-1.11-.31-1.18-1.44-1.16Z"/>
        <path class="cls-1" d="M605.63,128.37c.75,2.45.96,2.59,3.5,2.28-2.45.75-2.59.96-2.28,3.5-.75-2.45-.96-2.59-3.5-2.28,2.45-.75,2.59-.96,2.28-3.5Z"/>
        <path class="cls-1" d="M472.55,120.26c.67-1.09.65-1.21-.3-2.06,1.09.67,1.21.65,2.06-.3-.67,1.09-.65,1.21.3,2.06-1.09-.67-1.21-.65-2.06.3Z"/>
        <path class="cls-1" d="M461.04,141.57c1.07-.72,1.11-.84.59-2.03.72,1.07.84,1.11,2.03.59-1.07.72-1.11.84-.59,2.03-.72-1.07-.84-1.11-2.03-.59Z"/>
        <path class="cls-1" d="M496.79,107.31c-.92-1.11-1.06-1.13-2.31-.42,1.11-.92,1.13-1.06.42-2.31.92,1.11,1.06,1.13,2.31.42-1.11.92-1.13,1.06-.42,2.31Z"/>
        <path class="cls-1" d="M484.83,138c-.15-1.87-.28-2-2.15-2.18,1.87-.15,2-.28,2.18-2.15.15,1.87.28,2,2.15,2.18-1.87.15-2,.28-2.18,2.15Z"/>
        <path class="cls-1" d="M479.89,131.7c-1.4-1.06-1.57-1.06-2.86.14,1.06-1.4,1.06-1.57-.14-2.86,1.4,1.06,1.57,1.06,2.86-.14-1.06,1.4-1.06,1.57.14,2.86Z"/>
        <path class="cls-1" d="M492.98,12.94c1.65.6,1.81.55,2.69-.97-.6,1.65-.55,1.81.97,2.69-1.65-.6-1.81-.55-2.69.97.6-1.65.55-1.81-.97-2.69Z"/>
        <path class="cls-1" d="M463.17,124.52c1.27-1.39,1.28-1.58.13-3.08,1.39,1.27,1.58,1.28,3.08.13-1.27,1.39-1.28,1.58-.13,3.08-1.39-1.27-1.58-1.28-3.08-.13Z"/>
        <path class="cls-1" d="M455.63,91.75c-1.98-1.42-2.22-1.4-3.96.3,1.42-1.98,1.4-2.22-.3-3.96,1.98,1.42,2.22,1.4,3.96-.3-1.42,1.98-1.4,2.22.3,3.96Z"/>
        <path class="cls-1" d="M438.26,72.06c.39-.78.37-.86-.32-1.38.78.39.86.37,1.38-.32-.39.78-.37.86.32,1.38-.78-.39-.86-.37-1.38.32Z"/>
        <path class="cls-1" d="M426.19,84.88c-.8-.71-.91-.72-1.75-.05.71-.8.72-.91.05-1.75.8.71.91.72,1.75.05-.71.8-.72.91-.05,1.75Z"/>
        <path class="cls-1" d="M414.53,0c.9,1.24,1.05,1.28,2.43.61-1.24.9-1.28,1.05-.61,2.43-.9-1.24-1.05-1.28-2.43-.61,1.24-.9,1.28-1.05.61-2.43Z"/>
        <path class="cls-1" d="M405.5,146.99c1.26-.79,1.31-.93.75-2.3.79,1.26.93,1.31,2.3.75-1.26.79-1.31.93-.75,2.3-.79-1.26-.93-1.31-2.3-.75Z"/>
        <path class="cls-1" d="M379.91,95.51c.5,1.03.6,1.07,1.7.76-1.03.5-1.07.6-.76,1.7-.5-1.03-.6-1.07-1.7-.76,1.03-.5,1.07-.6.76-1.7Z"/>
        <path class="cls-1" d="M354.84,44.01c-.95.3-1.01.38-.88,1.37-.3-.95-.38-1.01-1.37-.88.95-.3,1.01-.38.88-1.37.3.95.38,1.01,1.37.88Z"/>
        <path class="cls-1" d="M336.15,118.7c1.21.29,1.32.23,1.81-.91-.29,1.21-.23,1.32.91,1.81-1.21-.29-1.32-.23-1.81.91.29-1.21.23-1.32-.91-1.81Z"/>
        <path class="cls-1" d="M318.93,88.31c.02-2.43-.13-2.61-2.51-3.06,2.43.02,2.61-.13,3.06-2.51-.02,2.43.13,2.61,2.51,3.06-2.43-.02-2.61.13-3.06,2.51Z"/>
        <path class="cls-1" d="M293.74,78.52c-1.92.29-2.05.43-2.1,2.37-.29-1.92-.43-2.05-2.37-2.1,1.92-.29,2.05-.43,2.1-2.37.29,1.92.43,2.05,2.37,2.1Z"/>
        <path class="cls-1" d="M269.82,58.87c.71.95.82.98,1.88.45-.95.71-.98.82-.45,1.88-.71-.95-.82-.98-1.88-.45.95-.71.98-.82.45-1.88Z"/>
        <path class="cls-1" d="M259.79,127.22c1.01-.17,1.08-.24,1.09-1.27.17,1.01.24,1.08,1.27,1.09-1.01.17-1.08.24-1.09,1.27-.17-1.01-.24-1.08-1.27-1.09Z"/>
        <path class="cls-1" d="M253.65,162.76c1.38,0,1.48-.09,1.72-1.45,0,1.38.09,1.48,1.45,1.72-1.38,0-1.48.09-1.72,1.45,0-1.38-.09-1.48-1.45-1.72Z"/>
        <path class="cls-1" d="M233.82,7.79c.73.59.83.58,1.53-.04-.59.73-.58.83.04,1.53-.73-.59-.83-.58-1.53.04.59-.73.58-.83-.04-1.53Z"/>
        <path class="cls-1" d="M223.2,10.82c1.89-1.33,1.95-1.56.97-3.65,1.33,1.89,1.56,1.95,3.65.97-1.89,1.33-1.95,1.56-.97,3.65-1.33-1.89-1.56-1.95-3.65-.97Z"/>
        <path class="cls-1" d="M203.07,146.72c-2.13-1.08-2.36-1.02-3.79.88,1.08-2.13,1.02-2.36-.88-3.79,2.13,1.08,2.36,1.02,3.79-.88-1.08,2.13-1.02,2.36.88,3.79Z"/>
        <path class="cls-1" d="M172.23,63.17c.61-.67.62-.76.06-1.48.67.61.76.62,1.48.06-.61.67-.62.76-.06,1.48-.67-.61-.76-.62-1.48-.06Z"/>
        <path class="cls-1" d="M154.32,107.36c1.6-1.49,1.63-1.71.43-3.54,1.49,1.6,1.71,1.63,3.54.43-1.6,1.49-1.63,1.71-.43,3.54-1.49-1.6-1.71-1.63-3.54-.43Z"/>
        <path class="cls-1" d="M134.06,10.03c-.2.77-.16.84.56,1.17-.77-.2-.84-.16-1.17.56.2-.77.16-.84-.56-1.17.77.2.84.16,1.17-.56Z"/>
        <path class="cls-1" d="M105.84,30.05c-2.33-.72-2.56-.62-3.66,1.55.72-2.33.62-2.56-1.55-3.66,2.33.72,2.56.62,3.66-1.55-.72,2.33-.62,2.56,1.55,3.66Z"/>
        <path class="cls-1" d="M92.72,87.31c-.79.31-.83.39-.66,1.22-.31-.79-.39-.83-1.22-.66.79-.31.83-.39.66-1.22.31.79.39.83,1.22.66Z"/>
        <path class="cls-1" d="M43.44,67.46c-1.96-.5-2.14-.41-2.98,1.43.5-1.96.41-2.14-1.43-2.98,1.96.5,2.14.41,2.98-1.43-.5,1.96-.41,2.14,1.43,2.98Z"/>
        <path class="cls-1" d="M108.96,113.27c.22,2.13.37,2.28,2.51,2.44-2.13.22-2.28.37-2.44,2.51-.22-2.13-.37-2.28-2.51-2.44,2.13-.22,2.28-.37,2.44-2.51Z"/>
        <path class="cls-1" d="M7.33,128.91c-1.73.61-1.82.76-1.52,2.57-.61-1.73-.76-1.82-2.57-1.52,1.73-.61,1.82-.76,1.52-2.57.61,1.73.76,1.82,2.57,1.52Z"/>
        <path class="cls-1" d="M3.64,156.49c-1.67-.97-1.86-.94-3.1.53.97-1.67.94-1.86-.53-3.1,1.67.97,1.86.94,3.1-.53-.97,1.67-.94,1.86.53,3.1Z"/>
        <path class="cls-1" d="M132.77,121.61c2.09.17,2.26.05,2.79-1.98-.17,2.09-.05,2.26,1.98,2.79-2.09-.17-2.26-.05-2.79,1.98.17-2.09.05-2.26-1.98-2.79Z"/>
        <path class="cls-1" d="M85.21,202.32c-1.12-.32-1.23-.27-1.74.78.32-1.12.27-1.23-.78-1.74,1.12.32,1.23.27,1.74-.78-.32,1.12-.27,1.23.78,1.74Z"/>
        <path class="cls-1" d="M120.64,152.38c2.14-1,2.24-1.22,1.62-3.5,1,2.14,1.22,2.24,3.5,1.62-2.14,1-2.24,1.22-1.62,3.5-1-2.14-1.22-2.24-3.5-1.62Z"/>
        <path class="cls-1" d="M138.34,203.51c.66.16.72.13.99-.48-.16.66-.13.72.48.99-.66-.16-.72-.13-.99.48.16-.66.13-.72-.48-.99Z"/>
        <path class="cls-1" d="M167.98,241.21c-1.07.74-1.11.86-.56,2.05-.74-1.07-.86-1.11-2.05-.56,1.07-.74,1.11-.86.56-2.05.74,1.07.86,1.11,2.05.56Z"/>
        <path class="cls-1" d="M193.17,243.53c.69.47.78.46,1.36-.14-.47.69-.46.78.14,1.36-.69-.47-.78-.46-1.36.14.47-.69.46-.78-.14-1.36Z"/>
        <path class="cls-1" d="M207.85,208.37c-2.01-1.5-2.26-1.49-4.09.24,1.5-2.01,1.49-2.26-.24-4.09,2.01,1.5,2.26,1.49,4.09-.24-1.5,2.01-1.49,2.26.24,4.09Z"/>
        <path class="cls-1" d="M231.84,113.53c-.08,1.01-.03,1.09.95,1.35-1.01-.08-1.09-.03-1.35.95.08-1.01.03-1.09-.95-1.35,1.01.08,1.09.03,1.35-.95Z"/>
        <path class="cls-1" d="M260.57,165.53c-1.01,1.61-.99,1.8.42,3.07-1.61-1.01-1.8-.99-3.07.42,1.01-1.61.99-1.8-.42-3.07,1.61,1.01,1.8.99,3.07-.42Z"/>
        <path class="cls-1" d="M271.35,266.04c-1.76-1.77-2.01-1.79-4.06-.36,1.77-1.76,1.79-2.01.36-4.06,1.76,1.77,2.01,1.79,4.06.36-1.77,1.76-1.79,2.01-.36,4.06Z"/>
        <path class="cls-1" d="M280.74,181.24c-1.96,1.17-2.04,1.38-1.23,3.51-1.17-1.96-1.38-2.04-3.51-1.23,1.96-1.17,2.04-1.38,1.23-3.51,1.17,1.96,1.38,2.04,3.51,1.23Z"/>
        <path class="cls-1" d="M305.92,213.45c.39,1.7.53,1.8,2.27,1.71-1.7.39-1.8.53-1.71,2.27-.39-1.7-.53-1.8-2.27-1.71,1.7-.39,1.8-.53,1.71-2.27Z"/>
        <path class="cls-1" d="M329.07,118.29c.89.31.98.28,1.44-.54-.31.89-.28.98.54,1.44-.89-.31-.98-.28-1.44.54.31-.89.28-.98-.54-1.44Z"/>
        <path class="cls-1" d="M355.09,144.76c.14,2.28.3,2.45,2.57,2.7-2.28.14-2.45.3-2.7,2.57-.14-2.28-.3-2.45-2.57-2.7,2.28-.14,2.45-.3,2.7-2.57Z"/>
        <path class="cls-1" d="M379.53,155.81c-.71,2.08-.63,2.28,1.3,3.34-2.08-.71-2.28-.63-3.34,1.3.71-2.08.63-2.28-1.3-3.34,2.08.71,2.28.63,3.34-1.3Z"/>
        <path class="cls-1" d="M404.56,126.74c-1.93-.51-2.11-.42-2.94,1.4.51-1.93.42-2.11-1.4-2.94,1.93.51,2.11.42,2.94-1.4-.51,1.93-.42,2.11,1.4,2.94Z"/>
        <path class="cls-1" d="M427.28,215.84c-1.9.28-2.03.42-2.08,2.34-.28-1.9-.42-2.03-2.34-2.08,1.9-.28,2.03-.42,2.08-2.34.28,1.9.42,2.03,2.34,2.08Z"/>
        <path class="cls-1" d="M444.21,149.57c.8.17.87.14,1.18-.62-.17.8-.14.87.62,1.18-.8-.17-.87-.14-1.18.62.17-.8.14-.87-.62-1.18Z"/>
        <path class="cls-1" d="M457.62,126.33c1.07-2.1,1.02-2.33-.87-3.75,2.1,1.07,2.33,1.02,3.75-.87-1.07,2.1-1.02,2.33.87,3.75-2.1-1.07-2.33-1.02-3.75.87Z"/>
        <path class="cls-1" d="M478.47,208.74c-.38.64-.37.71.2,1.2-.64-.38-.71-.37-1.2.2.38-.64.37-.71-.2-1.2.64.38.71.37,1.2-.2Z"/>
      </g>
    </g>
  </g>
</svg>