<?xml version="1.0" encoding="UTF-8"?>
<svg xmlns="http://www.w3.org/2000/svg" xmlns:xlink="http://www.w3.org/1999/xlink" viewBox="0 0 1210.89 1008">
  <defs>
    <style>
      .cls-1 {
        letter-spacing: 0em;
      }

      .cls-2 {
        letter-spacing: 0em;
      }

      .cls-3 {
        letter-spacing: 0em;
      }

      .cls-4 {
        letter-spacing: -.05em;
      }

      .cls-5, .cls-6, .cls-7 {
        fill: #fff;
      }

      .cls-8 {
        fill: #9d9cfc;
      }

      .cls-9, .cls-10 {
        fill: #323643;
      }

      .cls-11 {
        fill: url(#Degradado_sin_nombre_389-2);
      }

      .cls-11, .cls-12, .cls-13, .cls-14, .cls-15, .cls-7, .cls-16, .cls-17, .cls-18 {
        mix-blend-mode: multiply;
      }

      .cls-19 {
        letter-spacing: -.03em;
      }

      .cls-20 {
        filter: url(#drop-shadow-1);
      }

      .cls-12 {
        fill: url(#Degradado_sin_nombre_389-4);
      }

      .cls-12, .cls-18 {
        opacity: .23;
      }

      .cls-21 {
        isolation: isolate;
      }

      .cls-13 {
        fill: url(#Degradado_sin_nombre_389-3);
      }

      .cls-13, .cls-16 {
        opacity: .56;
      }

      .cls-22 {
        letter-spacing: 0em;
      }

      .cls-23 {
        letter-spacing: -.03em;
      }

      .cls-14 {
        fill: url(#Degradado_sin_nombre_781-4);
      }

      .cls-14, .cls-15 {
        opacity: .4;
      }

      .cls-10 {
        font-family: Exo-SemiBold, Exo;
        font-size: 36px;
        font-weight: 600;
      }

      .cls-6 {
        font-family: ExoRoman-Bold, Exo;
        font-size: 24px;
        font-variation-settings: 'wght' 700;
        font-weight: 700;
      }

      .cls-15 {
        fill: url(#Degradado_sin_nombre_389-5);
      }

      .cls-24 {
        letter-spacing: 0em;
      }

      .cls-25 {
        letter-spacing: 0em;
      }

      .cls-26 {
        letter-spacing: -.01em;
      }

      .cls-7 {
        opacity: .58;
      }

      .cls-27 {
        fill: #9d9afc;
      }

      .cls-28 {
        stroke: #9d9afc;
      }

      .cls-28, .cls-29 {
        fill: none;
        stroke-miterlimit: 10;
        stroke-width: 60px;
      }

      .cls-16 {
        fill: url(#Degradado_sin_nombre_781-2);
      }

      .cls-17 {
        fill: url(#Degradado_sin_nombre_781);
      }

      .cls-30 {
        fill: #a0d5fd;
      }

      .cls-18 {
        fill: url(#Degradado_sin_nombre_781-3);
      }

      .cls-31 {
        letter-spacing: -.01em;
      }

      .cls-32 {
        fill: url(#Degradado_sin_nombre_389);
      }

      .cls-29 {
        stroke: #a0d5fd;
      }
    </style>
    <filter id="drop-shadow-1" x=".89" y="0" width="1210" height="1008" filterUnits="userSpaceOnUse">
      <feOffset dx="8" dy="8"/>
      <feGaussianBlur result="blur" stdDeviation="7"/>
      <feFlood flood-color="#7171b5" flood-opacity=".48"/>
      <feComposite in2="blur" operator="in"/>
      <feComposite in="SourceGraphic"/>
    </filter>
    <linearGradient id="Degradado_sin_nombre_389" data-name="Degradado sin nombre 389" x1="418.48" y1="499.31" x2="765.06" y2="499.31" gradientUnits="userSpaceOnUse">
      <stop offset=".07" stop-color="#a0d5fd"/>
      <stop offset=".48" stop-color="#9eb8fc"/>
      <stop offset="1" stop-color="#9d98fc"/>
    </linearGradient>
    <linearGradient id="Degradado_sin_nombre_389-2" data-name="Degradado sin nombre 389" x1="874.08" y1="289.33" x2="1184.21" y2="289.33" xlink:href="#Degradado_sin_nombre_389"/>
    <linearGradient id="Degradado_sin_nombre_781" data-name="Degradado sin nombre 781" x1="0" y1="701.84" x2="310.14" y2="701.84" gradientUnits="userSpaceOnUse">
      <stop offset=".07" stop-color="#eec2fd"/>
      <stop offset=".6" stop-color="#bda8fc"/>
      <stop offset="1" stop-color="#9d98fc"/>
    </linearGradient>
    <linearGradient id="Degradado_sin_nombre_389-3" data-name="Degradado sin nombre 389" x1="735.04" y1="148.31" x2="843.4" y2="148.31" xlink:href="#Degradado_sin_nombre_389"/>
    <linearGradient id="Degradado_sin_nombre_389-4" data-name="Degradado sin nombre 389" x1="512.68" y1="156.06" x2="538.33" y2="156.06" xlink:href="#Degradado_sin_nombre_389"/>
    <linearGradient id="Degradado_sin_nombre_389-5" data-name="Degradado sin nombre 389" x1="613.12" y1="134.26" x2="660.24" y2="134.26" xlink:href="#Degradado_sin_nombre_389"/>
    <linearGradient id="Degradado_sin_nombre_781-2" data-name="Degradado sin nombre 781" x1="-2982.24" y1="8172.83" x2="-2873.89" y2="8172.83" gradientTransform="translate(-2597.09 9092.62) rotate(-180)" xlink:href="#Degradado_sin_nombre_781"/>
    <linearGradient id="Degradado_sin_nombre_781-3" data-name="Degradado sin nombre 781" x1="-3234.02" y1="8118.65" x2="-3208.37" y2="8118.65" gradientTransform="translate(-2597.09 9092.62) rotate(-180)" xlink:href="#Degradado_sin_nombre_781"/>
    <linearGradient id="Degradado_sin_nombre_781-4" data-name="Degradado sin nombre 781" x1="-3116.75" y1="8114.45" x2="-3069.63" y2="8114.45" gradientTransform="translate(-2597.09 9092.62) rotate(-180)" xlink:href="#Degradado_sin_nombre_781"/>
  </defs>
  <g class="cls-21">
    <g id="Capa_2" data-name="Capa 2">
      <g id="PropuestaValor_2" data-name="PropuestaValor 2">
        <g>
          <g class="cls-20">
            <path class="cls-7" d="M1052.3,720.27c-16.1,0-31.51,2.96-45.72,8.35h.02c-37.05,9.93-70.82-8.35-70.82-8.35l1.28,1.41-163.37-126.94c-19.25-22.23-13.36-55.06-13.36-55.06l-.02.03c3.1-12.96,4.75-26.49,4.75-40.4,0-95.7-77.58-173.29-173.29-173.29-20.03,0-39.26,3.41-57.16,9.66l.03-.02c-.2.08-.39.14-.59.22-1.08.38-2.15.77-3.22,1.17-58.89,20.66-100.17-9.38-100.17-9.38l.1.1-137.57-107.28.28.17c-24.99-20.92-26.48-52.54-25.84-65.96.23-2.08.42-4.18.55-6.29,0-.07.02-.11.02-.11v.03c.15-2.65.25-5.32.25-8.01,0-70.06-56.8-126.86-126.86-126.86S14.71,70.26,14.71,140.32s56.8,126.86,126.86,126.86c17.29,0,33.78-3.47,48.8-9.74l-.02.02s32.34-14.35,57.94,4.11l148.18,115.55c3.71,3.86,32.94,36.04,26.21,84.19-.79,3.51-1.46,7.06-2.03,10.64,0,.02,0,.04-.01.06v-.02c-1.4,8.9-2.14,18.02-2.14,27.32,0,95.7,77.58,173.29,173.29,173.29,35.28,0,68.09-10.55,95.47-28.66l-.02.02s28.5-14.2,57.29,4.1l162.31,126.12c3.52,4.09,18.93,24.76,16.61,70.8h0c-.05,1.41-.08,2.83-.08,4.26,0,71.22,57.73,128.95,128.95,128.95s128.95-57.73,128.95-128.95-57.73-128.95-128.95-128.95Z"/>
          </g>
          <line class="cls-28" x1="592.11" y1="491.64" x2="1050.28" y2="847.65"/>
          <path class="cls-27" d="M760.33,539.68s-6.61,36.8,17,58.86l-35.61-25.16,18.61-33.7Z"/>
          <path class="cls-27" d="M687.22,643.95s28.95-14.44,57.98,4.52l-30.7-26.83-27.28,22.31Z"/>
          <path class="cls-30" d="M430.65,327.67s43.06,31.35,103.98,7.99l-56.76,41.06-47.23-49.05Z"/>
          <line class="cls-29" x1="141.57" y1="140.32" x2="592.11" y2="491.64"/>
          <g>
            <g>
              <circle class="cls-30" cx="141.57" cy="140.32" r="126.86"/>
              <circle class="cls-5" cx="141.57" cy="140.32" r="101.63"/>
            </g>
            <path class="cls-9" d="M134.09,132.07c-8.32-3.48-13.91-8.74-16.42-16.85-1.57-5.08-1.51-10.13.21-15.17,3.68-10.78,13.57-17.55,25-17.12,10.89.41,20.35,8.26,23.14,19.19,3.01,11.8-2.32,21.69-16.49,30.05,1.7.3,3.06.49,4.4.78,16.3,3.57,28.1,18.09,28.21,34.72.03,4.92.07,9.85-.02,14.77-.14,7.26-5.78,12.96-13.06,13-18.35.08-36.7.09-55.05,0-7.07-.04-12.94-5.78-12.84-12.82.11-8.12-1.08-16.32,1.2-24.36,3.83-13.5,15.8-23.91,29.76-25.7.4-.05.79-.19,1.96-.48Z"/>
          </g>
          <g>
            <g>
              <circle class="cls-8" cx="1052.3" cy="849.22" r="128.95"/>
              <circle class="cls-5" cx="1052.3" cy="849.22" r="103.31"/>
            </g>
            <g>
              <path class="cls-9" d="M1053.85,790.7c24.97-.51,46.37,18.9,49.86,42.39,2.5,16.79-1.9,31.53-13.89,43.72-10.81,10.98-21.76,21.81-32.66,32.7-2.4,2.4-4.37,2.38-6.79-.04-10.81-10.8-21.62-21.59-32.41-32.42-9.04-9.07-14.03-19.97-14.69-32.8-1.31-25.49,15.31-48.11,41.95-52.87,2.98-.53,5.96-.76,8.63-.69ZM1049.99,865.47c1.31.03,2.21-.73,3.07-1.59,9.55-9.56,19.12-19.11,28.67-28.68,2.3-2.3,2.3-3.93,0-6.25-2.95-2.98-5.93-5.92-8.9-8.89-2.44-2.44-4.12-2.46-6.54-.05-4.83,4.82-9.65,9.64-14.47,14.47q-1.78,1.78-3.5.06c-1.91-1.9-3.77-3.84-5.73-5.68-1.78-1.67-3.55-1.62-5.29.09-3.34,3.3-6.66,6.61-9.95,9.96-1.75,1.78-1.77,3.49-.02,5.25,6.66,6.7,13.36,13.37,20.03,20.06.74.74,1.57,1.23,2.64,1.25Z"/>
              <path class="cls-9" d="M1039.89,835.92c.7.1,1.07.55,1.46.94,2,1.98,3.97,4,5.99,5.96,1.87,1.82,3.52,1.82,5.39-.02,5.11-5.07,10.22-10.13,15.25-15.28,1.21-1.24,2.03-1.33,3.15,0,1.01,1.19,2.17,2.26,3.3,3.33.85.8.92,1.48.04,2.35-7.81,7.77-15.59,15.56-23.36,23.36-.8.8-1.4.79-2.19,0-4.63-4.67-9.28-9.3-13.93-13.95-.5-.5-1.04-1.04-.34-1.75,1.54-1.56,3.09-3.1,4.66-4.63.17-.16.43-.23.58-.31Z"/>
            </g>
          </g>
          <g>
            <g>
              <circle class="cls-32" cx="591.77" cy="499.31" r="173.29"/>
              <circle class="cls-5" cx="591.77" cy="499.31" r="138.83"/>
            </g>
            <g>
              <g>
                <path class="cls-9" d="M531.3,551.39l14.89-23.41,3.86,8.3-8.52,15.12h-10.23ZM531.87,509.56h10.51l27.28,41.83h-10.63l-27.17-41.83ZM550.62,524.9l8.64-15.34h10l-14.38,22.45-4.26-7.1Z"/>
                <path class="cls-9" d="M490.78,551.39l18.87-43.48h.45l18.87,43.48h-9.55l-12.05-30.58,5.97-4.09-14.44,34.67h-8.13Z"/>
                <path class="cls-9" d="M571.53,509.56h28.19v7.96h-10.17v33.87h-8.24v-33.87h-9.78v-7.96Z"/>
                <path class="cls-9" d="M607.68,509.56h28.53v7.96h-20.29v25.92h21.08v7.96h-29.33v-41.83Z"/>
                <path class="cls-9" d="M658.2,509.56c2.61,0,4.94.33,6.99.99,2.05.66,3.76,1.61,5.14,2.84,1.38,1.23,2.43,2.71,3.15,4.43.72,1.72,1.08,3.67,1.08,5.83,0,1.71-.26,3.41-.77,5.12-.51,1.7-1.35,3.26-2.5,4.66-1.16,1.4-2.68,2.53-4.58,3.38-1.89.85-4.24,1.28-7.05,1.28h-5.91v13.3h-8.24v-41.83h12.67ZM659.62,530.13c1.25,0,2.29-.21,3.13-.62.83-.42,1.49-.95,1.96-1.59.47-.64.81-1.32,1.02-2.02.21-.7.31-1.35.31-1.96,0-.45-.07-1.03-.2-1.73-.13-.7-.41-1.41-.82-2.13-.42-.72-1.05-1.33-1.9-1.82-.85-.49-2-.74-3.44-.74h-5.91v12.62h5.85ZM667.35,535.25l10.34,16.14h-9.6l-10.57-15.91,9.83-.23Z"/>
                <path class="cls-9" d="M684.52,509.56h8.24v41.83h-8.24v-41.83Z"/>
                <rect class="cls-9" x="620.24" y="526.44" width="13.64" height="7.96"/>
              </g>
              <polygon class="cls-9" points="633.88 451.68 597.51 457.42 591.77 493.79 586.02 457.42 549.66 451.68 586.02 445.93 591.77 409.57 597.51 445.93 633.88 451.68"/>
            </g>
          </g>
          <text class="cls-10" transform="translate(299.49 105.63)"><tspan x="0" y="0">CLIEN</tspan><tspan class="cls-24" x="96.12" y="0">T</tspan><tspan x="116.6" y="0">E O</tspan><tspan x="0" y="41">EMPRESA</tspan></text>
          <text class="cls-10" transform="translate(676.35 837.46)"><tspan x="0" y="0">LLEGA</tspan><tspan class="cls-31" x="108.14" y="0">D</tspan><tspan x="132.12" y="0">A AL</tspan><tspan x="-93.96" y="41">ALM</tspan><tspan class="cls-31" x="-19.04" y="41">AC</tspan><tspan x="25.78" y="41">ÉN U OBRA</tspan></text>
          <path class="cls-30" d="M396.07,376.72s38.52,37.85,24.55,95.28l22.88-62.44-47.43-32.84Z"/>
          <path class="cls-30" d="M190.34,257.47s34.92-15.51,60.9,6.4l-30.9-30.36-30,23.96Z"/>
          <path class="cls-30" d="M268.18,148.31s-7.18,45.2,25.28,72.36l-44.13-27.1,18.85-45.27Z"/>
          <path class="cls-27" d="M906.1,773.38s19.94,19.68,17.32,71.58l19.45-54.27-36.77-17.31Z"/>
          <path class="cls-27" d="M935.78,720.27s33.78,18.28,70.82,8.34l-38.31,27.48-32.52-35.82Z"/>
          <g>
            <circle class="cls-11" cx="1029.15" cy="289.33" r="155.07"/>
            <circle class="cls-17" cx="155.07" cy="701.84" r="155.07"/>
          </g>
          <text class="cls-6" transform="translate(921.65 278.03)"><tspan class="cls-2" x="0" y="0">C</tspan><tspan class="cls-22" x="13.82" y="0">ONEXIÓN DIREC</tspan><tspan class="cls-4" x="190.61" y="0">T</tspan><tspan class="cls-25" x="203.49" y="0">A</tspan><tspan class="cls-31" x="67.85" y="31">C</tspan><tspan class="cls-25" x="81.67" y="31">ON TU</tspan><tspan x="40.58" y="62">PR</tspan><tspan class="cls-26" x="70.54" y="62">O</tspan><tspan class="cls-19" x="86.95" y="62">V</tspan><tspan class="cls-31" x="102.79" y="62">E</tspan><tspan class="cls-1" x="116.88" y="62">EDOR</tspan></text>
          <text class="cls-6" transform="translate(108.22 682.89)"><tspan x="0" y="0">ENVÍO A</tspan><tspan x="-63.18" y="31">C</tspan><tspan class="cls-23" x="-49.12" y="31">U</tspan><tspan x="-33.37" y="31">A</tspan><tspan class="cls-3" x="-16.93" y="31">L</tspan><tspan class="cls-22" x="-4.21" y="31">QUIER REGIÓN</tspan><tspan x="-8.36" y="62">DEL PERÚ</tspan></text>
          <circle class="cls-13" cx="789.22" cy="148.31" r="54.18"/>
          <circle class="cls-12" cx="525.5" cy="156.06" r="12.83"/>
          <circle class="cls-15" cx="636.68" cy="134.26" r="23.56"/>
          <circle class="cls-16" cx="330.98" cy="919.79" r="54.18"/>
          <circle class="cls-18" cx="624.11" cy="973.97" r="12.83"/>
          <circle class="cls-14" cx="496.11" cy="978.18" r="23.56"/>
        </g>
      </g>
    </g>
  </g>
</svg>