<?xml version="1.0" encoding="UTF-8"?>
<svg id="Capa_2" data-name="Capa 2" xmlns="http://www.w3.org/2000/svg" xmlns:xlink="http://www.w3.org/1999/xlink" viewBox="0 0 1557.88 1112.18">
  <defs>
    <style>
      .cls-1 {
        letter-spacing: 0em;
      }

      .cls-2 {
        letter-spacing: 0em;
      }

      .cls-3 {
        font-size: 24px;
      }

      .cls-3, .cls-4 {
        fill: #090c16;
        font-family: Exo-Medium, Exo;
        font-weight: 500;
      }

      .cls-5 {
        letter-spacing: 0em;
      }

      .cls-6 {
        fill: url(#Degradado_sin_nombre_4800);
      }

      .cls-7 {
        letter-spacing: 0em;
      }

      .cls-8 {
        letter-spacing: -.03em;
      }

      .cls-9 {
        letter-spacing: -.05em;
      }

      .cls-10 {
        fill: #fff;
      }

      .cls-11 {
        letter-spacing: -.05em;
      }

      .cls-12 {
        fill: #323643;
      }

      .cls-4 {
        font-size: 23.42px;
      }

      .cls-13 {
        letter-spacing: 0em;
      }

      .cls-14 {
        letter-spacing: -.01em;
      }

      .cls-15 {
        fill: none;
        stroke: #fff;
        stroke-miterlimit: 10;
        stroke-width: 7px;
      }

      .cls-16 {
        letter-spacing: -.01em;
      }

      .cls-17 {
        letter-spacing: -.05em;
      }

      .cls-18 {
        letter-spacing: 0em;
      }
    </style>
    <linearGradient id="Degradado_sin_nombre_4800" data-name="Degradado sin nombre 4800" x1="757.89" y1="47.61" x2="796.7" y2="1062.76" gradientUnits="userSpaceOnUse">
      <stop offset=".04" stop-color="#a0d5fd"/>
      <stop offset=".43" stop-color="#9eb4fc"/>
      <stop offset=".77" stop-color="#9d9ffc"/>
      <stop offset="1" stop-color="#9d98fc"/>
    </linearGradient>
  </defs>
  <g id="Contenido">
    <g>
      <path class="cls-6" d="M1475.24,431.41c-.24-.06-.49-.12-.74-.18-18.03-4.22-32.9-16.91-40.37-33.86l-48.16-109.3c-6.14-13.94-4.66-29.99,3.69-42.74,10.96-16.73,17.16-36.85,16.64-58.42-1.27-53.02-46.79-98.55-99.81-99.83-31.36-.75-59.66,12.68-78.93,34.32-11.74,13.19-29.67,19.01-46.8,14.7l-145.5-36.6c-14.42-3.63-26.13-14.32-30.69-28.48C991.3,29.86,952.64,0,907.13,0c-50.83,0-93.13,37.25-101.03,85.89,0,.05-.02.11-.03.16-1.71,10.89-8.34,20.4-18.03,25.65l-100,54.12c-15.56,8.42-34.73,6.55-48.23-4.88-17.84-15.11-40.9-24.23-66.06-24.23-30.25,0-57.48,13.19-76.23,34.13-13.79,15.4-35.91,20.2-54.78,11.75l-79.93-35.8c-9.94-4.45-16.13-14.4-16.06-25.29,0-1.7-.02-3.4-.1-5.12-2.25-52.17-47.93-96.77-100.14-97.83-58.65-1.19-106.52,47.24-104.4,106.09,1.92,53.34,45.16,96.59,98.49,98.52,26.24.95,50.41-8.03,69.03-23.48,13.14-10.9,31.34-13.36,46.93-6.38l85.91,38.48c15.94,7.14,28.29,20.66,33.43,37.35,12.88,41.82,51.89,72.3,97.88,72.28,54.8-.02,100.27-43.85,102.24-98.62.01-.3.02-.59.03-.89.32-11.77,6.8-22.51,17.16-28.11l98.48-53.3c12.27-6.64,27.62-3.84,36.5,6.92,18.79,22.75,47.19,37.28,78.93,37.28,34.36,0,64.82-17.02,83.39-43.07,9.84-13.8,27.12-20.16,43.56-16.03l148.29,37.31c10.75,2.71,18.88,11.59,20.52,22.55.01.09.03.18.04.26,7.84,48.71,50.17,86.03,101.05,86.03,2.17,0,4.33-.07,6.46-.2,16.26-1.02,31.45,8.09,38.02,23l41.99,95.3c6.85,15.55,2.83,33.64-9.72,45.1-11.57,10.56-20.72,23.74-26.49,38.59-7.02,18.06-21.7,32.06-40.14,38.02l-103.46,33.46c-15.83,5.12-33.33,1.44-45.4-10-18.35-17.4-43.13-28.08-70.35-28.08s-52.58,10.94-71,28.7c-8.67,8.36-22,9.5-31.93,2.67l-99.53-68.43c-9.24-6.35-15.42-16.33-16.75-27.47-.02-.18-.04-.36-.07-.53-6.87-49.81-49.72-88.3-101.39-88.3s-92.07,36.32-100.71,84.07c-.19,1.07-.36,2.55-.51,4.28-1.36,15.7-9.32,30.09-21.85,39.65l-100.51,76.73c-12.34,9.42-29.55,8.77-41.28-1.4-17.96-15.56-41.37-24.99-66.94-24.99s-50.19,9.92-68.32,26.21c-15.09,13.56-37.36,15.43-54.47,4.53l-92.48-58.92c-12.62-8.04-21.77-20.6-25.24-35.15-10.93-45.74-52.65-79.66-101.94-78.53C45.24,411.29.83,456.08.01,510.81c-.46,31.03,12.96,58.99,34.44,78.07,13.3,11.82,23.58,26.65,30.6,43l83.3,194.03c9.94,23.15,9.92,49.19.72,72.64-4.3,10.95-6.76,22.81-7,35.21-1.11,56.13,43.8,103.08,99.93,104.37,40.23.93,75.41-21.49,92.94-54.63,10.28-19.43,28.15-33.72,49.48-39.04l213.76-53.32c25.4-6.34,52.37,1.68,69.82,21.2,18.75,20.98,46.01,34.2,76.3,34.2,32.12,0,60.83-14.87,79.6-38.09,16.04-19.83,42.37-28.15,66.73-20.61l195.36,60.39c24.81,7.67,45.68,25,57.09,48.33,16.65,34.04,51.63,57.53,92,57.53,56.94,0,103.17-46.74,102.34-103.87-.8-54.64-45.06-99.41-99.69-100.79-32.02-.81-60.86,13.16-80.18,35.58-15.9,18.44-41.37,25.46-64.63,18.27l-202.61-62.64c-23.81-7.36-44.17-23.43-56.11-45.31-17.37-31.83-51.16-53.48-89.9-53.48-42.83,0-79.6,26.45-94.84,63.87-7.45,18.3-23.09,32.02-42.27,36.81l-211.82,52.83c-26.24,6.54-54.18-2.36-71.09-23.46-18.77-23.42-47.6-38.44-79.88-38.44-.72,0-1.43,0-2.15.02-25.1.52-47.92-14.53-57.82-37.6l-61.66-143.61c-7.56-17.61.8-37.95,18.51-45.26,15.7-6.48,29.45-16.76,40.1-29.7,9.1-11.05,25.13-13.37,37.21-5.68l93.65,59.66c15.56,9.91,26.31,25.78,29.96,43.87.01.07.03.14.04.21,9.76,46.34,50.96,81.24,100.16,81.24,54.51,0,99.21-42.84,102.19-96.62h0c.65-13.48,7.22-25.99,17.95-34.18l95.72-73.07c14.82-11.32,35.56-10.87,49.77,1.2,17.85,15.17,40.96,24.34,66.17,24.34,28.68,0,54.65-11.86,73.25-30.93,11.41-11.7,29.63-13.41,43.1-4.15l82.45,56.69c11.69,8.04,18.88,21.06,19.68,35.22.02.3.04.6.05.9,3.4,52.17,46.19,93.71,98.44,95.55,54.14,1.91,99.43-38.47,105.38-90.62,0-.04,0-.08.01-.12,1.58-15.04,11.78-27.78,26.17-32.44l100.21-32.4c16.08-5.2,33.72.51,43.6,14.22,19.16,26.61,50.76,43.68,86.21,42.63,53.19-1.59,96.68-44.33,99.13-97.49,2.29-49.7-31.08-92.17-76.67-103.93ZM245.95,202.22c-46.15.86-83.74-36.73-82.88-82.88.81-43.48,36.31-78.99,79.79-79.79,46.15-.86,83.73,36.73,82.88,82.88-.81,43.49-36.3,78.98-79.79,79.79ZM655.08,240.74c-.88,43.64-36.68,79.13-80.32,79.66-39.98.49-73.42-27.88-80.82-65.58l14.04,6.29,18.4-41.07-27.69-12.4c12.29-29.33,41.26-49.93,75.06-49.93,27.32,0,51.47,13.48,66.22,34.13l-6.17,3.34,19.65,27.51c1.19,5.82,1.76,11.86,1.63,18.05ZM906.6,183.7c-32.04-.2-59.69-18.93-72.77-46.01l25.28-13.68-26.16-36.62-6.36,3.44c5.6-39.47,39.51-69.83,80.52-69.83,45.58,0,82.41,37.49,81.33,83.31-1.04,44.11-37.73,79.66-81.85,79.39ZM1324.73,260.7l2.89,6.55c-7.48,2.27-15.42,3.5-23.64,3.5-45.58,0-82.41-37.49-81.33-83.31,1.02-43.15,36.21-78.35,79.37-79.36,45.82-1.08,83.31,35.75,83.31,81.33,0,20.45-7.57,39.13-20.03,53.42l-40.56,17.87ZM1189.22,980.14l13.29-42.99-43.77-13.53c11.45-31.07,41.31-53.22,76.35-53.22,45.58,0,82.41,37.49,81.33,83.32-1.05,44.13-37.78,79.68-81.91,79.37-38.46-.27-70.55-27.24-78.73-63.29l33.44,10.34ZM744.3,762.84c44.93,0,81.35,36.42,81.35,81.35l-6.65,21.5,3.45,1.07c-9.67,33.54-40.32,58.19-76.83,58.78-44.42.71-81.6-34.96-82.65-79.36-1.09-45.83,35.74-83.32,81.33-83.32ZM176.39,891.2l18.99,44.23,41.35-17.75-24.33-56.67c9.82-4.21,20.64-6.55,32.01-6.55,37.19,0,68.52,24.96,78.23,59.04l-27.16,6.77,10.89,43.66,15.73-3.92c-10.45,33.58-42.07,57.83-79.25,57.13-43.45-.81-78.92-36.25-79.78-79.69-.34-17.1,4.62-33.02,13.32-46.25ZM163.33,483.07l-24.18,37.95,37.7,24.02c-12.58,28.65-41.19,48.67-74.49,48.68-1.61,0-3.2-.06-4.78-.15l-13.35-31.09-32.25,13.85c-18.52-14.58-30.53-37.06-30.96-62.54-.77-45.58,35.94-82.76,81.34-82.76,38.9,0,71.41,27.32,79.43,63.81l-18.46-11.76ZM440.31,735.59c-43.92-1.11-79.34-37.57-79.25-81.5.02-8.43,1.32-16.56,3.72-24.2l8.37-13.13-2.19-1.4c13.8-25.28,40.62-42.44,71.45-42.44,28.26,0,53.15,14.42,67.73,36.3l-21.03,16.06,27.31,35.77,7.31-5.58c-.65,45.07-37.93,81.28-83.42,80.13ZM855.47,480.05l-18.22,26.5,9.38,6.45c-13.48,26.29-40.83,44.29-72.41,44.29-29.71,0-55.68-15.93-69.88-39.71l15.31-11.69-26.62-34.87c2.54-42.64,37.91-76.44,81.19-76.44s81.35,36.42,81.35,81.35c0,1.38-.04,2.75-.1,4.12ZM1094.89,710.62c-44.93,0-81.35-36.42-81.35-81.35,0-.5.03-1,.04-1.5l12.56,8.63,25.5-37.08-23.67-16.28c14.68-21.22,39.18-35.13,66.93-35.13s50.82,13.11,65.63,33.29l-28.6,9.25,13.84,42.82,30.25-9.78c.13,1.91.23,3.83.23,5.77,0,44.93-36.42,81.35-81.35,81.35ZM1450.82,611.86c-35.18.49-65.31-21.37-77.14-52.28l24.56-7.94-13.85-42.82-14.27,4.61c5.11-23.9,20.71-43.9,41.75-54.96l4.85,11,41.18-18.14-.8-1.81c42.03,3.81,74.84,39.58,73.89,82.82-.96,43.53-36.64,78.91-80.18,79.51Z"/>
      <g>
        <text class="cls-3" transform="translate(1209.05 36.93)"><tspan class="cls-8" x="0" y="0">V</tspan><tspan class="cls-2" x="15.67" y="0">ERIFIC</tspan><tspan class="cls-16" x="84.12" y="0">A</tspan><tspan x="100.15" y="0">CIÓN DE</tspan><tspan x="16.25" y="30.11">PR</tspan><tspan class="cls-14" x="45.6" y="30.11">O</tspan><tspan class="cls-8" x="61.8" y="30.11">V</tspan><tspan x="77.47" y="30.11">EDORES </tspan></text>
        <circle class="cls-10" cx="1303.99" cy="189.4" r="81.35"/>
        <g>
          <path class="cls-12" d="M1300.01,200.76c-4.4-1.84-7.36-4.62-8.69-8.92-.83-2.69-.8-5.36.11-8.02,1.95-5.7,7.18-9.28,13.23-9.06,5.76.22,10.77,4.37,12.24,10.15,1.59,6.24-1.23,11.47-8.72,15.9.9.16,1.62.26,2.33.41,8.62,1.89,14.87,9.57,14.93,18.37.02,2.6.04,5.21-.01,7.81-.07,3.84-3.06,6.86-6.91,6.88-9.71.04-19.41.05-29.12,0-3.74-.02-6.84-3.06-6.79-6.78.06-4.3-.57-8.63.64-12.89,2.03-7.14,8.36-12.65,15.74-13.59.21-.03.42-.1,1.03-.25Z"/>
          <path class="cls-12" d="M1272.06,198.46c-6.05-3.34-8.43-7.91-6.99-13.27,1.36-5.08,5.75-8.15,11.35-7.96,4.55.15,8.82,3.81,9.78,8.4,1.13,5.4-1.42,10.03-7.21,12.81,2.47.24,4.63.81,6.67,1.85,1.28.65,1.54,1.27.36,2.33-5.59,4.96-7.94,11.29-7.84,18.65.02,1.48-.02,2.96,0,4.43.01,1.02-.38,1.52-1.46,1.51-4.61-.03-9.23.04-13.84-.05-2.67-.06-5.55-2.14-6.01-4.76-1.28-7.26-.82-14.19,5.1-19.63,2.83-2.6,6.19-3.99,10.1-4.3Z"/>
          <path class="cls-12" d="M1329.11,198.46c-5.9-2.77-8.49-7.52-7.31-12.91,1.05-4.82,5.39-8.31,10.38-8.34,5.3-.04,9.75,3.25,10.78,8.24,1.05,5.05-.72,10.17-7.19,12.99,3.98.29,7.27,1.69,10.08,4.16,3.78,3.32,5.59,7.57,5.75,12.53.07,2.06.19,4.14-.2,6.2-.65,3.41-3.34,5.8-6.81,5.84-4.32.05-8.64-.02-12.96.04-1.42.02-1.86-.55-1.84-1.89.05-3.37.21-6.76-.49-10.09-1.03-4.89-3.35-9.07-7.08-12.44-1.52-1.37-1.47-1.7.31-2.62,1.96-1.01,4.05-1.57,6.58-1.73Z"/>
          <path class="cls-12" d="M1293.21,157.83c.84-2.66-.69-4.99-2.69-7.15-3.49-3.78-2.85-6.65,2.39-7.62,3.16-.58,5.58-2.05,6.99-5.03.35-.74.91-1.38,1.42-2.04,1.46-1.9,4.1-2.1,5.22-.02,2.4,4.44,5.91,6.88,10.82,7.83,2.27.44,2.88,2.83,1.62,4.83-.47.75-.97,1.51-1.6,2.12-2.29,2.24-3.12,4.9-2.63,8.04.09.58.03,1.18.03,1.77,0,3.5-1.78,4.9-5.01,3.47-3.79-1.68-7.28-1.96-11.16-.16-3.73,1.73-5.42.34-5.4-3.78,0-.59,0-1.18,0-2.28Z"/>
          <path class="cls-12" d="M1260.53,163.79c.57-2.06-.38-3.99-2.01-5.72-.52-.56-.97-1.2-1.39-1.83-1.25-1.88-.77-3.95,1.37-4.35,4.17-.77,6.97-2.98,9-6.61.9-1.6,3.3-1.68,4.19-.08,2.11,3.75,5.06,5.96,9.32,6.74,1.73.31,2.26,2.26,1.44,3.88-.18.37-.4.74-.7,1.02-2.62,2.47-3.27,5.47-2.95,8.99.29,3.17-1.5,4.31-4.47,3.24-.28-.1-.56-.19-.83-.32-2.53-1.3-4.96-1.18-7.62-.09-4.3,1.77-5.48.79-5.36-3.95,0-.18,0-.35,0-.92Z"/>
          <path class="cls-12" d="M1329.12,163.65c.56-2.05-.34-3.95-1.97-5.6-.29-.29-.51-.65-.75-.99-2.14-2.96-1.58-4.88,1.98-5.6,3.2-.65,5.34-2.26,6.99-5.04,1.9-3.2,3.96-3.21,5.86-.08,1.7,2.8,3.85,4.51,7.13,5.16,3.5.7,4.05,2.66,1.92,5.49-.11.14-.19.3-.32.42-2.41,2.2-2.8,4.97-2.53,8.06.31,3.53-1.38,4.83-4.59,3.46-2.93-1.25-5.62-1.53-8.63-.16-3.65,1.65-5.15.47-5.1-3.56,0-.41,0-.83,0-1.57Z"/>
        </g>
      </g>
      <g>
        <text class="cls-3" transform="translate(9.37 111.7)"><tspan x="0" y="0">CLIEN</tspan><tspan class="cls-16" x="63.38" y="0">T</tspan><tspan x="76.9" y="0">E O</tspan><tspan x="5.69" y="30.11">EMPRESA</tspan></text>
        <circle class="cls-10" cx="244.4" cy="120.88" r="81.35"/>
        <path class="cls-12" d="M238.41,114.57c-6.66-2.79-11.14-7-13.14-13.49-1.25-4.06-1.21-8.11.17-12.14,2.95-8.63,10.86-14.05,20.01-13.7,8.72.33,16.29,6.61,18.52,15.36,2.41,9.44-1.86,17.36-13.2,24.05,1.36.24,2.45.39,3.52.62,13.04,2.86,22.49,14.48,22.58,27.79.03,3.94.06,7.88-.02,11.82-.11,5.81-4.63,10.38-10.46,10.4-14.69.06-29.37.07-44.06,0-5.66-.03-10.36-4.62-10.28-10.26.09-6.5-.87-13.06.96-19.5,3.07-10.8,12.65-19.13,23.82-20.57.32-.04.63-.15,1.57-.39Z"/>
      </g>
      <text class="cls-4" transform="translate(37.29 360.06)"><tspan x="0" y="0">GESTIÓN DE</tspan><tspan x="24.36" y="30.11">ENVÍOS</tspan></text>
      <circle class="cls-10" cx="102.35" cy="512.17" r="81.35"/>
      <g>
        <text class="cls-3" transform="translate(826.72 242.39)"><tspan x="0" y="0">BÚSQUE</tspan><tspan class="cls-5" x="91.94" y="0">D</tspan><tspan class="cls-13" x="107.85" y="0">A DE</tspan><tspan x="4.93" y="30.11">PR</tspan><tspan class="cls-14" x="34.28" y="30.11">O</tspan><tspan class="cls-8" x="50.48" y="30.11">V</tspan><tspan x="66.16" y="30.11">EDORES</tspan></text>
        <circle class="cls-10" cx="906.97" cy="102.45" r="81.35"/>
        <g>
          <path class="cls-12" d="M859.96,94.1c-.32-19.01,13.46-36.33,32.53-40.47,20.92-4.54,42.17,7.73,48.33,28.24,3.68,12.26,2.06,23.93-4.89,34.76-.64.99-.42,1.41.44,1.97,4.18,2.72,8.37,5.43,12.25,8.58,1.45,1.18,2.78,2.52,4.16,3.79,3.16,2.93,2.82,7.99.78,10.89-1.23,1.75-2.74,3.24-4.49,4.48-2.94,2.09-7.94,2.13-10.7-.57-3.78-3.69-6.75-7.98-9.73-12.29-1.01-1.46-2-2.94-2.94-4.45-.49-.79-.9-.96-1.74-.39-5.2,3.54-10.97,5.67-17.18,6.43-11.86,1.45-22.6-1.46-31.81-9.13-9.91-8.25-14.85-18.96-15.01-31.86ZM901.37,63.86c-16.71-.03-30.22,13.36-30.29,30.02-.07,16.78,13.33,30.34,30.06,30.39,16.81.06,30.31-13.33,30.35-30.08.04-16.79-13.38-30.3-30.12-30.33Z"/>
          <path class="cls-12" d="M901.49,100.87c4.05-.44,8.09-.08,12.13.03,4.37.12,7.57,3.25,7.87,7.37.06.84-.14,1.52-.69,2.17-4.53,5.36-10.31,8.35-17.27,8.96-8.25.72-15.15-2.17-20.95-8.01-1.77-1.78-1.75-3.63-.87-5.66,1.39-3.2,4-4.72,7.36-4.82,4.14-.12,8.28-.03,12.43-.03Z"/>
          <path class="cls-12" d="M889.05,85.78c0-6.83,5.4-12.22,12.22-12.22,6.9,0,12.3,5.42,12.28,12.32-.02,6.78-5.49,12.19-12.31,12.17-6.78-.01-12.2-5.47-12.19-12.28Z"/>
        </g>
      </g>
      <text class="cls-3" transform="translate(181.15 1075.59)"><tspan x="0" y="0">CARGA DEL</tspan><tspan x="1.99" y="30.11">PRODUC</tspan><tspan class="cls-1" x="94.32" y="30.11">T</tspan><tspan class="cls-2" x="107.95" y="30.11">O</tspan></text>
      <circle class="cls-10" cx="244.4" cy="935.81" r="81.35"/>
      <text class="cls-4" transform="translate(1376.45 670.61)"><tspan x="0" y="0">NEGOCI</tspan><tspan class="cls-18" x="80.9" y="0">A</tspan><tspan x="96.54" y="0">CIÓN</tspan><tspan x="10.4" y="30.11">DE PRECIOS</tspan></text>
      <circle class="cls-10" cx="1449.67" cy="530.52" r="81.35"/>
      <text class="cls-3" transform="translate(1014.02 476.82)"><tspan class="cls-5" x="0" y="0">C</tspan><tspan x="13.73" y="0">ONTR</tspan><tspan class="cls-17" x="75.31" y="0">A</tspan><tspan class="cls-7" x="90.38" y="0">T</tspan><tspan x="104.02" y="0">O DE</tspan><tspan class="cls-8" x="41.04" y="30.11">V</tspan><tspan class="cls-2" x="56.71" y="30.11">EN</tspan><tspan class="cls-17" x="87.41" y="30.11">T</tspan><tspan x="99.96" y="30.11">A</tspan></text>
      <circle class="cls-10" cx="1094.89" cy="629.27" r="81.35"/>
      <g>
        <text class="cls-3" transform="translate(648.01 984.32)"><tspan x="0" y="0">TRANSPOR</tspan><tspan class="cls-5" x="121.17" y="0">T</tspan><tspan class="cls-13" x="134.69" y="0">E DEL</tspan><tspan x="37.91" y="30.11">PRODUC</tspan><tspan class="cls-7" x="130.23" y="30.11">T</tspan><tspan x="143.87" y="30.11">O</tspan></text>
        <circle class="cls-10" cx="744.3" cy="844.19" r="81.35"/>
        <g>
          <path class="cls-12" d="M723.95,809.51c10.6,0,21.2,0,31.81,0,3.61,0,4.41.8,4.41,4.45,0,18.38,0,36.77,0,55.15,0,3.67-.81,4.48-4.39,4.48-8.76,0-17.53,0-26.29,0-3.15,0-3.6-.37-4.38-3.47-1.61-6.37-6.47-9.94-13.07-10-6.57-.05-11.48,4.14-12.84,10.47-.48,2.22-1.27,2.92-3.49,2.99-1.35.04-2.7.03-4.04.01-2.97-.03-3.71-.77-3.71-3.69,0-15.75,0-31.5,0-47.25,0-3.06,0-6.13,0-9.19,0-3.29.66-3.94,4.03-3.94,10.66,0,21.33,0,31.99,0Z"/>
          <path class="cls-12" d="M764.2,847.94c0-6.98-.01-13.96,0-20.94,0-3.71.88-4.57,4.53-4.58,4.72,0,9.43.03,14.15-.02,1.66-.02,2.93.53,4,1.82,5.96,7.15,11.94,14.27,17.93,21.4.74.88,1.1,1.85,1.09,3.02-.03,7.23,0,14.45-.02,21.68,0,2.16-.74,3.02-2.66,3.24-3.01.36-4.4-.36-4.93-2.53-1.66-6.9-5.68-10.6-12.69-10.87-5.93-.23-11.71,2.76-13.5,10.34-.64,2.7-1.65,3.35-4.84,3.07-2.2-.2-3.05-1.22-3.06-3.95-.03-7.23,0-14.45-.01-21.68ZM781.64,843.64c3.06,0,6.12,0,9.18,0,1.13,0,2.25-.04,2.82-1.26.57-1.23-.15-2.1-.87-2.96-2.86-3.43-5.74-6.84-8.57-10.29-.85-1.04-1.9-1.47-3.2-1.46-2.75.01-5.51-.02-8.26,0-2.4.02-3.2.78-3.24,3.19-.05,3.24-.04,6.48,0,9.73.03,2.3.77,3.01,3.16,3.03,3,.03,5.99,0,8.99,0Z"/>
          <path class="cls-12" d="M722.37,874.29c0,5.68-4.6,10.28-10.25,10.26-5.51-.02-10.12-4.67-10.15-10.22-.03-5.72,4.48-10.16,10.29-10.15,5.69.01,10.12,4.44,10.12,10.1ZM712.16,871.72c-1.47.04-2.7,1.31-2.63,2.73.06,1.3,1.39,2.57,2.67,2.55,1.41-.02,2.67-1.36,2.6-2.78-.08-1.42-1.27-2.55-2.64-2.51Z"/>
          <path class="cls-12" d="M785.18,864.19c5.7,0,10.29,4.62,10.24,10.28-.05,5.44-4.87,10.13-10.37,10.08-5.63-.06-10.04-4.58-10.02-10.3.01-5.71,4.4-10.07,10.15-10.06ZM782.61,874.32c.02,1.42,1.18,2.69,2.46,2.69,1.27,0,2.76-1.44,2.78-2.69.03-1.37-1.32-2.63-2.76-2.59-1.45.04-2.5,1.13-2.48,2.59Z"/>
        </g>
      </g>
      <g>
        <text class="cls-3" transform="translate(510.96 86.62)"><tspan x="0" y="0">LIS</tspan><tspan class="cls-9" x="32.69" y="0">T</tspan><tspan x="45.24" y="0">A DE</tspan><tspan x="-49.78" y="30.11">REQUERIMIEN</tspan><tspan class="cls-1" x="103.82" y="30.11">T</tspan><tspan x="117.46" y="30.11">OS</tspan></text>
        <circle class="cls-10" cx="573.75" cy="239.79" r="81.35"/>
        <g>
          <path class="cls-12" d="M532.6,240.29c0-13.26.14-26.53-.06-39.79-.09-6.12,3.91-11.89,12.98-10.79.82.1,1.18.54,1.19,1.32.02.84.09,1.68.02,2.51-.42,4.89,3.44,8.82,8.76,8.75,5.18-.06,10.37-.01,15.55-.01,6.74,0,13.49,0,20.23,0,5.9-.01,9.17-3.32,9.22-9.23.03-3.32-.64-3.24,3.32-3.39,6.2-.23,10.73,4.38,10.69,10.58-.16,26.75-.09,53.5-.11,80.25,0,4.83-2.15,8.16-6.19,9.76-1.11.44-2.26.56-3.44.56-20.9,0-41.8,0-62.69-.01-5.44,0-9.48-4.05-9.49-9.54-.03-13.65-.01-27.31-.01-40.96h.03ZM585.69,263.33c-3.56,0-7.13-.02-10.69,0-1.99.01-3.22,1.09-3.31,2.79-.08,1.66,1.15,2.98,3.12,2.99,7.24.06,14.48.05,21.72,0,1.98-.01,3.25-1.27,3.23-2.9-.02-1.72-1.33-2.88-3.38-2.89-3.56-.02-7.13,0-10.69,0ZM585.53,221.53c-3.45,0-6.9-.01-10.35,0-2.19.01-3.51,1.14-3.5,2.93.01,1.71,1.3,2.86,3.42,2.87,7.06.03,14.13.04,21.19,0,2.1-.01,3.3-1.19,3.27-2.98-.03-1.82-1.19-2.81-3.37-2.82-3.56-.02-7.12,0-10.68,0ZM585.65,248.2h0c3.62,0,7.23.04,10.85-.02,2.42-.04,3.79-2.04,2.87-4.07-.67-1.49-2.04-1.78-3.49-1.79-6.84-.01-13.68-.02-20.53,0-2.21,0-3.71,1.31-3.66,3.04.06,1.79,1.32,2.82,3.61,2.83,3.45.02,6.9,0,10.35,0ZM553.94,273.84c1.04.02,1.81-.55,2.48-1.21,2.97-2.93,5.94-5.86,8.85-8.85,1.38-1.42,1.37-3.16.18-4.33-1.17-1.15-2.91-1.05-4.31.29-1.6,1.54-3.16,3.13-4.73,4.71q-2.1,2.11-4.44.38c-.89-.65-1.83-1.04-2.95-.47-1.09.55-1.71,1.41-1.77,2.62-.09,1.72,4.93,6.83,6.69,6.85ZM566.31,240.57c-.13-1.05-.48-2.06-1.6-2.49-1.22-.47-2.44-.37-3.43.58-1.92,1.86-3.79,3.77-5.69,5.66-1.62,1.61-1.49,1.79-3.22.03-1.37-1.38-3.13-1.43-4.3-.25-1.2,1.21-1.15,2.85.21,4.32,1.1,1.19,2.25,2.33,3.42,3.43,1.47,1.38,3.13,1.4,4.6-.04,3.03-2.96,6-5.98,8.99-8.98.61-.61,1-1.33,1.02-2.28ZM566.33,217.96c-.15-1.02-.59-1.95-1.65-2.44-1.26-.58-2.41-.3-3.37.63-1.91,1.86-3.78,3.76-5.68,5.65q-1.61,1.61-3.23.05c-1.33-1.27-3.21-1.39-4.33-.27-1.19,1.19-1.11,2.87.26,4.3,1.11,1.17,2.26,2.3,3.42,3.42,1.56,1.5,2.99,1.56,4.52.06,3.02-2.95,5.99-5.96,8.97-8.96.64-.64,1.08-1.41,1.09-2.45Z"/>
          <path class="cls-12" d="M573.67,183.54c5.96,0,11.92,0,17.88,0,2.42,0,3.08.67,3.1,3.07.02,2.34.03,4.68-.01,7.02-.03,1.93-.85,2.79-2.75,2.8-12.2.03-24.39.02-36.59,0-1.92,0-2.84-.94-2.89-2.9-.06-2.39-.05-4.79,0-7.18.04-2.03.84-2.79,2.89-2.8,6.13-.02,12.25,0,18.38,0Z"/>
        </g>
      </g>
      <text class="cls-3" transform="translate(347.49 471.67)"><tspan class="cls-8" x="0" y="0">V</tspan><tspan class="cls-2" x="15.67" y="0">ERIFIC</tspan><tspan class="cls-16" x="84.12" y="0">A</tspan><tspan x="100.15" y="0">CIÓN DE</tspan><tspan x="-9.22" y="30.11">ORIGINALI</tspan><tspan class="cls-16" x="101.23" y="30.11">D</tspan><tspan x="117.14" y="30.11">AD DEL</tspan><tspan x="33.66" y="60.21">PRODUC</tspan><tspan class="cls-1" x="125.99" y="60.21">T</tspan><tspan class="cls-2" x="139.62" y="60.21">O</tspan></text>
      <circle class="cls-10" cx="442.42" cy="654.26" r="81.35"/>
      <g>
        <path class="cls-12" d="M69.48,516.82c-6.05-3.34-8.43-7.91-6.99-13.27,1.36-5.08,5.75-8.15,11.35-7.96,4.55.15,8.82,3.81,9.78,8.4,1.13,5.4-1.42,10.03-7.21,12.81,2.47.24,4.63.81,6.67,1.85,1.28.65,1.54,1.27.36,2.33-5.59,4.96-7.94,11.29-7.84,18.65.02,1.48-.02,2.96,0,4.43.01,1.02-.38,1.52-1.46,1.51-4.61-.03-9.23.04-13.84-.05-2.67-.06-5.55-2.14-6.01-4.76-1.28-7.26-.82-14.19,5.1-19.63,2.83-2.6,6.19-3.99,10.1-4.3Z"/>
        <path class="cls-12" d="M76.58,516.82c6.05-3.34,8.43-7.91,6.99-13.27-1.36-5.08-5.75-8.15-11.35-7.96-4.55.15-8.82,3.81-9.78,8.4-1.13,5.4,1.42,10.03,7.21,12.81-2.47.24-4.63.81-6.67,1.85-1.28.65-1.54,1.27-.36,2.33,5.59,4.96,7.94,11.29,7.84,18.65-.02,1.48.02,2.96,0,4.43-.01,1.02.38,1.52,1.46,1.51,4.61-.03,9.23.04,13.84-.05,2.67-.06,5.55-2.14,6.01-4.76,1.28-7.26.82-14.19-5.1-19.63-2.83-2.6-6.19-3.99-10.1-4.3Z"/>
        <path class="cls-12" d="M126.53,516.83c-5.9-2.77-8.49-7.52-7.31-12.91,1.05-4.82,5.39-8.31,10.38-8.34,5.3-.04,9.75,3.25,10.78,8.24,1.05,5.05-.72,10.17-7.19,12.99,3.98.29,7.27,1.69,10.08,4.16,3.78,3.32,5.59,7.57,5.75,12.53.07,2.06.19,4.14-.2,6.2-.65,3.41-3.34,5.8-6.81,5.84-4.32.05-8.64-.02-12.96.04-1.42.02-1.86-.55-1.84-1.89.05-3.37.21-6.76-.49-10.09-1.03-4.89-3.35-9.07-7.08-12.44-1.52-1.37-1.47-1.7.31-2.62,1.96-1.01,4.05-1.57,6.58-1.73Z"/>
        <path class="cls-12" d="M133.06,516.83c5.9-2.77,8.49-7.52,7.31-12.91-1.05-4.82-5.39-8.31-10.38-8.34-5.3-.04-9.75,3.25-10.78,8.24-1.05,5.05.72,10.17,7.19,12.99-3.98.29-7.27,1.69-10.08,4.16-3.78,3.32-5.59,7.57-5.75,12.53-.07,2.06-.19,4.14.2,6.2.65,3.41,3.34,5.8,6.81,5.84,4.32.05,8.64-.02,12.96.04,1.42.02,1.86-.55,1.84-1.89-.05-3.37-.21-6.76.49-10.09,1.03-4.89,3.35-9.07,7.08-12.44,1.52-1.37,1.47-1.7-.31-2.62-1.96-1.01-4.05-1.57-6.58-1.73Z"/>
        <path class="cls-12" d="M122.73,491.74c0,.77-.41,1.25-.85,1.7-1.4,1.41-2.84,2.79-4.21,4.23-1.18,1.23-2.36,1.43-3.73.32-1.27-1.03-2.48-1.71-4.3-.77-1.33.69-1.97,1.41-2.19,2.85-.4,2.59-.87,2.91-3.47,2.93-1.54,0-3.07,0-4.61,0-2.54-.02-3.07-.33-3.4-2.79-.23-1.71-1.03-2.51-2.58-3.12-1.31-.52-2.19-.35-3.27.41-2.69,1.88-2.72,1.84-5.09-.53-1-1.01-2.02-2.01-3.01-3.02-1.65-1.67-1.79-2.27-.42-4.1,1.1-1.46,1.43-2.72.52-4.47-.59-1.13-1.1-1.76-2.4-1.97-2.86-.46-2.87-.56-2.87-3.54,0-1.59,0-3.18,0-4.78.01-2.41.34-2.83,2.73-3.27,1.19-.22,2.13-.45,2.8-1.79.89-1.79.77-3.09-.46-4.61-1.36-1.67-1.23-2.32.23-3.82,1.27-1.3,2.6-2.55,3.85-3.87,1.1-1.16,2.15-1.22,3.44-.26,2.14,1.59,3.28,1.55,5.52.19.89-.54.79-1.46.95-2.26.52-2.46,1.05-2.96,3.52-2.99,1.65-.02,3.3.04,4.95-.01,1.79-.06,2.99.73,2.98,2.5,0,2.54,1.78,3.13,3.58,3.87.95.4,1.51-.27,2.14-.69,2.85-1.9,3.01-1.89,5.45.55,1.01,1,2.02,2,3.01,3.02,1.46,1.51,1.61,2.23.3,3.83-1.18,1.44-1.39,2.66-.59,4.44.66,1.48,1.66,1.82,2.96,2.1,2.53.53,2.67.71,2.68,3.25,0,1.71.01,3.41,0,5.12-.02,2.21-.5,2.76-2.72,3.12-3.07.49-4.33,3.32-2.62,5.88.5.75,1.12,1.45,1.2,2.32ZM90.95,477.66c-.02,6.25,4.61,10.96,10.79,10.98,6.26.02,10.98-4.58,11.02-10.75.04-6.33-4.63-11.09-10.89-11.1-6.22-.01-10.9,4.64-10.92,10.87Z"/>
        <path class="cls-15" d="M97.42,535.21c-4.4-1.84-7.36-4.62-8.69-8.92-.83-2.69-.8-5.36.11-8.02,1.95-5.7,7.18-9.28,13.23-9.06,5.76.22,10.77,4.37,12.24,10.15,1.59,6.24-1.23,11.47-8.72,15.9.9.16,1.62.26,2.33.41,8.62,1.89,14.87,9.57,14.93,18.37.02,2.6.04,5.21-.01,7.81-.07,3.84-3.06,6.86-6.91,6.88-9.71.04-19.41.05-29.12,0-3.74-.02-6.84-3.06-6.79-6.78.06-4.3-.57-8.63.64-12.89,2.03-7.14,8.36-12.65,15.74-13.59.21-.03.42-.1,1.03-.25Z"/>
        <path class="cls-12" d="M97.43,535.21c-4.4-1.84-7.36-4.62-8.69-8.92-.83-2.69-.8-5.36.11-8.02,1.95-5.7,7.18-9.28,13.23-9.06,5.76.22,10.77,4.37,12.24,10.15,1.59,6.24-1.23,11.47-8.72,15.9.9.16,1.62.26,2.33.41,8.62,1.89,14.87,9.57,14.93,18.37.02,2.6.04,5.21-.01,7.81-.07,3.84-3.06,6.86-6.91,6.88-9.71.04-19.41.05-29.12,0-3.74-.02-6.84-3.06-6.79-6.78.06-4.3-.57-8.63.64-12.89,2.03-7.14,8.36-12.65,15.74-13.59.21-.03.42-.1,1.03-.25Z"/>
      </g>
      <text class="cls-3" transform="translate(713.1 616.02)"><tspan x="0" y="0">TRÁMI</tspan><tspan class="cls-5" x="71.09" y="0">T</tspan><tspan x="84.6" y="0">ES</tspan><tspan x="7.19" y="30.11">DE </tspan><tspan class="cls-11" x="43.88" y="30.11">P</tspan><tspan class="cls-5" x="57.18" y="30.11">A</tspan><tspan x="73.21" y="30.11">GO</tspan></text>
      <circle class="cls-10" cx="774.23" cy="475.93" r="81.35"/>
      <g>
        <path class="cls-12" d="M274.35,950.38c0,6.46-.04,12.92.03,19.38.02,1.52-.48,1.99-1.99,1.98-8.83-.06-17.66-.05-26.5,0-1.31,0-1.79-.45-2.03-1.74-1.74-9.64-8.12-16-17.83-17.76-1.22-.22-1.67-.67-1.66-1.92.05-6.51.01-13.03.03-19.54,0-1.86.51-2.36,2.38-2.37,4.25-.02,8.5.03,12.75-.03,1.33-.02,1.71.49,1.7,1.75-.05,5.13-.02,10.27-.02,15.4,0,.95-.04,1.94.97,2.46,1.02.53,1.64-.31,2.33-.81,1.26-.9,2.51-1.8,3.71-2.78.84-.69,1.52-.64,2.34.03,1.29,1.04,2.64,2,3.97,2.98.57.42,1.11.99,1.92.62.89-.41,1.05-1.23,1.05-2.08.02-2.76.01-5.52.01-8.28,0-2.54.04-5.08-.01-7.62-.02-1.17.34-1.69,1.6-1.68,4.31.05,8.61,0,12.92.03,1.81.01,2.3.54,2.31,2.44.02,6.51,0,13.03,0,19.54Z"/>
        <path class="cls-12" d="M221.34,927.02c0,7.67-.03,15.34.03,23.02.01,1.44-.4,2.07-1.89,2.23-2.38.25-4.6,1.09-6.72,2.21-1.54.82-1.6.78-1.6-.97,0-11.09,0-22.19,0-33.28,0-4.58.02-9.16,0-13.74-.03-5-2.68-7.63-7.71-7.66-2.32-.02-4.64.02-6.95-.02-2.27-.04-3.47-1.23-3.54-3.47-.03-1.21-.05-2.43.02-3.64.09-1.56,1.15-2.95,2.62-2.96,4.62,0,9.29-.75,13.83.54,7.08,2,11.89,8.39,11.92,15.73.03,7.34,0,14.68,0,22.02Z"/>
        <path class="cls-12" d="M241.22,973.34c-.02,10.28-8.09,18.25-18.45,18.24-10.26-.01-18.1-8.1-18.28-18.45-.16-9.17,7.84-18.51,18.66-18.28,10.12.22,18.1,8.21,18.07,18.49ZM234.27,973.2c-.03-6.18-5.39-11.51-11.47-11.4-6.15.11-11.28,5.25-11.36,11.38-.08,6.11,5.24,11.45,11.42,11.46,6.18,0,11.45-5.27,11.42-11.43Z"/>
        <path class="cls-12" d="M263.1,984.95c-6.84,0-13.68,0-20.52,0-1.74,0-1.77-.05-.95-1.61,1.12-2.12,1.95-4.34,2.21-6.72.16-1.49.8-1.89,2.24-1.89,11.53.05,23.05.03,34.58.03,3.52,0,3.92-.28,5.09-3.62.29-.83.84-1.31,1.7-1.32,2.21-.03,4.41-.05,6.62,0,1.42.03,1.79.99,1.82,2.25.13,6.53-5.78,12.74-12.43,12.84-6.78.1-13.57.02-20.35.02h0Z"/>
        <path class="cls-12" d="M244.29,935.88c0-2.04.02-4.08-.01-6.12-.02-.99.39-1.39,1.38-1.37,2.48.03,4.96.03,7.44,0,.99-.01,1.38.39,1.37,1.38-.02,4.14-.01,8.27,0,12.41,0,1.34-.57,1.21-1.39.59-.83-.63-1.69-1.24-2.51-1.89-.81-.65-1.58-.65-2.39,0-.73.59-1.48,1.15-2.25,1.69-.39.28-.77.83-1.28.59-.61-.28-.35-.97-.36-1.48-.03-1.93-.01-3.86-.01-5.79h0Z"/>
        <path class="cls-12" d="M222.81,981.63c-4.87-.02-8.37-3.6-8.33-8.55.03-4.78,3.62-8.27,8.47-8.25,4.88.02,8.37,3.6,8.33,8.55-.04,4.78-3.62,8.27-8.47,8.25Z"/>
      </g>
      <g>
        <text class="cls-3" transform="translate(1356.67 939.04)"><tspan x="0" y="0">LLEGA</tspan><tspan class="cls-5" x="71.78" y="0">D</tspan><tspan class="cls-13" x="87.7" y="0">A AL</tspan><tspan x="0" y="30.11">ALM</tspan><tspan class="cls-16" x="49.46" y="30.11">AC</tspan><tspan class="cls-13" x="79.22" y="30.11">ÉN U OBRA</tspan></text>
        <circle class="cls-10" cx="1235.09" cy="951.74" r="81.35"/>
        <g>
          <path class="cls-12" d="M1236.32,905.55c19.95-.4,37.04,15.1,39.83,33.87,2,13.41-1.51,25.19-11.1,34.93-8.63,8.77-17.38,17.42-26.09,26.12-1.92,1.92-3.49,1.9-5.42-.03-8.64-8.63-17.27-17.25-25.89-25.9-7.22-7.25-11.21-15.95-11.74-26.2-1.05-20.36,12.23-38.43,33.51-42.24,2.38-.43,4.76-.6,6.89-.55ZM1233.23,965.28c1.05.02,1.76-.58,2.45-1.27,7.63-7.64,15.27-15.27,22.9-22.91,1.84-1.84,1.84-3.14,0-4.99-2.36-2.38-4.74-4.73-7.11-7.1-1.95-1.95-3.29-1.97-5.22-.04-3.86,3.85-7.71,7.7-11.56,11.56q-1.42,1.42-2.8.05c-1.52-1.52-3.01-3.07-4.58-4.54-1.43-1.34-2.84-1.3-4.22.07-2.67,2.63-5.32,5.28-7.95,7.96-1.4,1.42-1.41,2.79-.01,4.2,5.32,5.36,10.67,10.68,16,16.02.59.59,1.26.98,2.11,1Z"/>
          <path class="cls-12" d="M1225.17,941.67c.56.08.85.44,1.17.75,1.6,1.58,3.17,3.19,4.78,4.76,1.49,1.45,2.82,1.46,4.31-.02,4.08-4.05,8.17-8.09,12.18-12.21.97-.99,1.62-1.06,2.52,0,.8.95,1.73,1.8,2.64,2.66.68.64.74,1.18.03,1.88-6.24,6.21-12.46,12.43-18.66,18.66-.64.64-1.12.63-1.75,0-3.7-3.73-7.42-7.43-11.12-11.15-.4-.4-.83-.83-.27-1.4,1.23-1.25,2.47-2.48,3.72-3.7.13-.13.34-.18.46-.25Z"/>
        </g>
      </g>
      <g>
        <path class="cls-12" d="M1429.31,516.8c1.12,0,2.24-.01,3.36,0,.39,0,.9-.12,1.06.39.12.37-.22.64-.45.9-1.37,1.55-2.58,3.21-3.58,5.03-1.26,2.29-2.25,4.67-2.19,7.36.05,2.36,1.32,4.13,3.52,5.01,4.86,1.95,9.09.79,12.54-2.89,1.85-1.97,4.5-1.85,6.53-3.2.48-.32,1.01.16,1.42.5,7.51,6.26,15.4,12.06,22.52,18.78,1.55,1.46,2.97,3.04,3.88,5,.78,1.68.51,3.24-.7,4.15-1.32.99-2.54.8-4.03-.69-3.88-3.87-7.75-7.75-11.63-11.62-.37-.37-.74-.79-1.18-1.06-.87-.53-1.84-.61-2.62.12-.84.8-.77,1.81-.19,2.74.27.44.69.8,1.07,1.17,3.7,3.71,7.42,7.41,11.12,11.13,1.28,1.28,1.21,1.83-.28,2.9-1.79,1.28-3.87,1.15-5.44-.4-3.22-3.19-6.42-6.41-9.63-9.62-.37-.37-.75-.75-1.14-1.11-1-.95-2.06-1.18-3.1-.11-1.05,1.08-.73,2.14.22,3.1,3.12,3.13,6.25,6.25,9.36,9.38,1.46,1.47,1.21,3.16-.66,4.08-1.42.7-2.8.73-4.04-.54-2.51-2.57-5.07-5.09-7.62-7.63-.38-.37-.75-.75-1.13-1.12-1.02-1-2.12-1.34-3.23-.19-1.04,1.09-.68,2.15.26,3.1,1.91,1.92,3.84,3.82,5.72,5.77.44.46,1.45.87.96,1.64-.4.63-1.3.22-1.99.13-3.12-.43-5.53-2.22-7.92-4.06-5.89-4.52-11.82-8.98-17.53-13.72-1.82-1.51-3.39-3.27-5.07-4.92-.64-.62-.7-1.28-.43-2.08,2.79-8.45,5.02-17.05,6.86-25.76.27-1.27.89-1.81,2.18-1.72,1.06.07,2.12.01,3.18.02Z"/>
        <path class="cls-12" d="M1505.71,531.35c0,6.77,0,13.54,0,20.31,0,2.59-.74,3.37-3.36,3.4-4.06.05-8.13.04-12.19,0-2.26-.02-3.31-.89-3.93-3.07-3.22-11.28-7.31-22.25-11.85-33.05-.41-.97-.93-1.9-1.39-2.86-1-2.06-.54-3.38,1.62-4.16,4.83-1.75,9.82-2.88,14.9-3.6,4.32-.61,8.66-.91,13.03-.8,2.47.06,3.15.7,3.16,3.16.01,6.89,0,13.78,0,20.67Z"/>
        <path class="cls-12" d="M1392.31,526.56c0-6.65,0-13.31,0-19.96,0-3.29.73-3.87,3.95-3.71,5.18.26,10.31.91,15.41,1.84,2.15.39,4.24,1,6.24,1.89,2.53,1.13,3.12,2.03,2.89,4.78-.31,3.64-1.16,7.2-1.97,10.75-2,8.79-4.8,17.35-7.2,26.03-.36,1.3-1.21,2.01-2.56,2.01-4.77.02-9.54.04-14.31-.01-1.76-.02-2.44-.91-2.44-2.96-.02-6.89,0-13.78,0-20.67Z"/>
        <path class="cls-12" d="M1450.24,512.55c2.15.17,4.19.68,6.18,1.45,4.23,1.62,8.45,3.26,12.71,4.83.9.33,1.53.81,1.91,1.67,3.9,8.97,7.08,18.21,10.31,27.42.13.37.41.85-.02,1.13-.45.29-.73-.19-.99-.49-7.88-8.75-17.69-15.33-26.3-23.26-1.17-1.08-2.69-1.16-4.14-.5-1.93.88-3.85,1.76-5.98,2.08-1.03.15-1.48,1.08-2.07,1.81-1.88,2.35-4.09,3.9-7.31,3.09-2.12-.53-2.66-1.32-2.07-3.44.61-2.25,1.78-4.25,3.25-6.02,2.61-3.13,5.52-5.96,9.03-8.11,1.7-1.04,3.55-1.53,5.51-1.67Z"/>
      </g>
      <g>
        <path class="cls-12" d="M1092.56,677.98c-9.26,0-18.52,0-27.78,0-5.87,0-9.32-3.46-9.32-9.35,0-26.27,0-52.53,0-78.8,0-5.79,3.47-9.27,9.24-9.28,13.41-.01,26.82,0,40.23,0,2.07,0,2.08,0,2.08,2.11,0,5.62,0,11.23,0,16.85,0,2.87.95,3.8,3.84,3.81,5.67,0,11.34.06,17-.03,1.57-.02,2,.51,1.95,2.01-.1,2.98-.08,5.97,0,8.96.03,1.22-.4,2.09-1.25,2.93-5.67,5.56-11.29,11.18-16.95,16.75-1.92,1.88-3.39,4-4.19,6.58-.75,2.42-1.63,4.79-2.33,7.22-.79,2.75-.24,5.23,1.92,7.21,2.13,1.95,4.64,2.05,7.25,1.27,2.23-.67,4.41-1.5,6.64-2.16,2.87-.85,5.12-2.57,7.12-4.72.4-.43.81-1.21,1.4-.98.71.28.36,1.16.37,1.77.02,6.17.03,12.35,0,18.52-.02,5.74-3.58,9.31-9.28,9.32-9.31.01-18.62,0-27.94,0ZM1089.65,614.62c6.43,0,12.85,0,19.28,0,1.97,0,3.26-1.03,3.31-2.58.04-1.55-1.23-2.62-3.22-2.7-.2,0-.4,0-.61,0-12.45,0-24.9,0-37.34,0-.71,0-1.41,0-2.1.23-.95.32-1.54.97-1.72,1.94-.2,1.03.17,1.88.98,2.56.68.56,1.48.57,2.3.57,6.38,0,12.75,0,19.13,0ZM1084.01,637.4h0c4.65,0,9.3.02,13.95-.02,1.68-.01,2.75-1.07,2.78-2.57.03-1.52-.99-2.54-2.69-2.69-.25-.02-.51-.02-.76-.02-8.85,0-17.69,0-26.54,0-.66,0-1.32.04-1.94.28-1.64.65-2.15,2.64-1.03,4.01.67.82,1.57,1.01,2.58,1,4.55-.02,9.1,0,13.65,0ZM1083.87,626.12c4.35,0,8.69,0,13.04,0,.82,0,1.62-.03,2.37-.39,1.08-.51,1.59-1.38,1.46-2.58-.13-1.17-.76-1.99-1.92-2.26-.58-.14-1.2-.12-1.81-.13-5.86,0-11.72,0-17.59,0-3.13,0-6.27-.03-9.4.03-1.69.03-2.79,1.11-2.82,2.57-.03,1.38.96,2.44,2.57,2.69.5.08,1.01.06,1.51.06,4.19,0,8.39,0,12.58,0ZM1084.04,643.55c-3.64,0-7.28,0-10.92,0-1.21,0-2.44-.06-3.63.09-1.35.17-2.19,1.04-2.27,2.43-.07,1.33.65,2.2,1.9,2.58.47.15.99.23,1.49.23,8.89.01,17.79,0,26.68.01.67,0,1.31-.09,1.92-.36,1.47-.64,1.99-2.29,1.19-3.68-.64-1.12-1.7-1.32-2.87-1.31-4.5,0-8.99,0-13.49,0ZM1101.11,660.63c-2.78,0-5.56-.02-8.34,0-1.74.02-2.78.98-2.82,2.5-.04,1.61.98,2.73,2.77,2.75,5.51.05,11.02.05,16.54,0,1.79-.02,2.97-1.15,2.98-2.61,0-1.51-1.27-2.63-3.08-2.65-2.68-.02-5.36,0-8.04,0Z"/>
        <path class="cls-12" d="M1124.32,645.29c-.57-.03-.82-.37-1.1-.65-2.15-2.14-4.27-4.31-6.45-6.41-.77-.75-.71-1.27.02-1.99,5.7-5.66,11.38-11.34,17.04-17.05.74-.75,1.29-.75,2.01,0,2.16,2.2,4.34,4.38,6.54,6.54.66.65.6,1.14-.03,1.77-5.77,5.74-11.51,11.5-17.27,17.25-.24.24-.55.41-.76.56Z"/>
        <path class="cls-12" d="M1112.26,589.22c0-2.42.03-4.85-.01-7.27-.02-1.06.41-1.45,1.45-1.38,2.24.15,4.07,1.17,5.63,2.67,2.61,2.53,5.17,5.11,7.72,7.71,1.5,1.52,2.36,3.36,2.6,5.51.11.96-.16,1.49-1.15,1.49-5,.01-10,0-15,.01-1.01,0-1.26-.57-1.25-1.47.03-2.42.01-4.85.01-7.27Z"/>
        <path class="cls-12" d="M1152.88,614.51c.07,1.47-.5,2.79-1.53,3.9-1.13,1.22-2.35,2.36-3.5,3.56-.64.67-1.15.6-1.77-.04-2.19-2.23-4.42-4.43-6.63-6.64-.41-.41-.82-.86-.25-1.41,1.62-1.58,3-3.44,5.01-4.58,3.95-2.25,8.7.57,8.68,5.2Z"/>
        <path class="cls-12" d="M1111.9,651.48c-1.23-.14-1.97-.71-1.78-1.78.43-2.49,1.45-4.82,2.27-7.2.22-.63.7-.47,1.08-.1,1.86,1.85,3.72,3.7,5.56,5.57.37.38.49.86-.12,1.08-2.37.85-4.75,1.66-7,2.44Z"/>
      </g>
      <g>
        <path class="cls-12" d="M450.68,708.76c-9.38,0-18.75-.04-28.13.04-1.84.02-2.41-.5-2.4-2.38.07-15.69.07-31.38,0-47.06,0-1.81.46-2.46,2.36-2.42,5.94.11,11.89.09,17.83.01,1.64-.02,2.27.45,2.23,2.17-.1,4.41-.04,8.82-.03,13.24,0,1.04-.09,2.18,1.16,2.64,1.12.41,1.84-.34,2.54-1.04,1.43-1.43,2.88-2.84,4.28-4.3.76-.8,1.38-.81,2.15,0,1.31,1.38,2.67,2.7,4.02,4.04.78.77,1.51,1.8,2.8,1.3,1.39-.54,1.15-1.88,1.16-3.02.02-4.17,0-8.33.01-12.5,0-2.47.01-2.49,2.4-2.49,5.88,0,11.77.05,17.65-.03,1.71-.02,2.35.42,2.34,2.25-.06,15.08-.03,30.15-.04,45.23,0,3.08-1.27,4.33-4.38,4.34-9.31.01-18.63,0-27.94,0Z"/>
        <path class="cls-12" d="M416.79,680.77c0,8.03,0,16.05,0,24.08,0,.52.25,1.24-.3,1.52-.61.3-.94-.41-1.31-.77-2.79-2.76-5.54-5.55-8.33-8.3-.93-.92-1.37-1.95-1.37-3.27.02-15.99,0-31.98.02-47.97,0-.5-.28-1.23.41-1.44.5-.16.83.43,1.16.76,2.87,2.85,5.7,5.74,8.59,8.56.87.85,1.16,1.77,1.15,2.94-.03,7.96-.02,15.93-.02,23.89Z"/>
        <path class="cls-12" d="M398.13,629.04c.3-1.86.59-3.81.95-5.75.24-1.31-.01-2.34-1.04-3.27-1.24-1.12-2.36-2.39-3.55-3.58-.75-.75-1.2-1.59-.83-2.65.34-.96,1.2-1.18,2.08-1.32,1.31-.21,2.62-.55,3.95-.6,2.05-.07,3.3-.94,3.97-2.92.5-1.47,1.26-2.87,2.02-4.23,1.01-1.8,2.77-1.83,3.78-.04.9,1.61,1.72,3.29,2.4,5.01.52,1.32,1.37,1.87,2.71,2.02,1.55.17,3.09.46,4.63.71.99.16,2,.36,2.33,1.5.32,1.08-.22,1.89-.96,2.62-1.23,1.22-2.41,2.51-3.67,3.71-.79.76-1.06,1.59-.88,2.66.34,1.94.64,3.89.96,5.83.15.9.15,1.77-.66,2.37-.85.63-1.76.47-2.62,0-1.48-.8-2.97-1.58-4.4-2.45-1.16-.71-2.18-.77-3.38-.02-1.52.96-3.11,1.8-4.73,2.57-1.78.85-3.17-.14-3.07-2.16Z"/>
        <path class="cls-12" d="M432.96,628.99c.29-1.75.54-3.59.9-5.4.3-1.49.06-2.68-1.15-3.73-1.26-1.1-2.41-2.34-3.54-3.59-1.52-1.68-.96-3.36,1.27-3.77,1.76-.33,3.54-.57,5.32-.82,1.07-.15,1.77-.63,2.2-1.68.69-1.66,1.5-3.26,2.28-4.88.44-.91.97-1.72,2.17-1.7,1.12.01,1.65.74,2.07,1.6.81,1.67,1.64,3.33,2.36,5.03.41.97,1.05,1.43,2.07,1.57,1.84.25,3.67.51,5.49.88,2.22.46,2.73,2.12,1.18,3.82-1.17,1.28-2.37,2.55-3.66,3.72-1.03.93-1.29,1.97-1.04,3.27.33,1.7.57,3.43.87,5.14.18,1,.32,2.01-.65,2.69-1,.7-1.98.32-2.93-.21-1.46-.83-2.95-1.6-4.4-2.45-.95-.56-1.81-.54-2.76.03-1.59.94-3.22,1.85-4.88,2.66-1.87.92-3.3-.05-3.17-2.16Z"/>
        <path class="cls-12" d="M468.89,622.18c.04-.79-.41-1.32-.91-1.83-1.26-1.28-2.5-2.58-3.78-3.84-.74-.74-1.25-1.56-.92-2.63.33-1.05,1.25-1.27,2.19-1.42,1.6-.24,3.2-.53,4.81-.72,1.26-.15,2.11-.67,2.61-1.92.66-1.67,1.51-3.26,2.29-4.88.42-.88,1-1.55,2.11-1.52,1.02.03,1.57.66,1.96,1.48.76,1.56,1.6,3.1,2.21,4.72.53,1.39,1.43,1.97,2.83,2.11,1.49.15,2.98.43,4.46.68.98.16,2.01.31,2.39,1.43.39,1.15-.2,1.99-.99,2.77-1.19,1.18-2.32,2.43-3.55,3.58-.85.8-1.13,1.68-.93,2.81.35,1.94.64,3.88.97,5.83.15.91.09,1.76-.74,2.33-.81.55-1.66.42-2.47-.01-1.53-.82-3.07-1.63-4.56-2.53-1.11-.67-2.09-.74-3.23-.02-1.27.81-2.64,1.45-3.95,2.18-.98.55-1.98,1.12-3.08.4-1.14-.74-.89-1.89-.71-3,.33-2,.65-4,.97-6Z"/>
        <path class="cls-12" d="M429.21,653.57c-3.12,0-6.25-.02-9.37.01-.98.01-1.77-.23-2.47-.95-2.92-2.97-5.89-5.9-8.82-8.85-.33-.33-.91-.63-.69-1.18.23-.55.86-.34,1.32-.34,6.37-.01,12.74,0,19.11-.02.91,0,1.65.22,2.31.88,2.97,3.01,5.98,5.98,8.96,8.98.32.32.91.64.6,1.19-.22.4-.78.26-1.19.26-3.25,0-6.49,0-9.74,0Z"/>
        <path class="cls-12" d="M469.54,653.57c-3.06,0-6.13-.03-9.19.01-1.05.01-1.87-.29-2.62-1.05-2.88-2.93-5.8-5.81-8.7-8.72-.33-.33-.91-.63-.73-1.17.19-.59.84-.37,1.29-.37,6.19-.01,12.38,0,18.57-.01,1.17,0,2.14.41,2.96,1.24,2.85,2.87,5.72,5.72,8.57,8.59.33.33.9.63.6,1.2-.22.42-.77.28-1.18.28-3.19.01-6.37,0-9.56,0Z"/>
        <path class="cls-12" d="M439.02,642.26c4.01-1.03,6.75.84,9.22,3.76,1.86,2.19,4.04,4.1,6.07,6.14.29.29.76.56.6,1.05-.18.52-.72.36-1.12.36-2.88.02-5.76,0-8.63.01-.8,0-1.4-.32-1.94-.87-2.98-2.99-5.98-5.97-8.96-8.97-.32-.32-.91-.63-.63-1.19.21-.43.76-.28,1.18-.28,1.41-.02,2.82,0,4.23,0Z"/>
        <path class="cls-12" d="M445.95,663.01c0-1.53.02-3.06,0-4.59-.02-1,.41-1.44,1.42-1.44,2.82.02,5.63.02,8.45,0,1,0,1.44.41,1.43,1.42-.02,3.12,0,6.25,0,9.37,0,.39.16.94-.38,1.1-.39.12-.66-.25-.91-.51-.92-.9-1.82-1.82-2.74-2.72-1.07-1.05-2.15-1.06-3.21,0-.96.95-1.9,1.91-2.88,2.84-.2.19-.54.42-.77.38-.47-.07-.39-.56-.39-.9-.02-1.65,0-3.31,0-4.96Z"/>
      </g>
      <g>
        <path class="cls-12" d="M760.4,522c-10.01,0-20.02,0-30.03,0-3.09,0-4.37-1.22-4.38-4.3-.03-8.15-.03-16.29,0-24.44,0-3.06,1.42-4.68,4.5-4.48,3.24.21,5.66-.8,7.88-3.1,1.93-2,4.15-3.73,6.31-5.49,8.32-6.79,20.58-6.82,28.87.03,1.83,1.52,3.64,2.29,6.01,2.11,1.97-.15,3.96-.07,5.93-.01,3.77.11,6.62,3.03,6.62,6.72,0,3.72-2.8,6.68-6.58,6.74-5.12.08-10.24.03-15.36.04-.58,0-1.17-.03-1.74.05-1.72.24-2.9,1.62-2.83,3.22.07,1.53,1.29,2.72,3.02,2.8,1.63.08,3.26.03,4.89.03,5.41,0,10.83-.12,16.23.04,3.6.11,6.48-1.16,8.85-3.72,4.35-4.69,8.65-9.43,12.98-14.14,1.02-1.11,2.03-2.25,3.13-3.29,2.65-2.5,6.27-2.6,9.04-.31,2.56,2.12,3.11,5.92.99,8.82-5.15,7.05-10.42,14-15.64,21-1.95,2.61-3.86,5.24-6.57,7.17-4.04,2.89-8.45,4.56-13.49,4.53-9.54-.04-19.09-.01-28.63,0Z"/>
        <path class="cls-12" d="M761.84,446.31c-.08-17.38,14.87-30.09,30.11-29.69,16.41.44,29.38,13.48,29.28,30.17-.1,16.13-13.57,29.46-29.76,29.44-16.32-.01-29.72-13.54-29.63-29.92ZM801.09,453.74c.04-5.71-3.47-9.67-8.61-10.29-.63-.08-1.27-.17-1.88-.35-1.74-.51-2.59-1.85-2.43-3.73.13-1.51,1.36-2.79,2.92-3.03,1.56-.24,3.12.7,3.7,2.28.18.48.22,1.02.33,1.53.38,1.66,1.72,2.8,3.17,2.69,1.59-.11,2.77-1.42,2.79-3.24.02-2.58-.79-5.04-2.83-6.5-2.56-1.83-4.35-3.63-3.88-7.1.19-1.37-1.5-2.41-2.96-2.35-1.42.06-2.58,1.17-2.74,2.67-.06.52-.1,1.05-.04,1.57.23,1.83-.46,2.93-2.14,3.88-4.56,2.6-5.82,8.64-3.03,13.09,1.99,3.17,5.01,4.3,8.52,4.67,1.81.19,3.07,1.73,3.03,3.47-.04,1.74-1.42,3.21-3.17,3.36-1.86.16-3.25-.88-3.65-2.74-.1-.45-.15-.92-.29-1.36-.58-1.8-1.78-2.55-3.61-2.19-1.66.33-2.26,1.52-2.25,3.07.02,2.92,1.06,5.58,3.51,7.05,2.55,1.53,3.42,3.37,3.17,6.2-.13,1.58,1.1,2.57,2.64,2.67,1.5.1,2.86-.95,3.09-2.49.12-.8.14-1.63.07-2.44-.11-1.37.35-2.19,1.64-2.89,3.15-1.71,4.74-4.51,4.94-7.52Z"/>
      </g>
    </g>
  </g>
</svg>