<?xml version="1.0" encoding="UTF-8"?>
<svg xmlns="http://www.w3.org/2000/svg" xmlns:xlink="http://www.w3.org/1999/xlink" viewBox="0 0 566.71 538.17">
  <defs>
    <style>
      .cls-1 {
        fill: #1f2a8c;
      }

      .cls-2 {
        fill: #ab6160;
      }

      .cls-3 {
        fill: #37474f;
      }

      .cls-4, .cls-5, .cls-6, .cls-7, .cls-8, .cls-9, .cls-10 {
        isolation: isolate;
      }

      .cls-4, .cls-11 {
        opacity: .3;
      }

      .cls-5, .cls-12, .cls-6, .cls-7, .cls-13 {
        fill: #fff;
      }

      .cls-5, .cls-14, .cls-10 {
        opacity: .1;
      }

      .cls-15 {
        fill: #263238;
      }

      .cls-16 {
        fill: #3039aa;
      }

      .cls-17 {
        opacity: .32;
      }

      .cls-17, .cls-18, .cls-19, .cls-20 {
        mix-blend-mode: multiply;
      }

      .cls-17, .cls-21 {
        fill: #7379ff;
      }

      .cls-22 {
        fill: #c48281;
      }

      .cls-6, .cls-9 {
        opacity: .2;
      }

      .cls-7 {
        opacity: .4;
      }

      .cls-13 {
        mix-blend-mode: screen;
        opacity: .52;
      }

      .cls-23 {
        fill: none;
      }

      .cls-24 {
        fill: #323643;
      }

      .cls-18 {
        fill: url(#Degradado_sin_nombre_748-2);
      }

      .cls-18, .cls-20 {
        opacity: .72;
      }

      .cls-25 {
        fill: #e0e0e0;
      }

      .cls-26 {
        fill: #1e3ca8;
      }

      .cls-19 {
        opacity: .61;
      }

      .cls-19, .cls-27 {
        fill: #0d1363;
      }

      .cls-28 {
        mix-blend-mode: color-burn;
        opacity: .42;
      }

      .cls-29 {
        fill: url(#Degradado_sin_nombre_748);
      }

      .cls-30 {
        fill: #455a64;
      }

      .cls-31 {
        fill: #f5f5f5;
      }

      .cls-32 {
        fill: url(#Degradado_sin_nombre_748-3);
      }

      .cls-33 {
        fill: url(#Degradado_sin_nombre_389);
      }

      .cls-20 {
        fill: url(#Degradado_sin_nombre_748-4);
      }

      .cls-34 {
        clip-path: url(#clippath);
      }

      .cls-35 {
        fill: url(#Degradado_sin_nombre_389-2);
      }
    </style>
    <linearGradient id="Degradado_sin_nombre_389" data-name="Degradado sin nombre 389" x1="411.87" y1="81.99" x2="328.75" y2="147.51" gradientUnits="userSpaceOnUse">
      <stop offset=".07" stop-color="#a0d5fd"/>
      <stop offset=".48" stop-color="#9eb8fc"/>
      <stop offset="1" stop-color="#9d98fc"/>
    </linearGradient>
    <linearGradient id="Degradado_sin_nombre_389-2" data-name="Degradado sin nombre 389" x1="207.54" y1="146.66" x2="122.71" y2="343.3" xlink:href="#Degradado_sin_nombre_389"/>
    <clipPath id="clippath">
      <path class="cls-23" d="M240.44,236.76c-4.3.01-6.36,6.04-12.17,8.61s-11.62,3.01-18.01,4.28c-6.39,1.27-13.72,4.95-14.26,13.75-.48,7.82,5.34,12.82,14.6,11.67,11.75-1.47,20.05-6.18,23.7-8.27,11.6-6.66,13.35-11.38,14.07-13.6,1.43-4.39-.87-16.46-7.94-16.43Z"/>
    </clipPath>
    <linearGradient id="Degradado_sin_nombre_748" data-name="Degradado sin nombre 748" x1="2077.25" y1="1305.06" x2="2070.52" y2="1298.46" gradientTransform="translate(-1857.94 -1041.3)" gradientUnits="userSpaceOnUse">
      <stop offset="0" stop-color="#575eff"/>
      <stop offset=".38" stop-color="#7778fd"/>
      <stop offset=".93" stop-color="#ada4fb"/>
    </linearGradient>
    <linearGradient id="Degradado_sin_nombre_748-2" data-name="Degradado sin nombre 748" x1="2068.73" y1="1305.08" x2="2077.81" y2="1305.08" gradientTransform="translate(-1856.89 -1041.46)" xlink:href="#Degradado_sin_nombre_748"/>
    <linearGradient id="Degradado_sin_nombre_748-3" data-name="Degradado sin nombre 748" x1="2103.74" y1="1299.89" x2="2096.46" y2="1294.14" gradientTransform="translate(-1860.09 -1048.08)" xlink:href="#Degradado_sin_nombre_748"/>
    <linearGradient id="Degradado_sin_nombre_748-4" data-name="Degradado sin nombre 748" x1="2095.72" y1="1300.19" x2="2103.22" y2="1300.19" gradientTransform="translate(-1859.12 -1048.21)" xlink:href="#Degradado_sin_nombre_748"/>
  </defs>
  <g class="cls-8">
    <g id="Contenido">
      <g>
        <g id="freepik--Floor--inject-15">
          <path class="cls-31" d="M425.7,291.87c-79.13-45.69-207-45.69-285.62,0-78.62,45.69-78.19,119.76.93,165.44,79.13,45.68,207.01,45.69,285.62,0,78.61-45.69,78.2-119.75-.93-165.44Z"/>
        </g>
        <g id="freepik--Shadows--inject-15">
          <path class="cls-25" d="M253.52,349.36l-32.59-19.81,12.19-7.05c.52-.33.68-1.03.35-1.55-.09-.14-.21-.26-.35-.35l-5.07-2.89c-2.03-1.16-4.53-1.16-6.56,0l-119.52,69.11c-.52.33-.68,1.03-.35,1.55.09.14.21.26.35.35l4.94,2.85c2.04,1.18,4.56,1.18,6.6,0l51.88-29.96,32.15,18.44,55.98-30.69Z"/>
          <path class="cls-25" d="M425.93,359.07c-32.52-18.77-85.09-18.77-117.4,0-28.56,16.59-31.73,42.28-9.64,61-17.82-1.12-36.28,2.25-49.89,10.19-23.88,13.88-23.76,36.38.28,50.26,24.04,13.88,62.94,13.87,86.76,0,18.99-11.05,22.78-27.55,11.44-40.82,27.38,3.97,57.51-.25,78.84-12.63,32.31-18.77,32.14-49.21-.39-68Z"/>
        </g>
        <g id="freepik--speech-bubble--inject-15">
          <path class="cls-33" d="M350.1,47.23l67.29,38.91c2.32,1.34,3.75,3.81,3.75,6.48v67.66c-.12,4.08-3.52,7.28-7.6,7.16-1.29-.04-2.54-.41-3.64-1.08l-28.1-16.68-.61.98s-.06.06-.09.09h-.07c-1.12.73-3.02,1.76-3.45,1.99h0c-.21.07-.43-.04-.51-.25l-2.45-6.95h0l-32.06-18c-2.33-1.33-3.76-3.8-3.76-6.48V53.31c0-5.39,7.93-8.01,11.29-6.08Z"/>
          <path class="cls-6" d="M381.1,150.66s-.06.06-.09.09h-.07c-1.12.73-3.02,1.76-3.45,1.99h0c.1-.02.19-.08.25-.17l2.37-3.84-.47-.27h0l2.09,1.19-.63,1.01Z"/>
          <path class="cls-7" d="M412.74,93.18c-.48-.97-1.17-1.82-2-2.51h0c-.29-.23-.59-.44-.91-.62l-67.29-38.92c-1.2-.68-2.72-.27-3.4.93-.22.38-.33.8-.33,1.24,0-5.39,7.93-8.01,11.29-6.08l67.29,38.91c1.16.67,2.13,1.65,2.79,2.82l-7.44,4.23Z"/>
          <path class="cls-6" d="M413.6,164.2v-67.64c0-1.18-.29-2.33-.84-3.37l7.44-4.23c.63,1.12.96,2.38.97,3.66v67.66c-.12,4.08-3.52,7.28-7.6,7.16-1.29-.04-2.54-.41-3.64-1.08,1.21.65,2.73.2,3.38-1.02.19-.35.29-.74.3-1.14Z"/>
          <path class="cls-24" d="M355.28,78.93l39.05,22.54-2.35,26.77c-.13,1.63-1.39,2.25-2.89,1.35l-29.92-17.31c-.6-.37-1.12-.84-1.54-1.4l.06.76c.36,3.45,2.26,6.54,5.17,8.43l1.31.75c.49.12.97.31,1.4.56.52.31.99.69,1.4,1.12l14.01,8.09c.5.11.97.3,1.4.56.51.29.98.65,1.4,1.06l2.98,1.72c.67.45,1.09,1.19,1.12,2,0,.73-.53,1.02-1.12.66l-.24-.13c.34.89.51,1.83.52,2.78,0,2.97-2.1,4.17-4.7,2.67-2.75-1.8-4.49-4.8-4.66-8.08-.02-.76.16-1.51.54-2.17l-8.56-4.94c.33.89.5,1.83.52,2.78,0,2.98-2.11,4.17-4.7,2.67-2.76-1.79-4.5-4.79-4.66-8.08-.03-.79.18-1.57.6-2.25-3.42-2.81-5.61-6.84-6.09-11.24l-2.65-35.96c-.16-1.53-1.01-2.91-2.3-3.74l-4.83-2.8c-.67-.45-1.09-1.19-1.12-1.99,0-.74.53-1.03,1.12-.66l4.83,2.79c2.58,1.68,4.27,4.43,4.6,7.5l.29,3.19ZM375.73,117.04l.06-21.44c-.06-1.1-.64-2.11-1.56-2.71-.87-.49-1.56-.1-1.57.9l-.06,21.44c.07,1.09.65,2.08,1.56,2.67.87.49,1.57.09,1.57-.9M382.47,120.92l.06-21.44c-.06-1.1-.64-2.11-1.56-2.71-.87-.49-1.57-.1-1.57.9v21.44c.06,1.1.64,2.11,1.56,2.71.87.49,1.56.09,1.57-.9M389.27,124.83l.07-21.44c-.08-1.09-.66-2.08-1.58-2.67-.87-.49-1.57-.1-1.57.9l-.06,21.44c.07,1.12.68,2.13,1.63,2.72.85.49,1.56.09,1.56-.9M369,113.14l.06-21.44c-.05-1.1-.63-2.12-1.56-2.71-.87-.49-1.56-.1-1.57.9v21.44c.06,1.1.64,2.1,1.56,2.71.87.49,1.57.09,1.57-.9M362.31,109.23l.07-21.44c-.06-1.1-.64-2.1-1.56-2.71-.87-.49-1.57-.1-1.57.9l-.07,21.44c.06,1.1.64,2.1,1.56,2.7.87.51,1.57.1,1.57-.89M365.68,124.8c-.97-.56-1.75-.11-1.76,1,.07,1.23.72,2.36,1.75,3.03.98.56,1.75.11,1.76-1-.06-1.23-.72-2.36-1.75-3.03M382.54,134.54c-.97-.56-1.75-.11-1.75,1,.06,1.23.71,2.36,1.74,3.03.97.56,1.76.11,1.76-1.01-.07-1.23-.72-2.35-1.75-3.02"/>
          <path class="cls-12" d="M405.52,102.05c.5.31.92.74,1.2,1.26.66,1.12.66,2.38,0,2.75l-9.92,5.62c-.39.18-.85.13-1.2-.12-.5-.31-.91-.75-1.2-1.26l-4.86-8.43c-.67-1.12-.66-2.38,0-2.76.39-.18.85-.13,1.2.12.5.31.91.75,1.2,1.26l3.67,6.41,8.72-4.97c.39-.17.84-.12,1.18.12Z"/>
          <path class="cls-21" d="M398.15,91.66c6.62,3.82,11.96,13.08,11.94,20.68-.02,7.6-5.39,10.65-12.01,6.83-6.62-3.82-11.95-13.06-11.92-20.67s5.39-10.65,12-6.84ZM396.74,111.73l9.92-5.62c.67-.37.67-1.61,0-2.75-.28-.52-.7-.95-1.2-1.26-.35-.26-.81-.3-1.2-.12l-8.64,4.92-3.66-6.36c-.29-.51-.7-.95-1.2-1.26-.35-.25-.81-.3-1.2-.12-.66.38-.67,1.61,0,2.76l4.86,8.43c.29.51.7.95,1.2,1.26.35.26.81.3,1.2.12"/>
          <path class="cls-21" d="M398.15,91.66c6.62,3.82,11.96,13.08,11.94,20.68-.02,7.6-5.39,10.65-12.01,6.83-6.62-3.82-11.95-13.06-11.92-20.67s5.39-10.65,12-6.84ZM396.74,111.73l9.92-5.62c.67-.37.67-1.61,0-2.75-.28-.52-.7-.95-1.2-1.26-.35-.26-.81-.3-1.2-.12l-8.64,4.92-3.66-6.36c-.29-.51-.7-.95-1.2-1.26-.35-.25-.81-.3-1.2-.12-.66.38-.67,1.61,0,2.76l4.86,8.43c.29.51.7.95,1.2,1.26.35.26.81.3,1.2.12"/>
        </g>
        <path class="cls-30" d="M229.95,77.58h0c-.79-2.78-6.43-8.06-12.05-7.95-.54.02-1.07.12-1.57.31l-109,61.98c-1.82,1.04-3.29,2.6-4.19,4.5-.72,1.42-1.1,2.98-1.12,4.57v235.84c0,6,6.92,11.73,13.43,8.99h0c.15-.04.29-.1.43-.17l109.01-62.13c3.25-1.86,5.26-5.31,5.26-9.06V78.71c.02-.39-.04-.78-.19-1.14Z"/>
        <path class="cls-21" d="M117.22,165.95c0-1.86,1.01-3.58,2.63-4.5l101.27-57.62c1.25-.71,2.84-.28,3.56.97.22.39.34.83.34,1.28v190.16c-.02,1.86-1.02,3.57-2.63,4.5l-101.23,57.72c-1.25.71-2.84.28-3.56-.97-.22-.39-.34-.83-.34-1.28l-.04-190.26Z"/>
        <path class="cls-9" d="M117.22,165.95c0-1.86,1.01-3.58,2.63-4.5l101.27-57.62c1.25-.71,2.84-.28,3.56.97.22.39.34.83.34,1.28v190.16c-.02,1.86-1.02,3.57-2.63,4.5l-101.23,57.72c-1.25.71-2.84.28-3.56-.97-.22-.39-.34-.83-.34-1.28l-.04-190.26Z"/>
        <path class="cls-35" d="M117.22,165.95c0-1.86,1.01-3.58,2.63-4.5l101.27-57.62c1.25-.71,2.84-.28,3.56.97.22.39.34.83.34,1.28v190.16c-.02,1.86-1.02,3.57-2.63,4.5l-101.23,57.72c-1.25.71-2.84.28-3.56-.97-.22-.39-.34-.83-.34-1.28l-.04-190.26Z"/>
        <path class="cls-4" d="M102.06,141.02v235.82c0,6,6.92,11.73,13.43,8.99h0c-1.34.49-2.83-.2-3.32-1.54-.1-.28-.16-.58-.16-.89v-235.86c.03-2.06.67-4.06,1.83-5.75l-10.71-5.36c-.71,1.43-1.08,3-1.08,4.6Z"/>
        <path class="cls-5" d="M217.92,69.62c-.54.02-1.07.12-1.57.31l-109.01,61.99c-1.82,1.04-3.29,2.6-4.19,4.5l10.71,5.36c.89-1.39,2.09-2.54,3.52-3.37l109.01-62.01c1.24-.71,2.82-.28,3.53.95.03.06.06.11.09.17h0c-.82-2.73-6.46-8.01-12.08-7.9Z"/>
        <path class="cls-15" d="M184.57,115.39c.78-.44,1.4-.09,1.4.79-.06.98-.58,1.87-1.39,2.42l-21.35,12.36c-.76.45-1.38.08-1.38-.81.05-.97.56-1.85,1.37-2.38l21.35-12.37Z"/>
        <path class="cls-15" d="M157.68,130.91c.76-.44,1.38-.09,1.38.8-.05.98-.57,1.87-1.38,2.41-.76.44-1.39.08-1.39-.8.05-.98.57-1.88,1.39-2.41Z"/>
        <path class="cls-15" d="M171.39,113.6c1.53-.89,2.76-.18,2.76,1.57-.1,1.95-1.12,3.73-2.75,4.8-1.53.89-2.8.17-2.8-1.6.11-1.95,1.15-3.72,2.79-4.78Z"/>
        <path class="cls-15" d="M171.39,335.59c3.12-1.8,5.62-.36,5.62,3.21-.2,3.97-2.29,7.61-5.62,9.79-3.11,1.8-5.7.33-5.71-3.26.24-3.97,2.36-7.6,5.71-9.74Z"/>
        <polygon class="cls-21" points="224.68 100.84 261.5 131.4 248.08 139.16 211.27 108.6 224.68 100.84"/>
        <polygon class="cls-21" points="197.86 116.35 234.66 146.9 221.24 154.65 184.45 124.11 197.86 116.35"/>
        <polygon class="cls-12" points="184.45 124.11 221.24 154.65 207.82 162.41 171.03 131.86 184.45 124.11"/>
        <polygon class="cls-12" points="211.27 108.6 248.08 139.16 234.66 146.9 197.86 116.35 211.27 108.6"/>
        <polygon class="cls-21" points="144.2 147.36 180.99 177.91 167.57 185.66 130.78 155.11 144.2 147.36"/>
        <polygon class="cls-21" points="171.03 131.86 207.82 162.41 194.41 170.15 157.61 139.61 171.03 131.86"/>
        <polygon class="cls-12" points="117.12 163.01 130.78 155.11 167.57 185.66 153.87 193.57 117.12 163.01"/>
        <polygon class="cls-12" points="157.61 139.61 194.41 170.15 180.99 177.91 144.2 147.36 157.61 139.61"/>
        <path class="cls-21" d="M261.5,131.4l-13.42,7.75h0c0,2.86,2.31,5.18,5.18,5.19.91,0,1.8-.24,2.59-.69h0c3.48-2.03,5.62-5.77,5.62-9.8l.03-2.45Z"/>
        <path class="cls-25" d="M248.08,139.16l-13.42,7.75h0c0,2.86,2.31,5.18,5.18,5.19.91,0,1.8-.24,2.59-.69h0c3.49-2.03,5.63-5.77,5.62-9.8l.03-2.45Z"/>
        <path class="cls-21" d="M234.66,146.91l-13.42,7.74h0c0,2.86,2.31,5.18,5.18,5.19.91,0,1.8-.24,2.59-.69h0c3.49-2.03,5.63-5.77,5.62-9.8l.03-2.44Z"/>
        <path class="cls-25" d="M221.24,154.65l-13.42,7.75h0c-.01,2.86,2.29,5.18,5.14,5.19.92,0,1.83-.24,2.62-.7h0c3.48-2.03,5.63-5.76,5.62-9.79l.03-2.46Z"/>
        <path class="cls-21" d="M207.82,162.41l-13.42,7.73h0c0,2.86,2.31,5.18,5.18,5.19.91,0,1.8-.24,2.59-.69h0c3.49-2.03,5.63-5.77,5.62-9.8l.03-2.43Z"/>
        <path class="cls-25" d="M194.41,170.14l-13.42,7.74h0c0,2.86,2.31,5.18,5.18,5.19.91,0,1.8-.24,2.59-.69h0c3.48-2.03,5.62-5.77,5.62-9.8l.03-2.44Z"/>
        <path class="cls-21" d="M180.99,177.91l-13.42,7.75h0c-.01,2.86,2.29,5.18,5.14,5.19.92,0,1.83-.24,2.62-.7h0c3.5-2.02,5.64-5.76,5.62-9.8l.03-2.45Z"/>
        <path class="cls-9" d="M261.5,131.4l-13.42,7.75h0c0,2.86,2.31,5.18,5.18,5.19.91,0,1.8-.24,2.59-.69h0c3.48-2.03,5.62-5.77,5.62-9.8l.03-2.45Z"/>
        <path class="cls-9" d="M234.66,146.91l-13.42,7.74h0c0,2.86,2.31,5.18,5.18,5.19.91,0,1.8-.24,2.59-.69h0c3.49-2.03,5.63-5.77,5.62-9.8l.03-2.44Z"/>
        <path class="cls-9" d="M207.82,162.41l-13.42,7.73h0c0,2.86,2.31,5.18,5.18,5.19.91,0,1.8-.24,2.59-.69h0c3.49-2.03,5.63-5.77,5.62-9.8l.03-2.43Z"/>
        <path class="cls-9" d="M180.99,177.91l-13.42,7.75h0c-.01,2.86,2.29,5.18,5.14,5.19.92,0,1.83-.24,2.62-.7h0c3.5-2.02,5.64-5.76,5.62-9.8l.03-2.45Z"/>
        <path class="cls-25" d="M167.57,185.66l-13.7,7.87h0c-.01,2.86,2.3,5.18,5.15,5.19.91,0,1.81-.24,2.6-.69h0c3.68-2.13,5.95-6.05,5.95-10.31v-2.06Z"/>
        <g class="cls-28">
          <path class="cls-21" d="M191.04,205.16c-7.52-.64-14.69,1.46-21.1,4.81-14.94,7.71-22.92,18.95-28.47,34.82-2.4,6.82-3.55,14.02-3.38,21.24,1.59-6.83,3.9-13.47,6.87-19.82,6.66-14.23,15.55-25.5,26.75-32.45,5.88-3.83,13.52-6.81,19.32-8.59Z"/>
          <path class="cls-21" d="M176.66,308.28c-3.94-.07-7.85-.75-11.57-2.03-8.37-2.77-15.26-8.82-19.09-16.76-1.76-3.53-2.94-7.31-3.51-11.21-.42,4.08.11,8.2,1.56,12.04,3.32,9.08,11.03,15.85,20.47,17.96,3.99.95,8.15.95,12.14,0Z"/>
          <path class="cls-21" d="M208.08,243.09c.4,5.4.31,10.83-.24,16.22-1.28,12.17-5.27,23.9-11.68,34.34-2.84,4.64-6.09,9.01-9.71,13.07,4.66-3.11,8.77-6.98,12.16-11.43,7.86-10.26,12.14-22.83,12.16-35.76.01-5.59-.9-11.14-2.7-16.44Z"/>
          <path class="cls-21" d="M144.54,220.72c-4.9,4.71-8.9,10.28-11.82,16.42-6.86,14.25-8.01,30.59-3.2,45.67,2.05,6.49,5.24,12.56,9.43,17.92-2.66-6.05-4.7-12.35-6.08-18.81-3.03-14.47-1.98-29.49,3.04-43.4,2.25-6.22,5.14-12.18,8.63-17.8Z"/>
          <path class="cls-21" d="M221.97,223.11c-.52-5.54-2.51-10.83-5.76-15.34-7.54-10.89-20.81-16.27-33.81-13.72-5.47.99-10.58,3.41-14.82,7.01,4.76-2.33,9.92-3.75,15.2-4.18,11.83-1.08,23.46,3.63,31.19,12.65,3.49,3.98,6.2,8.59,7.99,13.58Z"/>
          <path class="cls-21" d="M216.67,273c-6.71,21.93-31.89,35.36-48.63,30.24-16.74-5.12-24.88-27.05-18.17-48.98,6.71-21.93,32.95-46.85,55.44-40.93,16.93,4.46,18.07,37.73,11.36,59.66Z"/>
          <path class="cls-17" d="M212.05,274.33c-5.43,17.74-25.79,28.6-39.34,24.46s-20.12-21.88-14.7-39.62c5.43-17.74,26.65-37.9,44.84-33.1,13.7,3.61,14.62,30.52,9.19,48.26Z"/>
        </g>
        <g>
          <g>
            <path class="cls-27" d="M243.05,246.84c6.98.84,21.83,14.43,20.87,17.99-1.4,5.21-18.66,3.7-24.93,2.36-3.69-.78-8.74-4.46-8.07-10.79.56-5.36,4.75-10.45,12.14-9.56Z"/>
            <path class="cls-27" d="M190.24,285.22s1.77,22.6,7.96,23.33c6.19.73,14.47-23.24,14.47-23.24l-22.42-.09Z"/>
            <path class="cls-27" d="M232.48,280.03s-5.15,24.75-11.36,24.34c-6.22-.41-9.97-25.49-9.97-25.49l21.34,1.16Z"/>
            <path class="cls-12" d="M246.51,245.07c4.38,26.29-8.69,41.74-37.15,45.17-25.01,3.01-43.24-9.43-46.84-31-1.85-11.11.68-21.35,6.57-30.11,6.54-9.73,15.16-13.83,27.79-15.93,24.01-4,45.72,8.41,49.62,31.86Z"/>
            <g>
              <path class="cls-27" d="M240.44,236.76c-4.31-.02-8.06,5.48-15.6,8.51-5.89,2.38-8.16,3.21-14.55,4.46-6.39,1.25-14,5.1-14.47,14.12-.42,8.02,7.46,12.87,15.02,11.95,11.77-1.43,20.06-6.17,23.7-8.29,11.58-6.74,13.29-11.56,14-13.83,1.4-4.49-1.01-16.89-8.1-16.92Z"/>
              <g class="cls-34">
                <path class="cls-19" d="M203.5,252s-4.22,5.24-3.9,10.67c.33,5.43,3.74,8.67,7.74,9.04,3.99.37,11.36-.66,18.57-3.69,7.21-3.04,14.24-7.61,18.58-11.97,3.3-3.32,4.41-7.13,3.65-10.92-.76-3.79-.82-5.22-.82-5.22l4.45,13.79-5.67,13.04-29.34,12.44-24.35-2.74-2.87-19.2,9.77-7.45,4.2,2.2Z"/>
              </g>
              <g>
                <ellipse class="cls-29" cx="215.27" cy="259.8" rx="6.75" ry="8.23" transform="translate(-61.04 66.17) rotate(-15.33)"/>
                <circle class="cls-13" cx="212.33" cy="256.68" r="2.25"/>
                <ellipse class="cls-18" cx="216.38" cy="263.62" rx="4.54" ry="3.54" transform="translate(-62.01 66.6) rotate(-15.33)"/>
              </g>
              <g>
                <ellipse class="cls-32" cx="239.38" cy="248.44" rx="5.71" ry="7.38" transform="translate(-57.17 72.14) rotate(-15.33)"/>
                <circle class="cls-13" cx="236.54" cy="246.2" r="2.15"/>
                <ellipse class="cls-20" cx="240.35" cy="251.98" rx="3.75" ry="2.83" transform="translate(-58.08 72.53) rotate(-15.33)"/>
              </g>
            </g>
            <path class="cls-1" d="M178.18,222.7s.53-11.52,1.58-12.55c2.84-2.79,17.8-6.39,21.67-7.03,4.29-.72,20.21,1.96,21.04,2.78,1.85,1.82,5.92,12.35,5.92,12.35,0,0-4.21,4.45-11.79,6.46-6.32,1.68-20.72,4.19-22.32,4.24-3.51.12-16.1-6.25-16.1-6.25Z"/>
            <path class="cls-26" d="M228.39,218.24l9.46,3.39s-3.39,3.25-11.64,6.46c-8.73,3.4-19.26,5.12-20.84,4.85-2.14-.37-11.08-3.99-11.08-3.99,0,0,27.02-6.69,34.11-10.71Z"/>
          </g>
          <g>
            <polygon class="cls-21" points="296.85 272.58 254.95 296.92 212.79 272.58 254.67 248.22 296.85 272.58"/>
            <g class="cls-11">
              <polygon class="cls-12" points="296.85 272.58 254.95 296.92 212.79 272.58 254.67 248.22 296.85 272.58"/>
            </g>
            <polygon class="cls-21" points="296.85 272.58 296.73 315.19 254.83 339.54 254.95 296.92 296.85 272.58"/>
            <g class="cls-14">
              <polygon class="cls-12" points="296.85 272.58 296.73 315.19 254.83 339.54 254.95 296.92 296.85 272.58"/>
            </g>
            <polygon class="cls-21" points="254.95 296.92 254.83 339.54 212.66 315.19 212.79 272.58 254.95 296.92"/>
            <polygon class="cls-25" points="262.25 269.45 276.43 260.79 269.19 256.61 254.95 265.1 262.25 269.45"/>
            <polygon class="cls-12" points="262.25 269.45 254.95 265.1 240.49 256.47 233.27 260.67 247.65 269.45 254.95 273.92 274.24 285.72 281.97 281.22 262.25 269.45"/>
            <polygon class="cls-25" points="247.65 269.45 227.84 281.27 235.6 285.75 254.95 273.92 247.65 269.45"/>
            <polygon class="cls-25" points="281.97 281.22 274.24 285.72 274.3 285.75 274.42 328.15 282.24 323.61 282.13 281.3 281.97 281.22"/>
            <polygon class="cls-12" points="235.6 285.75 227.84 281.27 227.78 281.3 227.65 323.86 235.48 328.37 235.6 285.75 235.6 285.75"/>
            <polygon class="cls-9" points="235.6 285.75 227.84 281.27 227.78 281.3 227.65 323.86 235.48 328.37 235.6 285.75 235.6 285.75"/>
            <polygon class="cls-12" points="254.93 282.33 246.16 287.69 254.93 292.76 263.67 287.68 254.93 282.33"/>
          </g>
          <path class="cls-27" d="M201.81,271.47c7.54,1.47,17.32,12.76,16,16.68-1.26,3.74-11.62,3.24-18.63,1.57-4.12-.98-11.4-4.1-10.48-11.19.78-6,4.91-8.66,13.11-7.06Z"/>
        </g>
        <g id="freepik--character-1--inject-15">
          <path class="cls-21" d="M333.81,275.85c-11.09,7.71-23.6,13.04-32.85,23.36-17.3,19.29-17.7,50.33-4.11,72.39,13.59,22.06,38.86,35.31,64.6,38.35,26.97,3.19,55.33-4.27,76.51-21.35,21.18-17.08,34.66-43.66,34.65-70.8-.01-27.14-13.94-54.26-36.71-69.12-20.78-13.49-50.63-17.41-71.48-1.91-10.53,7.87-17.57,19.41-28.1,27.28-.76.61-1.62,1.2-2.52,1.81Z"/>
          <path class="cls-9" d="M333.81,275.85c-11.09,7.71-23.6,13.04-32.85,23.36-17.3,19.29-17.7,50.33-4.11,72.39,13.59,22.06,38.86,35.31,64.6,38.35,26.97,3.19,55.33-4.27,76.51-21.35,21.18-17.08,34.66-43.66,34.65-70.8-.01-27.14-13.94-54.26-36.71-69.12-20.78-13.49-50.63-17.41-71.48-1.91-10.53,7.87-17.57,19.41-28.1,27.28-.76.61-1.62,1.2-2.52,1.81Z"/>
          <path class="cls-5" d="M333.81,275.85c-11.09,7.71-23.6,13.04-32.85,23.36-17.3,19.29-17.7,50.33-4.11,72.39,13.59,22.06,38.86,35.31,64.6,38.35,26.97,3.19,55.33-4.27,76.51-21.35,21.18-17.08,34.66-43.66,34.65-70.8-.01-27.14-13.94-54.26-36.71-69.12-20.78-13.49-50.63-17.41-71.48-1.91-10.53,7.87-17.57,19.41-28.1,27.28-.76.61-1.62,1.2-2.52,1.81Z"/>
          <path class="cls-10" d="M338.37,388.88c0-.19.06-.37.08-.55,1.9-12.31,11.4-22.07,23.66-24.3,10.72-2.04,21-5.97,30.34-11.61,6.62-4,12.88-8.91,20.31-11.08,7.23-2.07,14.95-1.63,21.89,1.27-6.25-6.55-16.95-9.44-25.5-6.47,5.91-9.07,11.13-18.82,13.17-29.46,2.05-10.63.58-22.31-5.82-31.03-10.18-13.92-29.71-16.95-43.63-6.77-1.66,1.22-3.2,2.59-4.59,4.11-6.35,6.95-9.92,16.72-14.09,25.15-3,6.06-6.09,12.26-11.04,16.86-7.44,6.97-18.16,9.47-25.85,16.14-8.75,7.56-12.53,19.64-12.56,31.21.13,7.8,1.27,15.56,3.37,23.07,9.05,8.64,19.85,15.25,31.67,19.36-1.71-5.12-2.19-10.57-1.4-15.91Z"/>
          <path class="cls-12" d="M458.16,314.05c-.73-38.76-29.35-71.32-67.69-77.02-2.58.26-5.13.68-7.65,1.28,40.52,2.15,72.49,35.24,73.24,75.8.51,25.3-11.88,51.09-33.11,68.98-16.63,14.03-38.73,23.33-63.03,26.67.52.08,1.05.15,1.56.2,2.18.26,4.37.44,6.57.56,21.58-4.19,41.12-13.08,56.19-25.85,21.76-18.31,34.41-44.71,33.91-70.63Z"/>
          <path class="cls-3" d="M328.57,407.48l2.79,5.52c3.92-3.64,4.64-6.57,4.64-6.57-1.27-4.5-2.75-9.07-3.5-11.29-.37,3.1-2.48,5.77-3.37,8.79-.33,1.16-.52,2.36-.56,3.56Z"/>
          <path class="cls-15" d="M328.71,413.13l2.65-.13-2.79-5.52c-.08,1.87.08,3.75.13,5.65Z"/>
          <path class="cls-30" d="M330.73,388.62c-.96-1.39-2.06-2.68-3.29-3.84.67,2.41.65,4.96-.06,7.36-.82,3.19-2.32,6.19-3.07,9.41-.91,3.91-.7,8.11-2.36,11.78-1.67,3.6-4.94,6.21-8.82,7.04-1.41.39-2.92.21-4.2-.51-.54-.38-.93-.93-1.12-1.56-.83,1.74-1.85,3.39-3.02,4.92-1.3,1.69-2.93,3.55-2.57,5.62.43,1.77,1.89,3.1,3.69,3.37,1.76.25,3.55.1,5.25-.44,3.73-.8,7.28-2.25,10.51-4.28,3.25-2.08,5.63-5.28,6.68-8.99.38-1.79.52-3.62.4-5.45,0-1.89-.21-3.79-.13-5.62.04-1.21.23-2.4.55-3.56.9-3.02,3.01-5.69,3.37-8.79,0-.17.06-.33.07-.49.02-2.13-.62-4.22-1.85-5.96Z"/>
          <path class="cls-10" d="M330.73,388.62c-.96-1.39-2.06-2.68-3.29-3.84.67,2.41.65,4.96-.06,7.36-.82,3.19-2.32,6.19-3.07,9.41-.91,3.91-.7,8.11-2.36,11.78-1.67,3.6-4.94,6.21-8.82,7.04-1.41.39-2.92.21-4.2-.51-.54-.38-.93-.93-1.12-1.56-.83,1.74-1.85,3.39-3.02,4.92-1.3,1.69-2.93,3.55-2.57,5.62.43,1.77,1.89,3.1,3.69,3.37,1.76.25,3.55.1,5.25-.44,3.73-.8,7.28-2.25,10.51-4.28,3.25-2.08,5.63-5.28,6.68-8.99.38-1.79.52-3.62.4-5.45,0-1.89-.21-3.79-.13-5.62.04-1.21.23-2.4.55-3.56.9-3.02,3.01-5.69,3.37-8.79,0-.17.06-.33.07-.49.02-2.13-.62-4.22-1.85-5.96Z"/>
          <path class="cls-2" d="M313.13,420.36c3.89-.82,7.15-3.43,8.82-7.04,1.66-3.66,1.45-7.87,2.36-11.78.75-3.21,2.25-6.21,3.07-9.41.71-2.4.73-4.95.06-7.36-.31-.31-.63-.63-.96-.93-4.74,2.45-10.11,4.5-14.44,7.62.09,5.53-.26,11.07-1.06,16.54-.59,3.56-1.67,7.02-3.2,10.28.19.63.59,1.18,1.12,1.56,1.29.72,2.81.91,4.23.51Z"/>
          <path class="cls-22" d="M297.02,405.77c-.78,4.57-4.28,13.89-4.28,13.89,0,0,16.42.66,16.79-.09l4.82-7.46-17.33-6.34Z"/>
          <path class="cls-27" d="M346.17,296.89l-41.86,23.31c-7.79,4.34-11.93,13.16-10.31,21.93l8.13,43.83-6.66,21.18c5.75,7.71,18.96,8.1,18.96,8.1,7.37-14.78,12.78-21.05,16.96-33.43,4.18-12.38,6.98-20.93,6.98-20.93l34.84-9.51c16.28-4.43,28.22-18.32,30.15-35.09.6-5.26.62-8.84.62-8.84l-57.8-10.55Z"/>
          <path class="cls-6" d="M343.36,310.68c0,4.68,1.67,9.2,4.69,12.77l-26.4,16.49c-4.34,2.71-7.56,6.9-9.06,11.8l-10.46,34.22,9.44-38.11c1.09-4.38,3.85-8.17,7.69-10.54l24.14-14.86c-2.79-6.97-.03-11.77-.03-11.77Z"/>
          <path class="cls-3" d="M301.65,440.9l.38,6.16c5.05-1.8,6.86-4.21,6.86-4.21.6-4.64,1.03-9.43,1.24-11.77-1.57,2.71-4.56,4.33-6.57,6.74-.76.94-1.4,1.98-1.9,3.08Z"/>
          <path class="cls-15" d="M299.55,446.14l2.48.92-.38-6.16c-.81,1.67-1.42,3.48-2.1,5.24Z"/>
          <path class="cls-30" d="M311.04,424.39c-.34-1.65-.84-3.27-1.51-4.82-.33,2.48-1.35,4.81-2.94,6.74-2.01,2.61-4.57,4.78-6.52,7.43-2.38,3.25-3.84,7.19-6.8,9.9-2.95,2.66-6.99,3.78-10.89,3.01-1.45-.2-2.76-.96-3.65-2.12-.35-.56-.51-1.23-.45-1.89-1.45,1.28-3.03,2.41-4.71,3.37-1.87,1.05-4.1,2.11-4.6,4.19-.27,1.78.54,3.55,2.07,4.5,1.52.92,3.22,1.49,4.99,1.66,3.74.73,7.59.79,11.35.19,3.8-.62,7.23-2.62,9.64-5.62,1.06-1.5,1.91-3.13,2.53-4.86.69-1.75,1.29-3.56,2.1-5.24.5-1.1,1.14-2.13,1.9-3.07,2.01-2.43,5-4.05,6.57-6.74.08-.13.18-.27.26-.43.87-1.95,1.1-4.13.65-6.21Z"/>
          <path class="cls-22" d="M282.38,446.67c3.9.77,7.94-.35,10.89-3.01,2.96-2.71,4.42-6.65,6.8-9.9,1.94-2.65,4.5-4.82,6.52-7.43,1.59-1.93,2.61-4.26,2.94-6.74l-.51-1.24c-5.33.39-11.08.13-16.28,1.33-2.09,5.12-4.58,10.07-7.47,14.79-1.93,3.05-4.29,5.81-6.99,8.2-.06.66.09,1.33.45,1.89.89,1.16,2.2,1.92,3.65,2.11Z"/>
          <path class="cls-15" d="M389.15,235c6.82-15.86,7.23-33.75,1.12-49.9-1.96-5.1-4.72-10.11-9.25-13.23-5.8-3.91-13.3-3.85-20.29-3.65-3.71.11-7.5.22-10.98,1.51-3.52,1.2-6.23,4.05-7.25,7.63-4.57-.84-9.18,2.76-10.42,7.25-1.24,4.48.38,9.36,3.23,13.05,2.84,3.69,6.74,6.33,10.74,8.74-2.41,1.26-4.18,4.16-5.01,6.74-.83,2.6-.63,5.41.55,7.87-4.41.04-8.33,2.83-9.81,6.99-1.19,4.12-.3,8.56,2.37,11.91,2.68,3.3,6.38,5.61,10.52,6.59,4.12.96,8.37,1.19,12.56.67,4.34,4.2,12.28,4.11,17.73,1.51,5.45-2.61,11.76-8.15,14.17-13.68Z"/>
          <path class="cls-22" d="M350.32,224.45h-1.07c-7.14.08-16.17,4.94-20.59,17.4l-17.15,33.22,19.58,8.68,10.71-31.36,8.52-27.94Z"/>
          <path class="cls-2" d="M336.56,246.5c-1.36,3.92-1.45,8.15-1.66,12.36-.21,4.21-.7,9.15-2.6,12.85-4.3-2.98-10.05-2.77-14.12.52-1.42,1.2-2.52,2.75-3.17,4.5l16.07,7.13,10.71-31.36,5.27-17.28c-4.87,2.21-8.65,6.28-10.51,11.29Z"/>
          <path class="cls-22" d="M331.27,277.77c-1.51-3.76-4.86-6.47-8.86-7.16-3.92-.64-8.36,1.42-10.9,4.5-2.14,2.57-1.8,6.07-.45,9.14,2.32,4.91,7.79,7.5,13.06,6.18,5.06-1.43,9.06-7.77,7.15-12.65Z"/>
          <path class="cls-21" d="M352.12,223.84c-7.55,1.2-12.24,20.31-14.69,27.57-2.54,7.5.91,12.94,4.75,17.46h0c1.4,1.66,2.05,3.84,1.76,6l-7.89,29.52c21.69,16.1,58.06,8.31,67.93,3.05.11-10.31-2.06-20.52-6.37-29.89-2.91-6.05-4.54-12.63-4.81-19.34l-.37-10.83,2.62-18.7-18.84-4.5-16.6-.74c-2.5,0-5.01.13-7.5.4Z"/>
          <path class="cls-16" d="M352.12,223.84c-7.55,1.2-12.24,20.31-14.69,27.57-2.54,7.5.91,12.94,4.75,17.46h0c1.4,1.66,2.05,3.84,1.76,6l-7.89,29.52c21.69,16.1,58.06,8.31,67.93,3.05.11-10.31-2.06-20.52-6.37-29.89-2.91-6.05-4.54-12.63-4.81-19.34l-.37-10.83,2.62-18.7-18.84-4.5-16.6-.74c-2.5,0-5.01.13-7.5.4Z"/>
          <g class="cls-8">
            <path class="cls-30" d="M350.12,311.63v.14l1.76-2.01s0-.06,0-.09c0-.03,0-.05,0-.08l.07-.44v-.07s-2.96,0-7.44,0l4.33,2.44c.75.43,1.21.44,1.28.12Z"/>
            <path class="cls-30" d="M339.29,285.17c-.3-.41-1.07-1.34-1.07-1.34l-16.77-10h-1.12c-.08,0-.16.03-.22.09l-1.75,2.01h.06c-.15.11-.16.35.06.74l12.81,23.86c.72,1.1,1.69,2.02,2.83,2.67l10.18,5.73c2.43,0,4.98,0,7.66,0v-.19l-12.66-23.58Z"/>
            <path class="cls-30" d="M335.58,285.04c.13.11.28.22.4.35h0c-.09-.12-.24-.24-.37-.35h-.03Z"/>
            <polygon class="cls-30" points="336.51 285.94 336.69 286.13 336.69 286.13 336.51 285.94"/>
            <path class="cls-30" d="M350.18,311.21c-.02-.17-.07-.33-.16-.48.08.14.13.28.16.44h0s-.01-.02,0,.04Z"/>
          </g>
          <path class="cls-6" d="M338.17,283.81l-.08-.06h-.09l-16.55-9.92h-1.12c-.08,0-.16.03-.22.09l-1.75,2.01c.08-.09.23-.11.44-.07.28.07.56.19.81.34l14.73,8.29c.3.16.58.34.84.55.28.22.55.45.81.7.25.23.48.48.7.74.18.22.35.45.48.7l1.93-2.27-.92-1.11Z"/>
          <path class="cls-22" d="M402.27,234.92c-2.09-3.59-4.83-6.34-8.99-6.65,0,0-6.74,3.51-6.74,19.42l.45,39.82h0c-.98.39-1.96.81-2.92,1.21-8.22,3.53-16.81,6.13-25.61,7.74-4.59-3.64-10.3-5.58-16.16-5.48l2.17,4.05c-4.11,2.64-13.42-2.11-13.42-2.11-.69,5.8,3.08,11.82,8.07,14.87,4.99,3.05,52.57-1.43,62.67-7.96,6.64-4.29,5.07-45.35,5.07-45.35.46-6.83-1.14-13.64-4.57-19.56Z"/>
          <path class="cls-22" d="M320.98,280.87c-.32,1.57-.5,3.16-.54,4.75.37,3.81,1.98,7.38,4.59,10.18.54.61,1.22,1.09,1.98,1.39.76.3,1.62.16,2.25-.36.56-.67.84-1.52.8-2.39.13-1.29.05-2.59-.21-3.85-.26-1.28-.99-2.42-2.03-3.2-.81-.48-1.67-.86-2.57-1.12-.86-.38-1.63-.95-2.25-1.66l-2-3.73Z"/>
          <path class="cls-22" d="M359.56,216.05v15.04c-1.47,1.39-2.89,2.99-3.02,4.98-.05,1.94.98,3.75,2.69,4.69,1.7.9,3.69,1.09,5.53.54,1.82-.56,3.49-1.53,4.89-2.83,4-3.69,6.34-8.83,6.52-14.27v-15.25l-16.6,7.11Z"/>
          <path class="cls-2" d="M375.51,208.94c-1.57,8.27-4.8,15.44-15.96,17.98v-10.92l15.96-7.06Z"/>
          <path class="cls-22" d="M371.61,200.24c-.16,1.32-.16,2.66,0,3.99.18,1,.68,1.91,1.43,2.61.74.67,1.76.92,2.72.69-.67-2.79,1.04-5.6,3.84-6.28,2.62-.63,5.3.84,6.15,3.4.54,1.86.22,3.85-.87,5.45-1.08,1.57-2.52,2.87-4.19,3.8-1.99.76-4.23-.02-5.33-1.84-4.8,6.62-13.42,11.79-21.7,11.43-2.27-.03-4.48-.71-6.37-1.96-3.21-2.25-3.6-5.92-4.14-9.52-.78-4.54-.93-9.16-.46-13.73.75-6.32,3.29-12.61,8-16.86,3.34,13.51,16.08,18.02,20.91,18.82Z"/>
          <polygon class="cls-2" points="354.35 199.39 348.98 206.59 354.32 208.19 354.35 199.39"/>
          <path class="cls-2" d="M359.29,211.39l-4.35,1.57c.63,1.04,1.87,1.53,3.05,1.21,1.04-.51,1.58-1.67,1.3-2.79Z"/>
          <path class="cls-4" d="M359.29,211.39l-4.35,1.57c.63,1.04,1.87,1.53,3.05,1.21,1.04-.51,1.58-1.67,1.3-2.79Z"/>
          <path class="cls-2" d="M356.53,214.17c.47.14.98.14,1.45,0,.81-.36,1.33-1.17,1.33-2.06-1.32-.16-2.54.73-2.78,2.05h0Z"/>
          <path class="cls-15" d="M362.2,200.52c0,.87-.7,1.57-1.57,1.57-.87,0-1.57-.7-1.57-1.57,0-.87.7-1.57,1.57-1.57,0,0,0,0,.01,0,.86,0,1.56.7,1.56,1.56,0,0,0,0,0,.01Z"/>
          <path class="cls-15" d="M349.01,199.95c-.01.87-.72,1.56-1.58,1.56-.87,0-1.57-.7-1.57-1.57s.7-1.57,1.57-1.57,1.58.71,1.58,1.58h0Z"/>
          <path class="cls-15" d="M347.51,193.7l-3.5,2.39c-.3-.89-.03-1.87.7-2.46.87-.51,1.95-.49,2.8.07Z"/>
          <path class="cls-15" d="M360.96,193.57l3.47,2.43c.32-.88.05-1.87-.66-2.47-.87-.52-1.96-.5-2.81.04Z"/>
        </g>
      </g>
    </g>
  </g>
</svg>