<?xml version="1.0" encoding="UTF-8"?>
<svg id="Capa_2" data-name="Capa 2" xmlns="http://www.w3.org/2000/svg" viewBox="0 0 398.15 342.74">
  <defs>
    <style>
      .cls-1 {
        fill: #37474f;
      }

      .cls-2 {
        fill: #263238;
      }

      .cls-3 {
        fill: #d9dfff;
        opacity: .7;
      }

      .cls-3, .cls-4, .cls-5 {
        isolation: isolate;
      }

      .cls-6, .cls-4 {
        fill: #fff;
      }

      .cls-4 {
        opacity: .4;
      }

      .cls-7 {
        opacity: .47;
      }

      .cls-8 {
        fill: #ccd2ff;
      }

      .cls-9 {
        fill: #455a64;
      }

      .cls-10 {
        fill: #7379ff;
      }

      .cls-5 {
        opacity: .1;
      }
    </style>
  </defs>
  <g id="Capa_17" data-name="Capa 17">
    <g>
      <g id="freepik--Floor--inject-8" class="cls-7">
        <g id="freepik--floor--inject-8">
          <path class="cls-10" d="M89.5,315.31c68.54,36.58,179.67,36.58,248.21,0,68.54-36.58,68.55-95.91,0-132.49-68.55-36.58-179.67-36.59-248.21,0-68.54,36.59-68.54,95.9,0,132.49Z"/>
        </g>
      </g>
      <g id="freepik--Plants--inject-8">
        <g id="freepik--plants--inject-8">
          <path class="cls-10" d="M357.88,224.54l-10-5.81s-2.45-21.42-.82-38.01c2.3-23.32,17.35-51.35,35.3-44.78,17.95,6.57-8.24,30.37-14.06,50.13-5.81,19.76-10.42,38.46-10.42,38.46Z"/>
          <path class="cls-5" d="M357.88,224.54l-10-5.81s-2.45-21.42-.82-38.01c2.3-23.32,17.35-51.35,35.3-44.78,17.95,6.57-8.24,30.37-14.06,50.13-5.81,19.76-10.42,38.46-10.42,38.46Z"/>
          <path class="cls-6" d="M352.67,221.91c-.19,0-.36-.14-.39-.33-3.4-26.16,5.91-65.69,24.7-80.69.16-.13.4-.11.53.06,0,0,0,0,0,0,.13.17.11.41-.06.54-18.59,14.84-27.78,54.07-24.41,79.98.03.21-.12.41-.33.44h-.05Z"/>
          <path class="cls-10" d="M363.21,228.68l-7.11-4.12s-1.21-14.7,6-32.55c6.27-15.5,21.84-28.44,29.66-25.73s7.63,8.26,3.82,14.09-27.04,19.71-32.37,48.31Z"/>
          <path class="cls-6" d="M358.81,229.05h0c-.21-.01-.37-.19-.36-.4,0,0,0,0,0-.01,2.34-36.58,20.85-54.57,31.97-57.31.21-.05.42.07.47.28.05.21-.08.41-.28.47-11.71,2.91-29.19,22.38-31.38,56.62-.01.21-.2.37-.41.36,0,0,0,0-.01,0Z"/>
          <path class="cls-10" d="M69.92,227.39s1.33-21.48-11.15-36.2c-12.48-14.73-28.72-14.67-34.1-11.93-5.38,2.74-8.99,10.58.26,16.19,9.25,5.61,28.93,16.84,32.2,26.85l12.79,5.09Z"/>
          <path class="cls-5" d="M69.92,227.39s1.33-21.48-11.15-36.2c-12.48-14.73-28.72-14.67-34.1-11.93-5.38,2.74-8.99,10.58.26,16.19,9.25,5.61,28.93,16.84,32.2,26.85l12.79,5.09Z"/>
          <path class="cls-6" d="M64.04,222.01c-.25,0-.46-.19-.48-.44-2.57-23.76-26.32-36.93-35.79-38.42-.27-.04-.45-.29-.41-.56.04-.27.29-.45.56-.41,9.69,1.52,33.98,14.99,36.61,39.28.03.27-.17.5-.43.53,0,0,0,0,0,0h-.05Z"/>
          <path class="cls-10" d="M59.42,216.56c-3.13-7.13-6.67-10.33-16.84-8.62-10.17,1.71-8.72,1.44-21.17-1.74-5.25-1.34-11.15-1.55-16.19.72-4.25,1.94-7.43,5.81-3.31,9.94,4.63,4.61,11.54,6.19,16.65,10.25,1.16.82,2.08,1.93,2.67,3.23,1.35,3.43-1.35,7.29-.56,10.89s4.56,5.51,8.11,5.74c3.55.23,7.04-.83,10.58-1.24s7.51,0,9.95,2.63c2.62,2.78,2.68,7.23,5.12,10.18,3.64,4.43,12.59,5.66,17.44,2.91l12.68-7.31c8.38-11.3-4.84-20.25-11.77-29.02-3.36-4.27-11.48-4.25-13.36-8.54Z"/>
          <path class="cls-6" d="M76.7,247.3c-.17,0-.32-.09-.41-.23-14.46-23.43-53.84-35.29-67.78-36.26-.26-.02-.46-.25-.45-.51.02-.27.25-.47.51-.46,14.12.97,53.87,13,68.53,36.75.13.23.06.53-.16.67-.08.04-.17.05-.25.05Z"/>
          <path class="cls-6" d="M30.88,236.25c-.15,0-.3-.07-.39-.19-.16-.21-.12-.52.1-.68h0c.5-.38,12.52-9.19,24.22-9.37h0c.26,0,.48.2.48.46,0,0,0,0,0,0,0,.27-.21.49-.47.49h0c-11.36.16-23.5,9.09-23.63,9.17-.09.07-.2.1-.31.1Z"/>
        </g>
      </g>
      <g id="freepik--Device--inject-8">
        <g id="freepik--Laptop--inject-8">
          <path class="cls-1" d="M75.8,255.53c.21,2.86,1.77,5.44,4.19,6.97l117.54,67.86c2.64,1.34,5.75,1.34,8.39,0l160.82-92.86c3.85-2.03,5.32-6.79,3.29-10.64-.74-1.4-1.89-2.55-3.29-3.29l-117.53-67.81c-2.64-1.34-5.75-1.34-8.39,0l-160.83,92.83c-2.42,1.52-3.98,4.1-4.19,6.95Z"/>
          <path class="cls-2" d="M124.29,222.99l-44.3,25.6c-3.85,2.03-5.32,6.79-3.29,10.64.74,1.4,1.89,2.55,3.29,3.29l117.54,67.86c1.29.68,2.74,1.01,4.19.97v-108.36h-77.43Z"/>
          <path class="cls-9" d="M71.85,248.72c-2.37-1.61-3.83-4.26-3.93-7.12V101.33c.16-2.95,1.72-5.65,4.19-7.27L232.93,1.21c3.69-2.31,8.56-1.2,10.87,2.49.84,1.34,1.26,2.9,1.2,4.48v140.28c-.16,2.95-1.72,5.65-4.19,7.27l-160.82,92.87c-2.54,1.34-5.56,1.39-8.14.14Z"/>
          <path class="cls-2" d="M87.61,107.85l-18.46-10.66c-.73,1.26-1.14,2.68-1.17,4.14v140.27c.11,2.86,1.57,5.51,3.93,7.12,2.58,1.24,5.6,1.19,8.13-.16l18.35-10.59-10.78-130.13Z"/>
          <path class="cls-1" d="M75.8,105.88v140.26c0,2.67,1.88,3.76,4.19,2.42l160.82-92.85c2.48-1.62,4.03-4.31,4.19-7.27V8.18c0-2.67-1.88-3.76-4.19-2.42L79.99,98.62c-2.48,1.61-4.04,4.31-4.19,7.27Z"/>
          <path class="cls-9" d="M79.99,253.43l117.54,67.81c2.64,1.34,5.75,1.34,8.39,0l160.82-92.86c2.33-1.34,2.33-3.51,0-4.84l-117.53-67.81c-2.64-1.34-5.75-1.34-8.39,0l-160.83,92.86c-2.33,1.32-2.33,3.49,0,4.84Z"/>
          <path class="cls-10" d="M82.25,106.4L238.56,16.15c1.39-.8,2.52-.16,2.52,1.45v121.42c-.1,1.77-1.03,3.39-2.52,4.36l-156.31,90.24c-1.4.8-2.52.16-2.52-1.45v-121.42c.09-1.77,1.03-3.39,2.52-4.36Z"/>
          <path class="cls-2" d="M93.63,249.78l149.28-86.22c1.32-.67,2.88-.67,4.19,0l7.64,4.41c.67.23,1.03.95.8,1.62-.13.38-.42.67-.8.8l-149.31,86.21c-1.32.67-2.88.67-4.19,0l-7.61-4.4c-.67-.23-1.03-.95-.8-1.62.13-.38.42-.67.8-.8Z"/>
          <path class="cls-2" d="M113.32,261.18l149.27-86.22c1.32-.67,2.88-.67,4.2,0l46.96,27.13c.67.23,1.03.95.8,1.62-.13.38-.42.67-.8.8l-149.11,86.05c-1.32.67-2.88.67-4.2,0l-47.12-27c-.66-.25-.99-.98-.74-1.64.13-.34.4-.61.74-.74Z"/>
          <path class="cls-9" d="M247.13,213.71l4.68-2.7c.19-.12.18-.3,0-.43l-5.41-3.12c-.23-.12-.51-.12-.75,0l-4.67,2.7c-.2.12-.19.3,0,.43l5.41,3.12c.23.12.5.12.74,0ZM237.9,203.05l-4.67,2.7c-.2.11-.19.3,0,.43l5.41,3.12c.23.12.51.12.75,0l4.68-2.7c.19-.12.18-.31,0-.43l-5.42-3.12c-.23-.12-.51-.12-.75,0ZM222.81,211.77l-7.91,4.56c-.19.12-.18.31,0,.44l5.41,3.12c.23.12.51.12.75,0l7.91-4.56c.2-.12.18-.31,0-.43l-5.41-3.13c-.23-.12-.51-.12-.74,0ZM231.07,207l-4.67,2.7c-.2.12-.19.31,0,.43l5.41,3.12c.23.12.51.12.75,0l4.68-2.7c.19-.12.18-.3,0-.43l-5.42-3.19c-.23-.12-.51-.12-.75,0v.07ZM212.73,217.58l-4.67,2.69c-.2.12-.18.31,0,.44l5.41,3.12c.23.12.5.12.74,0l4.68-2.7c.19-.12.18-.31,0-.43l-5.41-3.12c-.23-.12-.51-.12-.75,0ZM205.95,221.53l-4.67,2.7c-.2.11-.18.3,0,.43l5.41,3.12c.23.12.51.12.75,0l4.68-2.7c.19-.12.18-.31,0-.43l-5.46-3.19c-.23-.12-.51-.12-.75,0l.05.07ZM227.22,234.22l4.67-2.7c.2-.12.18-.3,0-.43l-5.41-3.12c-.23-.12-.51-.12-.74,0l-4.68,2.7c-.19.12-.18.3,0,.43l5.41,3.12c.23.09.48.07.7-.05l.05.05ZM220.38,238.16l4.68-2.7c.19-.11.18-.3,0-.43l-5.41-3.12c-.23-.12-.51-.12-.75,0l-4.67,2.7c-.2.12-.18.31,0,.43l5.41,3.12c.22.09.48.07.69-.05l.05.05ZM213.55,242.1l4.68-2.69c.19-.12.18-.31,0-.44l-5.41-3.12c-.24-.12-.51-.12-.75,0l-4.67,2.7c-.2.12-.18.31,0,.43l5.4,3.12c.23.09.48.07.7-.05l.05.05ZM206.77,246.05l4.68-2.69c.19-.12.18-.31,0-.44l-5.41-3.12c-.23-.12-.51-.12-.75,0l-4.67,2.69c-.2.12-.19.31,0,.44l5.41,3.12c.21.07.44.05.64-.05l.1.05ZM240.39,217.72l4.68-2.7c.19-.11.18-.3,0-.43l-5.41-3.12c-.24-.12-.51-.12-.75,0l-4.67,2.7c-.2.12-.19.31,0,.43l5.41,3.12c.21.07.44.05.64-.05l.1.05ZM234.1,230.31l10.42-6.03c.19-.11.18-.3,0-.43l-13.13-7.58c-.23-.12-.51-.12-.75,0l-5.39,3.12c-.2.11-.18.3,0,.43l6.96,4.01c.21.13.22.32,0,.44l-4.39,2.38c-.19.11-.18.3,0,.43l5.43,3.09c.23.14.5.15.75.05l.1.09ZM199.17,225.47l-4.67,2.7c-.2.12-.19.3,0,.43l5.41,3.12c.23.12.51.12.75,0l4.68-2.7c.19-.12.18-.3,0-.43l-5.41-3.12c-.25-.18-.58-.19-.85-.05l.1.05ZM192.39,229.41l-4.82,2.7c-.19.12-.18.31,0,.43l5.41,3.12c.23.12.51.12.75,0l4.68-2.7c.19-.11.18-.3,0-.43l-5.44-3.15c-.22-.11-.48-.12-.71-.02l.15.05ZM158.07,273.59c.23.12.51.12.75,0l4.68-2.7c.19-.11.18-.3,0-.43l-5.43-3.1c-.23-.12-.51-.12-.75,0l-4.67,2.7c-.2.12-.19.31,0,.43l5.42,3.1ZM137.57,260.92l-4.68,2.7c-.19.12-.18.3,0,.43l5.41,3.12c.23.12.51.12.75,0l4.68-2.7c.19-.12.18-.3,0-.43l-5.41-3.12c-.23-.11-.49-.11-.72,0h-.03ZM148.56,270.17c.23.12.51.12.75,0l4.67-2.7c.2-.11.18-.3,0-.43l-5.4-3.12c-.23-.12-.51-.12-.75,0l-4.68,2.7c-.19.12-.18.31,0,.43l5.41,3.12ZM170.14,275.98l4.68-2.7c.19-.12.18-.3,0-.43l-5.41-3.12c-.23-.12-.51-.12-.75,0l-4.67,2.7c-.2.11-.18.3,0,.43l5.4,3.12c.24.13.53.14.78,0h-.03ZM162.56,279.86c.23.12.51.12.75,0l4.68-2.7c.19-.11.18-.3,0-.43l-5.41-3.12c-.23-.12-.51-.12-.75,0l-4.67,2.7c-.2.12-.19.31,0,.43l5.4,3.12ZM144.4,256.92l-4.67,2.7c-.2.11-.19.3,0,.43l5.41,3.12c.23.12.51.12.75,0l4.68-2.7c.19-.12.18-.31,0-.43l-5.41-3.12c-.24-.1-.51-.07-.73.06l-.03-.06ZM178.55,237.2l-4.68,2.69c-.19.12-.18.31,0,.43l5.41,3.13c.24.12.51.12.75,0l4.67-2.69c.2-.12.19-.31,0-.44l-5.41-3.12c-.23-.09-.49-.07-.71.06l-.03-.06ZM151.29,253.03l-4.67,2.69c-.2.12-.19.31,0,.44l5.41,3.12c.24.12.51.12.75,0l4.68-2.7c.19-.12.18-.31,0-.43l-5.41-3.13c-.24-.12-.52-.11-.76,0ZM185.45,233.31l-4.72,2.68c-.19.12-.18.31,0,.43l5.41,3.12c.23.12.51.12.75,0l4.67-2.69c.2-.12.19-.31,0-.44l-5.39-3.08c-.23-.13-.51-.13-.76-.02h.04ZM171.79,241.2l-4.68,2.69c-.19.12-.18.31,0,.44l5.41,3.12c.24.12.51.12.75,0l4.67-2.69c.2-.12.18-.31,0-.44l-5.4-3.12c-.25-.13-.54-.13-.78,0h.04ZM164.95,245.15l-4.67,2.69c-.2.12-.18.31,0,.44l5.41,3.12c.24.12.51.12.75,0l4.67-2.69c.19-.12.18-.31,0-.44l-5.41-3.12c-.25-.13-.54-.13-.78,0h.04ZM158.07,249.09l-4.67,2.69c-.2.12-.18.31,0,.44l5.4,3.12c.23.12.51.12.75,0l4.68-2.69c.19-.12.18-.31,0-.44l-5.41-3.12c-.24-.12-.51-.12-.75,0ZM193,253.93l4.67-2.69c.2-.12.19-.31,0-.44l-5.42-3.19c-.24-.12-.51-.12-.75,0l-4.68,2.69c-.19.12-.18.31,0,.44l5.41,3.12c.24.14.53.14.78.02v.05ZM253.02,194.33l-4.68,2.7c-.19.12-.18.3,0,.43l5.41,3.12c.23.12.51.12.75,0l4.67-2.7c.2-.12.19-.3,0-.43l-5.41-3.12c-.23-.12-.5-.12-.74,0ZM244.74,199.11l-4.67,2.7c-.2.11-.18.3,0,.43l5.4,3.12c.24.12.51.12.75,0l4.68-2.7c.19-.12.18-.31,0-.43l-5.41-3.12c-.23-.14-.51-.16-.76-.05v.05ZM259.85,190.39l-4.67,2.7c-.2.11-.19.3,0,.43l5.41,3.12c.23.12.51.12.75,0l4.68-2.7c.19-.12.18-.31,0-.43l-5.41-3.12c-.24-.16-.55-.18-.8-.05l.05.05ZM224.48,226.86l4.68-2.7c.19-.12.18-.31,0-.43l-5.41-3.12c-.23-.12-.51-.12-.75,0l-4.67,2.7c-.2.11-.19.3,0,.43l5.41,3.12c.24.1.51.08.73-.05v.05ZM267.42,186.47c-.23-.12-.51-.12-.75,0l-4.67,2.7c-.2.11-.19.3,0,.43l5.41,3.12c.24.12.51.12.75,0l4.68-2.7c.19-.12.18-.31,0-.43l-5.42-3.12ZM199.84,249.94l4.68-2.69c.19-.12.18-.31,0-.44l-5.43-3.07c-.23-.12-.51-.12-.75,0l-4.67,2.69c-.2.12-.19.31,0,.44l5.41,3.12c.25.11.53.09.77-.05ZM283.61,201.58l4.68-2.7c.19-.11.18-.3,0-.43l-5.43-3.15c-.23-.12-.51-.12-.75,0l-4.67,2.7c-.2.12-.19.31,0,.43l5.41,3.12c.23.14.52.15.77.03h0ZM269.08,201.07l4.68-2.7c.19-.12.18-.3,0-.43l-5.41-3.12c-.23-.12-.51-.12-.75,0l-4.67,2.7c-.2.12-.19.3,0,.43l5.41,3.12c.22.13.48.14.72.05l.02-.05ZM275.15,190.87c-.23-.12-.51-.12-.75,0l-4.67,2.7c-.2.11-.19.3,0,.43l5.41,3.12c.23.12.51.12.75,0l4.68-2.7c.19-.12.18-.31,0-.43l-5.42-3.12ZM276.6,190.04l13.12,7.58c.23.12.51.12.75,0l4.68-2.7c.19-.12.18-.3,0-.43l-13.13-7.58c-.23-.12-.51-.12-.75,0l-4.67,2.7c-.25.11-.23.3-.02.43h.02ZM260.75,198.76l-4.68,2.7c-.19.12-.18.31,0,.43l5.41,3.12c.23.12.51.12.75,0l4.67-2.7c.2-.11.19-.3,0-.43l-5.41-3.12c-.22-.12-.49-.12-.72-.02l-.02.02ZM209.33,228.44l-4.7,2.7c-.19.12-.18.31,0,.43l5.41,3.12c.23.12.51.12.75,0l4.67-2.7c.2-.11.19-.3,0-.43l-5.41-3.12c-.23-.12-.5-.13-.74-.02l.02.02ZM276.05,205.52c.23.12.51.12.75,0l4.68-2.7c.19-.11.18-.3,0-.43l-5.41-3.12c-.24-.12-.51-.12-.75,0l-4.67,2.7c-.2.12-.19.31,0,.43l5.4,3.12ZM216.16,224.5l-4.67,2.7c-.2.12-.19.3,0,.43l5.41,3.12c.23.12.51.12.75,0l4.68-2.7c.19-.12.18-.3,0-.43l-5.41-3.12c-.24-.14-.53-.14-.77-.02l.02.02ZM164.95,269.67c.23.12.51.12.75,0l4.68-2.7c.19-.12.18-.3,0-.43l-5.41-3.12c-.23-.12-.51-.12-.75,0l-4.67,2.7c-.2.12-.18.3,0,.43l5.4,3.12ZM154.68,259.98l-4.68,2.7c-.19.12-.18.3,0,.43l5.41,3.12c.23.12.51.12.75,0l4.67-2.7c.2-.12.19-.3,0-.43l-5.41-3.12c-.24-.12-.52-.12-.76,0h.02ZM172.54,265.72l4.67-2.7c.19-.12.18-.31,0-.43l-5.41-3.12c-.23-.12-.51-.12-.75,0l-4.72,2.67c-.19.11-.18.3,0,.43l5.41,3.12c.24.14.53.15.78.03h.02ZM179.37,261.78l4.67-2.7c.2-.12.18-.31,0-.43l-5.4-3.12c-.23-.12-.51-.12-.75,0l-4.68,2.69c-.19.12-.18.31,0,.44l5.41,3.12c.24.12.52.12.77,0h-.02ZM186.15,257.83l4.67-2.69c.2-.12.19-.31,0-.43l-5.41-3.13c-.24-.12-.51-.12-.75,0l-4.68,2.69c-.19.12-.18.31,0,.44l5.41,3.12c.24.13.53.13.78,0h-.02ZM161.47,256.04l-4.68,2.7c-.19.11-.18.3,0,.43l5.41,3.12c.23.12.51.12.75,0l4.68-2.7c.19-.12.18-.31,0-.43l-5.41-3.12c-.23-.11-.49-.11-.72,0h-.03ZM168.3,252.09l-4.67,2.69c-.2.12-.19.31,0,.44l5.41,3.12c.24.12.51.12.75,0l4.77-2.68c.19-.12.18-.31,0-.43l-5.41-3.12c-.25-.15-.56-.16-.81-.02h-.03ZM195.62,236.32l-4.61,2.69c-.19.12-.18.31,0,.44l5.41,3.12c.24.12.51.12.75,0l4.67-2.69c.2-.12.18-.31,0-.44l-5.4-3.12c-.24-.13-.54-.13-.78,0h-.03ZM188.79,240.26l-4.67,2.69c-.19.12-.18.31,0,.44l5.41,3.12c.24.12.51.12.75,0l4.67-2.69c.2-.12.18-.31,0-.44l-5.41-3.12c-.23-.11-.49-.11-.72,0h-.03ZM202.45,232.37l-4.66,2.7c-.19.12-.18.31,0,.43l5.41,3.13c.24.12.51.12.75,0l4.67-2.7c.2-.11.19-.3,0-.43l-5.41-3.12c-.23-.11-.5-.12-.73,0h-.03ZM175.13,248.15l-4.67,2.69c-.2.12-.19.31,0,.44l5.41,3.12c.24.12.51.12.75,0l4.68-2.7c.19-.12.18-.31,0-.43l-5.41-3.13c-.23-.11-.5-.1-.73,0h-.03ZM181.96,244.21l-4.67,2.69c-.2.12-.18.31,0,.44l5.41,3.12c.23.12.51.12.74,0l4.68-2.69c.19-.12.18-.31,0-.44l-5.41-3.12c-.23-.11-.49-.11-.72,0h-.03ZM176.98,272.05l4.67-2.7c.19-.12.18-.31,0-.43l-5.41-3.12c-.23-.12-.51-.12-.75,0l-4.67,2.7c-.2.11-.18.3,0,.43l5.41,3.12c.24.13.53.13.78,0h-.03ZM136.92,267.96l-5.41-3.12c-.23-.12-.51-.12-.75,0l-4.66,2.72c-.19.12-.18.3,0,.43l5.41,3.12c.23.12.51.12.75,0l4.67-2.7c.21-.09.2-.28,0-.45ZM147.15,270.96l-5.41-3.12c-.23-.12-.5-.12-.74,0l-7.15,4.18c-.19.12-.18.31,0,.43l5.41,3.12c.23.12.51.12.75,0l7.19-4.15c.22-.1.16-.29-.05-.42v-.04ZM128.62,261.93l-5.43-3.08c-.23-.12-.51-.12-.75,0l-5.74,3.3c-.19.12-.18.31,0,.44l5.41,3.12c.23.12.51.12.75,0l5.74-3.31c.23-.11.22-.3,0-.43v-.04ZM133.03,259.38c.23.12.51.12.75,0l4.67-2.7c.2-.11.19-.3,0-.43l-5.41-3.12c-.23-.12-.51-.12-.75,0l-4.68,2.7c-.19.12-.18.31,0,.43l5.42,3.12ZM156.67,274.38l-5.38-3.08c-.24-.12-.51-.12-.75,0l-8.99,5.19c-.19.12-.18.31,0,.43l5.41,3.13c.24.12.51.12.75,0l8.99-5.19c.19-.12.18-.31-.03-.44v-.04ZM161.16,280.71l-5.41-3.06c-.23-.12-.51-.12-.75,0l-5.75,3.32c-.19.12-.18.31,0,.44l5.41,3.12c.24.12.51.12.75,0l5.75-3.32c.22-.14.21-.33,0-.46v-.04ZM183.82,230.05c.23.12.51.12.75,0l4.67-2.69c.2-.12.18-.31,0-.44l-5.41-3.12c-.24-.12-.51-.12-.75,0l-4.67,2.74c-.19.12-.18.31,0,.43l5.41,3.08ZM170.16,237.95c.24.12.51.12.75,0l4.68-2.69c.19-.12.18-.31,0-.44l-5.41-3.12c-.24-.12-.51-.12-.75,0l-4.67,2.69c-.2.12-.18.31,0,.44l5.4,3.12ZM139.86,255.47c.23.12.51.12.75,0l4.67-2.7c.2-.12.19-.3,0-.43l-5.41-3.12c-.23-.12-.51-.12-.75,0l-4.68,2.7c-.19.12-.18.3,0,.43l5.42,3.12ZM176.99,234.05c.23.12.5.12.74,0l4.68-2.69c.19-.12.18-.31,0-.44l-5.41-3.12c-.23-.12-.51-.12-.75,0l-4.67,2.69c-.2.12-.18.31,0,.44l5.41,3.12ZM163.33,241.94c.23.12.51.12.75,0l4.68-2.69c.19-.12.18-.31,0-.44l-5.41-3.12c-.24-.12-.51-.12-.75,0l-4.67,2.69c-.2.12-.19.31,0,.44l5.4,3.12ZM164.9,281.26c-.24-.12-.51-.12-.75,0l-7.19,4.14c-.19.12-.18.31,0,.44l5.41,3.12c.23.12.51.12.75,0l7.19-4.15c.2-.12.18-.31,0-.44l-5.41-3.11ZM153.52,247.62c.24.12.51.12.75,0l4.68-2.7c.19-.12.18-.31,0-.43l-5.41-3.12c-.23-.12-.51-.12-.75,0l-4.67,2.7c-.2.11-.19.3,0,.43l5.4,3.12ZM146.69,251.49c.23.12.51.12.75,0l4.68-2.7c.19-.12.18-.31,0-.43l-5.41-3.12c-.23-.12-.51-.12-.75,0l-4.67,2.7c-.2.11-.19.3,0,.43l5.4,3.12ZM291.47,208.19c-.23-.12-.51-.12-.75,0l-11.55,6.63c-.19.12-.18.31,0,.44l5.41,3.12c.24.12.51.12.75,0l11.57-6.6c.2-.12.19-.31,0-.44l-5.43-3.15ZM276.36,216.91c-.23-.12-.51-.12-.75,0l-4.67,2.69c-.2.12-.19.31,0,.44l5.41,3.12c.24.12.51.12.75,0l4.68-2.69c.19-.12.18-.31,0-.44l-5.42-3.12ZM183.83,268.11l4.67-2.7c.2-.12.18-.31,0-.43l-5.4-3.13c-.24-.12-.51-.12-.75,0l-4.68,2.69c-.19.12-.18.31,0,.44l5.41,3.12c.23.12.51.12.75,0ZM262.7,224.79c-.24-.12-.51-.12-.75,0l-4.68,2.69c-.19.12-.18.31,0,.44l5.41,3.12c.23.12.51.12.75,0l4.67-2.69c.2-.12.19-.31,0-.44l-5.4-3.12ZM298.3,204.24c-.24-.12-.51-.12-.75,0l-4.67,2.68c-.2.12-.19.31,0,.43l5.41,3.13c.24.12.51.12.75,0l4.68-2.69c.19-.12.18-.31,0-.44l-5.42-3.11ZM310.53,203.42l-13.13-7.58c-.23-.12-.51-.12-.75,0l-4.67,2.7c-.2.12-.19.31,0,.43l13.13,7.58c.23.12.51.12.75,0l4.68-2.7c.21-.11.2-.3,0-.43ZM237.18,239.54c-.23-.12-.51-.12-.75,0l-5.75,3.32c-.19.12-.18.31,0,.43l5.41,3.12c.23.12.51.12.75,0l5.75-3.32c.19-.12.18-.31,0-.43l-5.41-3.12ZM254.43,229.57c-.23-.12-.51-.12-.75,0l-7.19,4.15c-.19.12-.18.31,0,.43l5.41,3.13c.24.12.51.12.75,0l7.19-4.15c.19-.12.18-.31,0-.44l-5.41-3.12ZM221.36,248.66c-.24-.12-.51-.12-.75,0l-38.47,22.2c-.19.12-.18.31,0,.44l5.41,3.12c.24.12.51.12.75,0l38.47-22.21c.19-.12.18-.31,0-.44l-5.41-3.11ZM180.72,272.13c-.23-.12-.51-.12-.75,0l-5.74,3.32c-.2.12-.19.31,0,.43l5.41,3.12c.23.12.51.12.75,0l5.78-3.28c.19-.12.18-.31,0-.43l-5.44-3.16ZM229.26,244.1c-.24-.12-.51-.12-.75,0l-5.74,3.32c-.2.12-.19.31,0,.44l5.41,3.12c.24.12.51.12.75,0l5.75-3.32c.2-.11.18-.3,0-.43l-5.42-3.13ZM172.82,276.68c-.24-.12-.51-.12-.75,0l-5.75,3.32c-.19.12-.18.31,0,.44l5.41,3.12c.24.12.51.12.75,0l5.74-3.31c.2-.12.19-.31,0-.44l-5.4-3.13ZM245.08,234.95c-.24-.12-.51-.12-.75,0l-5.74,3.31c-.2.12-.19.31,0,.44l5.41,3.12c.24.12.51.12.75,0l5.75-3.32c.2-.12.18-.31,0-.44l-5.42-3.11ZM269.53,220.84c-.23-.12-.51-.12-.75,0l-4.67,2.69c-.2.12-.19.31,0,.44l5.41,3.12c.24.12.51.12.75,0l4.68-2.69c.19-.12.18-.31,0-.44l-5.42-3.12ZM284.5,209.97l4.67-2.69c.2-.12.19-.31,0-.44l-5.41-3.12c-.24-.12-.51-.12-.75,0l-4.68,2.7c-.19.12-.18.31,0,.43l5.41,3.13c.24.12.52.12.76,0h0ZM253.98,209.83l4.68-2.7c.19-.12.18-.31,0-.43l-5.41-3.12c-.23-.12-.51-.12-.75,0l-4.67,2.7c-.2.12-.18.3,0,.43l5.4,3.12c.23.12.51.12.75,0ZM238.48,236.6l13.66-7.89c.19-.12.18-.31,0-.44l-5.41-3.12c-.24-.12-.51-.12-.75,0l-13.66,7.9c-.19.11-.18.3,0,.43l5.41,3.12c.24.11.52.09.75-.05v.05ZM276.92,213.96c.24.12.51.12.75,0l4.67-2.69c.2-.12.19-.31,0-.44l-5.41-3.12c-.23-.12-.51-.12-.75,0l-4.68,2.69c-.19.12-.18.31,0,.44l5.42,3.12ZM269.95,209.51l4.67-2.69c.2-.12.19-.31,0-.44l-5.41-3.12c-.24-.12-.51-.12-.75,0l-4.68,2.7c-.19.12-.18.31,0,.43l5.41,3.13c.25.1.53.08.76-.06v.05ZM231.65,240.52l4.67-2.7c.2-.12.18-.3,0-.43l-5.41-3.12c-.23-.12-.51-.12-.75,0l-4.7,2.69c-.2.12-.18.3,0,.43l5.41,3.12c.26.15.57.14.82,0l-.05.02ZM261.82,222.65c.24.12.51.12.75,0l4.68-2.69c.19-.12.18-.31,0-.44l-5.41-3.12c-.24-.12-.51-.12-.75,0l-4.67,2.7c-.2.12-.19.31,0,.43l5.4,3.12ZM197.49,260.21l4.67-2.69c.2-.12.19-.31,0-.44l-5.41-3.12c-.24-.12-.51-.12-.75,0l-4.68,2.69c-.19.12-.18.31,0,.44l5.41,3.12c.24.12.52.12.76,0ZM204.32,256.27l4.68-2.69c.19-.12.18-.31,0-.44l-5.4-3.12c-.23-.12-.51-.12-.75,0l-4.68,2.69c-.19.12-.18.31,0,.44l5.41,3.12c.23.11.5.11.74,0ZM190.66,264.15l4.67-2.69c.2-.12.19-.31,0-.44l-5.4-3.12c-.24-.12-.51-.12-.75,0l-4.68,2.69c-.19.12-.18.31,0,.44l5.41,3.12c.23.12.51.12.75,0ZM217.98,248.38l4.68-2.69c.19-.12.18-.31,0-.44l-5.41-3.12c-.24-.12-.51-.12-.75,0l-4.67,2.7c-.2.12-.19.31,0,.43l5.41,3.12c.23.12.5.12.74,0ZM211.2,252.32l4.68-2.69c.19-.12.18-.31,0-.44l-5.49-3.12c-.23-.12-.51-.12-.75,0l-4.67,2.69c-.2.12-.19.31,0,.43l5.41,3.13c.24.13.53.13.78,0h.05ZM224.86,244.44l4.68-2.7c.19-.11.18-.3,0-.43l-5.41-3.12c-.23-.12-.51-.12-.75,0l-4.75,2.64c-.2.12-.18.31,0,.43l5.4,3.12c.23.15.52.17.78.06h.05ZM256.12,186.09c.23.12.51.12.75,0l4.68-2.7c.19-.11.18-.3,0-.43l-1.43-.83c-.24-.12-.51-.12-.75,0l-4.68,2.69c-.19.12-.18.31,0,.44l1.43.83ZM222.51,207.79c.23.12.51.12.75,0l4.67-2.69c.2-.12.19-.31,0-.44l-5.41-3.12c-.24-.12-.51-.12-.75,0l-4.68,2.69c-.19.12-.18.31,0,.44l5.42,3.12ZM236.17,199.9c.24.12.51.12.75,0l4.68-2.69c.19-.12.18-.31,0-.44l-5.41-3.12c-.23-.12-.51-.12-.75,0l-4.71,2.69c-.2.12-.19.31,0,.44l5.43,3.12ZM214.17,212.6c.24.12.51.12.75,0l4.67-2.7c.2-.12.19-.31,0-.43l-5.41-3.13c-.24-.12-.51-.12-.75,0l-4.68,2.69c-.19.12-.18.31,0,.44l5.42,3.13ZM229.34,203.89c.24.12.51.12.75,0l4.68-2.69c.19-.12.18-.31,0-.44l-5.41-3.12c-.24-.12-.51-.12-.75,0l-4.67,2.69c-.2.12-.19.31,0,.44l5.4,3.12ZM200.46,220.49c.23.12.51.12.75,0l4.67-2.7c.2-.12.18-.31,0-.43l-5.4-3.12c-.23-.12-.51-.12-.75,0l-4.68,2.7c-.19.11-.18.3,0,.43l5.41,3.12ZM207.29,216.55c.24.12.51.12.75,0l4.67-2.7c.2-.12.19-.31,0-.43l-5.4-3.12c-.23-.12-.51-.12-.75,0l-4.68,2.7c-.19.11-.18.3,0,.43l5.41,3.12ZM242.41,193.98c.24.12.51.12.75,0l4.68-2.69c.19-.12.18-.31,0-.44l-1.44-.83c-.24-.12-.51-.12-.75,0l-4.67,2.69c-.2.12-.18.31,0,.44l1.43.83ZM262.91,182.15c.23.12.51.12.74,0l4.68-2.7c.19-.12.18-.3,0-.43l-1.43-.83c-.23-.12-.51-.12-.75,0l-4.68,2.69c-.19.12-.18.31,0,.44l1.44.83ZM274.25,188.7c.24.12.51.12.75,0l4.68-2.7c.19-.12.18-.31,0-.43l-5.41-3.13c-.24-.12-.51-.12-.75,0l-4.67,2.69c-.2.12-.18.31,0,.44l5.4,3.13ZM291.33,206.04l4.68-2.7c.19-.11.18-.3,0-.43l-5.41-3.12c-.24-.12-.51-.12-.75,0l-4.67,2.7c-.2.12-.19.31,0,.43l5.41,3.12c.23.12.5.12.74,0h0ZM249.24,190.04c.24.12.51.12.75,0l4.68-2.69c.19-.12.18-.31,0-.44l-1.44-.83c-.24-.12-.51-.12-.75,0l-4.67,2.69c-.19.12-.18.31,0,.44l1.43.83ZM193.63,224.43c.23.12.51.12.75,0l4.67-2.7c.19-.12.18-.3,0-.43l-5.41-3.12c-.23-.12-.51-.12-.75,0l-4.67,2.7c-.19.12-.18.3,0,.43l5.41,3.12Z"/>
          <polygon class="cls-2" points="221.4 266.9 272.56 237.36 304.04 255.53 252.88 285.07 221.4 266.9"/>
        </g>
      </g>
      <g id="freepik--Window--inject-8">
        <g id="freepik--Tab--inject-8">
          <path class="cls-8" d="M107.7,118.05L260.15,30.04c2.97-1.72,5.42-.31,5.42,3.13v118.07c-.1,1.77-1.03,3.39-2.52,4.36l-156.31,90.25c-1.39.79-2.52.15-2.52-1.45v-120.3c.14-2.45,1.43-4.69,3.49-6.04Z"/>
          <path class="cls-9" d="M265.61,36v-2.83c0-3.44-2.44-4.84-5.42-3.13L107.7,118.05c-2.05,1.35-3.35,3.58-3.49,6.04v5.07l161.4-93.16Z"/>
          <path class="cls-6" d="M242.86,42.44c-1.1.72-1.8,1.92-1.87,3.24,0,1.19.83,1.68,1.87,1.08,1.1-.72,1.79-1.92,1.86-3.23,0-1.19-.83-1.68-1.86-1.09Z"/>
          <path class="cls-6" d="M250.26,38.17c-1.1.72-1.79,1.92-1.86,3.24,0,1.19.83,1.67,1.86,1.08,1.1-.72,1.8-1.92,1.87-3.24,0-1.19-.83-1.68-1.87-1.08Z"/>
          <path class="cls-6" d="M257.68,33.88c-1.1.72-1.79,1.92-1.87,3.24,0,1.19.84,1.68,1.87,1.08,1.1-.72,1.8-1.91,1.87-3.23,0-1.19-.84-1.68-1.87-1.09Z"/>
        </g>
      </g>
      <g id="freepik--magnifying-glass--inject-8">
        <g id="freepik--Lens--inject-8">
          <rect class="cls-1" x="117.1" y="194.4" width="29.05" height="6.85" transform="translate(-105.51 212.9) rotate(-60)"/>
          <rect class="cls-2" x="118.6" y="196.97" width="29.05" height="3.42" transform="translate(-105.5 214.63) rotate(-60)"/>
          <path class="cls-10" d="M105.47,257.83c-2.7,4.7-15.5-2.76-12.81-7.39l33.37-52.05c.19-.29.57-.39.87-.21l6.7,3.88c.3.17.41.55.25.85l-28.4,54.93Z"/>
          <path class="cls-5" d="M105.47,257.83l28.39-54.93c.16-.31.05-.68-.25-.85l-3.05-1.76-32.54,57.85c2.96,1.46,6.24,1.82,7.46-.3Z"/>
          <path class="cls-10" d="M203.61,135.29c0-.4,0-.78-.06-1.17s0-.77-.09-1.14,0-.5-.08-.76c-.07-.66-.16-1.31-.27-1.94-.05-.28-.1-.57-.16-.85s-.11-.53-.16-.79c-.16-.72-.34-1.41-.54-2.08-.11-.32-.2-.64-.31-.97-.02-.05-.04-.1-.05-.15-.12-.31-.22-.61-.34-.9s-.27-.68-.43-.97-.21-.47-.34-.71c-.07-.17-.15-.34-.25-.5-.1-.2-.2-.41-.32-.6s-.05-.1-.08-.14-.2-.35-.31-.52-.15-.22-.21-.33c-.5-.78-1.05-1.52-1.67-2.22l-.31-.35-.26-.27c-.11-.12-.22-.22-.34-.34-.3-.32-.63-.62-.97-.9-.16-.15-.34-.28-.51-.41l-.53-.39c-.28-.2-.56-.39-.86-.56l-.23-.15h-.05l-13.73-7.92h0l-.08-.05c-2.63-1.47-5.61-2.22-8.62-2.18-4.5,0-9.57,1.47-14.95,4.57-18.47,10.66-33.44,36.6-33.44,57.93,0,10.66,3.72,18.12,9.74,21.62h.06l13.74,7.91h.06l.16.09c.26.15.52.29.79.42.33.16.67.31.97.45s.61.24.92.34l.49.15c.17.07.35.12.53.16.18.05.36.1.54.14.13.04.26.07.4.09.23.05.48.1.73.13.05,0,.11,0,.16,0,.29.05.58.09.87.12,4.98.52,10.77-.88,16.97-4.46,18.47-10.66,33.45-36.61,33.45-57.93-.05-.45-.05-.95-.05-1.45ZM181.2,120.2c.73,2.65,1.08,5.39,1.06,8.14,0,18.81-13.77,42.63-30.03,52.06-2.38,1.41-4.95,2.48-7.62,3.17-.72-2.66-1.08-5.4-1.06-8.15,0-18.81,13.77-42.63,30.03-52.06,2.37-1.41,4.93-2.47,7.6-3.16h.03Z"/>
          <path class="cls-5" d="M146.03,196.8l-13.34-7.69c-6.02-3.52-9.74-11-9.74-21.61,0-9.51,2.98-19.94,7.91-29.51l13.74,7.91c-4.94,9.57-7.91,20-7.91,29.51,0,10.42,3.55,17.8,9.34,21.4Z"/>
          <path class="cls-4" d="M203.61,135.29c0-.4,0-.78-.06-1.17s0-.77-.09-1.14,0-.5-.08-.76c-.07-.66-.16-1.31-.27-1.94-.05-.28-.1-.57-.16-.85s-.11-.53-.16-.79c-.16-.72-.34-1.41-.54-2.08-.11-.32-.2-.64-.31-.97-.02-.05-.04-.1-.05-.15-.12-.31-.22-.61-.34-.9s-.27-.68-.43-.97-.21-.47-.34-.71c-.07-.17-.15-.34-.25-.5-.1-.2-.2-.41-.32-.6s-.05-.1-.08-.14-.2-.35-.31-.52-.15-.22-.21-.33c-.5-.78-1.05-1.52-1.67-2.22l-.31-.35-.26-.27c-.11-.12-.22-.22-.34-.34-.3-.32-.63-.62-.97-.9-.16-.15-.34-.28-.51-.41l-.53-.39c-.28-.2-.56-.39-.86-.56-6.07-3.69-14.53-3.26-23.94,2.16-18.47,10.66-33.45,36.6-33.45,57.93,0,10.8,3.88,18.35,10.03,21.78.26.15.52.29.79.42.33.16.67.31.97.45s.61.24.92.34l.49.15c.17.07.35.12.53.16.18.05.36.1.54.14.13.04.26.07.4.09.23.05.48.1.73.13.05,0,.11,0,.16,0,.29.05.58.09.87.12,4.98.52,10.77-.88,16.97-4.46,18.47-10.66,33.45-36.61,33.45-57.93-.03-.48-.03-.99-.03-1.49ZM166.79,188.87c-4.15,2.39-8.14,3.65-11.55,3.65-6.4,0-9.35-4.37-10.66-8.95-.72-2.66-1.08-5.4-1.06-8.15,0-18.81,13.77-42.63,30.03-52.06,2.38-1.41,4.95-2.47,7.62-3.16,1.27-.31,2.57-.48,3.88-.49,10.59,0,11.72,11.95,11.72,17.1.04,18.78-13.73,42.66-29.99,52.06h0Z"/>
          <path class="cls-5" d="M196.83,136.81c0,18.81-13.76,42.63-30.03,52.06-4.15,2.39-8.14,3.65-11.55,3.65-6.4,0-9.35-4.37-10.66-8.95,2.68-.69,5.25-1.75,7.62-3.17,16.29-9.41,30.03-33.25,30.03-52.06.02-2.75-.33-5.49-1.06-8.14,1.27-.31,2.57-.48,3.88-.49,10.62.03,11.76,11.95,11.76,17.1Z"/>
          <path class="cls-3" d="M191.01,133.52c0,18.81-13.76,42.63-30.03,52.06-4.15,2.39-8.14,3.65-11.55,3.65-.68,0-1.36-.05-2.02-.16-1.31-1.62-2.26-3.49-2.8-5.5-.72-2.66-1.08-5.4-1.06-8.15,0-18.81,13.77-42.63,30.03-52.06,2.38-1.41,4.95-2.47,7.62-3.16,1.27-.31,2.57-.48,3.88-.49.68,0,1.36.05,2.03.16,3.35,3.94,3.89,10.27,3.89,13.65Z"/>
        </g>
      </g>
      <g id="freepik--search-tab--inject-8">
        <g id="freepik--search-taba--inject-8">
          <path class="cls-6" d="M214.43,113.92v21.45c0,1.61,1.13,2.26,2.52,1.45l140.57-81.15c1.48-.97,2.42-2.59,2.52-4.36v-21.48c0-1.61-1.13-2.26-2.52-1.45l-140.57,81.15c-1.49.98-2.43,2.61-2.52,4.39Z"/>
          <path class="cls-10" d="M216.95,109.54l25.03-14.44v27.26l-25.03,14.44c-1.39.8-2.52.16-2.52-1.45v-21.42c.09-1.78,1.03-3.41,2.52-4.39Z"/>
          <path class="cls-6" d="M233.7,106.99c-1.58-.91-3.57-.77-5.62.42-3.94,2.53-6.42,6.8-6.64,11.48-.07,1.49.4,2.96,1.33,4.14l-2.69,4.61c-.36.68-.13,1.54.53,1.94.22.12.47.19.73.19.52,0,1-.28,1.26-.73l2.66-4.61c.29.05.58.08.87.09,1.19-.02,2.35-.36,3.37-.97,3.93-2.53,6.4-6.81,6.63-11.48.03-2.35-.84-4.16-2.43-5.08ZM228.08,121.04c-.83.89-2.23.94-3.12.11-.62-.58-.86-1.46-.61-2.26.23-3.63,2.15-6.95,5.18-8.96.58-.37,1.25-.58,1.94-.61.28-.01.57.06.81.19.74.63,1.11,1.6.97,2.57-.23,3.63-2.14,6.95-5.17,8.96Z"/>
        </g>
      </g>
    </g>
  </g>
</svg>