<?xml version="1.0" encoding="UTF-8"?>
<svg xmlns="http://www.w3.org/2000/svg" viewBox="0 0 345.61 353.46">
  <defs>
    <style>
      .cls-1 {
        fill: #37474f;
      }

      .cls-2 {
        fill: #b16668;
      }

      .cls-3 {
        opacity: .55;
      }

      .cls-3, .cls-4, .cls-5, .cls-6, .cls-7, .cls-8, .cls-9, .cls-10, .cls-11, .cls-12 {
        isolation: isolate;
      }

      .cls-3, .cls-13, .cls-7, .cls-8, .cls-9 {
        fill: #fff;
      }

      .cls-4 {
        opacity: .15;
      }

      .cls-14 {
        fill: #263238;
      }

      .cls-15 {
        fill: #9a4a4d;
      }

      .cls-16 {
        fill: #f0f0f0;
      }

      .cls-17 {
        fill: #ffa8a7;
      }

      .cls-18 {
        fill: #f28f8f;
      }

      .cls-19 {
        opacity: .47;
      }

      .cls-6 {
        opacity: .2;
      }

      .cls-7 {
        opacity: .7;
      }

      .cls-8 {
        mix-blend-mode: screen;
        opacity: .9;
      }

      .cls-9 {
        opacity: .35;
      }

      .cls-10 {
        opacity: .3;
      }

      .cls-10, .cls-20, .cls-11 {
        fill: #7379ff;
      }

      .cls-21 {
        fill: #455a64;
      }

      .cls-22 {
        fill: #fafafa;
      }

      .cls-11 {
        opacity: .25;
      }

      .cls-12 {
        opacity: .1;
      }
    </style>
  </defs>
  <g class="cls-5">
    <g id="Capa_2" data-name="Capa 2">
      <g id="Capa_17" data-name="Capa 17">
        <g>
          <g id="freepik--Floor--inject-319" class="cls-19">
            <ellipse id="freepik--floor--inject-319" class="cls-20" cx="172.8" cy="253.69" rx="172.8" ry="99.77"/>
          </g>
          <g id="freepik--Puzzle--inject-319">
            <g id="freepik--puzzle-pieces--inject-319">
              <path class="cls-6" d="M211.2,277.03c-15.13,9.59-27.73,17.26-34.27,17.49-5.18.17-7.36-2.93-7.7-5.61-.26-2.16-1.57-4.05-3.49-5.06-4.99-2.89-15.17-1.75-22.59,2.56-7.42,4.31-9.43,10.15-4.44,13.03,1.43.81,4.09,1.84,8.77,2,4.68.16,9.99,1.47,9.74,4.44-.45,4.97-11.7,11.23-31.09,21.19-3.79-2.21-7.3-4.29-10.37-6.17-11.46-6.93-19-11.49-26.31-11.1-6.27.33-9.8,4.11-10.93,7.24-.8,2.05-2.3,3.75-4.23,4.81-5.05,2.93-13.9,2.58-19.72-.8-5.82-3.38-6.44-8.48-1.39-11.37,1.43-.83,4.03-1.92,8.34-2.43,5.42-.66,11.97-2.7,12.54-6.31.76-4.29-8.77-9.55-21.91-16.84-3.25-1.79-6.64-3.65-10.09-5.65l5.1-3.03c17.37-10.27,23.77-14.71,31.45-14.92,5.13-.17,7.34,2.93,7.67,5.61.26,2.15,1.55,4.03,3.47,5.05,5.01,2.89,15.17,1.76,22.61-2.56,7.45-4.31,9.43-10.15,4.42-13.04-1.43-.83-4.07-1.84-8.75-2.02s-9.99-1.47-9.72-4.44c.43-5.2,11.37-11.51,28.99-20.63l3.79,2.21c15.97,9.27,25.64,14.85,34.29,14.41,6.25-.33,9.8-4.1,10.93-7.24.79-2.05,2.28-3.75,4.21-4.81,5.06-2.93,13.93-2.56,19.72.8,5.79,3.36,6.45,8.49,1.4,11.37-1.43.83-4.03,1.92-8.34,2.41-5.41.67-11.93,2.73-12.54,6.32-.76,4.77,9.51,10.99,24.17,19.48l6.27,3.6Z"/>
              <path class="cls-6" d="M272.97,243.15c-.29,3.61,5.8,5.14,11.1,5.31,4.21.19,6.56,1.08,7.8,1.77,4.39,2.54,2.47,7.76-4.28,11.64-6.75,3.88-15.74,4.99-20.13,2.45-1.69-.91-2.82-2.59-3.03-4.5-.35-3.07-2.97-6.58-9.24-6.41-7.2.2-16.22,6.64-29.82,14.96-3.87,2.39-8.27,5.07-12.96,7.84l-3.26-1.87c-15.32-8.83-27.42-15.8-26.68-20.47.49-3,6.21-4.71,10.93-5.31,4.72-.6,7.72-1.81,9.35-2.77,5.78-3.32,5.24-9.1-1.22-12.78-6.46-3.69-16.4-4.05-22.18-.76-2.18,1.19-3.87,3.1-4.78,5.41-.97,2.74-3.96,6.03-9.14,6.32-7.91.43-17.39-5.06-33.08-14.13l-3.37-1.96c4.89-2.49,9.6-4.81,13.79-6.82,14.34-7.01,23.81-11.65,24.16-15.78.29-3.62-5.79-5.14-11.1-5.35-4.21-.17-6.56-1.05-7.8-1.75-4.4-2.54-2.48-7.76,4.25-11.64s15.76-5,20.16-2.46c1.69.91,2.82,2.59,3.03,4.5.36,3.03,3,6.58,9.24,6.42,7.02-.21,11.41-3.37,23.92-11.95,4.09-2.81,8.34-5.69,12.89-8.7,3.45,2,6.82,3.86,10.09,5.65,12.36,6.82,22.12,12.26,21.47,16.11-.47,2.97-6.19,4.71-10.91,5.31s-7.76,1.81-9.36,2.74c-5.8,3.34-5.24,9.1,1.21,12.83s16.42,4.05,22.22.71c2.17-1.19,3.85-3.1,4.76-5.41,1.51-3.75,5.12-6.24,9.16-6.32,6.52-.35,13.91,4.11,25.02,10.86,3.12,1.9,6.65,4.02,10.5,6.25-3.61,1.86-7.11,3.61-10.37,5.26-16.01,8.09-22,10.37-22.37,14.82Z"/>
              <path class="cls-1" d="M166.95,184.16c.29-3.61-5.8-5.13-11.1-5.35-4.21-.16-6.56-1.05-7.8-1.75-1.41-.67-2.32-2.07-2.36-3.63v18.84h0c.04,1.56.95,2.96,2.35,3.63.49.27.99.51,1.52.7,10.5-5.21,17.1-9,17.39-12.44Z"/>
              <path class="cls-21" d="M165.44,222.89v18.84c5.18-.29,8.17-3.57,9.14-6.32v-18.84c-.96,2.74-3.96,6.02-9.14,6.31Z"/>
              <path class="cls-14" d="M132.36,208.76l-3.36-1.96v18.84l3.36,1.96c15.68,9.1,25.17,14.57,33.08,14.13v-18.85c-7.9.44-17.39-5.05-33.08-14.13Z"/>
              <path class="cls-20" d="M201.55,211.89c-6.44-3.73-16.4-4.04-22.18-.72-2.18,1.19-3.87,3.1-4.79,5.41v18.84c.92-2.31,2.61-4.22,4.79-5.41,3.13-1.8,7.5-2.53,11.87-2.22.76-.14,1.47-.26,2.18-.34,4.79-.58,7.72-1.82,9.35-2.77,5.78-3.32,5.24-9.08-1.21-12.79Z"/>
              <path class="cls-1" d="M232.86,183.03c1.62-.93,4.59-2.17,9.37-2.74s10.44-2.31,10.91-5.31c.03-.12.04-.24.04-.36v18.87h0c.01.11.01.22,0,.33-.4,2.54-4.62,4.16-8.78,4.96-3.6-.2-7.11-1.21-10.27-2.94-6.5-3.72-7.05-9.46-1.27-12.81Z"/>
              <path class="cls-14" d="M209.15,253.18c-14.88-8.58-26.72-15.41-26.7-20.04h0v18.85h0c0,4.64,11.83,11.47,26.7,20.03l3.25,1.88v-18.85l-3.25-1.87Z"/>
              <path class="cls-21" d="M287.61,240.71c-6.73,3.91-15.74,5-20.14,2.46l-.3,18.67.3.17c4.4,2.54,13.41,1.45,20.14-2.45,4.31-2.48,6.63-5.51,6.62-8.03h0v-18.69c-.06,2.49-2.37,5.44-6.62,7.87Z"/>
              <path class="cls-1" d="M264.41,238.7c-.35-3.08-2.96-6.58-9.24-6.41v18.84c6.28-.17,8.89,3.34,9.24,6.41.2,1.79,1.21,3.39,2.75,4.32l.3-18.67c-1.7-.9-2.84-2.59-3.06-4.5Z"/>
              <path class="cls-21" d="M225.36,247.21c-3.89,2.4-8.27,5.08-12.96,7.84v18.85c4.69-2.77,9.1-5.45,12.96-7.84,13.6-8.34,22.61-14.76,29.81-14.96v-18.84c-7.2.2-16.21,6.64-29.81,14.95Z"/>
              <path class="cls-21" d="M305.78,201.95v18.84c-3.61,1.86-7.12,3.61-10.38,5.26-1.73.86-3.34,1.67-4.85,2.41-2.08-.73-4.27-1.13-6.48-1.16-5.31-.19-11.37-1.71-11.1-5.31.37-4.44,6.35-6.71,22.42-14.78,3.28-1.66,6.77-3.4,10.38-5.27Z"/>
              <path class="cls-21" d="M272.97,222.01c-.29,3.61,5.8,5.13,11.1,5.31,4.21.18,6.56,1.07,7.8,1.77,4.39,2.54,2.47,7.76-4.28,11.64-6.75,3.88-15.74,4.99-20.13,2.45-1.69-.91-2.82-2.59-3.03-4.5-.35-3.07-2.97-6.58-9.24-6.41-7.2.2-16.22,6.64-29.82,14.96-3.87,2.39-8.27,5.07-12.96,7.84l-3.24-1.88c-15.32-8.83-27.42-15.8-26.68-20.47.49-3,6.21-4.71,10.93-5.31,4.72-.6,7.72-1.81,9.35-2.77,5.78-3.32,5.24-9.1-1.22-12.79s-16.4-4.04-22.18-.72c-2.18,1.19-3.87,3.1-4.78,5.41-.97,2.74-3.96,6.03-9.14,6.32-7.91.43-17.39-5.06-33.08-14.13l-3.37-1.96c4.89-2.49,9.6-4.81,13.79-6.82,14.34-7.01,23.81-11.65,24.16-15.79.29-3.61-5.79-5.13-11.1-5.31-4.21-.17-6.56-1.05-7.8-1.76-4.4-2.53-2.48-7.76,4.25-11.63s15.76-5,20.16-2.46c1.69.91,2.82,2.59,3.03,4.5.36,3.03,3,6.58,9.24,6.41,7.02-.2,11.41-3.36,23.92-11.94,4.09-2.81,8.34-5.69,12.89-8.7,3.45,2,6.82,3.86,10.09,5.65,12.36,6.82,22.12,12.26,21.47,16.11-.47,2.97-6.19,4.71-10.91,5.31s-7.76,1.81-9.36,2.74c-5.8,3.34-5.24,9.1,1.21,12.83,6.45,3.73,16.42,4.05,22.22.71,2.17-1.19,3.85-3.1,4.76-5.41,1.51-3.76,5.12-6.26,9.18-6.34,6.52-.35,13.91,4.11,25.02,10.85,3.12,1.9,6.65,4.03,10.5,6.26-3.61,1.86-7.11,3.61-10.37,5.26-16.05,8.05-22.04,10.32-22.41,14.79Z"/>
              <path class="cls-1" d="M221.63,155.02c3.03,1.73,5.94,3.35,8.8,4.92l.53.29c6.24,3.47,11.62,6.45,15.47,9.1,4.95,3.42,5.31,4.94,5.22,5.44-.26,1.62-4.48,3.39-9.6,4.01s-8.2,1.94-9.94,2.94c-3.08,1.77-4.77,4.28-4.77,7.07,0,3.12,2.18,6.18,5.98,8.38,3.98,2.16,8.45,3.27,12.97,3.22,3.75.09,7.45-.77,10.77-2.52,2.48-1.37,4.4-3.56,5.43-6.2.83-2.27,3.39-5.07,7.82-5.31h.64c5.94,0,13.32,4.47,23.51,10.62,2.2,1.34,4.99,3.03,8.13,4.88l-4.94,2.49-2.96,1.52c-2.27,1.13-4.29,2.14-6.16,3.03-12.13,6.02-16.68,8.27-17.1,12.94-.1,1.24.33,2.47,1.18,3.38,2.64,2.96,8.84,3.49,11.37,3.58,3.88.17,6.01.95,7.11,1.57.93.41,1.55,1.31,1.6,2.33,0,2.01-2.27,4.63-5.88,6.69-3.98,2.29-8.48,3.53-13.07,3.62-1.93.09-3.84-.32-5.57-1.18-1.27-.66-2.13-1.92-2.27-3.34-.41-3.59-3.36-7.77-10.34-7.77h-.46c-6.45.18-13.96,4.87-24.36,11.37-1.98,1.23-4.03,2.5-6.21,3.84-4.55,2.82-8.46,5.18-12.17,7.38l-2.47-1.43c-7.42-4.28-14.41-8.34-19.24-11.72-6.13-4.33-6.82-6.35-6.7-7.17.28-1.65,4.41-3.38,9.62-4.02,5.05-.61,8.19-1.95,9.93-2.96,3.07-1.77,4.76-4.28,4.76-7.07,0-3.12-2.18-6.17-5.98-8.34-3.98-2.16-8.45-3.27-12.98-3.22-3.73-.09-7.42.77-10.72,2.5-2.49,1.37-4.42,3.57-5.46,6.21-.8,2.27-3.34,5.06-7.79,5.31h-.8c-7.34,0-16.41-5.25-31.43-13.95l-.96-.56c4.05-2.04,7.92-3.94,11.28-5.57,15.32-7.5,24.58-12.03,25.02-17.03.09-1.24-.33-2.46-1.18-3.37-2.62-2.96-8.83-3.5-11.37-3.6-3.87-.15-6.01-.93-7.1-1.52-.94-.41-1.56-1.31-1.61-2.33,0-2.01,2.27-4.63,5.85-6.68,3.99-2.28,8.49-3.53,13.09-3.62,1.92-.09,3.84.31,5.57,1.17,1.27.67,2.12,1.92,2.27,3.35.41,3.58,3.36,7.76,10.33,7.76h.46c7.26-.21,11.72-3.28,23.66-11.47l1.07-.76c3.22-2.21,7.45-5.1,12.13-8.17M221.6,153.27c-4.55,3.03-8.83,5.9-12.89,8.7-12.55,8.55-16.95,11.71-23.96,11.91h-.42c-5.95,0-8.48-3.43-8.83-6.42-.22-1.9-1.35-3.58-3.03-4.5-1.96-.98-4.13-1.45-6.32-1.36-4.86.08-9.62,1.39-13.85,3.79-6.73,3.87-8.64,9.1-4.25,11.63,1.24.71,3.59,1.59,7.8,1.76,5.31.2,11.37,1.73,11.1,5.31-.35,4.13-9.86,8.77-24.16,15.79-4.19,2.04-8.89,4.35-13.79,6.82l3.37,1.96c15.1,8.74,24.46,14.16,32.2,14.16h.88c5.18-.29,8.17-3.57,9.14-6.32.91-2.31,2.61-4.22,4.78-5.41,3.07-1.59,6.5-2.37,9.96-2.27,4.26-.05,8.47,1,12.22,3.03,6.46,3.72,7,9.47,1.22,12.79-1.63.96-4.55,2.19-9.35,2.77-4.8.58-10.44,2.27-10.93,5.31-.76,4.64,11.37,11.61,26.68,20.47l3.24,1.88c4.69-2.77,9.1-5.45,12.96-7.84,13.6-8.34,22.61-14.76,29.82-14.96h.42c5.97,0,8.48,3.42,8.82,6.42.21,1.91,1.34,3.59,3.03,4.5,1.95.99,4.12,1.46,6.31,1.37,4.85-.08,9.61-1.39,13.82-3.79,6.75-3.88,8.67-9.1,4.28-11.64-1.24-.71-3.59-1.59-7.8-1.77-5.31-.19-11.37-1.71-11.1-5.31.37-4.44,6.35-6.7,22.43-14.77,3.26-1.65,6.76-3.4,10.37-5.26-3.85-2.23-7.39-4.35-10.49-6.26-10.73-6.57-17.97-10.91-24.32-10.91h-.76c-4.04.08-7.65,2.57-9.16,6.32-.91,2.3-2.59,4.21-4.76,5.41-3.09,1.61-6.53,2.41-10.01,2.31-4.26.05-8.47-1-12.22-3.03-6.45-3.73-7.01-9.49-1.21-12.83,1.61-.93,4.55-2.17,9.36-2.74s10.44-2.31,10.91-5.31c.64-3.85-9.1-9.26-21.47-16.11-3.26-1.79-6.64-3.65-10.09-5.65l.05.05Z"/>
              <path class="cls-22" d="M211.2,255.86c-15.13,9.59-27.73,17.26-34.27,17.49-5.18.17-7.36-2.93-7.7-5.61-.26-2.16-1.56-4.05-3.49-5.06-4.99-2.89-15.17-1.75-22.59,2.56s-9.43,10.15-4.44,13.03c1.43.8,4.09,1.84,8.77,2s9.99,1.46,9.74,4.44c-.45,4.97-11.7,11.22-31.09,21.19-3.79-2.21-7.3-4.29-10.37-6.17-11.46-6.93-19-11.49-26.31-11.1-6.27.33-9.8,4.11-10.93,7.24-.8,2.05-2.3,3.75-4.23,4.81-5.05,2.93-13.9,2.58-19.72-.8s-6.44-8.48-1.39-11.37c1.43-.83,4.03-1.92,8.34-2.43,5.42-.66,11.97-2.7,12.54-6.31.76-4.29-8.77-9.55-21.91-16.84-3.25-1.79-6.64-3.65-10.09-5.65l5.1-3.03c17.37-10.27,23.77-14.71,31.45-14.92,5.13-.16,7.34,2.93,7.67,5.62.26,2.15,1.55,4.03,3.47,5.05,5.01,2.89,15.17,1.76,22.61-2.56,7.45-4.31,9.43-10.15,4.42-13.04-1.43-.83-4.07-1.84-8.75-2.02-4.68-.18-9.99-1.47-9.72-4.44.43-5.2,11.37-11.51,28.99-20.63l3.79,2.21c15.97,9.27,25.64,14.85,34.29,14.41,6.25-.33,9.8-4.1,10.93-7.24.79-2.05,2.28-3.75,4.21-4.81,5.06-2.93,13.93-2.56,19.72.8s6.45,8.49,1.4,11.41c-1.43.83-4.03,1.92-8.34,2.41-5.41.66-11.93,2.73-12.54,6.32-.76,4.77,9.51,10.99,24.17,19.48l6.27,3.56Z"/>
              <path class="cls-20" d="M127.21,209.02l3.09,1.79c15.71,9.1,25.19,14.61,34.02,14.61h1.11c7-.37,10.99-4.67,12.28-8.24.67-1.71,1.93-3.13,3.54-4.01,2.42-1.25,5.11-1.86,7.83-1.77,3.63-.04,7.21.85,10.4,2.59,2.58,1.52,4.06,3.35,4.06,5.12s-1.45,2.91-2.69,3.67-3.72,1.76-7.78,2.22c-3.03.36-12.89,1.99-13.86,7.58-.95,5.76,8.85,11.75,24.92,21.03l4.09,2.36c-13.77,8.7-25.52,15.7-31.38,15.92h-.35c-3.88,0-5.54-2.21-5.79-4.28-.31-2.63-1.89-4.95-4.23-6.2-2.49-1.3-5.27-1.93-8.08-1.85-5.62.09-11.12,1.58-16.01,4.35-5.05,2.91-7.95,6.6-7.95,10.12,0,2.27,1.24,4.25,3.53,5.56s5.51,2.06,9.45,2.2c3.79.15,7.04,1.02,8.04,2.15.18.16.27.4.26.64-.39,4.24-12.99,11.09-29.57,19.6-3.23-1.87-6.46-3.79-9.64-5.74-11.28-6.82-18.74-11.37-26.21-11.37h-.96c-7,.36-10.99,4.66-12.28,8.23-.69,1.72-1.95,3.14-3.57,4.02-2.42,1.25-5.12,1.87-7.84,1.78-3.61.06-7.18-.8-10.37-2.49-2.57-1.52-4.05-3.34-4.05-5.11s1.46-2.95,2.68-3.65,3.7-1.75,7.73-2.24c3.03-.37,12.97-2,13.85-7.58.9-5.35-7.97-10.27-22.67-18.42l-.52-.29c-2.37-1.3-4.82-2.65-7.29-4.06l1.11-.67,1.74-1.04,6-3.56c12.63-7.54,18.39-10.97,24.72-11.15h.34c3.87,0,5.53,2.21,5.78,4.27.3,2.63,1.88,4.95,4.22,6.2,2.51,1.29,5.32,1.91,8.14,1.8,5.62-.08,11.12-1.58,16.01-4.36,5.05-2.91,7.95-6.59,7.95-10.11,0-2.27-1.26-4.25-3.53-5.56-2.27-1.31-5.45-2.06-9.46-2.22-3.79-.14-7.01-.99-8.01-2.14-.18-.17-.27-.41-.24-.66.38-4.55,13.1-11.59,27.43-19.02M127.21,207.31c-17.62,9.1-28.56,15.42-28.99,20.63-.27,2.96,5.06,4.27,9.72,4.44s7.32,1.19,8.74,2.02c5.02,2.89,3.03,8.75-4.41,13.04-4.64,2.64-9.87,4.07-15.21,4.16-2.55.1-5.09-.45-7.36-1.6-1.91-1.02-3.21-2.9-3.47-5.05-.33-2.62-2.43-5.62-7.29-5.62h-.39c-7.67.21-14.07,4.65-31.45,14.92l-5.1,3.03c3.44,2,6.82,3.86,10.09,5.65,13.15,7.29,22.63,12.55,21.91,16.84-.58,3.61-7.12,5.65-12.54,6.31-4.29.52-6.89,1.61-8.34,2.43-5.05,2.91-4.45,8.03,1.39,11.37,3.41,1.87,7.25,2.83,11.14,2.79,2.99.09,5.95-.6,8.6-1.99,1.93-1.06,3.43-2.76,4.23-4.81,1.14-3.13,4.66-6.91,10.93-7.24h.88c7.04,0,14.41,4.47,25.43,11.12,3.03,1.88,6.56,3.97,10.37,6.17,19.4-9.97,30.64-16.22,31.09-21.19.24-2.97-5.08-4.25-9.74-4.44s-7.34-1.2-8.77-2c-4.99-2.89-3.03-8.74,4.44-13.03,4.65-2.65,9.89-4.08,15.24-4.16,2.54-.1,5.07.45,7.35,1.59,1.92,1.01,3.23,2.9,3.49,5.06.33,2.62,2.4,5.62,7.3,5.62h.39c6.54-.23,19.15-7.89,34.27-17.49l-6.28-3.61c-14.67-8.49-24.96-14.71-24.17-19.48.61-3.59,7.14-5.66,12.54-6.32,4.33-.49,6.93-1.58,8.34-2.41,5.05-2.93,4.44-8.05-1.4-11.41-3.41-1.85-7.23-2.81-11.11-2.78-2.99-.09-5.94.6-8.59,1.98-1.93,1.06-3.42,2.76-4.21,4.81-1.14,3.14-4.69,6.92-10.93,7.24h-1.03c-8.39,0-17.92-5.51-33.26-14.41l-3.79-2.21-.07.02Z"/>
              <path class="cls-20" d="M52.11,281.75c-3.26-1.79-6.65-3.65-10.09-5.65v-18.84c3.44,2,6.82,3.85,10.09,5.65,13.14,7.29,22.63,12.54,21.91,16.83-.58,3.62-7.12,5.66-12.54,6.32-.47.05-.92.12-1.34.19-2.46-1.41-5.16-2.9-8.02-4.5Z"/>
              <path class="cls-6" d="M52.11,281.75c-3.26-1.79-6.65-3.65-10.09-5.65v-18.84c3.44,2,6.82,3.85,10.09,5.65,13.14,7.29,22.63,12.54,21.91,16.83-.58,3.62-7.12,5.66-12.54,6.32-.47.05-.92.12-1.34.19-2.46-1.41-5.16-2.9-8.02-4.5Z"/>
              <path class="cls-20" d="M103.8,250.73c-3.16-.62-5.74-1.88-5.55-3.97h0v-18.64c0,2.82,5.18,4.07,9.73,4.22,4.69.19,7.32,1.2,8.75,2.02,5.01,2.89,3.03,8.75-4.42,13.04-2.65,1.51-5.5,2.63-8.46,3.32h-.05Z"/>
              <path class="cls-12" d="M103.8,250.73c-3.16-.62-5.74-1.88-5.55-3.97h0v-18.64c0,2.82,5.18,4.07,9.73,4.22,4.69.19,7.32,1.2,8.75,2.02,5.01,2.89,3.03,8.75-4.42,13.04-2.65,1.51-5.5,2.63-8.46,3.32h-.05Z"/>
              <path class="cls-20" d="M54.51,299.88c-3.19-1.84-4.82-4.19-4.81-6.43h0v18.8h0c0,2.27,1.59,4.61,4.8,6.45,5.84,3.39,14.69,3.74,19.72.81v-18.83c-4.99,2.93-13.84,2.58-19.71-.8Z"/>
              <path class="cls-12" d="M54.51,299.88c-3.19-1.84-4.82-4.19-4.81-6.43h0v18.8h0c0,2.27,1.59,4.61,4.8,6.45,5.84,3.39,14.69,3.74,19.72.81v-18.83c-4.99,2.93-13.84,2.58-19.71-.8Z"/>
              <path class="cls-20" d="M74.29,300.68v18.85c1.92-1.06,3.42-2.76,4.22-4.81v-18.85c-.8,2.05-2.3,3.75-4.22,4.81Z"/>
              <path class="cls-20" d="M74.29,300.68v18.85c1.92-1.06,3.42-2.76,4.22-4.81v-18.85c-.8,2.05-2.3,3.75-4.22,4.81Z"/>
              <path class="cls-20" d="M115.76,299.74c-11.45-6.93-19-11.5-26.31-11.1-6.27.33-9.8,4.11-10.93,7.24v18.85c1.14-3.14,4.66-6.92,10.93-7.25,7.31-.39,14.86,4.17,26.31,11.1,3.03,1.88,6.56,3.97,10.37,6.17v-18.84c-3.81-2.21-7.3-4.28-10.37-6.17Z"/>
              <path class="cls-6" d="M115.76,299.74c-11.45-6.93-19-11.5-26.31-11.1-6.27.33-9.8,4.11-10.93,7.24v18.85c1.14-3.14,4.66-6.92,10.93-7.25,7.31-.39,14.86,4.17,26.31,11.1,3.03,1.88,6.56,3.97,10.37,6.17v-18.84c-3.81-2.21-7.3-4.28-10.37-6.17Z"/>
              <path class="cls-20" d="M126.13,305.91v18.84c19.4-9.96,30.64-16.22,31.09-21.19v-18.84c-.45,4.97-11.72,11.22-31.09,21.19Z"/>
              <path class="cls-20" d="M180.75,232.77c.62-3.59,7.14-5.66,12.54-6.32,4.34-.49,6.94-1.58,8.34-2.41,2.27-1.33,3.42-3.11,3.42-4.97v18.78h0c0,1.88-1.08,3.69-3.4,5.03-1.42.83-4.02,1.92-8.34,2.41h0c-8.16-5.09-13.11-9.17-12.56-12.53Z"/>
              <path class="cls-6" d="M180.75,232.77c.62-3.59,7.14-5.66,12.54-6.32,4.34-.49,6.94-1.58,8.34-2.41,2.27-1.33,3.42-3.11,3.42-4.97v18.78h0c0,1.88-1.08,3.69-3.4,5.03-1.42.83-4.02,1.92-8.34,2.41h0c-8.16-5.09-13.11-9.17-12.56-12.53Z"/>
              <path class="cls-20" d="M165.75,262.68c-5-2.89-15.17-1.75-22.6,2.56-7.43,4.31-9.43,10.15-4.44,13.03,1.43.8,4.09,1.84,8.77,2,1.41.05,2.81.21,4.19.48,5.43-1.27,10.84-1.1,14.07.76,1.92,1.01,3.22,2.9,3.48,5.05v-18.83c-.26-2.16-1.56-4.05-3.48-5.06Z"/>
              <path class="cls-6" d="M165.75,262.68c-5-2.89-15.17-1.75-22.6,2.56-7.43,4.31-9.43,10.15-4.44,13.03,1.43.8,4.09,1.84,8.77,2,1.41.05,2.81.21,4.19.48,5.43-1.27,10.84-1.1,14.07.76,1.92,1.01,3.22,2.9,3.48,5.05v-18.83c-.26-2.16-1.56-4.05-3.48-5.06Z"/>
              <path class="cls-20" d="M176.93,273.35v18.84c6.54-.23,19.15-7.89,34.27-17.49v-18.85c-15.13,9.6-27.73,17.27-34.27,17.49Z"/>
              <path class="cls-20" d="M169.23,267.74v18.84c.33,2.68,2.52,5.78,7.7,5.61v-18.84c-5.18.17-7.36-2.93-7.7-5.61Z"/>
              <path class="cls-12" d="M169.23,267.74v18.84c.33,2.68,2.52,5.78,7.7,5.61v-18.84c-5.18.17-7.36-2.93-7.7-5.61Z"/>
              <path class="cls-14" d="M212.4,255.05v18.85l-1.2-.7v-17.35l-6.27-3.61c-10.68-6.17-19.03-11.15-22.48-15.24v-3.87h0c0,4.63,11.81,11.47,26.7,20.04l3.25,1.87Z"/>
              <path class="cls-22" d="M295.4,207.21c3.26-1.65,6.76-3.4,10.37-5.26-3.85-2.23-7.39-4.35-10.5-6.26-11.14-6.74-18.52-11.2-25.02-10.85-4.04.08-7.65,2.57-9.16,6.32-.91,2.3-2.59,4.21-4.76,5.41-5.8,3.34-15.76,3.03-22.22-.71-6.46-3.74-7.01-9.49-1.21-12.83,1.61-.93,4.55-2.17,9.36-2.74s10.44-2.31,10.91-5.31c.64-3.85-9.1-9.26-21.47-16.11-3.26-1.79-6.64-3.65-10.09-5.65-4.55,3.03-8.83,5.9-12.89,8.7-12.55,8.61-16.95,11.76-23.96,11.97-6.25.17-8.89-3.36-9.24-6.41-.22-1.9-1.35-3.58-3.03-4.5-4.4-2.54-13.41-1.44-20.16,2.46-6.75,3.9-8.64,9.1-4.25,11.63,1.24.71,3.59,1.59,7.8,1.76,5.31.2,11.37,1.73,11.1,5.31-.35,4.13-9.86,8.77-24.16,15.79-4.19,2.04-8.89,4.35-13.79,6.82l3.37,1.96c15.68,9.1,25.17,14.57,33.08,14.13,5.18-.29,8.17-3.57,9.14-6.32.91-2.31,2.61-4.22,4.78-5.41,5.78-3.32,15.74-3.03,22.18.72s7,9.47,1.22,12.79c-1.63.96-4.55,2.19-9.35,2.77-4.8.58-10.44,2.27-10.93,5.31-.76,4.64,11.37,11.61,26.68,20.47l3.24,1.88c4.69-2.77,9.1-5.45,12.96-7.84,13.6-8.34,22.61-14.76,29.82-14.96,6.27-.17,8.89,3.34,9.24,6.41.21,1.91,1.34,3.59,3.03,4.5,4.39,2.54,13.41,1.45,20.13-2.45,6.73-3.9,8.67-9.1,4.28-11.64-1.24-.71-3.59-1.59-7.8-1.77-5.31-.19-11.37-1.71-11.1-5.31.38-4.45,6.36-6.72,22.44-14.79Z"/>
              <path class="cls-21" d="M221.63,155.02c3.03,1.73,5.94,3.35,8.8,4.92l.53.29c6.24,3.47,11.62,6.45,15.47,9.1,4.95,3.42,5.31,4.94,5.22,5.44-.26,1.62-4.48,3.39-9.6,4.01s-8.2,1.94-9.94,2.94c-3.08,1.77-4.77,4.28-4.77,7.07,0,3.12,2.18,6.18,5.98,8.38,3.98,2.16,8.45,3.27,12.97,3.22,3.75.09,7.45-.77,10.77-2.52,2.48-1.37,4.4-3.56,5.43-6.2.83-2.27,3.39-5.07,7.82-5.31h.64c5.94,0,13.32,4.47,23.51,10.62,2.2,1.34,4.99,3.03,8.13,4.88l-4.93,2.49-2.96,1.52c-2.27,1.13-4.29,2.14-6.16,3.03-12.13,6.02-16.68,8.27-17.1,12.94-.1,1.24.33,2.47,1.18,3.38,2.64,2.96,8.84,3.49,11.37,3.58,3.88.17,6.01.95,7.11,1.57.93.41,1.55,1.31,1.6,2.33,0,2.01-2.27,4.63-5.88,6.69-3.98,2.29-8.48,3.53-13.07,3.62-1.93.09-3.84-.32-5.57-1.18-1.27-.66-2.13-1.92-2.27-3.34-.41-3.59-3.36-7.77-10.33-7.77h-.47c-6.45.18-13.96,4.87-24.36,11.37-1.98,1.23-4.03,2.5-6.21,3.84-4.55,2.83-8.46,5.19-12.17,7.38l-2.47-1.43c-7.42-4.28-14.41-8.34-19.24-11.72-6.13-4.33-6.82-6.35-6.7-7.17.28-1.65,4.41-3.38,9.62-4.02,5.05-.61,8.19-1.95,9.93-2.96,3.07-1.77,4.76-4.28,4.76-7.07,0-3.12-2.18-6.17-5.98-8.34-3.98-2.16-8.45-3.27-12.98-3.22-3.73-.09-7.42.77-10.72,2.5-2.49,1.37-4.42,3.57-5.46,6.21-.8,2.27-3.34,5.06-7.79,5.31h-.8c-7.33,0-16.4-5.25-31.42-13.95l-.96-.55c4.05-2.05,7.92-3.95,11.28-5.58,15.32-7.5,24.58-12.03,25.02-17.03.09-1.24-.33-2.46-1.18-3.37-2.62-2.95-8.83-3.5-11.37-3.6-3.87-.15-6.01-.93-7.1-1.52-.94-.41-1.56-1.31-1.61-2.33,0-2.01,2.27-4.63,5.85-6.68,3.99-2.28,8.49-3.53,13.09-3.62,1.92-.09,3.84.31,5.57,1.17,1.27.67,2.12,1.92,2.27,3.35.41,3.58,3.36,7.76,10.33,7.76h.46c7.26-.21,11.72-3.28,23.66-11.47l1.07-.76c3.22-2.21,7.45-5.1,12.13-8.17M221.6,153.27c-4.55,3.03-8.83,5.9-12.89,8.7-12.55,8.55-16.95,11.71-23.96,11.91h-.42c-5.95,0-8.48-3.43-8.83-6.42-.22-1.9-1.35-3.58-3.03-4.5-1.96-.98-4.13-1.45-6.32-1.36-4.86.08-9.62,1.39-13.85,3.79-6.73,3.87-8.64,9.1-4.25,11.63,1.24.71,3.59,1.59,7.8,1.76,5.31.2,11.37,1.73,11.1,5.31-.35,4.13-9.86,8.77-24.16,15.79-4.19,2.04-8.89,4.35-13.79,6.82l3.37,1.96c15.1,8.74,24.46,14.16,32.19,14.16h.89c5.18-.29,8.17-3.57,9.14-6.32.91-2.31,2.61-4.22,4.78-5.41,3.07-1.59,6.5-2.37,9.96-2.27,4.26-.05,8.47,1,12.22,3.03,6.46,3.72,7,9.47,1.22,12.79-1.63.96-4.55,2.19-9.35,2.77-4.8.58-10.44,2.27-10.93,5.31-.76,4.64,11.37,11.61,26.68,20.47l3.24,1.88c4.69-2.77,9.1-5.45,12.96-7.84,13.6-8.34,22.61-14.76,29.82-14.96h.42c5.97,0,8.48,3.42,8.82,6.42.21,1.91,1.34,3.59,3.03,4.5,1.95.99,4.12,1.46,6.31,1.37,4.85-.08,9.61-1.39,13.82-3.79,6.75-3.88,8.67-9.1,4.28-11.64-1.24-.71-3.59-1.59-7.8-1.77-5.31-.19-11.37-1.71-11.1-5.31.37-4.44,6.35-6.7,22.43-14.77,3.26-1.65,6.76-3.4,10.37-5.26-3.85-2.23-7.39-4.35-10.5-6.26-10.72-6.57-17.97-10.91-24.31-10.91h-.76c-4.04.08-7.65,2.57-9.16,6.32-.91,2.3-2.59,4.21-4.76,5.41-3.09,1.61-6.53,2.41-10.01,2.31-4.26.05-8.47-1-12.22-3.03-6.45-3.73-7.01-9.49-1.21-12.83,1.61-.93,4.55-2.17,9.36-2.74s10.44-2.31,10.91-5.31c.64-3.85-9.1-9.26-21.47-16.11-3.26-1.79-6.64-3.65-10.09-5.65l.05.05Z"/>
            </g>
          </g>
          <g id="freepik--Shadows--inject-319">
            <path id="freepik--Shadow--inject-319" class="cls-4" d="M116.64,271.52c7.23-3.41,14.33-7.23,21.8-9.99,6.11-2.27,12.52-3.89,18.17-7.13,2.12-1.12,3.98-2.68,5.44-4.59,1.46-1.94,1.95-4.45,1.33-6.8-.91-2.92-3.54-3.88-6.32-4.02-6.85-.28-13.66,1.49-19.98,4.21s-12.17,6.34-18.01,9.95c-5.42,3.47-11.29,6.19-17.45,8.07-6.5,1.94-13.21,3.54-19.18,6.88-1.57.75-2.89,1.92-3.83,3.38-1.88,3.4,1.27,6.92,4.52,7.62,3.92.74,7.95.73,11.87-.05,7.58-1.31,14.65-4.25,21.64-7.55Z"/>
            <path id="freepik--shadow--inject-319" class="cls-4" d="M239.62,196.62c-1.58-1.89-4.3-2.71-7.14-2.3s-5.44,1.84-7.96,3.24c-4.17,2.33-8.34,4.65-12.3,7.33-2.04,1.39-4.52,2.71-6.2,4.54-1.11,1.23-2.26,2.6-2.44,4.24-.34,2.85,2.13,4.45,4.58,5.06,1.98.44,4.03.48,6.03.13,5.07-.74,9.8-2.92,14.22-5.35,4.15-2.27,8.44-4.51,11.1-8.56.92-1.26,1.44-2.75,1.51-4.29.03-1.47-.47-2.9-1.4-4.05Z"/>
          </g>
          <g id="freepik--Characters--inject-319">
            <g id="freepik--Character--inject-319">
              <g id="freepik--Chartacter--inject-319">
                <g id="freepik--Bottom--inject-319">
                  <path class="cls-14" d="M240.28,175.62c1.86.27,3.56,1.17,4.82,2.56,1.73,2.2,5.56,8.78,6.31,9.51-.42.73-1.01,1.34-1.71,1.8l-2.05-2.31c-.51-.42-.72-.88-.7.48s.22,2.77.18,4.82c0,1.61.31,4.66-2.46,7.75-2.58,2.88-5.35,4.27-7.28,4.54-1.15.16-3.17-.1-3.04-2.41.06-1.21.61-5.21.8-7.42s5.11-19.32,5.11-19.32Z"/>
                  <path class="cls-2" d="M240.83,176.12c-.91-.81-1.66-1.79-2.19-2.89-.5-1.01-3.04-6.61-6.07-14.38-3.92-9.99-10.44-17.36-12.46-21.11-2.27-4.08-4.16-8.36-5.67-12.77l-8.07,5.4-10.69-.19c-.1,1.61.55,3.7,1.74,6.15h0v.06c.1.22.22.45.35.67,2.41,4.68,6.43,10.33,10.97,16.07l.1.14.16.2c4.37,5.53,9.17,11.15,13.36,16.02v-.12c3.37,3.85,6.47,7.93,9.27,12.21,3.79,6.21,3.54,11.65,3.56,14.97,0,2.07,1.61,2.47,3.8.66,2.78-2.19,4.36-5.57,4.23-9.11.47-7.09-.14-9.14-2.38-11.97Z"/>
                  <path class="cls-15" d="M214.19,130.5l-18.56-.35v.88c0,.08,0,.29.04.44s0,.22.06.33l.07.4c0,.13.07.27.1.4l.1.36s0,.08.04.11,4.69,3.21,13.38,4.69c0,0,.27,13.85,2.56,19.44h0l2.58,3.13c.41-8.28-.38-29.85-.38-29.85Z"/>
                  <path class="cls-14" d="M227.2,190.32c1.38,1.42,2.26,3.25,2.52,5.21.26,3-.1,11.19.14,12.3-.74.4-1.57.61-2.41.62l-.47-3.29c-.2-.67-.13-1.21-.85,0s-1.33,2.64-2.45,4.45c-.9,1.44-2.27,4.39-6.27,5.57-3.73,1.1-6.81.73-8.57-.15-1.05-.52-2.6-1.95-1.25-3.94.72-1.06,3.34-4.35,4.71-6.23s14.91-14.52,14.91-14.52Z"/>
                  <path class="cls-2" d="M217.04,190.22c.19-7.84-7.18-43.67-5.2-60.51l21.04-.26c-1.14,4.89-1.86,9.86-2.18,14.87-.35,4.58,1.12,15.06-1.01,26.38-1.09,5.29-1.89,10.63-2.41,16,0,1.21-.13,3.78-.07,4.45.34,3.87-.25,6.07-4.5,12.21-.8,1.18-2.8,5.01-8.5,5.76-2.8.36-3.94-.94-2.84-2.82,1.82-3.01,5.48-8.26,5.66-16.09Z"/>
                  <path class="cls-15" d="M230.71,144.33c-.04,1.78.06,3.55.16,5.33s.16,3.56.22,5.33c.09,3.57-.04,7.14-.39,10.69-.18,1.78-.47,3.54-.8,5.29l-.96,5.22c-.32,1.75-.61,3.49-.88,5.25-.28,1.75-.56,3.5-.73,5.27.22-3.55.62-7.09,1.21-10.6.51-3.52,1.32-6.97,1.61-10.5.21-1.75.31-3.53.41-5.29s.08-3.54.1-5.32,0-3.55-.06-5.33-.03-3.57.14-5.34Z"/>
                  <path class="cls-15" d="M211.54,139.08c-.12-3.13-.02-6.26.31-9.37l21.04-.26c-.58,2.33-1.03,4.7-1.35,7.08h0s-8.08,4.07-20,2.55Z"/>
                  <path class="cls-21" d="M196.01,95.48c.48-4.83,1.24-9.64,2.28-14.38.8-3.63,1.61-6.78,2.18-9.56,6.11,4.07,21.32,4.44,28.31-.14,2.9,4.04,5.38,8.37,7.4,12.91,2.41,5.69,3.4,9.24,3.29,16.3-.1,6.43-2.99,25.45-5.62,33.57-7.11,3.94-32.04,3.04-39.1-4.02,0,0,.42-27.98,1.26-34.68Z"/>
                </g>
                <g id="freepik--Top--inject-319">
                  <g id="freepik--Head--inject-319">
                    <path class="cls-14" d="M202.6,7.81c-.13-.81.01-1.64.4-2.37.88-1.61,2.84-2.36,4.67-2.55,1,0,2-.18,2.93-.55.82-.4,1.38-1.21,2.19-1.72.93-.55,2.02-.75,3.09-.56,1.27.15,2.45.7,3.39,1.57.7.71,1.57,1.24,2.52,1.54,2.29.66,3.93-.16,6.07,1.7,1.3,1.25,1.95,3.03,1.76,4.82,1.61.88,3.91,6.43,1.04,12.85-1.47,3.28-3.35,4.82-5.66,7.62l-2.35.11c-.87-1.96-2.85-1.49-4.71-1.86-1.14-.45-1.8-1.61-2.88-2.11-1.03-.38-2.12-.56-3.21-.54-1.24.03-2.46-.32-3.49-.99-.68-.67-1.18-1.5-1.45-2.41-.24-.57-.67-2.48,0-2.96-1.05.8-3.14,1.22-4.27.39-.71-.53-1.05-1.42-.88-2.29.05-.17.08-.34.09-.51-.05-.36-.26-.67-.58-.84-.31-.19-.64-.31-.94-.51-.84-.69-1.16-1.83-.8-2.85.38-.99,1.06-1.83,1.95-2.41.55-.39,1.19-.8,1.29-1.48.01-.38-.04-.75-.16-1.11Z"/>
                    <path class="cls-2" d="M211.57,37.76l1.22-.21c1.04-.18.9-1.37.95-2.41v-1.61c-1.89.26-3.81-.25-5.32-1.41-2.25-1.79-3.58-5.5-3.56-9.55,0-2.69.66-4.02.59-4.58-.39-3.59-.14-4.24.61-6.14,1.37-3.03,5.12-4.28,6.9-1.17,4.52-3.87,9.92.7,9.98,6.26-.43,4.61.99,4.77,1.89,4.76,1.19-2.92,4.15-3,5.47-1.22,1.21,1.61,1.29,4.19-.8,6.64s-4.43,1.02-4.48.55c0,0-.07,6.19-.06,7.42s.18,1.95,1.73,2.41h0l2.23.63s-.11.16-.35.43c-.52.67-1.67,2.15-3.61,4.66-5.12,2.13-10.07,4.66-14.81,7.55-1.07-2.59-1.98-5.24-2.73-7.95,1.19-1.84,2.58-3.54,4.15-5.07Z"/>
                    <path class="cls-15" d="M216.31,25.63l-3.45,1.09c.25.95,1.22,1.52,2.17,1.27.02,0,.05-.01.07-.02.97-.33,1.5-1.36,1.21-2.34Z"/>
                    <path class="cls-18" d="M216.09,26.43c-.95-.02-1.78.63-1.99,1.55.33.1.68.1,1,0,.67-.22,1.16-.8,1.26-1.5l-.27-.05Z"/>
                    <path class="cls-14" d="M206.54,16.08l2.66-.84c-.19-.72-.93-1.14-1.64-.95-.02,0-.04.01-.06.02-.74.24-1.16,1.02-.96,1.78Z"/>
                    <path class="cls-14" d="M219.27,16.75l-2.63-1.02c.25-.71,1.03-1.07,1.74-.82.01,0,.03,0,.04.01.72.29,1.09,1.09.85,1.82Z"/>
                    <path class="cls-14" d="M209.73,18.71c.04.63-.43,1.17-1.05,1.24-.6.07-1.15-.37-1.22-.97,0-.01,0-.02,0-.03-.04-.63.42-1.18,1.05-1.24.6-.07,1.15.37,1.22.97,0,.01,0,.02,0,.03Z"/>
                    <path class="cls-14" d="M217.99,19.21c.04.64-.43,1.2-1.07,1.27-.62.07-1.17-.38-1.24-.99,0-.01,0-.03,0-.04-.04-.64.43-1.19,1.07-1.26.62-.07,1.17.38,1.24.99,0,.01,0,.02,0,.03Z"/>
                    <path class="cls-15" d="M213.77,33.54c4.42-.43,8.66-1.61,9.75-4.33-.11,1.61-1.08,3.05-2.53,3.76-2.23,1.19-4.71,1.83-7.23,1.87l.02-1.3Z"/>
                    <polygon class="cls-15" points="209.17 22.51 213.24 24.01 213.77 16.37 209.17 22.51"/>
                  </g>
                  <path class="cls-2" d="M194.6,52.56c-4.78,13.44-6.98,19.07-6.98,19.07,0,0-15.31,13.71-17.84,15.53s-7.23,4.66-7.23,4.66c-2.87,1.98-3.89,3.21-4.62,5.06s.39,5.17,1.61,6.63,2.27,2.5,3.82,2.68h0c1.01.13,2.03.11,3.03-.06.36-.18.69-.43,1.07-.58s.98-.18,1.42-.4c.72-.35,1.08-1.16,1.74-1.61.32-.22.69-.34,1-.55.26-.18.49-.39.68-.64.37-.39.56-.92.54-1.45-.05-.22-.13-.43-.23-.63l-.41-.87c-.04-.58.09-1.16.39-1.67.49-.63,2.15-2.7,2.15-2.7h0l.14-.1c.99-.8,1.7-1.61,2.46-2.25,1.28-1.04,2.64-1.97,4.07-2.8,7.57-4.59,12.24-8.09,15.1-9.86s3.27-3.51,5.38-7.13c3.59-6.16,7.57-15.27,7.57-15.27l.31-20.62c-8.75.55-12.04,6.76-15.17,15.55ZM163.45,106.19l.36.05-.36-.05Z"/>
                  <path class="cls-20" d="M178.87,79.2l-3.51,2.92c1.54.89,2.84,2.11,3.82,3.59.92,1.43,1.53,3.04,1.8,4.72l3.9-2.41s0-2.11-1.98-5.08c-1.04-1.54-2.43-2.82-4.04-3.74Z"/>
                  <path class="cls-7" d="M178.87,79.2l-3.51,2.92c1.54.89,2.84,2.11,3.82,3.59.92,1.43,1.53,3.04,1.8,4.72l3.9-2.41s0-2.11-1.98-5.08c-1.04-1.54-2.43-2.82-4.04-3.74Z"/>
                  <path class="cls-14" d="M209.73,36.74c-5.01.67-8.69,1.72-11.68,7.49s-10.49,26.69-10.49,26.69l-10.36,9.38c1.59.89,2.94,2.14,3.96,3.66,1.04,1.63,1.73,3.47,2.02,5.38,0,0,10.08-6.53,13.41-8.62s4.35-4.23,7.74-10.36,5.99-11.05,5.99-11.05l-.58-22.58Z"/>
                  <g id="freepik--Chest--inject-319">
                    <path class="cls-20" d="M212.73,37.56s-1.97,4.1-.63,6.57c6.62-.76,12.21-3.83,14.46-5.91l5.57.88s3.64,6.95,2.51,12.85-5.87,19.43-5.87,19.43c-6.3,9.15-27.74,4.31-28.31.14,0,0-.63-5.19-1.16-9.46,0,0-3-2.88-3.15-6.74-.16-4.02,1.51-6.89,5.62-11.06,2.35-2.45,4.95-4.65,7.75-6.57l3.21-.13Z"/>
                    <path class="cls-7" d="M212.73,37.56s-1.97,4.1-.63,6.57c6.62-.76,12.21-3.83,14.46-5.91l5.57.88s3.64,6.95,2.51,12.85-5.87,19.43-5.87,19.43c-6.3,9.15-27.74,4.31-28.31.14,0,0-.63-5.19-1.16-9.46,0,0-3-2.88-3.15-6.74-.16-4.02,1.51-6.89,5.62-11.06,2.35-2.45,4.95-4.65,7.75-6.57l3.21-.13Z"/>
                    <path class="cls-10" d="M224.71,61.23c-1.13,3.16-4,5.36-7.34,5.62-3.2.37-6.35-1.01-8.26-3.6,0,0,1.16,6.17,8.48,5.09,7.33-1.08,7.12-7.11,7.12-7.11Z"/>
                    <path class="cls-1" d="M225.06,35.87s-5.46,12.72-7.3,18.86-.88,11.04-.19,22.15c.54,8.55,1.47,21.45,1.47,21.45,0,0,16.22-.23,21.2-7.46-1.33-4.25-5.49-14.16-6.56-16.87s-.55-5.11,1.18-11.38,4.52-9.71,4.44-14.35c-.18-3.55-1.8-6.87-4.5-9.18l-9.75-3.21Z"/>
                    <path class="cls-1" d="M213.59,36.91c-.11.31-.36.55-.68.64,0,0-11.01,10.58-11.77,21.54s-1.45,34.97-1.45,34.97c0,0-1.2-.55-3.53-3.09.5-4.98,2.22-24.64,1.75-26.89s-5.83-7.38-.92-14.7,12.74-12.63,12.74-12.63l4.02-.88c.02.36-.04.71-.16,1.04Z"/>
                    <path class="cls-14" d="M208.16,39.59c-.7.63-1.4,1.27-2.06,1.93-1.35,1.31-2.69,2.63-4.02,4.02-.64.69-1.29,1.38-1.9,2.09-.31.35-.62.72-.92,1.09-.36.37-.63.82-.8,1.3-.12.49-.15,1.01-.09,1.51.05.48.14.96.27,1.43.23.87.54,1.72.9,2.54-.77.91-1.4,1.93-1.86,3.04-.06.16-.1.33-.11.5-.02.17-.02.34,0,.51,0,.31.08.62.13.92.1.6.22,1.21.35,1.8.51,2.41,1.12,4.75,1.79,7.1-.47-2.41-.95-4.82-1.38-7.17-.1-.6-.2-1.2-.28-1.8,0-.3-.08-.59-.09-.88-.03-.27,0-.55.1-.8.48-1.08,1.12-2.09,1.9-2.98l.11-.14-.07-.17c-.37-.85-.67-1.72-.9-2.61-.12-.44-.2-.88-.24-1.33-.03-.44.01-.88.14-1.31.15-.4.37-.77.65-1.09.29-.37.59-.72.89-1.08.6-.72,1.24-1.41,1.86-2.1,1.26-1.39,2.54-2.77,3.84-4.12s2.59-2.72,3.97-4.02c-.77.59-1.49,1.21-2.19,1.84Z"/>
                    <path class="cls-14" d="M227.49,54.17v-4.51c-.04-4.02-.09-7.96-.22-11.95-.17,4.02-.25,7.97-.32,11.96v4.85c.02.09.02.19,0,.28-.07.19-.17.37-.31.53-.68.67-1.48,1.19-2.37,1.53-.9.39-1.82.72-2.76.97l-.33.09.12.31c.49,1.2.91,2.44,1.25,3.69.08.31.15.63.2.94.07.28.08.57.04.86v.08l-.06.11-.76,1.54c-.58,1.17-1.17,2.34-1.74,3.53l-1.82,3.54,1.93-3.43c.64-1.14,1.26-2.3,1.89-3.45l.47-.86.23-.43.18-.33.05-.15c.07-.36.07-.73,0-1.08-.04-.33-.11-.66-.19-.99-.31-1.18-.68-2.33-1.12-3.47.87-.24,1.73-.53,2.56-.88.98-.37,1.87-.95,2.59-1.71.2-.23.34-.51.42-.8.04-.15.06-.3.06-.46l.02-.31Z"/>
                  </g>
                  <path class="cls-2" d="M248.23,69.43c.7,5.25.84,6.15.51,9.64-.25,2.62-.52,3.06-1.51,7.83-.99,4.77-3.48,13.48-3.44,14.75.1,1.21.1,2.43,0,3.64-.14,1.44-.47,2.86-1,4.2-.36.92-.59,1.94-1.02,2.84-.38.61-.81,1.18-1.3,1.71-.48.63-.65,1.43-1.25,1.99-1.03.98-2.11,1.12-3.09,1.61-.43.62-1.13,1.94-1.61,2.52-1.21,1.49-1.49-.95-1.45-1.78.07-.89.24-1.77.5-2.62.62-2.15,1.12-4.32,1.49-6.52.06-.39.54-2.01-.1-2-.21.03-.4.14-.53.31-.44.5-.73,1.12-1.12,1.66-.32.42-.66.81-1.04,1.17-.29.33-.65.6-1.04.8-.42.18-1.94.3-2.01-.42,0-.12.03-.23.08-.34.31-.73.69-1.45,1.01-2.18.34-.73.63-1.48.88-2.25.5-2.27,1.43-4.43,2.73-6.36,2.59-3.57,3.13-24.63,3.13-24.63l-3.47-14.51c-1.46-3.9-2.14-8.05-2-12.21.22-6.89,2.8-8.73,2.8-8.73,5.34,2.15,8.25,3.82,9.64,8.74s3.74,17.58,4.21,21.11Z"/>
                  <path class="cls-20" d="M236.09,88.45l-.4,4.13s1.81-.5,5.56.55c2.96.84,4.02,2.31,4.02,2.31l.97-4.02s-3.14-3.36-10.15-2.97Z"/>
                  <path class="cls-7" d="M236.09,88.45l-.4,4.13s1.81-.5,5.56.55c2.96.84,4.02,2.31,4.02,2.31l.97-4.02s-3.14-3.36-10.15-2.97Z"/>
                  <path class="cls-14" d="M248.94,73.19c-.15-1.25-.93-7.78-2.87-17.33-1.83-9.08-2.27-10.09-3.85-12.18-1.33-1.75-2.7-3.05-7.38-4.6,0,0-3.81,2.27-3.9,8.26-.09,5.7,2.36,13.66,2.36,13.66l3.3,14.71-.8,14.65c2.55-.89,8.77.53,10.09,3.05,0,0,1.61-6.01,2.6-10.66.69-3.14.83-6.37.44-9.56Z"/>
                </g>
              </g>
            </g>
            <g id="freepik--character--inject-319">
              <g id="freepik--Arm--inject-319">
                <path id="freepik--arm--inject-319" class="cls-17" d="M86.04,126.67l4.88-18.09c2.25-9.29-.67-21.03-.67-21.03-4.17.49-7.87,2.41-9.89,7.67s-4.97,23.3-5.68,27.23c-.63,3.39-.77,6.85-.4,10.28.36,4.38,2.56,12.24,3.44,16.53.4,1.98.65,3.9.92,5.93.41,2.08.97,4.13,1.67,6.13.3.97.85,1.84,1.61,2.52.47.44,1.12.52,1.61.94s.52,1.1,1.16,1.45,1.53.2,2.14.6c.6.49,1.23.94,1.88,1.36.61.2,1.16.55,1.61,1.02.39.47.74,1.49,1.48,1.45s1-.8,1.08-1.53c.04-1.35-.36-2.68-1.14-3.79-.67-1.22-1.41-2.41-2.23-3.54-.8-1.06-1.35-2.28-1.61-3.58-.22-.86-.09-1.95.99-1.41,1.28.65,2.6,1.96,4.16,1.76,1.09-.13,1.19-.98.59-1.72-.98-1.22-1.87-2.51-2.66-3.86-.8-1.37-1.46-2.83-2.31-4.18-.46-.7-.96-1.37-1.51-2.01-1.49-1.8-1.32-4.15-1.4-6.33-.16-3.06.16-9.91.3-13.83Z"/>
                <path class="cls-16" d="M75.44,140.61l.96,4.41s1.68,1.04,5.17.56,4.57-1.61,4.57-1.61l-.2-4.64-10.5,1.28Z"/>
                <path class="cls-21" d="M88.97,85.17c-6.06.74-8.19,4.5-10.03,10.65-1.9,6.32-3.94,20.66-4.45,23.65-.79,3.61-1.09,7.32-.89,11.02.43,3.9,1.09,7.78,1.97,11.61,0,0,1.61.9,5.01.73,4.72-.24,5.62-1.7,5.62-1.7l.31-14.38,6.74-22.54-4.27-19.03Z"/>
              </g>
              <g id="freepik--bottom--inject-319">
                <path class="cls-14" d="M160.26,239.54c.44-.2.8.96.7,1.61-.31,1.89-2.04,4.39-5.11,6.27s-9.83,3.17-11.81,3.76c-1.98.59-5.05,2.78-6.89,3.78-3.37,1.81-6.13,1.61-7.66.8-.55-.37-.92-.95-1.03-1.61-.4-1.43-.37-1.76-.22-1.8l32.02-12.81Z"/>
                <path class="cls-1" d="M127.34,248.09c.18,1.79.61,3.55,1.27,5.23.78.81,1.87,1.22,2.99,1.13,2.56,0,4.82-.94,7.18-2.41,1.5-1,3.14-1.78,4.86-2.32,2.06-.57,6.68-1.61,8.72-2.27,1.92-.62,3.68-1.64,5.17-2.99,1.14-1.11,2.73-3.25,2.84-4.5-.35-2.7-1.06-4.14-2.72-4.53s-3.94.13-6.93.89c-.9.22-2.02.55-2.51.65-1.83.39-3.53.8-4.9,1.19-1.13.4-2.34.52-3.54.36-.55-.07-1.06-.33-1.43-.74-.48-.56-.8-1.52-1.33-1.39,0,0-9.46,5.19-10.24,5.55s.14,1.64.56,6.15Z"/>
                <path class="cls-22" d="M148.97,236.64c.38.15.73.38,1.02.67.31.32.58.68.8,1.06.3.49-.3.8-.74.28-.34-.45-.73-.86-1.16-1.22-.3-.24-.68-.37-1.07-.35l-.52.12c.05-.45,1.21-.7,1.67-.56Z"/>
                <path class="cls-22" d="M144.28,237.62c.33-.15.71-.15,1.04,0,.42.19.79.49,1.05.87.33.46.63.95.89,1.45.14.33-.63.58-.8.23-.24-.45-.51-.89-.8-1.31-.16-.21-.84-.98-1.41-.89l-.24.06c-.04-.11.09-.25.18-.31l.09-.1Z"/>
                <path class="cls-22" d="M141.61,238.44c.24-.03.49.02.69.16.26.19.49.43.67.69.33.49.59,1.04.76,1.61.14.43-.66.58-.8.29-.21-.78-.62-1.49-1.19-2.06-.25-.24-.56-.42-.89-.51,0-.09.1-.14.18-.15s.45-.03.58-.03Z"/>
                <path class="cls-17" d="M123.03,230.93s2.97,9.47,3.88,11.63c.29.69,1.66.54,2.41.62.93.05,1.84.25,2.7.6,2.23,1.19,3.62,1.16,3.69-2.25-.06-.61.39-1.16,1.01-1.22.04,0,.08,0,.12,0,.62.01,1.24-.1,1.82-.33.07-.1,0-.22-.11-.29-.75-.52-1.24-1.33-1.36-2.23-.92-4.02-1.41-7.54-2.41-12.53l-11.74,5.99Z"/>
                <path class="cls-14" d="M115.88,137.23s4.54,5.71,7.28,16.4c2.47,9.94,4.35,20.02,5.62,30.19.66,4.55,1.14,7.79,2.31,16.07,1.01,6.94,5.36,32.57,5.36,32.57,0,0-3.17,2.88-5.82,3.94-2.47.98-4.77,1.37-5.68.98,0,0-3.05-8.24-6.83-19.02-1.82-4.97-3.28-10.08-4.35-15.27-.49-2.67-.37-7.41-.32-9.8l-20.29-32.94c-1.65-2.06-2.93-4.38-3.78-6.87-2.67-7.04.74-17.18.74-17.18l25.77.93Z"/>
                <path d="M95.92,146.48h24.91c.93,2.33,1.71,4.72,2.33,7.15,2.31,9.15,4.08,18.43,5.32,27.79-.61,4.29-1.29,8.69-1.93,11.71-1.68,7.99-2.72,13.66-4.02,16.93-1.28,2.8-2.8,5.48-4.55,8.01-1.78-4.86-3.19-9.84-4.24-14.91-.49-2.67-.37-7.41-.32-9.8l-14.72-23.96-1.15-7.41c-3.78-6.45-3.36-11.29-1.63-15.51Z"/>
                <path class="cls-17" d="M84.24,244.29c1.42-2.41,2.71-6.12,5.85-15.5l11.7,9.64-7.23,12.09c-.23.62-.4,1.27-.53,1.92-1.55,2.33-9.79-8.15-9.79-8.15Z"/>
                <path class="cls-1" d="M79.93,249.4c0-.14-.05-1.27,0-1.41.31-1.21,1.02-1.55,1.94-2.23.93-.66,1.78-1.42,2.54-2.27.31-.45.36-.68.84-.88,1.26-.41,2.64-.22,3.74.51,2.64,1.45,3.44,3.21,3.29,5.11-.12,1.45-.23,3.38.98,4.24.51.36,1.31-1.96,1.31-1.96.75,1.33-.31,3.16-.85,5.83-.32,1.48-.35,3.01-.08,4.5.27,2.35.58,2.34,1.77,2.51,1.02.14,3.92-.06,5.69,1.23,1.39.89,2.1,2.54,1.78,4.16-.32.9-2.96,5.28-12.62,3.65-2.8-.47-8.69-5.11-8.6-5.54.05-.44.05-.89,0-1.33,0-1.04-.07-2.07-.11-3.12.03-.99-.02-1.98-.17-2.96-.18-.81-.3-1.63-.36-2.45l-.55-6.25c-.09-.6-.59-.74-.52-1.33Z"/>
                <path d="M78.72,248.99c-.96.96-.37,3.78.91,7.15.56,1.5,1.61,4.07,1.31,6.81s-.36,4.02.31,5.32c1.05,2.01,6.67,4.58,9.98,5.38-2.01-2.98-3.18-6.45-3.37-10.04-.33-6.05-.8-9.95-3.4-12.63-3.33-3.39-5.74-1.99-5.74-1.99Z"/>
                <path class="cls-14" d="M102.86,268.74s-1.94,3.81-9.42,3.69c-2.94-.05-4.52-1.56-4.59-6.26-.09-5.66-.52-11.38-2.27-14.2s-4.52-4.18-6.68-3.98c-.51.17-.94.52-1.2,1,0,0,2.15-.75,5.51,2.18,2.47,2.16,3.14,6.67,3.11,12.28,0,2.41-.16,5.14.51,6.97.6,1.6,1.92,2.83,3.57,3.3,4.07,1.2,9.64-.8,11.03-2.58.48-.7.63-1.58.41-2.4Z"/>
                <path class="cls-22" d="M93.88,262.32c.31.23.52.56.6.93.08.97-.37,1.91-1.17,2.46-.45.3-.8.19-.13-.8.46-.78.7-1.68.7-2.59Z"/>
                <path class="cls-22" d="M93.48,259.39s.23.16.3.95c0,.42-.59,2.12-1.38,2.52s-.36-.55,0-1.01c.53-.73.9-1.57,1.08-2.46Z"/>
                <path class="cls-22" d="M93.74,256.15s.26.08,0,1.16c-.35.67-.92,1.19-1.61,1.5-.51.06-.76-.21-.13-.68.45-.37,1.64-1.45,1.74-1.98Z"/>
                <path class="cls-14" d="M100.14,137.23c-1.19,1.28-4.14,5.55-4.61,12.13-.19,4.29,1.09,8.52,3.64,11.99.95,14.58.93,42.13.93,42.13-3.3,4.7-5.74,9.95-7.23,15.5-1.31,4.31-6.15,19.18-6.15,19.18,7.92-1.12,10.68,8.11,10.68,8.11,0,0,8.27-13.08,14.97-23.3,4.92-7.5,8.22-13.1,9.7-17.52,1.36-4.07,2.34-8.99,3.66-18.48,1.33-9.49,2.62-22,3.27-31.33s.27-22.84.27-22.84l-29.13,4.44Z"/>
                <path d="M88.37,148.67c1.07-.38,2-1.07,2.67-1.99.32-.65.55-1.35.68-2.06.28-1.2.66-2.37,1.12-3.5l.68.32c-.45,1.1-.81,2.23-1.08,3.38-.16.79-.43,1.56-.8,2.28-.78,1.12-1.91,1.95-3.21,2.36-.02-.27-.05-.53-.06-.79Z"/>
                <path d="M106.2,157.01c-.16,0-.32-.01-.47-.05-1.09-.26-1.94-1.02-3.63-3.29-1.28-1.73-1.15-2.96-.93-5.02.08-.76.8-4.82.88-5.85l.72.42c-.06,1.09-.8,4.76-.86,5.52-.22,2.04-.31,2.97.8,4.45,1.56,2.1,2.31,2.8,3.21,3s4.67-.46,5.69-1.2c.58-.43,1.57-5.7,2.14-10.34l.75.1c-.29,2.35-1.33,10.07-2.46,10.89-1.05.75-4.32,1.42-5.84,1.37Z"/>
              </g>
              <g id="freepik--top--inject-319">
                <polygon class="cls-17" points="111.14 80.31 109.77 90.35 96.13 89.66 97.6 78.78 111.14 80.31"/>
                <path class="cls-18" d="M116.57,61.52c1.04,1.33,4.25,4.96,4.82,5.91l-3.06,1.86-1.76-7.76Z"/>
                <path class="cls-17" d="M108.99,51.42c4.21-.45,6.95,2.54,8.17,11.51.05.35.57.91.96,2.25,1.69,5.76.75,11.25-.23,12.7-2.41,1.96-5.16,2.69-9.09,2.36-3-.26-10.65-1.17-14.53-5.21-4.56-4.79-6.83-11.94-3.62-15.67,4.56-5.24,16-7.69,18.33-7.94Z"/>
                <path class="cls-18" d="M117.89,77.88c-.54.8-4.39,2.78-6.82,2.94l.22-1.89c2.24-.06,4.45-.41,6.6-1.05Z"/>
                <path class="cls-14" d="M109.82,67.15c-.14.42-.59.65-1.01.51-.16-.05-.29-.15-.39-.28-.45-.65-.96-1.25-1.54-1.78-.73-.61-1.66-.92-2.6-.88-3.54.27-2.68,4.93-.94,6.55,2.84,2.66,4.35.36,4.35.36,0,0,2.04,4.52-.93,7.15,0,0-5.13,2.22-9.17.96-2.88-2.23-5.4-4.87-7.5-7.85-4.82-6.63-4.39-13.43-1.3-15.27-.18-2.35,1.1-5.89,5.93-7.93,4.6-1.94,7.68-1.75,11.01-1.61s7.42,1.7,10.51-.88c.77,1.89.58,4.04-.51,5.76,1.04-.5,2.29-.06,2.79.98s.06,2.29-.98,2.79c.69.38,1.01,1.2.75,1.94-.27.73-.95,1.23-1.73,1.29-.7.04-1.4,0-2.09-.14-.97,2.72-4.02,3.67-5.87,3.55.06,0,.29.38.32.43s.2.31.29.47c.18.32.32.66.43,1.01.23.7.32,1.45.26,2.19.02.22,0,.45-.07.67Z"/>
                <path class="cls-1" d="M88.97,85.17c-3.54,1.98-5.74,7.51-4.97,15.52.91,9.55,2.41,11.62,3.49,19.59.62,4.13.91,8.3.88,12.48,0,3.8-.51,11.48-.51,11.48,0,0,4.74,5.87,17.76,6.64,16.62.98,23.98-3.04,23.98-3.04,0,0,.1-17.18-.3-27.9-.59-15.91-.63-20.56-3.12-25.98-.8-1.61-1.68-5.16-4.39-5.87-2.15-.55-9.44-2.22-11.4-2.51-3.21.8-11.55.89-13.61-.87v-.46c-3.17.17-7.83.92-7.83.92Z"/>
                <path class="cls-14" d="M94.11,84.48c2.12-1.9,2.41-2.15,3.05-2.41l-.13.96s.43,1.14,4.45,1.54c7,.7,9.2-.89,9.2-.89l.07-.59c.68-.04,1.34.19,1.85.63,1.14.8,3.7,3.11,3.7,3.11l-1.82-.4s-4.08,3.56-14.06,2.15c-6.94-1.02-6.3-4.1-6.3-4.1Z"/>
                <path class="cls-17" d="M175.53,94.34c-.32.16-.66.27-1.01.35-2.85.86-5.87.96-8.77.29-.43-.06-.81-.31-1.02-.69-.07-.26-.07-.54,0-.8l.34-1.99c.17-.82.24-1.66.18-2.49-.03-.53-.24-1.03-.59-1.42-.38-.36-.65-.47-1.11-.21-.29.34-.49.75-.57,1.2-.55,1.82-1.42,2.59-2.41,4.71s-1.7,3.47-5.2,6.43c-1.24,1.04-13.18,9.02-13.18,9.02,0,0-1.43-1.66-8.58-10.95-4.88-6.35-6.35-7.84-11.03-8.84,0,0-5.55,6.52-1.52,16.94,1.47,2.8,9.91,11.41,13.1,14.16,5.25,4.54,8.14,6.18,11.91,2.76,4.07-3.7,7.23-7.56,10.67-11.34,2.96-3.21,4.25-4.39,6.63-5.25,2.61-1.07,5.03-2.56,7.16-4.42.45-.36.85-.78,1.18-1.25.3-.46.49-.98.8-1.43.59-.69,1.22-1.34,1.89-1.96.61-.65,1.02-1.46,1.17-2.34-.03-.15.02-.36-.04-.47Z"/>
                <path class="cls-16" d="M152.47,101.64l3.16-2.35c1.67.47,3.12,1.52,4.09,2.96.96,1.48,1.59,3.14,1.86,4.88l-2.41,2.13-6.69-7.62Z"/>
                <path class="cls-21" d="M122,88.16c4.76,1.02,6.43,1.55,8.84,4.47s11.33,15.5,11.33,15.5l11.25-7.48c1.66.62,3.12,1.67,4.24,3.05,1.23,1.56,1.97,3.45,2.1,5.43,0,0-7.23,8.03-11.47,12.2s-6.21,4.97-10.77,1.94-14.58-13.12-14.58-13.12c0,0-8.66-12.06-.94-21.98Z"/>
                <path class="cls-2" d="M163.33,106.18c.59-.17,1.1-.53,1.46-1.02.46-.87,1.09-1.4,1.29-2.36.06-.36.14-.72.27-1.07.25-.53.62-1.01,1.08-1.38.41-.39.73-.8,1.17-1.21.21-.18.59-.36.84-.11.1-.37.25-.72.47-1.04.23-.32.88-.88,1.28-.51.11.1.19.23.24.37.39.8.76,1.61,1.15,2.41.11.2.18.41.23.63.03.54-.17,1.06-.54,1.45-.19.25-.42.46-.68.64-.31.22-.68.34-1,.55-.65.44-1.02,1.25-1.74,1.61-.44.22-.96.22-1.42.4s-.71.4-1.07.58c-1,.17-2.02.19-3.03.06Z"/>
                <path class="cls-2" d="M163.33,106.18c.59-.17,1.1-.53,1.46-1.02.46-.87,1.09-1.4,1.29-2.36.06-.36.14-.72.27-1.07.25-.53.62-1.01,1.08-1.38.41-.39.73-.8,1.17-1.21.21-.18.59-.36.84-.11.1-.37.25-.72.47-1.04.23-.32.88-.88,1.28-.51.11.1.19.23.24.37.39.8.76,1.61,1.15,2.41.11.2.18.41.23.63.03.54-.17,1.06-.54,1.45-.19.25-.42.46-.68.64-.31.22-.68.34-1,.55-.65.44-1.02,1.25-1.74,1.61-.44.22-.96.22-1.42.4s-.71.4-1.07.58c-1,.17-2.02.19-3.03.06Z"/>
              </g>
            </g>
            <g id="freepik--Thumb--inject-319">
              <path class="cls-2" d="M175.36,89.13c-1.61,1.1-3.17,1.02-5.37,1.05-.7-.01-1.41.03-2.1.13-.26.04-.51.11-.75.2-.29.17-.56.36-.8.58-1.16.8-2.66,1.26-3.46,2.49-.47.71-.62,1.61-1.08,2.3-.22.28-.41.57-.59.88-.17.32-.15.7.05,1,.11.13.25.22.41.28.56.23,1.19.25,1.77.06,1.17-.4,1.86-1.61,2.85-2.34.77-.54,1.64-.92,2.55-1.11.42-.12.84-.22,1.27-.28.34,0,.68.03,1.02.09,1.49.13,4.24-5.33,4.24-5.33Z"/>
            </g>
          </g>
          <g id="freepik--light-bulb--inject-319">
            <g id="freepik--light-bulb--inject-319-2" data-name="freepik--light-bulb--inject-319">
              <g id="freepik--Bulb--inject-319">
                <g id="freepik--Socket--inject-319">
                  <path class="cls-14" d="M155.06,65.2c-1.03-.58-1.04-1.52,0-2.14,1.16-.61,2.54-.62,3.71-.05,1.03.58,1.05,1.52,0,2.14-1.16.6-2.53.62-3.71.05Z"/>
                  <path class="cls-14" d="M159.38,64.57h-.42c-.13-.23-.32-.42-.55-.54-.96-.47-2.09-.46-3.03.05-.23.12-.42.31-.54.55h-.42l.5.76h0c.13.18.29.32.49.42.96.48,2.09.46,3.03-.04.19-.11.35-.26.48-.43h0l.48-.77Z"/>
                  <path class="cls-21" d="M154.16,64.52c-1.52-.86-1.52-2.27,0-3.16,1.71-.89,3.74-.91,5.47-.06,1.52.86,1.52,2.27,0,3.16-1.71.89-3.74.91-5.47.06Z"/>
                  <path class="cls-1" d="M154.06,64c-1.58-.89-1.59-2.36-.04-3.28,1.78-.93,3.89-.95,5.69-.06,1.58.89,1.59,2.36,0,3.28-1.77.92-3.86.94-5.65.06Z"/>
                  <path class="cls-21" d="M153.98,63.44c-1.62-.91-1.64-2.42-.04-3.37,1.82-.94,3.98-.97,5.82-.06,1.62.92,1.64,2.42.04,3.37-1.82.95-3.98.97-5.82.06Z"/>
                  <path class="cls-1" d="M153.9,62.87c-1.65-.93-1.68-2.48,0-3.45,1.87-.97,4.09-.99,5.98-.06,1.65.93,1.68,2.48,0,3.45-1.87.97-4.09.99-5.98.06Z"/>
                  <path class="cls-21" d="M153.85,62.3c-1.7-.96-1.71-2.54-.04-3.53,1.91-1,4.18-1.02,6.11-.06,1.7.96,1.71,2.53.04,3.53-1.91,1-4.18,1.02-6.11.07Z"/>
                  <path class="cls-1" d="M153.75,61.72c-1.74-.98-1.76-2.59-.04-3.61,1.96-1.02,4.28-1.04,6.26-.07,1.74.98,1.75,2.6.04,3.62-1.96,1.02-4.28,1.04-6.26.06Z"/>
                </g>
                <path class="cls-20" d="M161.43,57.55c-.08-.83-.61-1.55-1.37-1.87-2.07-1.03-4.5-1-6.55.07-.76.34-1.27,1.07-1.33,1.9v1.57c.08.83.61,1.56,1.38,1.88,2.07,1.02,4.5,1,6.54-.07.76-.34,1.27-1.08,1.33-1.91.05-.27.04-1.3,0-1.57Z"/>
                <path class="cls-20" d="M156.5,25.99c-7.68.08-13.85,6.36-13.78,14.04.11,11.06,9.25,12.8,9.3,17.25.08.86.63,1.61,1.43,1.95,2.15,1.07,4.69,1.04,6.82-.07.79-.36,1.32-1.12,1.39-1.98h0c-.05-4.46,9.05-6.38,8.94-17.44-.1-7.69-6.41-13.84-14.1-13.75Z"/>
                <path class="cls-8" d="M156.5,25.99c-7.68.08-13.85,6.36-13.78,14.04.11,11.06,9.25,12.8,9.3,17.25.08.86.63,1.61,1.43,1.95,2.15,1.07,4.69,1.04,6.82-.07.79-.36,1.32-1.12,1.39-1.98h0c-.05-4.46,9.05-6.38,8.94-17.44-.1-7.69-6.41-13.84-14.1-13.75Z"/>
                <path class="cls-20" d="M154.01,58.98c-1.58-.89-1.59-2.36-.04-3.28,1.78-.92,3.89-.94,5.69-.05,1.58.89,1.59,2.36,0,3.28-1.77.92-3.86.94-5.65.06Z"/>
                <path class="cls-3" d="M154.01,58.98c-1.58-.89-1.59-2.36-.04-3.28,1.78-.92,3.89-.94,5.69-.05,1.58.89,1.59,2.36,0,3.28-1.77.92-3.86.94-5.65.06Z"/>
                <path class="cls-11" d="M160.36,58.37c-.2.21-.43.38-.67.52-1.77.93-3.89.95-5.68.06-.25-.13-.48-.3-.68-.51.19-.21.42-.39.67-.53,1.78-.93,3.89-.95,5.69-.06.25.14.48.31.68.52Z"/>
                <path class="cls-20" d="M160.36,58.37c-.2.21-.43.38-.67.52-1.77.93-3.89.95-5.68.06-.25-.13-.48-.3-.68-.51.19-.21.42-.39.67-.53,1.78-.93,3.89-.95,5.69-.06.25.14.48.31.68.52Z"/>
                <path class="cls-9" d="M160.36,58.37c-.2.21-.43.38-.67.52-1.77.93-3.89.95-5.68.06-.25-.13-.48-.3-.68-.51.19-.21.42-.39.67-.53,1.78-.93,3.89-.95,5.69-.06.25.14.48.31.68.52Z"/>
                <path class="cls-9" d="M167.5,33.2c-.88-1.31-2.27-2.37-3.88-1.66-.17.08-.34.18-.49.3-.53.48-.78,1.2-.66,1.9.21,1.35,1.52,2.18,2.27,3.22.84,1.14,1.47,2.43,1.86,3.79.11.5.27.98.48,1.44.28.48.88.68,1.39.45.51-.34.83-.9.88-1.52.45-2.78-.21-5.63-1.85-7.92ZM167.87,43.54c-.51-.01-.97.32-1.11.8-.13.42-.08.87.15,1.24.27.41.81.52,1.23.27.41-.27.65-.72.65-1.21.02-.54-.36-1.01-.89-1.11h-.03Z"/>
                <path class="cls-21" d="M158.47,58.66h-.17c-.05-4.96.2-8.07.86-10.4.16-.6.39-1.18.66-1.74-1.16-.37-2.22-.99-3.12-1.8-.89.84-1.94,1.48-3.09,1.87.29.55.52,1.13.7,1.73.7,2.27,1.02,5.41,1.08,10.37h-.17c-.05-4.94-.37-8.03-1.06-10.33-.18-.6-.41-1.18-.71-1.73-.15.05-.31.08-.46.11-1.62.29-2.56-.17-2.91-.69-.25-.36-.25-.84,0-1.2.24-.36.68-.53,1.1-.45.71.1,1.59.7,2.34,2.04,1.13-.39,2.17-1.01,3.03-1.84-.17-.17-.33-.35-.46-.55-.63-.75-.8-1.78-.45-2.69.28-.55.95-.77,1.5-.49.21.11.38.28.49.49.37.9.22,1.94-.39,2.7-.14.2-.29.39-.45.56.91.8,1.97,1.39,3.13,1.74.76-1.35,1.59-1.97,2.27-2.09.42-.1.86.07,1.11.42.26.35.28.82.05,1.19-.34.53-1.27,1.01-2.9.76-.15,0-.31-.06-.46-.1-.28.56-.51,1.14-.67,1.74-.64,2.34-.92,5.41-.84,10.35ZM160.06,46.42l.41.08c1.52.24,2.43-.2,2.74-.68.22-.3.22-.71,0-1.02-.22-.3-.59-.44-.96-.36-.66.13-1.5.69-2.19,1.97h0ZM150.96,44.55c-.3,0-.59.14-.76.39-.21.31-.21.72,0,1.02.33.48,1.21.89,2.75.62.14-.02.27-.05.41-.09-.76-1.27-1.57-1.84-2.2-1.93l-.2-.02ZM156.64,40.91c-.36,0-.69.21-.84.54-.31.86-.14,1.82.43,2.53.13.19.28.36.45.52.16-.16.31-.34.44-.53.56-.72.71-1.68.39-2.54-.17-.32-.5-.52-.86-.52h0Z"/>
              </g>
              <path class="cls-20" d="M156.88,23.53c-.29,0-.52-.23-.52-.52h0v-5.21c0-.29.23-.52.52-.52s.52.23.52.52v5.21c0,.29-.23.52-.52.52h0Z"/>
              <path class="cls-20" d="M165.44,25.84c-.09,0-.18-.02-.27-.07-.26-.14-.35-.46-.21-.72,0-.01.01-.03.02-.04l2.6-4.55c.14-.25.47-.34.72-.19.25.14.34.47.19.72h0l-2.6,4.51c-.07.19-.25.33-.45.34Z"/>
              <path class="cls-20" d="M171.69,32.12c-.19,0-.36-.1-.45-.26-.14-.25-.06-.57.19-.72l4.51-2.61c.25-.14.57-.06.72.19.14.25.06.57-.19.72h0l-4.5,2.61c-.08.04-.17.07-.27.07Z"/>
              <path class="cls-20" d="M179.17,40.68h-5.21c-.29,0-.52-.24-.52-.52,0-.29.23-.52.52-.52h5.21c.29,0,.52.24.52.52,0,.29-.23.52-.52.52Z"/>
              <path class="cls-20" d="M176.16,51.84c-.09,0-.18-.02-.27-.07l-4.55-2.6c-.26-.14-.35-.46-.21-.72,0-.01.01-.03.02-.04.15-.25.46-.33.71-.19l4.55,2.6c.25.14.34.45.2.7,0,0,0,0,0,.01-.08.18-.26.29-.45.3Z"/>
              <path class="cls-20" d="M137.49,51.78c-.19,0-.36-.1-.45-.27-.14-.25-.06-.57.19-.71l4.49-2.61c.24-.16.56-.11.73.13s.11.56-.13.73c-.02.02-.05.03-.07.04l-4.5,2.61c-.07.05-.16.07-.24.08Z"/>
              <path class="cls-20" d="M139.73,40.6h-5.21c-.29-.03-.5-.3-.46-.59.03-.24.22-.43.46-.46h5.21c.29,0,.52.23.52.52,0,.29-.23.52-.52.52h0Z"/>
              <path class="cls-20" d="M142.04,32.05c-.09,0-.18-.02-.27-.07l-4.55-2.6c-.26-.14-.35-.46-.21-.72,0-.01.01-.03.02-.04.15-.25.46-.33.71-.19l4.55,2.6c.25.14.34.46.2.71-.09.16-.27.26-.45.26v.04Z"/>
              <path class="cls-20" d="M148.32,25.8c-.19,0-.36-.1-.45-.27l-2.61-4.47c-.15-.25-.06-.57.19-.72.25-.15.57-.06.72.19l2.61,4.55c.14.25.06.57-.19.71-.09.02-.18.02-.27,0Z"/>
            </g>
          </g>
          <g id="freepik--speech-bubbles--inject-319">
            <g id="freepik--speech-bubble--inject-319">
              <g id="freepik--speech-bubble--inject-319-2" data-name="freepik--speech-bubble--inject-319">
                <path class="cls-13" d="M61.01,31.44c4.78,2.76,8.33,7.23,9.92,12.51l.59,2.42c2.16,11.81-5.67,23.13-17.47,25.28-10.47,1.91-20.78-4.04-24.37-14.06l-.71-2.38c-2.74-11.69,4.51-23.38,16.2-26.12,5.38-1.26,11.05-.42,15.84,2.35Z"/>
                <path class="cls-13" d="M29.69,38.52c-6.5,11.29-2.62,25.71,8.67,32.21,9.99,5.75,22.68,3.44,30-5.47l7.25,1.11c.74.12,1.44-.39,1.56-1.14.06-.38-.05-.78-.29-1.08l-4.6-5.7c4.53-12.21-1.69-25.79-13.91-30.32-10.81-4.01-22.94.38-28.68,10.39ZM60.98,31.42c4.78,2.75,8.34,7.22,9.94,12.5l.59,2.42c2.17,11.8-5.64,23.13-17.44,25.3-10.46,1.92-20.77-4-24.38-14.01l-.71-2.39c-2.75-11.69,4.5-23.39,16.18-26.14,5.37-1.26,11.03-.44,15.82,2.32Z"/>
              </g>
              <g id="freepik--Check--inject-319">
                <path class="cls-20" d="M46.84,62.77c-.94,0-1.85-.39-2.49-1.08l-7.73-8.26c-1.29-1.38-1.21-3.55.17-4.83s3.55-1.21,4.83.17l5.02,5.36,11.85-15.04c1.23-1.43,3.38-1.6,4.81-.37,1.35,1.16,1.59,3.16.54,4.6l-14.33,18.2c-.62.78-1.54,1.25-2.53,1.3l-.14-.04Z"/>
              </g>
            </g>
            <g id="freepik--speech-bubble--inject-319-3" data-name="freepik--speech-bubble--inject-319">
              <g id="freepik--speech-bubble--inject-319-4" data-name="freepik--speech-bubble--inject-319">
                <path class="cls-13" d="M280.95,14.81c-5.15-1.98-10.86-1.92-15.97.16l-2.27,1.06c-10.55,5.71-14.47,18.9-8.76,29.45,5.09,9.4,16.26,13.7,26.34,10.14l2.27-.95c10.81-5.22,15.34-18.21,10.13-29.02-2.41-4.98-6.62-8.86-11.79-10.85h.05Z"/>
                <path class="cls-13" d="M281.65,13.11c-10.75-4.15-22.92.05-28.81,9.95h-7.32c-.76,0-1.37.61-1.37,1.37,0,.39.16.76.45,1.02l5.41,4.93c-2.61,12.76,5.61,25.23,18.38,27.84s25.23-5.61,27.84-18.38c2.31-11.28-3.86-22.57-14.59-26.73h.02ZM293.42,42.97c-1.99,5.15-5.87,9.34-10.84,11.72l-2.27.96c-11.33,3.95-23.72-2.03-27.67-13.37-3.51-10.06.8-21.18,10.17-26.26l2.27-1.06c11.15-4.46,23.8.97,28.26,12.12,2.04,5.1,2.07,10.77.1,15.89Z"/>
              </g>
              <g id="freepik--check--inject-319">
                <path class="cls-20" d="M269.86,47.61c-.94,0-1.84-.39-2.49-1.07l-7.75-8.24c-1.23-1.43-1.07-3.58.36-4.81,1.34-1.16,3.34-1.09,4.61.14l5.03,5.31,11.84-15.07c1.16-1.48,3.3-1.74,4.78-.58s1.74,3.3.58,4.78l-14.29,18.2c-.61.78-1.54,1.26-2.53,1.3l-.14.03Z"/>
              </g>
            </g>
          </g>
        </g>
      </g>
    </g>
  </g>
</svg>